<svg xmlns="http://www.w3.org/2000/svg" xmlns:xlink="http://www.w3.org/1999/xlink" width="81.445" height="67.124" viewBox="0 0 81.445 67.124">
  <defs>
    <linearGradient id="linear-gradient" y1="0.503" x2="1" y2="0.503" gradientUnits="objectBoundingBox">
      <stop offset="0.01" stop-color="#fbf2f1"/>
      <stop offset="1" stop-color="#e0cecd"/>
    </linearGradient>
    <linearGradient id="linear-gradient-2" x1="-0.001" y1="0.498" x2="1" y2="0.498" gradientUnits="objectBoundingBox">
      <stop offset="0.01" stop-color="#c0aead"/>
      <stop offset="1" stop-color="#e0cecd"/>
    </linearGradient>
    <linearGradient id="linear-gradient-3" x1="0" y1="0.499" x2="1" y2="0.499" xlink:href="#linear-gradient-2"/>
    <linearGradient id="linear-gradient-4" x1="-0.007" y1="0.5" x2="0.993" y2="0.5" xlink:href="#linear-gradient-2"/>
    <linearGradient id="linear-gradient-5" x1="0" y1="0.501" x2="1.001" y2="0.501" xlink:href="#linear-gradient-2"/>
    <linearGradient id="linear-gradient-6" x1="0" y1="0.5" x2="1" y2="0.5" xlink:href="#linear-gradient"/>
    <linearGradient id="linear-gradient-7" x1="0" y1="0.504" x2="1" y2="0.504" xlink:href="#linear-gradient-2"/>
    <linearGradient id="linear-gradient-8" x1="-0.007" y1="0.49" x2="0.995" y2="0.49" xlink:href="#linear-gradient-2"/>
    <linearGradient id="linear-gradient-9" x1="-0.001" y1="0.502" x2="1.001" y2="0.502" xlink:href="#linear-gradient-2"/>
    <linearGradient id="linear-gradient-10" x1="0" y1="0.5" x2="1.001" y2="0.5" xlink:href="#linear-gradient-2"/>
    <linearGradient id="linear-gradient-11" x1="0" y1="0.5" x2="1" y2="0.5" xlink:href="#linear-gradient"/>
    <clipPath id="clip-path">
      <path id="Path_15187" data-name="Path 15187" d="M502.127,169.32a28.516,28.516,0,0,1-1.946,6.384c-.22-.059-.44-.113-.657-.166l-.2-.054c1.19-3.633,2.456-7.239,2.2-11.014l1.072.536A13.886,13.886,0,0,1,502.127,169.32Z" transform="translate(-499.32 -164.47)" fill="none"/>
    </clipPath>
    <linearGradient id="linear-gradient-12" x1="0" y1="0.5" x2="1" y2="0.5" xlink:href="#linear-gradient"/>
    <clipPath id="clip-path-2">
      <path id="Path_15200" data-name="Path 15200" d="M517.222,172.672a19.173,19.173,0,0,1-.568,2.539q-.429,1.59-.968,3.142l-.161.458q-.467,1.3-1.008,2.579c-.067.156-.826,1.764-.834,1.845h0c-.231-.156-.453-.314-.678-.472l-.434-.3c1.7-3.166,2.443-6.764,3.129-10.306.225.083.453.164.681.241C516.656,172.5,516.938,172.589,517.222,172.672Z" transform="translate(-512.57 -172.16)" fill="none"/>
    </clipPath>
    <linearGradient id="linear-gradient-13" x1="0.626" y1="0.043" x2="0.445" y2="0.733" gradientUnits="objectBoundingBox">
      <stop offset="0.01" stop-color="#f3d43c"/>
      <stop offset="1" stop-color="#db9f2e"/>
    </linearGradient>
    <linearGradient id="linear-gradient-14" x1="0.455" y1="-0.355" x2="0.513" y2="0.795" gradientUnits="objectBoundingBox">
      <stop offset="0.01" stop-color="#f3d43c"/>
      <stop offset="1" stop-color="#bb491a"/>
    </linearGradient>
    <linearGradient id="linear-gradient-15" x1="0.453" y1="-0.207" x2="0.637" y2="2.104" xlink:href="#linear-gradient-14"/>
    <linearGradient id="linear-gradient-16" x1="0.622" y1="0.009" x2="0.403" y2="0.945" xlink:href="#linear-gradient-13"/>
    <linearGradient id="linear-gradient-17" x1="0.477" y1="-0.213" x2="0.506" y2="0.745" xlink:href="#linear-gradient-14"/>
    <linearGradient id="linear-gradient-18" x1="0.472" y1="-0.27" x2="0.557" y2="2.135" xlink:href="#linear-gradient-14"/>
    <linearGradient id="linear-gradient-19" x1="-242.766" y1="270.797" x2="-244.609" y2="269.605" gradientUnits="objectBoundingBox">
      <stop offset="0.01" stop-color="#311d18"/>
      <stop offset="1" stop-color="#2b111d"/>
    </linearGradient>
    <linearGradient id="linear-gradient-20" x1="-113.785" y1="220.509" x2="-114.651" y2="219.536" xlink:href="#linear-gradient-19"/>
    <linearGradient id="linear-gradient-21" x1="35.183" y1="-77.769" x2="35.935" y2="-77.025" xlink:href="#linear-gradient-19"/>
    <linearGradient id="linear-gradient-22" x1="29.623" y1="-91.928" x2="29.441" y2="-90.934" xlink:href="#linear-gradient-19"/>
    <linearGradient id="linear-gradient-23" x1="15.794" y1="-37.122" x2="16.142" y2="-36.593" xlink:href="#linear-gradient-19"/>
    <linearGradient id="linear-gradient-24" x1="-287.172" y1="250.519" x2="-286.831" y2="250.519" xlink:href="#linear-gradient-19"/>
  </defs>
  <g id="Core_body" data-name="Core body" transform="translate(-1395.113 845.007)">
    <path id="Path_12781" data-name="Path 12781" d="M96.7,437.031c-.623-.063-1.245-.114-1.88-.143l-51.2-.029h-26.8l-.817.074a.571.571,0,0,0,0,1.086l.817.074H43.616l44.478-.029h.074c1.171-.029,6.485,0,6.662,0,.634-.029,1.257-.08,1.874-.148a.451.451,0,0,0,0-.886Z" transform="translate(1379.491 -1216.165)" fill="#c6c6c6"/>
    <path id="Path_12782" data-name="Path 12782" d="M33.512,382.626c-2.565-.057-5.416-.354-7.1-2.285-1.9-2.165-1.543-5.479-2.72-8.1-1.24-2.759-4.1-4.571-5.1-7.427-1.143-3.188.411-6.7,2.377-9.444s4.433-5.239,5.565-8.421c1.091-3.091.788-6.485,1.343-9.713A19.047,19.047,0,0,1,44.367,321.94a13.731,13.731,0,0,1,9.535,2.331c4.428,3.331,5.839,9.713,10.455,12.775,4.365,2.9,10.324,2.005,14.986,4.4a11.8,11.8,0,0,1,6.285,9.97c.1,3.645-1.52,7.273-.891,10.855.36,2.062,1.434,3.919,2.051,5.919a13.712,13.712,0,0,1-11,17.551c-7.359,1.143-14-3.428-21.139-4.228-3.9-.44-7.016,1.68-10.707,1.645C40.522,383.123,36.991,382.7,33.512,382.626Z" transform="translate(1379.013 -1166.868)" fill="#f4fafe"/>
    <path id="Path_12819" data-name="Path 12819" d="M61.416,350a28,28,0,0,0-8.256,1.92,28.932,28.932,0,0,0-7.519,3.925c-.091.069,0,.223.091.16a45.772,45.772,0,0,1,7.661-3.851,50.672,50.672,0,0,1,8.056-1.914C61.587,350.217,61.553,350,61.416,350Z" transform="translate(1373.609 -1178.93)" fill="#35a3e5"/>
    <path id="Path_12820" data-name="Path 12820" d="M74.361,356.674a23.32,23.32,0,0,0-6.959.88,27.183,27.183,0,0,0-6.513,2.554c-.1.051,0,.183.08.137a35.34,35.34,0,0,1,6.525-2.365,48.708,48.708,0,0,1,6.856-.914.149.149,0,0,0,.011-.291Z" transform="translate(1367.074 -1181.788)" fill="#35a3e5"/>
    <g id="_body" data-name=" body" transform="translate(1399.286 -835.888)">
      <path id="Path_15152" data-name="Path 15152" d="M525.856,178.657c-.1,1.233-.209,2.469-.394,3.692-.016.115-.035.228-.054.343-.107.668-.241,1.341-.408,1.984a13.823,13.823,0,0,1-1.952,4.51c-7.078-2.9-8.078-5.282-8.078-5.282-.113-.075-.22-.15-.33-.228h-.016l-.295-.209h0s.021-.091.029-.129a3.386,3.386,0,0,1,.11-.33c.121-.367.239-.735.359-1.1q.536-1.609,1.056-3.217l1.038-3.188c.268-.8.48-1.627.753-2.429.268.094.558.185.842.268,0,0,1.745-.217,6.971,1.67a2.032,2.032,0,0,1,.094.206A7.519,7.519,0,0,1,525.856,178.657Z" transform="translate(-490.756 -141.962)" fill="#35a3e5"/>
      <path id="Path_15153" data-name="Path 15153" d="M474.911,157.7a19.193,19.193,0,0,1-.568,2.539q-.429,1.59-.968,3.142l-.161.458q-.467,1.3-1.008,2.579c-.067.156-.826,1.764-.834,1.845h0l-.1-.064-.233-.164h-.016l-.295-.209-.038-.027-.434-.3a6.936,6.936,0,0,0-1.054-.587,11.994,11.994,0,0,0-1.638-.536c-.22-.059-.44-.113-.657-.166-.85-.212-1.7-.464-2.539-.721l-.268-.078-.038-.013c-.373-.113-.743-.225-1.11-.332a9.2,9.2,0,0,0-.971-.223,13.946,13.946,0,0,1-1.721-.362,2.841,2.841,0,0,1-1.507-.753,3.429,3.429,0,0,1-.638-2.046v-.177c-.024-.458-.032-.922-.064-1.341a4.588,4.588,0,0,0-.126-.8,3.168,3.168,0,0,0-.319-.783h0a2.863,2.863,0,0,0-2.558-1.308c-.214,0-.287-.241-.292-.458a1.515,1.515,0,0,1,.156-.627,7.628,7.628,0,0,1,.783-1.391l.147-.2c.126-.166.295-.472.536-.469a.874.874,0,0,1,.44.241c.139.113.268.236.362.295a2.409,2.409,0,0,0,.346.193,1.316,1.316,0,0,0,.772.121,1.014,1.014,0,0,0,.657-.45,3.594,3.594,0,0,0,.472-1.48c.075-.509.107-1.005.158-1.341a22.82,22.82,0,0,1,5.335,1.577c1.571.662,3.164,1.477,5.062,2.413l1.225.6c.729.351,1.453.66,2.193.936.225.083.453.164.681.241C474.346,157.531,474.627,157.622,474.911,157.7Z" transform="translate(-447.157 -126.329)" fill="#f5a784"/>
      <path id="Path_15154" data-name="Path 15154" d="M564.006,192a9.645,9.645,0,0,1-.268.96l-.032.094-.016.046a.3.3,0,0,1-.035.094c-.011.029-.035.094-.054.139l-.021.048c-.019.046-.038.091-.059.134a.3.3,0,0,1-.019.043l-.043.083a.21.21,0,0,1-.021.043l-.043.078-.024.04-.07.1a.8.8,0,0,1-.268.244l-.812-.273-.193-.064-.241-.083-.126-.043-.161-.056-.048-.016-.206-.072-.088-.029-.2-.072-.169-.056-2.762-.954-1.147-.4-.249-.088-.268-.088-.07-.024-.3-.1-.07-.024-.434-.161-.724-.249-.429-.15-.536-.18-.327-.115-1.072-.375-.41-.142-.858-.3-.737-.268-.767-.268-.515-.18-.517-.18-.515-.18-.086-.029-.949-.332-.268-.091L546,188.24l-2.552-.9-1.681-.6-.77-.268-.708-.252-.767-.268-.375-.134-.445-.158-1.652-.6-.536-.193-.268-.094-1.751-.643-.206-.078c-.44-.164-.831-.314-1.166-.442l-.15-.059-.072-.029a4.991,4.991,0,0,1-.8-.418c-.362-.228-.719-.488-1.072-.7l-2.871-1.78q-2.453-1.528-4.912-3.048l-.18-.113a4.042,4.042,0,0,1,.453-1.585l.137-.188,1.2-1.638a2.64,2.64,0,0,1,.37,0h.2a3.734,3.734,0,0,1,.4.04l.11.013h.206c.038,0,.075.013.115.016l.166.03.166.027h.043l.228.043.193.04.2.043.215.046.11.027.115.027.115.027.121.029.121.032.129.032.22.056.44.121.268.075h.027l.432.129q.705.212,1.536.5l.306.107.464.166q.866.308,1.858.7l.172.07q.507.2,1.046.426c.07.027.142.056.212.088q.944.394,2,.863l.268.121,1.121.509.29.134c2.014.936,4.29,2.062,6.866,3.416l.338.177q2.507,1.324,5.384,2.949c.963.536,1.976,1.072,3.038,1.641l.536.268,2.284,1.19.434.228a.024.024,0,0,1,.016,0l.536.268.5.268c1.416.753,2.882,1.555,4.386,2.44.2.115.4.236.606.357Z" transform="translate(-497.145 -142.684)" fill="#f5a784"/>
      <path id="Path_15155" data-name="Path 15155" d="M557.722,192.457l-1.148-.4h0l-.507-.174-.07-.024-.3-.1-.07-.024-.445-.158-.724-.249-.429-.15L553.5,191l-.327-.115-1.072-.375-.41-.142-.858-.3-.737-.268-.767-.268-.515-.18-.517-.18-.515-.18-.086-.03-.949-.332-.268-.091-.775-.268-2.552-.9-1.681-.6-.769-.268-.708-.252-.767-.268-.375-.134-.445-.158-1.652-.6-.536-.193-.268-.094-1.751-.643-.206-.078c-.44-.164-.831-.314-1.166-.442l-.15-.059-.072-.029-.139-.054-.424-.172c-.19-.08-.335-.145-.432-.193l-.056-.027h-.024l-.1-.051-.1-.046-.217-.1-.654-.287-.094-.04-.649-.268-.123-.048c-.44-.18-.914-.367-1.4-.558l-.147-.059-.751-.29-.145-.056-.617-.233-.15-.059-.145-.054-.327-.123-.847-.341-.145-.054-.359-.134-.477-.177-.118-.043-.147-.054-.228-.083h-.03l-.126-.046-.121-.046-.121-.043-.118-.043a1.671,1.671,0,0,1-.268-.1.268.268,0,0,1-.107-.118.627.627,0,0,1-.035-.268,4.52,4.52,0,0,1,.021-.536,10.927,10.927,0,0,1,.233-1.641,3.987,3.987,0,0,1,.362-1.193,1,1,0,0,1,.123-.172l.013-.016c.44-.5.8-1.1,1.2-1.638a2.645,2.645,0,0,1,.37,0h.2a3.733,3.733,0,0,1,.4.04l.11.013h.15l.115.016.166.029.166.027h.043l.228.043.193.04.2.043.214.046.11.027.115.027.115.027.121.03.121.032.129.032.22.056.44.121.268.075h.027l.432.129q.705.212,1.536.5l.306.107.464.166q.866.308,1.858.7l.172.07q.507.2,1.046.426c.07.027.142.056.212.089q.944.394,2,.863l.268.121,1.121.509.29.134c2.014.936,4.29,2.062,6.866,3.416l.338.177q2.507,1.324,5.384,2.949c.963.536,1.976,1.072,3.038,1.641l.536.268,2.284,1.19.434.228h.016l.536.268.5.268A6.291,6.291,0,0,1,557.722,192.457Z" transform="translate(-496.846 -142.713)" fill="#35a3e5"/>
      <path id="Path_15156" data-name="Path 15156" d="M666.7,237.809q-1.016-.611-2.016-1.169a4.668,4.668,0,0,1-1.308,2.5l2.375.818C666.332,239.662,666.7,237.809,666.7,237.809Z" transform="translate(-599.844 -188.489)" fill="url(#linear-gradient)"/>
      <path id="Path_15157" data-name="Path 15157" d="M669.881,239.634a.8.8,0,0,1-.343-.139,3.388,3.388,0,0,0-.354-.145,4.379,4.379,0,0,1-.727-.292c-.056-.032-.03-.137.04-.115.255.083.512.164.767.249.123.043.247.088.367.142s.252.107.292.236a.048.048,0,0,1-.043.064Z" transform="translate(-603.537 -190.171)" fill="url(#linear-gradient-2)"/>
      <path id="Path_15158" data-name="Path 15158" d="M669.333,242.033a.971.971,0,0,1-.343-.156c-.129-.062-.268-.115-.391-.166q-.4-.161-.788-.338c-.056-.027-.024-.123.035-.1.268.088.555.188.829.292.131.051.268.1.391.161s.268.113.316.236a.056.056,0,0,1-.048.072Z" transform="translate(-603.065 -191.876)" fill="url(#linear-gradient-3)"/>
      <path id="Path_15159" data-name="Path 15159" d="M668.332,244.3c-.11.054-.252-.051-.351-.1s-.268-.118-.41-.172c-.268-.1-.536-.2-.8-.295-.067-.024-.027-.131.04-.115a5.822,5.822,0,0,1,.823.249c.134.051.268.1.4.161l.2.088c.056.027.123.054.139.121a.054.054,0,0,1-.032.059Z" transform="translate(-602.297 -193.6)" fill="url(#linear-gradient-4)"/>
      <path id="Path_15160" data-name="Path 15160" d="M667.652,245.915c-.11.064-.268-.019-.367-.064a3.688,3.688,0,0,0-.386-.158,4.454,4.454,0,0,1-.78-.241.054.054,0,0,1,.048-.1,7.64,7.64,0,0,0,.778.188,3.109,3.109,0,0,1,.362.134,1.829,1.829,0,0,0,.182.07.375.375,0,0,1,.172.08.056.056,0,0,1-.008.088Z" transform="translate(-601.826 -194.862)" fill="url(#linear-gradient-5)"/>
      <path id="Path_15161" data-name="Path 15161" d="M650.041,228h0a9.649,9.649,0,0,1-.861,3.5h0" transform="translate(-589.451 -182.165)" fill="none" stroke="#e5e5e6" stroke-linecap="round" stroke-linejoin="round" stroke-width="0.44"/>
      <path id="Path_15162" data-name="Path 15162" d="M557.38,205.51s4.523.314,24.832,9.017" transform="translate(-522.264 -165.705)" fill="none" stroke="#e5e5e6" stroke-linecap="round" stroke-linejoin="round" stroke-width="0.44"/>
      <path id="Path_15163" data-name="Path 15163" d="M558.065,214.581v.067a.211.211,0,0,1,0,.04v.064a.8.8,0,0,1-.021.131.1.1,0,0,0,0,.054v.07a.652.652,0,0,1-.019.067v.043l-.024.08c-.019.056-.037.113-.059.169l-.032.083h0l-.032.08c-.062.153-.129.3-.193.437a.246.246,0,0,1-.019.038c-.051.107-.1.209-.147.292l-.024.048-.037.067-.024.048-.043.075h0a.211.211,0,0,1-.019.03h0c-.778-.147-1.536-.306-2.282-.472q-1.4-.314-2.724-.649l-.475-.118-.2-.051-.365-.094-.051-.013-.472-.121-.536-.137-1.442-.378-.456-.118-.67-.172-.536-.137h-.013l-.268-.067-.3-.075-.4-.1-.4-.1-.4-.091c-.131-.029-.268-.062-.394-.088l-.391-.086c-.268-.056-.515-.11-.772-.158l-.381-.075a95.473,95.473,0,0,1-18.5-5.024c-7.078-2.9-8.078-5.282-8.078-5.282h0v-.013l-.035-.268a3.968,3.968,0,0,1,.064-.617,10.413,10.413,0,0,1,.247-1.177,4.825,4.825,0,0,1,.571-1.568c.3-.391.936-.019,1.324.1l3.641,1.072,3.386.992c.912.268,1.861.467,2.74.8l.115.043.121.046.126.048.129.048.351.137.1.038.2.078.048.019.15.059.155.059.156.062h.016l.11.043.571.228.239.094.075.029.177.072.367.147.188.075.2.08.633.255.828.335.341.139.879.357h.019l1.11.453.131.054.566.231.4.164.314.129h0l.33.134.668.268.665.268,1.759.729.5.206.252.1.5.206.753.314.673.268,1.381.574.341.142.41.172.434.18.5.209.952.4.04.016.6.249.153.062.391.166.464.193.314.131,1.51.63.576.241.142.059,1.072.448,2.786,1.169.536.231.2.083.308.2.249.1.609.268.094.04.086.035.037.016.051.021.07.029v.016a.074.074,0,0,0,.013.048v.051a.29.29,0,0,1,0,.048.423.423,0,0,1,.032.048Z" transform="translate(-492.585 -161.049)" fill="#f5a784"/>
      <path id="Path_15164" data-name="Path 15164" d="M552.108,213.507l-.475-.118-.2-.051-.365-.094-.051-.013-.472-.121-.536-.137-1.442-.378-.456-.118-.67-.172-.536-.137h-.013l-.268-.067-.3-.075-.4-.1-.4-.1-.4-.091c-.131-.029-.268-.062-.394-.088l-.391-.086c-.268-.056-.515-.11-.772-.158l-.381-.075a95.473,95.473,0,0,1-18.5-5.024c-7.078-2.9-8.078-5.282-8.078-5.282h0a1.192,1.192,0,0,1-.038-.292,3.975,3.975,0,0,1,.064-.617,10.467,10.467,0,0,1,.247-1.177,10.6,10.6,0,0,1,.869-2.2.707.707,0,0,1,.147-.206.29.29,0,0,1,.268-.046h0a2.773,2.773,0,0,1,.287.115c2.145.863,6,2.381,8.092,3.056l.5.158.225.064.064.016.051.016.094.029.08.027.051.019.062.019c.228.08.52.185.871.319l.115.043.121.046.126.048.129.048.351.137.1.038.2.078.048.019.15.059.156.059.156.062h.016l.11.043.571.228h0l.239.094.075.029.177.072.367.147.188.075.2.08.633.255.828.335.341.139.879.357h.019l1.11.453.131.054.566.231.4.164.314.129h0l.33.134.668.268.665.268,1.759.729.5.206.252.1.5.206.753.314.673.268,1.381.574.341.142.41.172.434.18.5.209.952.4.04.016.6.249.153.062.391.166.464.193.314.131,1.51.63.576.241.142.059,1.072.448A6.891,6.891,0,0,1,552.108,213.507Z" transform="translate(-492.395 -159.092)" fill="#35a3e5"/>
      <path id="Path_15165" data-name="Path 15165" d="M661.562,255.459c-.777-.147-1.536-.306-2.282-.472a4.665,4.665,0,0,0,.692-2.737l2.316.973C662.513,253.837,661.562,255.459,661.562,255.459Z" transform="translate(-596.843 -199.913)" fill="url(#linear-gradient-6)"/>
      <path id="Path_15166" data-name="Path 15166" d="M662.517,261.143a.78.78,0,0,0-.349-.126,3.644,3.644,0,0,1-.362-.129,4.46,4.46,0,0,0-.735-.268c-.064,0-.115.083-.048.113.247.11.491.223.74.327a3.568,3.568,0,0,0,.367.139.483.483,0,0,0,.375.019.048.048,0,0,0,.011-.075Z" transform="translate(-598.096 -206.039)" fill="url(#linear-gradient-7)"/>
      <path id="Path_15167" data-name="Path 15167" d="M663.736,259.032a.948.948,0,0,0-.357-.115c-.137-.038-.268-.086-.4-.134-.268-.1-.536-.19-.8-.268-.056-.016-.1.075-.04.1.268.118.536.228.8.332.134.051.268.1.4.142a.568.568,0,0,0,.391.035.054.054,0,0,0,.005-.094Z" transform="translate(-598.91 -204.497)" fill="url(#linear-gradient-8)"/>
      <path id="Path_15168" data-name="Path 15168" d="M664.47,256.608c-.046-.113-.223-.126-.327-.161l-.418-.145c-.268-.1-.536-.212-.8-.324-.067-.027-.107.08-.048.113a5.947,5.947,0,0,0,.783.365q.2.075.4.145l.2.064a.2.2,0,0,0,.185,0A.051.051,0,0,0,664.47,256.608Z" transform="translate(-599.451 -202.639)" fill="url(#linear-gradient-9)"/>
      <path id="Path_15169" data-name="Path 15169" d="M665.056,255.009c-.04-.121-.206-.161-.316-.2a3.4,3.4,0,0,1-.391-.139,4.543,4.543,0,0,0-.745-.338c-.067-.019-.091.078-.029.1a7.121,7.121,0,0,1,.705.375,2.438,2.438,0,0,0,.359.142c.062.021.123.043.182.07a.372.372,0,0,0,.182.056.062.062,0,0,0,.054-.072Z" transform="translate(-599.959 -201.437)" fill="url(#linear-gradient-10)"/>
      <path id="Path_15170" data-name="Path 15170" d="M645.707,246.22a6.908,6.908,0,0,1-.657,3.426" transform="translate(-586.428 -195.5)" fill="none" stroke="#e5e5e6" stroke-linecap="round" stroke-linejoin="round" stroke-width="0.44"/>
      <path id="Path_15171" data-name="Path 15171" d="M517.53,211.58s3.88,6.132,34.4,12.212" transform="translate(-493.098 -170.147)" fill="none" stroke="#e5e5e6" stroke-linecap="round" stroke-linejoin="round" stroke-width="0.44"/>
      <path id="Path_15172" data-name="Path 15172" d="M457.58,165.689a2.863,2.863,0,0,0-2.558-1.308c-.215,0-.287-.241-.292-.458a1.515,1.515,0,0,1,.156-.627,7.624,7.624,0,0,1,.783-1.392c.193-.1.389-.185.584-.268a1.877,1.877,0,0,1,.536-.156c.139.113.268.236.362.295a2.42,2.42,0,0,0,.346.193,2.163,2.163,0,0,1-.287.946,4.4,4.4,0,0,1-.456.753.992.992,0,0,0-.233.421.638.638,0,0,0,.145.472,3.267,3.267,0,0,0,.359.362A2.88,2.88,0,0,1,457.58,165.689Z" transform="translate(-447.135 -133.48)" fill="#714193" opacity="0.25"/>
      <path id="Path_15173" data-name="Path 15173" d="M474.033,102.467a33.536,33.536,0,0,1-3.464-1.528c-.072-.188-1.391-2.528-1.391-2.528s-1.217-18-1.292-18.706c-.067-.654,1.812-1.279,2.327-.123a1.412,1.412,0,0,1,.094.311c.292,1.534,1.609,17.352,4.073,19.84.048.048.1.091.145.131l.072.056C477.03,101.883,474.033,102.467,474.033,102.467Z" transform="translate(-456.762 -73.067)" fill="#f5a784"/>
      <path id="Path_15174" data-name="Path 15174" d="M462.313,64.049s-2.335-2.217-1.906-2.515,1.137.391,1.231.467-.617-3.855-.15-4.006.826,2.346.826,2.346-.284-3.217.088-3.3.743,3.217.743,3.217-.268-3.094.188-3.075.576,3.019.576,3.019,0-1.877.373-1.877.4,5.362.456,5.783-1.815.694-1.815.694Z" transform="translate(-451.251 -57.045)" fill="#f5a784"/>
      <path id="Path_15175" data-name="Path 15175" d="M473.294,191.074l-.038-.013a2.565,2.565,0,0,0-2.432.477c-.654.745-.8,15.36-1.016,16.84a.95.95,0,0,1-.016.094.233.233,0,0,1-.088.129c-.137.091-.386,0-.67-.18a4.421,4.421,0,0,1-1.477-1.571c-.083-.475-.247-19.505-.247-19.505l1.139-.555s3.132,2.6,4.373,3.754C473.2,190.892,473.407,191.107,473.294,191.074Z" transform="translate(-456.342 -152.004)" fill="#f5a784"/>
      <path id="Path_15176" data-name="Path 15176" d="M458.107,263.124a.287.287,0,0,1-.016.094.553.553,0,0,1-.089.129,7.974,7.974,0,0,1-3.418,1.365.18.18,0,0,1-.019-.145c.083-.367.954-.93.954-.93h-.075c-3.44.268-4.193-.239-4.118-.391a.035.035,0,0,1,.016-.019c.166-.126,2.158-.5,2.906-.753a3.527,3.527,0,0,0,1.609-.882,8.721,8.721,0,0,1,1.949,1.072A.713.713,0,0,1,458.107,263.124Z" transform="translate(-444.641 -206.749)" fill="#f5a784"/>
      <path id="Path_15177" data-name="Path 15177" d="M478.531,163.531a28.511,28.511,0,0,1-1.946,6.384c-.22-.059-.44-.113-.657-.166l-.2-.054c-.78-.2-1.56-.429-2.335-.668a4.054,4.054,0,0,0-2.04-3.5,5.094,5.094,0,0,0-2.2-.609,9.5,9.5,0,0,0-2.005.115c-.024-.458-.032-.922-.064-1.341a9.59,9.59,0,0,0,3.056-.311,2.032,2.032,0,0,0,1.072-.552,2.271,2.271,0,0,0,.4-1.072,3,3,0,0,0,.048-1.378,2.525,2.525,0,0,0-.737-1.072,5.024,5.024,0,0,0-1.451-1.019,2.968,2.968,0,0,0-1.5-.247,3.6,3.6,0,0,0,.472-1.48,15.888,15.888,0,0,0,3.823.7,2.949,2.949,0,0,0,1.137-.129,1.55,1.55,0,0,0,.536-.33c1.268.536,2.55,1.169,3.995,1.877l1.072.536A14.225,14.225,0,0,1,478.531,163.531Z" transform="translate(-456.174 -129.879)" fill="#35a3e5"/>
      <path id="Path_15178" data-name="Path 15178" d="M502.127,169.32a28.516,28.516,0,0,1-1.946,6.384c-.22-.059-.44-.113-.657-.166l-.2-.054c1.19-3.633,2.456-7.239,2.2-11.014l1.072.536A13.886,13.886,0,0,1,502.127,169.32Z" transform="translate(-479.77 -135.668)" fill="url(#linear-gradient-11)"/>
      <g id="Group_4039" data-name="Group 4039" transform="translate(19.55 28.802)" clip-path="url(#clip-path)">
        <path id="Path_15179" data-name="Path 15179" d="M501.285,200.267a3.016,3.016,0,0,0-.633-.188,5.03,5.03,0,0,1-.646-.206,2.6,2.6,0,0,1-1-.694c-.056-.067-.15.03-.094.1a2.649,2.649,0,0,0,1.005.732,4.631,4.631,0,0,0,.641.22,2.063,2.063,0,0,0,.708.1C501.3,200.328,501.32,200.283,501.285,200.267Z" transform="translate(-499.009 -189.856)" fill="#fff"/>
        <path id="Path_15180" data-name="Path 15180" d="M502.9,197.2a1.7,1.7,0,0,0-.349-.064c-.1-.016-.212-.035-.316-.059a4.911,4.911,0,0,1-.67-.2c-.22-.078-.434-.172-.646-.268s-.421-.214-.635-.311a.057.057,0,0,0-.056.1c.2.129.421.236.633.343a6.984,6.984,0,0,0,.662.292,4.678,4.678,0,0,0,.684.209,2.911,2.911,0,0,0,.341.056.874.874,0,0,0,.354,0,.051.051,0,0,0,0-.1Z" transform="translate(-499.966 -187.76)" fill="#fff"/>
        <path id="Path_15181" data-name="Path 15181" d="M504.465,192.2a4.153,4.153,0,0,0-.713-.247,7.786,7.786,0,0,1-.735-.268,8.77,8.77,0,0,1-1.362-.735c-.07-.046-.131.064-.064.11a7.97,7.97,0,0,0,1.37.783,7.4,7.4,0,0,0,.713.268,2.182,2.182,0,0,0,.767.172.046.046,0,0,0,.024-.083Z" transform="translate(-500.961 -183.843)" fill="#fff"/>
        <path id="Path_15182" data-name="Path 15182" d="M505.579,185.29c-.038-.056-.089-.067-.147-.094l-.18-.07-.4-.147c-.268-.1-.523-.2-.78-.308q-.772-.33-1.509-.729c-.088-.048-.169.086-.08.134.493.268,1,.536,1.515.756.255.11.512.217.775.316l.381.137c.064.021.129.04.2.056a.311.311,0,0,0,.2.024.054.054,0,0,0,.032-.075Z" transform="translate(-501.609 -178.714)" fill="#fff"/>
        <path id="Path_15183" data-name="Path 15183" d="M506.431,180.212a1.609,1.609,0,0,0-.378-.153l-.4-.134c-.268-.094-.536-.2-.8-.311a11.246,11.246,0,0,1-1.5-.8c-.08-.048-.15.075-.072.126a10.474,10.474,0,0,0,1.509.834c.268.115.512.22.775.314a2.413,2.413,0,0,0,.834.209.048.048,0,0,0,.035-.08Z" transform="translate(-502.192 -174.957)" fill="#fff"/>
        <path id="Path_15184" data-name="Path 15184" d="M507.94,176.783a1.316,1.316,0,0,0-.351-.131l-.375-.115c-.247-.078-.493-.169-.735-.268a9.858,9.858,0,0,1-1.4-.71c-.08-.051-.153.075-.075.126a9.114,9.114,0,0,0,1.408.756,6.338,6.338,0,0,0,.724.268c.123.043.249.08.375.113a1.161,1.161,0,0,0,.4.062.059.059,0,0,0,.029-.1Z" transform="translate(-503.452 -172.576)" fill="#fff"/>
        <path id="Path_15185" data-name="Path 15185" d="M507.791,172.956a1.357,1.357,0,0,0-.37-.155q-.2-.064-.394-.137a8.213,8.213,0,0,1-.786-.332,11.161,11.161,0,0,1-1.448-.847c-.062-.04-.139.056-.08.1a7.957,7.957,0,0,0,1.448.909c.268.126.518.241.786.343.129.048.268.094.391.137a1.158,1.158,0,0,0,.424.083.056.056,0,0,0,.029-.1Z" transform="translate(-503.251 -169.596)" fill="#fff"/>
        <path id="Path_15186" data-name="Path 15186" d="M508.1,168.259a2.273,2.273,0,0,0-.456-.19l-.45-.15c-.3-.107-.606-.22-.906-.34-.606-.241-1.209-.5-1.794-.8-.059-.029-.11.056-.051.088a17.048,17.048,0,0,0,1.772.885c.3.126.6.247.909.357.155.054.308.11.466.158a1.743,1.743,0,0,0,.48.1.059.059,0,0,0,.029-.1Z" transform="translate(-503.047 -166.151)" fill="#fff"/>
      </g>
      <path id="Path_15188" data-name="Path 15188" d="M554.449,208.654l.081.027a2.606,2.606,0,0,1-.694,1.113.9.9,0,0,1-.413-.957,2.144,2.144,0,0,1,.088-.467l.5.158.225.064.064.016.051.016Z" transform="translate(-519.362 -167.798)" fill="#714193" opacity="0.25"/>
      <path id="Path_15189" data-name="Path 15189" d="M555.22,204.677c-.19-.08-.335-.145-.432-.193l-.056-.027h-.024l-.1-.051-.1-.046-.217-.1c.054-.131.113-.268.174-.391a1.433,1.433,0,0,1,.222-.375c.1-.11.193-.244.341-.236A2.413,2.413,0,0,1,555.22,204.677Z" transform="translate(-520.002 -164.057)" fill="#714193" opacity="0.25"/>
      <path id="Path_15190" data-name="Path 15190" d="M517.222,172.672a19.173,19.173,0,0,1-.568,2.539q-.429,1.59-.968,3.142l-.161.458q-.467,1.3-1.008,2.579c-.067.156-.826,1.764-.834,1.845h0c-.231-.156-.453-.314-.678-.472l-.434-.3c1.7-3.166,2.443-6.764,3.129-10.306.225.083.453.164.681.241C516.656,172.5,516.938,172.589,517.222,172.672Z" transform="translate(-489.468 -141.296)" fill="url(#linear-gradient-12)"/>
      <g id="Group_4040" data-name="Group 4040" transform="translate(23.102 30.864)" clip-path="url(#clip-path-2)">
        <path id="Path_15191" data-name="Path 15191" d="M514.728,206.805a.737.737,0,0,0-.311-.185l-.357-.166c-.239-.118-.475-.247-.7-.386a8.689,8.689,0,0,1-1.29-.965c-.064-.056-.161.038-.1.1a8.353,8.353,0,0,0,1.29,1,8.031,8.031,0,0,0,.711.4c.123.062.247.118.37.172a.676.676,0,0,0,.362.091.043.043,0,0,0,.024-.062Z" transform="translate(-512.117 -196.258)" fill="#fff"/>
        <path id="Path_15192" data-name="Path 15192" d="M515.414,203.951c-.249-.091-.5-.169-.743-.281s-.493-.241-.737-.373a15.14,15.14,0,0,1-1.389-.861c-.072-.051-.137.067-.067.118a12.506,12.506,0,0,0,1.429.925c.244.137.493.268.748.383a1.236,1.236,0,0,0,.759.182C515.465,204.034,515.454,203.964,515.414,203.951Z" transform="translate(-512.481 -194.309)" fill="#fff"/>
        <path id="Path_15193" data-name="Path 15193" d="M516.846,200.6a1.443,1.443,0,0,0-.365-.18q-.18-.072-.362-.153c-.247-.107-.488-.223-.724-.349a11.718,11.718,0,0,1-1.362-.853c-.059-.043-.134.054-.078.1a8.762,8.762,0,0,0,1.357.922,6.259,6.259,0,0,0,.737.365,2.118,2.118,0,0,0,.767.252C516.878,200.709,516.883,200.636,516.846,200.6Z" transform="translate(-513.57 -191.848)" fill="#fff"/>
        <path id="Path_15194" data-name="Path 15194" d="M518.353,197.374a1.411,1.411,0,0,0-.357-.156l-.378-.145q-.373-.145-.732-.322a10.624,10.624,0,0,1-1.381-.8c-.07-.048-.131.064-.064.115a9.329,9.329,0,0,0,1.386.858c.236.121.48.231.727.33.126.051.252.1.378.142a1.127,1.127,0,0,0,.391.091.057.057,0,1,0,.029-.11Z" transform="translate(-514.65 -189.562)" fill="#fff"/>
        <path id="Path_15195" data-name="Path 15195" d="M519.762,193.264a1.559,1.559,0,0,0-.359-.2l-.391-.18c-.268-.126-.536-.268-.786-.4a15.613,15.613,0,0,1-1.485-.909c-.067-.046-.129.064-.064.113a15.256,15.256,0,0,0,1.477.954c.252.139.507.268.764.4.131.064.268.123.394.18a1.316,1.316,0,0,0,.41.134.056.056,0,0,0,.04-.094Z" transform="translate(-515.555 -186.366)" fill="#fff"/>
        <path id="Path_15196" data-name="Path 15196" d="M521.415,188.512a1.49,1.49,0,0,0-.357-.2l-.357-.166c-.252-.126-.5-.268-.743-.391a13.883,13.883,0,0,1-1.391-.9c-.051-.038-.118.048-.067.088a11.893,11.893,0,0,0,1.378.954c.239.142.485.268.735.4.129.064.268.126.386.182a1.219,1.219,0,0,0,.375.126.056.056,0,0,0,.04-.094Z" transform="translate(-516.897 -182.908)" fill="#fff"/>
        <path id="Path_15197" data-name="Path 15197" d="M522.35,183.9a2.372,2.372,0,0,0-.381-.158c-.134-.056-.268-.121-.4-.188-.268-.137-.536-.29-.788-.44-.536-.306-1.072-.617-1.584-.936-.062-.038-.113.054-.056.094.52.351,1.046.689,1.587,1.008.268.153.515.306.783.445.123.062.249.123.378.174a1.045,1.045,0,0,0,.429.107.059.059,0,0,0,.03-.107Z" transform="translate(-517.363 -179.484)" fill="#fff"/>
        <path id="Path_15198" data-name="Path 15198" d="M523.2,178.841a1.424,1.424,0,0,0-.381-.169l-.4-.15q-.4-.161-.8-.346a13.671,13.671,0,0,1-1.526-.82c-.083-.054-.155.078-.075.129a12.2,12.2,0,0,0,1.534.871c.268.123.536.239.8.343.134.054.268.1.4.15a1.283,1.283,0,0,0,.434.1.059.059,0,0,0,.013-.11Z" transform="translate(-517.993 -175.953)" fill="#fff"/>
        <path id="Path_15199" data-name="Path 15199" d="M524.3,174.738c-.123-.048-.268-.064-.383-.1a3.187,3.187,0,0,1-.351-.121c-.268-.1-.515-.217-.769-.327-.518-.217-1.035-.434-1.555-.641-.075-.029-.129.1-.054.129.536.244,1.054.477,1.584.71.255.113.512.231.772.335a1.188,1.188,0,0,0,.756.131.062.062,0,0,0,0-.115Z" transform="translate(-518.853 -173.173)" fill="#fff"/>
      </g>
      <path id="Path_15201" data-name="Path 15201" d="M678.679,245.22a2.073,2.073,0,0,1-1.426.517,4.148,4.148,0,0,1-1.507-.338,16.844,16.844,0,0,1-3.6-2.145.7.7,0,0,1-.3-.332.69.69,0,0,1,.019-.354c.027-.115.054-.231.086-.343a2.752,2.752,0,0,1,.228-.611,1.116,1.116,0,0,1,.9-.676,7.6,7.6,0,0,1,1.3.185,10.365,10.365,0,0,1,2.44.906,14.282,14.282,0,0,1,1.284.748,2.774,2.774,0,0,1,.823.732,1.243,1.243,0,0,1,.142.287A1.386,1.386,0,0,1,678.679,245.22Z" transform="translate(-606.032 -191.634)" fill="url(#linear-gradient-13)"/>
      <path id="Path_15202" data-name="Path 15202" d="M673,244.642c.673.311,1.341.622,2.027.92.874.383,1.922,1.1,2.928.855a.708.708,0,0,0,.442-.287.461.461,0,0,0-.115-.6,3.754,3.754,0,0,0-1.129-.619c-.4-.174-.8-.33-1.231-.472a11.5,11.5,0,0,0-2.56-.6A3.043,3.043,0,0,0,673,244.642Z" transform="translate(-606.885 -193.758)" fill="url(#linear-gradient-14)"/>
      <path id="Path_15203" data-name="Path 15203" d="M676.718,243.924a2.641,2.641,0,0,0-.63.8,1.1,1.1,0,0,0-.1.41.538.538,0,0,0,.029.249H676a.138.138,0,0,0-.048.048.129.129,0,0,0-.019.07.12.12,0,0,0,.019.067.121.121,0,0,0,.048.048h0a.126.126,0,0,0,.07.021.134.134,0,0,0,.07-.021.137.137,0,0,0,.07-.118.151.151,0,0,0-.019-.07h0a.231.231,0,0,0,0-.169.617.617,0,0,1,0-.172.934.934,0,0,1,.107-.357,4.37,4.37,0,0,1,.536-.727.071.071,0,1,0-.113-.086Z" transform="translate(-609.029 -193.799)" fill="#e5e5e6"/>
      <path id="Path_15204" data-name="Path 15204" d="M680.26,246.572a1.6,1.6,0,0,1,.7-1.531c.054-.04.121.043.078.088a1.589,1.589,0,0,0-.59,1.381C680.48,246.631,680.289,246.7,680.26,246.572Z" transform="translate(-612.177 -194.629)" fill="#e5e5e6"/>
      <path id="Path_15205" data-name="Path 15205" d="M683.719,248.467a.746.746,0,0,1,0-.44,1.731,1.731,0,0,1,.134-.429,2.192,2.192,0,0,1,.619-.78c.051-.043.123.043.078.088a2.618,2.618,0,0,0-.536.759,1.753,1.753,0,0,0-.115.389,1.659,1.659,0,0,0-.021.2.655.655,0,0,1,0,.2.086.086,0,0,1-.158.008Z" transform="translate(-614.706 -195.929)" fill="#e5e5e6"/>
      <path id="Path_15206" data-name="Path 15206" d="M688.21,249.881a1.314,1.314,0,0,1,.161-.783,2.489,2.489,0,0,1,.6-.71c.054-.046.134.019.083.075a3.431,3.431,0,0,0-.5.7,1.2,1.2,0,0,0-.137.721C688.44,250.023,688.234,250.026,688.21,249.881Z" transform="translate(-618.011 -197.075)" fill="#e5e5e6"/>
      <path id="Path_15207" data-name="Path 15207" d="M691,248.333l-.024.021a.1.1,0,0,1-.062.019.121.121,0,0,1-.062,0l-.029-.021a.11.11,0,0,1-.038-.056h0a.085.085,0,0,1,0-.051.1.1,0,0,1,0-.048l.021-.03a.132.132,0,0,1,.056-.038.142.142,0,0,1,.067,0,.1.1,0,0,1,.048.021.126.126,0,0,1,.037.038l.013.029a.116.116,0,0,1,0,.067h0a.1.1,0,0,1-.03.062Z" transform="translate(-619.902 -196.894)" fill="#e5e5e6"/>
      <path id="Path_15208" data-name="Path 15208" d="M683.8,252.672a.112.112,0,0,1-.043.029.091.091,0,0,1-.046,0,.123.123,0,0,1-.062,0h0a.131.131,0,0,1-.054-.048h0l-.013-.032a.038.038,0,0,1,0-.019.106.106,0,0,1,0-.051h0a.147.147,0,0,1,.032-.064.14.14,0,0,1,.059-.038.156.156,0,0,1,.07,0,.153.153,0,0,1,.062.032h0l.021.029.016.032a.036.036,0,0,1,0,.016h0v.019h0a.082.082,0,0,1,0,.051v.021A.11.11,0,0,1,683.8,252.672Z" transform="translate(-614.627 -200.056)" fill="#e5e5e6"/>
      <path id="Path_15209" data-name="Path 15209" d="M686.621,246.574h0a.131.131,0,0,1-.188-.169h0a.134.134,0,1,1,.193.172Z" transform="translate(-616.707 -195.58)" fill="#e5e5e6"/>
      <path id="Path_15210" data-name="Path 15210" d="M680.346,250.777a.166.166,0,0,1-.064.021h-.035a.123.123,0,0,1-.062-.032.121.121,0,0,1-.032-.043.109.109,0,0,1-.013-.051.083.083,0,0,1,0-.051.112.112,0,0,1,.027-.046l.027-.024a.142.142,0,0,1,.064-.021h.035a.147.147,0,0,1,.064.032.1.1,0,0,1,.03.043.126.126,0,0,1,0,.1.086.086,0,0,1-.024.046Z" transform="translate(-612.107 -198.655)" fill="#e5e5e6"/>
      <path id="Path_15211" data-name="Path 15211" d="M682.621,244.914c-.126-.11.048-.3.172-.193S682.744,245.04,682.621,244.914Z" transform="translate(-613.894 -194.379)" fill="#e5e5e6"/>
      <path id="Path_15212" data-name="Path 15212" d="M678.747,243.613a.131.131,0,0,1-.064.021h-.032a.124.124,0,0,1-.059-.029.1.1,0,0,1-.029-.043.07.07,0,0,1-.013-.046.083.083,0,0,1,0-.051.078.078,0,0,1,.024-.043l.027-.021a.132.132,0,0,1,.062-.021h.032a.132.132,0,0,1,.062.03.123.123,0,0,1,.029.043.13.13,0,0,1,0,.046.126.126,0,0,1,0,.048.1.1,0,0,1-.027.046Z" transform="translate(-610.943 -193.422)" fill="#e5e5e6"/>
      <path id="Path_15213" data-name="Path 15213" d="M688.224,253.986a.056.056,0,0,0-.016-.027.106.106,0,0,0-.035-.035h-.032a.1.1,0,0,0-.04,0h0a.151.151,0,0,0-.07.019l-.027.021a.165.165,0,0,0-.035.059.082.082,0,0,0,0,.051.111.111,0,0,0,0,.048.131.131,0,0,0,.048.046h.137a.088.088,0,0,0,.035-.035.113.113,0,0,0,.024-.043v-.035A.11.11,0,0,0,688.224,253.986Z" transform="translate(-617.837 -201.138)" fill="#e5e5e6"/>
      <path id="Path_15214" data-name="Path 15214" d="M678.679,248.735a2.073,2.073,0,0,1-1.426.517,4.148,4.148,0,0,1-1.507-.338,16.842,16.842,0,0,1-3.6-2.145.7.7,0,0,1-.3-.332.691.691,0,0,1,.019-.354c.027-.115.054-.231.086-.343a3.328,3.328,0,0,1,.233.357,5.41,5.41,0,0,0,.555.633,6.183,6.183,0,0,0,1.341,1,5.877,5.877,0,0,0,1.788.63,3.319,3.319,0,0,0,2.073-.206,1.943,1.943,0,0,0,.976-1.131,1.241,1.241,0,0,1,.142.287A1.386,1.386,0,0,1,678.679,248.735Z" transform="translate(-606.032 -195.149)" fill="#714193" opacity="0.25"/>
      <path id="Path_15215" data-name="Path 15215" d="M670.633,243.714a2.413,2.413,0,0,1-.955-.563.8.8,0,0,1-.214-.3.34.34,0,0,1,.059-.349.483.483,0,0,1,.442-.072,3.219,3.219,0,0,1,1.03.381.319.319,0,0,1,.172.268.536.536,0,0,1-.091.306A.965.965,0,0,1,670.633,243.714Z" transform="translate(-604.279 -192.71)" fill="url(#linear-gradient-15)"/>
      <g id="Group_4041" data-name="Group 4041" transform="translate(10.764 5.082)" opacity="0.25">
        <path id="Path_15216" data-name="Path 15216" d="M466.55,76a1.162,1.162,0,0,1,.349.153,1.443,1.443,0,0,1,.295.247,1.407,1.407,0,0,1,.22.314,1.158,1.158,0,0,1,.123.362c-.075-.1-.142-.206-.217-.3a2.892,2.892,0,0,0-.233-.268c-.08-.078-.166-.172-.255-.268A2.326,2.326,0,0,0,466.55,76Z" transform="translate(-466.55 -76)" fill="#714193"/>
      </g>
      <g id="Group_4042" data-name="Group 4042" transform="translate(12.113 4.374)" opacity="0.25">
        <path id="Path_15217" data-name="Path 15217" d="M471.58,74.6a2.077,2.077,0,0,1,.091-.365,1.809,1.809,0,0,1,.153-.346,1.61,1.61,0,0,1,.225-.308,1.049,1.049,0,0,1,.308-.225c-.078.1-.153.2-.22.295s-.129.2-.188.311l-.177.319A2.8,2.8,0,0,1,471.58,74.6Z" transform="translate(-471.58 -73.36)" fill="#714193"/>
      </g>
      <g id="Group_4043" data-name="Group 4043" transform="translate(11.311 3.936)" opacity="0.25">
        <path id="Path_15218" data-name="Path 15218" d="M468.59,71.911a1.609,1.609,0,0,1,.3-.1,2.965,2.965,0,0,1,.3-.059,2.352,2.352,0,0,1,.308-.024,1.747,1.747,0,0,1,.311,0,1.829,1.829,0,0,1-.3.1,2.967,2.967,0,0,1-.3.059,2.931,2.931,0,0,1-.306.024A1.767,1.767,0,0,1,468.59,71.911Z" transform="translate(-468.59 -71.724)" fill="#714193"/>
      </g>
      <path id="Path_15219" data-name="Path 15219" d="M480.519,101.526a5.8,5.8,0,0,1-1.341-1.877c-1.032-2.241-1.228-4.933-1.638-7.338-.512-3-.839-5.424-1.215-9.043a9.574,9.574,0,0,1-.04-1.493,1.324,1.324,0,0,1,.072-.394,1.411,1.411,0,0,1,.094.311C476.736,83.214,478.047,99.032,480.519,101.526Z" transform="translate(-462.902 -74.855)" fill="#714193" opacity="0.25"/>
      <path id="Path_15220" data-name="Path 15220" d="M455.961,267.81a2.9,2.9,0,0,1-.536.362c-3.44.268-4.193-.239-4.118-.391A11.953,11.953,0,0,0,455.961,267.81Z" transform="translate(-444.626 -211.28)" fill="#714193" opacity="0.25"/>
      <path id="Path_15221" data-name="Path 15221" d="M477.557,203.744l-.233-.164h-.016l-.295-.209-.038-.027-.434-.3a6.937,6.937,0,0,0-1.054-.587,11.989,11.989,0,0,0-1.638-.536c-.22-.059-.44-.113-.657-.166-.85-.212-1.7-.464-2.539-.721l-.268-.078-.038-.013a2.565,2.565,0,0,0-2.432.477c-.654.745-.8,15.36-1.016,16.84a.287.287,0,0,1-.016.094.233.233,0,0,1-.089.129,6.962,6.962,0,0,1-.63.424c-.268.142-.536.268-.828.391a10.791,10.791,0,0,1-1.748.56c-.094.021-.228.016-.244-.078s.067-.131.137-.164L466,218.375a1.216,1.216,0,0,0,.587-1.043c.051-.421.067-.89.091-1.341l.083-1.365.209-3.539.236-3.925q.1-1.735.206-3.469l.129-2.182c0-.115.016-.231.021-.346a1.126,1.126,0,0,1,.705-.783,1.568,1.568,0,0,1,.365-.1,3.218,3.218,0,0,1,1.282.137l.172.046a22.98,22.98,0,0,1,6.772,2.614A1.9,1.9,0,0,1,477.557,203.744Z" transform="translate(-453.439 -161.867)" fill="#714193" opacity="0.25"/>
      <path id="Path_15222" data-name="Path 15222" d="M558.161,224.968v.067a.2.2,0,0,1,0,.04v.064a.787.787,0,0,1-.021.131.1.1,0,0,0,0,.054v.07a.65.65,0,0,1-.019.067c0,.013,0,.029,0,.043l-.024.08c-.019.056-.038.113-.059.169l-.032.083h0l-.032.08c-.062.153-.129.3-.193.437a.246.246,0,0,1-.019.038c-.051.107-.1.209-.147.292l-.024.048-.038.067-.024.048-.043.075h0a.2.2,0,0,1-.019.03h0c-.778-.147-1.536-.306-2.282-.472q-1.4-.314-2.724-.649l-.475-.118-.2-.051-.365-.094-.051-.013-.472-.121-.536-.137-1.442-.378-.456-.118-.67-.172-.536-.137h-.013l-.268-.067-.3-.075-.4-.1-.4-.1-.4-.091c-.131-.029-.268-.062-.394-.088l-.391-.086c-.268-.056-.515-.11-.772-.158l-.381-.075a95.473,95.473,0,0,1-18.5-5.024c-7.078-2.9-8.078-5.282-8.078-5.282h0v-.013c1.166.593,13.3,6.579,38.224,12.631.9.22,1.973-.719,2.681-1.389l.094.04.086.035.038.016.051.021.07.029v.016a.074.074,0,0,0,.013.048v.051a.29.29,0,0,1,0,.048A.417.417,0,0,1,558.161,224.968Z" transform="translate(-492.681 -171.436)" fill="#714193" opacity="0.25"/>
      <path id="Path_15223" data-name="Path 15223" d="M673.891,260.188a2.177,2.177,0,0,1-1.4.115,14.2,14.2,0,0,1-1.458-.3,10.349,10.349,0,0,1-2.413-.954,7.421,7.421,0,0,1-1.091-.727.912.912,0,0,1-.268-.756,1.581,1.581,0,0,1,.048-.349,3.789,3.789,0,0,1,.4-.92.523.523,0,0,1,.665-.327,17.418,17.418,0,0,1,4.107.8,4.2,4.2,0,0,1,1.341.753,2.117,2.117,0,0,1,.7,1.215.311.311,0,0,0,.016.121A1.386,1.386,0,0,1,673.891,260.188Z" transform="translate(-602.682 -202.617)" fill="url(#linear-gradient-16)"/>
      <path id="Path_15224" data-name="Path 15224" d="M668.855,258.05c.708.217,1.418.434,2.123.665.909.3,2.166.467,2.754,1.316a.711.711,0,0,1,.137.509.458.458,0,0,1-.488.37,3.706,3.706,0,0,1-1.252-.29c-.418-.139-.828-.3-1.233-.469a11.815,11.815,0,0,1-2.306-1.263A3.036,3.036,0,0,1,668.855,258.05Z" transform="translate(-603.657 -204.158)" fill="url(#linear-gradient-17)"/>
      <path id="Path_15225" data-name="Path 15225" d="M666.119,257.714a2.413,2.413,0,0,0-1.072-.217.783.783,0,0,0-.359.078.351.351,0,0,0-.188.3.488.488,0,0,0,.268.349,3.263,3.263,0,0,0,1.021.4.324.324,0,0,0,.3-.075.518.518,0,0,0,.134-.29A.931.931,0,0,0,666.119,257.714Z" transform="translate(-600.664 -203.753)" fill="url(#linear-gradient-18)"/>
      <path id="Path_15226" data-name="Path 15226" d="M672.5,257.78a.129.129,0,0,0-.123.169.756.756,0,0,0-.147.145,1.1,1.1,0,0,0-.193.373,2.624,2.624,0,0,0-.062,1.011.067.067,0,0,0,.131,0,4.185,4.185,0,0,1,.091-.9.912.912,0,0,1,.156-.335.674.674,0,0,1,.123-.123.268.268,0,0,0,.1-.1.134.134,0,0,0-.075-.244Z" transform="translate(-606.119 -203.961)" fill="#e5e5e6"/>
      <path id="Path_15227" data-name="Path 15227" d="M676.244,259.95a1.593,1.593,0,0,0-.5,1.609c0,.067.115.051.115-.016a1.583,1.583,0,0,1,.48-1.421C676.448,260.049,676.349,259.875,676.244,259.95Z" transform="translate(-608.872 -205.535)" fill="#e5e5e6"/>
      <path id="Path_15228" data-name="Path 15228" d="M680.2,260.629a.785.785,0,0,0-.295.324,1.906,1.906,0,0,0-.185.413,2.179,2.179,0,0,0-.059.992c0,.067.121.051.118,0a2.583,2.583,0,0,1,.11-.917,1.7,1.7,0,0,1,.172-.367,1.426,1.426,0,0,1,.121-.164.611.611,0,0,0,.123-.164A.089.089,0,0,0,680.2,260.629Z" transform="translate(-611.739 -206.043)" fill="#e5e5e6"/>
      <path id="Path_15229" data-name="Path 15229" d="M684.478,262.758a1.305,1.305,0,0,0-.4.692,2.442,2.442,0,0,0-.03.925.056.056,0,0,0,.113,0,3.357,3.357,0,0,1,.094-.85,1.394,1.394,0,0,1,.145-.338,1.283,1.283,0,0,1,.236-.268A.112.112,0,0,0,684.478,262.758Z" transform="translate(-614.947 -207.584)" fill="#e5e5e6"/>
      <path id="Path_15230" data-name="Path 15230" d="M684.125,268.581a.175.175,0,0,0,0-.035.158.158,0,0,0-.032-.054.121.121,0,0,0-.056-.032H684a.137.137,0,0,0-.064.019h0a.078.078,0,0,0-.038.035.135.135,0,0,0-.024.043v.038a.137.137,0,0,0,.067.113.129.129,0,0,0,.048.016.11.11,0,0,0,.051,0l.032-.013a.121.121,0,0,0,.048-.048h0a.176.176,0,0,0,.019-.067Z" transform="translate(-614.84 -211.777)" fill="#e5e5e6"/>
      <path id="Path_15231" data-name="Path 15231" d="M681.685,260.484a.08.08,0,0,0,0-.048.084.084,0,0,0-.027-.04.1.1,0,0,0-.054-.032h0a.112.112,0,0,0-.072,0h0l-.035.013h-.013a.094.094,0,0,0-.035.038h0a.129.129,0,0,0-.019.07.121.121,0,0,0,.019.067.1.1,0,0,0,.048.048.121.121,0,0,0,.067.019h.035l.032-.013h.013a.091.091,0,0,0,.027-.043.03.03,0,0,0,0-.019.182.182,0,0,0,.013-.059Z" transform="translate(-613.054 -205.847)" fill="#e5e5e6"/>
      <path id="Path_15232" data-name="Path 15232" d="M679.72,266.933h0a.131.131,0,0,0-.252,0h0a.137.137,0,0,0,.129.172.139.139,0,0,0,.123-.172Z" transform="translate(-611.615 -210.591)" fill="#e5e5e6"/>
      <path id="Path_15233" data-name="Path 15233" d="M677.864,259.619a.162.162,0,0,0-.035-.059l-.029-.021a.14.14,0,0,0-.067-.019.11.11,0,0,0-.051.013.1.1,0,0,0-.046.027.148.148,0,0,0-.027.043.093.093,0,0,0,0,.054v.035a.145.145,0,0,0,.035.059l.029.021a.115.115,0,0,0,.067.019.111.111,0,0,0,.051,0,.1.1,0,0,0,.046-.029.119.119,0,0,0,.027-.043.083.083,0,0,0,0-.051Z" transform="translate(-610.255 -205.234)" fill="#e5e5e6"/>
      <path id="Path_15234" data-name="Path 15234" d="M675.634,265.51a.134.134,0,1,0,.134.134A.134.134,0,0,0,675.634,265.51Z" transform="translate(-608.714 -209.618)" fill="#e5e5e6"/>
      <path id="Path_15235" data-name="Path 15235" d="M671.886,263.907a.164.164,0,0,0-.035-.059l-.027-.019a.129.129,0,0,0-.064-.019.1.1,0,0,0-.048.013.137.137,0,0,0-.043.024.145.145,0,0,0-.027.043.1.1,0,0,0,0,.048v.035a.12.12,0,0,0,.032.056l.027.021a.18.18,0,0,0,.064.019.11.11,0,0,0,.051,0,.123.123,0,0,0,.067-.067.083.083,0,0,0,0-.051Z" transform="translate(-605.889 -208.374)" fill="#e5e5e6"/>
      <path id="Path_15236" data-name="Path 15236" d="M685.989,262.536a.121.121,0,0,0-.032-.056l-.027-.021a.147.147,0,0,0-.067-.019.11.11,0,0,0-.051.013.1.1,0,0,0-.043.027.078.078,0,0,0-.027.043.1.1,0,0,0,0,.048v.035a.115.115,0,0,0,.032.059l.027.021a.146.146,0,0,0,.067.016.083.083,0,0,0,.051,0,.1.1,0,0,0,.043-.027.117.117,0,0,0,.027-.043.109.109,0,0,0,0-.051Z" transform="translate(-616.208 -207.371)" fill="#e5e5e6"/>
      <path id="Path_15237" data-name="Path 15237" d="M673.891,264.619a2.176,2.176,0,0,1-1.4.115,14.225,14.225,0,0,1-1.458-.3,10.349,10.349,0,0,1-2.413-.954,7.421,7.421,0,0,1-1.091-.727.912.912,0,0,1-.268-.756.381.381,0,0,1,.091.054c.268.2.469.469.735.665a6.09,6.09,0,0,0,.984.59,10.865,10.865,0,0,0,2.308.753,3.882,3.882,0,0,0,1.909.086,2.145,2.145,0,0,0,1.247-.968.313.313,0,0,0,.016.121,1.386,1.386,0,0,1-.662,1.319Z" transform="translate(-602.682 -207.049)" fill="#714193" opacity="0.25"/>
      <path id="Path_15238" data-name="Path 15238" d="M588.577,213.313a9.647,9.647,0,0,1-.268.96l-.032.094-.016.046a.307.307,0,0,1-.035.094c-.011.029-.035.094-.054.139l-.021.048c-.019.046-.038.091-.059.134a.3.3,0,0,1-.019.043l-.043.083a.219.219,0,0,1-.021.043l-.043.078-.024.04-.07.1a.8.8,0,0,1-.268.244l-.812-.273-.193-.064-.241-.083-.126-.043-.161-.056-.048-.016-.206-.072-.088-.029-.2-.072-.169-.056-2.762-.954-1.148-.4-.249-.088-.268-.088-.07-.024-.3-.1-.07-.024-.434-.161-.724-.249-.429-.15-.536-.18-.327-.115-1.072-.375-.41-.142-.858-.3-.737-.268-.767-.268-.515-.18-.517-.18-.515-.18-.086-.029-.949-.332-.268-.091-.775-.268-2.552-.9-1.681-.6-.769-.268-.708-.252-.767-.268-.375-.134-.445-.158-1.652-.6-.536-.193-.268-.094-1.751-.643-.206-.078c-.44-.164-.831-.314-1.166-.442l-.15-.059-.072-.029a4.989,4.989,0,0,1-.8-.418,1.182,1.182,0,0,0,0-.536,1.4,1.4,0,0,1,.027-.716s28.827,11.55,29.862,11.183c.609-.217.839-1.032,1.113-1.55.2.115.4.236.606.357Z" transform="translate(-521.717 -163.992)" fill="#714193" opacity="0.25"/>
      <path id="Path_15239" data-name="Path 15239" d="M553.982,202.77a3.486,3.486,0,0,1-.517,2.925,1.139,1.139,0,0,1-.56-1.054,3.632,3.632,0,0,1,.4-1.239,1.494,1.494,0,0,1,.223-.378A.74.74,0,0,1,553.982,202.77Z" transform="translate(-518.986 -163.7)" fill="#35a3e5"/>
      <path id="Path_15240" data-name="Path 15240" d="M455.85,171.54a1.287,1.287,0,0,1,.536,1.909,1.257,1.257,0,0,0,.072-.976A1.646,1.646,0,0,0,455.85,171.54Z" transform="translate(-447.955 -140.843)" fill="url(#linear-gradient-19)"/>
      <path id="Path_15241" data-name="Path 15241" d="M455.78,171.32a1.842,1.842,0,0,1,1.555,2.343A2.845,2.845,0,0,0,455.78,171.32Z" transform="translate(-447.904 -140.682)" fill="url(#linear-gradient-20)"/>
      <path id="Path_15242" data-name="Path 15242" d="M429.367,168.124a1.211,1.211,0,0,0,.094-.209,2.967,2.967,0,0,0-.5-2.885,1.713,1.713,0,0,0-.976-.359,2.088,2.088,0,0,0-.343,0,.456.456,0,0,0-.332.18,2.029,2.029,0,0,0-.1.2,1.25,1.25,0,0,1-.4.327.466.466,0,0,0-.241.448c0,.064.046.121.056.185.029.177-.118.327-.182.493a.555.555,0,0,0,.086.536c.088.107.217.185.268.314a1.384,1.384,0,0,1,.04.335.563.563,0,0,0,.268.4,1.668,1.668,0,0,1,.268.158c.08.07.129.182.217.233l.043.019c.064.019.137,0,.2.013a.618.618,0,0,1,.147.07.686.686,0,0,0,.571.021,3.275,3.275,0,0,0,.6-.268,1.091,1.091,0,0,0,.217-.209Z" transform="translate(-426.403 -135.81)" fill="url(#linear-gradient-21)"/>
      <path id="Path_15243" data-name="Path 15243" d="M432.564,168.143a1.215,1.215,0,0,0,.094-.209,2.967,2.967,0,0,0-.5-2.885,1.713,1.713,0,0,0-.976-.359.865.865,0,0,1,.043.086,1.51,1.51,0,0,1-.043.82,2.681,2.681,0,0,0,.07,1.231,2.351,2.351,0,0,1,.2.973.834.834,0,0,1-.407.6.8.8,0,0,1-.268.094l.043.019c.064.019.137,0,.2.013a.62.62,0,0,1,.147.07.686.686,0,0,0,.571.021,3.283,3.283,0,0,0,.6-.268A1.1,1.1,0,0,0,432.564,168.143Z" transform="translate(-429.599 -135.829)" fill="#714193" opacity="0.25"/>
      <path id="Path_15244" data-name="Path 15244" d="M436.982,177.072a1.676,1.676,0,0,0,.367-.818,1.073,1.073,0,0,0-.193-.657,3.074,3.074,0,0,0-.239-.292,2.93,2.93,0,0,0-.735-.584,2.239,2.239,0,0,0-1.5-.295,2.182,2.182,0,0,0-.968.464.214.214,0,0,0-.035.035.151.151,0,0,0-.043.078.408.408,0,0,0,.024.137c.062.284-.322.552-.206.82.043.094.134.153.19.239a.872.872,0,0,1,.08.418.41.41,0,0,0,.19.365,1.321,1.321,0,0,0,.147.04c.19.059.292.255.394.424s.268.346.464.314c.113-.019.214-.107.33-.091a.765.765,0,0,1,.2.1.41.41,0,0,0,.378,0c.051-.027.094-.064.145-.088a1.072,1.072,0,0,1,.311-.059.834.834,0,0,0,.3-.107A1.161,1.161,0,0,0,436.982,177.072Z" transform="translate(-431.545 -142.935)" fill="url(#linear-gradient-22)"/>
      <path id="Path_15245" data-name="Path 15245" d="M437.656,177.072a1.676,1.676,0,0,0,.367-.818,1.072,1.072,0,0,0-.193-.657,3.066,3.066,0,0,0-.239-.292,3.436,3.436,0,0,0-.735-.584,2.239,2.239,0,0,0-1.5-.295,2.182,2.182,0,0,0-.968.464.216.216,0,0,0-.035.035h.043a1.574,1.574,0,0,1,.657.536,2.772,2.772,0,0,0,1.072.705,2.467,2.467,0,0,1,.936.437.874.874,0,0,1,.244.71.842.842,0,0,1-.043.185A1.161,1.161,0,0,0,437.656,177.072Z" transform="translate(-432.219 -142.935)" fill="#714193" opacity="0.25"/>
      <path id="Path_15246" data-name="Path 15246" d="M443.015,150.593a2.779,2.779,0,0,0-.29-.126,3.485,3.485,0,0,0-1.461-.2,2.13,2.13,0,0,0-1.507.555,2.413,2.413,0,0,0-.241,2.748,4.912,4.912,0,0,0,1.41,1.7l.169.113a3,3,0,0,0,2.378.381,4.263,4.263,0,0,0,2.051-1.115,2.247,2.247,0,0,0,.627-1.252,2.07,2.07,0,0,0-.359-1.341,3.986,3.986,0,0,0-.775-.842,3.663,3.663,0,0,0-.941-.574.15.15,0,0,0-.169.04.466.466,0,0,1-.215.174.287.287,0,0,1-.169-.035A4.266,4.266,0,0,1,443.015,150.593Z" transform="translate(-435.766 -125.263)" fill="#f5a784"/>
      <path id="Path_15247" data-name="Path 15247" d="M438.6,157.731a1.424,1.424,0,0,0,.252-1.341,1.756,1.756,0,0,0-.437-.713c-.268-.268-.477-.142-.791,0a1.73,1.73,0,0,1-.971.019.2.2,0,0,1-.19-.107c-.067-.2.228-.37.2-.558a1.869,1.869,0,0,0-.046-.2c-.024-.188.107-.381.046-.56-.043-.126-.169-.2-.268-.29a.869.869,0,0,1-.268-.536v-.115a.776.776,0,0,0-.038-.268c-.1-.236-.4-.314-.536-.536-.177-.268-.035-.643-.177-.93a2.323,2.323,0,0,1-.22-.375.732.732,0,0,1,.043-.37c.07-.231.078-.461-.166-.587-.174-.091-.365-.016-.552-.016s-.3-.04-.44.121c-.056.064-.1.139-.153.2-.239.268-.721.182-.925.472a2.323,2.323,0,0,0-.164.44,1.571,1.571,0,0,1-.442.491.785.785,0,0,0-.316.56c0,.091.032.177.037.268.027.378-.354.708-.292,1.072.035.214.212.383.252.6s-.064.453,0,.67c.072.292.4.442.536.708s.091.509.228.724.456.324.641.536c.145.164.212.394.386.536s.351.088.5.18c.088.056.137.147.214.214a.3.3,0,0,0,.121.072c.113.035.236,0,.351.03a2.145,2.145,0,0,1,.442.236,1.461,1.461,0,0,0,.863-.016C437.119,158.222,438.009,158.436,438.6,157.731Z" transform="translate(-430.342 -125.24)" fill="url(#linear-gradient-23)"/>
      <path id="Path_15248" data-name="Path 15248" d="M452.068,155.458c.228.027.4.115.394.2s-.2.126-.429.1-.4-.113-.394-.2S451.84,155.431,452.068,155.458Z" transform="translate(-444.872 -129.067)" fill="#1d1109"/>
      <path id="Path_15249" data-name="Path 15249" d="M448.7,155.129a.735.735,0,0,0,.15.316,1.8,1.8,0,0,0,.212.268,3.123,3.123,0,0,0,.236.225,2.463,2.463,0,0,0,.268.193c.043.027.083-.035.046-.067a2.175,2.175,0,0,1-.225-.22,1.929,1.929,0,0,1-.193-.249,2.311,2.311,0,0,1-.142-.268,1.431,1.431,0,0,0-.15-.292.121.121,0,0,0-.113-.04h-.032A.123.123,0,0,0,448.7,155.129Z" transform="translate(-442.72 -128.732)" fill="url(#linear-gradient-24)"/>
      <path id="Path_15250" data-name="Path 15250" d="M446.077,166.177a1.418,1.418,0,0,0,.252-1.341,1.722,1.722,0,0,0-.437-.713c-.268-.268-.477-.145-.791,0a1.753,1.753,0,0,1-.971.021c-.075-.013-.164-.038-.188-.11-.07-.2.225-.37.2-.555a1.594,1.594,0,0,0-.046-.2c-.024-.19.11-.383.046-.563-.043-.126-.166-.2-.268-.29a.847.847,0,0,1-.268-.536v-.115h-.019a.322.322,0,0,0-.166.3.863.863,0,0,0,.147.357.587.587,0,0,1,.1.367.493.493,0,0,1-.08.18c-.15.225-.391.437-.351.7,0,.062.032.118.035.18a.849.849,0,0,1-.126.362.735.735,0,0,0,.335.9c.11.056.236.083.346.142.158.086.29.244.469.268a1.385,1.385,0,0,1,.316,0,.268.268,0,0,1,.142.359.426.426,0,0,1-.33.247c-.147.027-.316,0-.424.107-.062.059-.091.15-.158.206a.415.415,0,0,1-.287.062h-.7a1.126,1.126,0,0,1-.413-.059.491.491,0,0,0-.233-.07.4.4,0,0,0-.193.11.332.332,0,0,0,.121.07c.115.035.236,0,.351.029.166.032.29.169.445.239a1.475,1.475,0,0,0,.861-.019C444.6,166.665,445.479,166.882,446.077,166.177Z" transform="translate(-437.833 -133.699)" fill="#714193" opacity="0.25"/>
      <path id="Path_15251" data-name="Path 15251" d="M459.16,156.038a.861.861,0,0,0,.391-.818" transform="translate(-450.377 -128.898)" fill="none" stroke="#462a1b" stroke-linecap="round" stroke-linejoin="round" stroke-width="0.27"/>
      <path id="Path_15252" data-name="Path 15252" d="M449.8,170.113a.847.847,0,0,0,.338-.654c-.016-.3-.341-.164-.517-.094a.982.982,0,0,1-.536.043,4.385,4.385,0,0,0-.5-.134.8.8,0,0,0-.41.177.536.536,0,0,0-.22.442.558.558,0,0,0,.343.448,1.236,1.236,0,0,0,.584.075,1.622,1.622,0,0,0,.922-.3Z" transform="translate(-442.173 -139.183)" fill="#f5a784"/>
      <path id="Path_15253" data-name="Path 15253" d="M450.1,170.221a1.072,1.072,0,0,1,.66-.761" transform="translate(-443.747 -139.32)" fill="none" stroke="#462a1b" stroke-linecap="round" stroke-linejoin="round" stroke-width="0.27"/>
      <path id="Path_15254" data-name="Path 15254" d="M451.51,170.026a.842.842,0,0,1,.281-.566" transform="translate(-444.779 -139.32)" fill="none" stroke="#462a1b" stroke-linecap="round" stroke-linejoin="round" stroke-width="0.27"/>
      <path id="Path_15255" data-name="Path 15255" d="M455.134,157.049c.169.029.249.4.177.82s-.268.745-.432.716-.247-.394-.177-.818S454.968,157.035,455.134,157.049Z" transform="translate(-447.097 -130.236)" fill="#ba979b" opacity="0.25"/>
    </g>
  </g>
</svg>
