<svg xmlns="http://www.w3.org/2000/svg" width="21.016" height="20.999" viewBox="0 0 21.016 20.999">
  <g id="dumbbells-svgrepo-com" transform="translate(-1.424 -1.432)" opacity="0.3">
    <path id="Path_11675" data-name="Path 11675" d="M12.941,10.513l-.383.639Zm-.53-2.491.743.1a.766.766,0,0,0-.653-.848Zm-.094,1.623-.725.173Zm3.775.525.66.366Zm-.811.669.218.723Zm.835-6.884.383-.639Zm.624.868.725-.173ZM13.776,3.629l-.218-.723ZM12.669,5.892l-.09.745A.734.734,0,0,0,13.412,6Zm.3-1.594-.66-.365ZM2.832,9.106l-.383.639Zm-.624-.868-.725.173ZM6.279,7.169l.09-.745a.734.734,0,0,0-.833.641Zm-.3,1.594.66.365Zm-.811.669.218.723Zm.835-6.884.383-.639Zm.53,2.491-.743-.1a.766.766,0,0,0,.653.848Zm.094-1.622.725-.173ZM3.667,2.222,3.449,1.5Zm-.811.669L2.2,2.525Zm13.09,3.1L15.6,8.827l1.486.207.344-2.84Zm-1.758,4.052c-.32-.044-.52-.073-.67-.1a.647.647,0,0,1-.194-.06l-.767,1.278a2.079,2.079,0,0,0,.673.253c.216.046.48.083.778.124Zm-2.52-2.121c-.04.326-.083.681-.106.989a3.079,3.079,0,0,0,.03.909l1.451-.345c.005.021,0,0,0-.1s0-.194.015-.327c.021-.269.059-.588.1-.923Zm1.656,1.955a.655.655,0,0,1-.282-.4l-1.451.345a2.192,2.192,0,0,0,.966,1.335ZM15.6,8.827c-.041.34-.068.561-.1.728a.885.885,0,0,1-.071.249l1.32.731a2.3,2.3,0,0,0,.222-.679c.042-.225.075-.5.114-.822Zm-1.594,2.7c.3.042.561.079.781.093a2.034,2.034,0,0,0,.71-.06l-.436-1.445a.635.635,0,0,1-.2.005c-.153-.01-.353-.037-.673-.082ZM15.432,9.8a.623.623,0,0,1-.369.312l.436,1.445a2.085,2.085,0,0,0,1.253-1.026Zm-.563-5.376c.32.044.52.073.67.1a.645.645,0,0,1,.194.06L16.5,3.315a2.08,2.08,0,0,0-.672-.253c-.216-.046-.48-.082-.778-.124Zm2.563,1.766c.039-.321.073-.6.086-.826a2.344,2.344,0,0,0-.052-.717L16.015,5a.9.9,0,0,1,.009.26c-.01.17-.036.391-.077.731Zm-1.7-1.6a.655.655,0,0,1,.282.4l1.451-.345A2.192,2.192,0,0,0,16.5,3.315Zm-.684-1.654c-.3-.041-.561-.079-.781-.093a2.034,2.034,0,0,0-.71.06l.436,1.445a.633.633,0,0,1,.2-.005c.153.01.353.037.673.082ZM13.412,6c.041-.335.079-.655.124-.92.022-.132.043-.239.064-.321s.036-.111.026-.092L12.3,3.932a3.03,3.03,0,0,0-.246.871c-.051.3-.094.659-.133.985Zm.146-3.089A2.085,2.085,0,0,0,12.3,3.932l1.32.731a.623.623,0,0,1,.369-.311ZM3,7.074l.344-2.84L1.86,4.027l-.344,2.84ZM4.079,8.632c-.32-.044-.52-.073-.67-.1a.645.645,0,0,1-.194-.06L2.449,9.745A2.08,2.08,0,0,0,3.121,10c.216.046.48.082.778.124ZM1.516,6.867c-.039.321-.073.6-.086.826a2.341,2.341,0,0,0,.052.717l1.451-.345a.9.9,0,0,1-.009-.26c.01-.17.036-.391.077-.731Zm1.7,1.6a.655.655,0,0,1-.282-.4L1.482,8.41a2.192,2.192,0,0,0,.966,1.335Zm2.321-1.4c-.041.335-.08.655-.124.92-.022.132-.043.239-.064.321s-.036.111-.025.092l1.32.731a3.03,3.03,0,0,0,.246-.871c.051-.3.094-.659.133-.985ZM3.9,10.122c.3.041.561.078.781.093a2.032,2.032,0,0,0,.71-.06L4.954,8.709a.632.632,0,0,1-.2.005C4.6,8.7,4.4,8.677,4.079,8.632ZM5.323,8.4a.623.623,0,0,1-.369.311l.436,1.445A2.085,2.085,0,0,0,6.643,9.128ZM4.76,3.021c.32.044.52.073.67.1a.644.644,0,0,1,.194.06l.767-1.278a2.08,2.08,0,0,0-.673-.253c-.216-.046-.48-.082-.778-.124ZM7.28,5.142c.04-.326.083-.681.106-.989a3.078,3.078,0,0,0-.03-.909l-1.451.345c-.005-.021,0,0,0,.1s0,.194-.015.327c-.021.269-.059.588-.1.923ZM5.624,3.187a.655.655,0,0,1,.282.4l1.451-.345a2.192,2.192,0,0,0-.966-1.335ZM4.94,1.532c-.3-.041-.561-.079-.781-.093a2.034,2.034,0,0,0-.71.06l.436,1.445a.632.632,0,0,1,.2-.005c.153.01.353.037.673.082Zm-1.594,2.7c.041-.34.068-.561.1-.728a.882.882,0,0,1,.071-.249L2.2,2.525a2.3,2.3,0,0,0-.222.679c-.042.225-.075.5-.114.822Zm.1-2.734A2.085,2.085,0,0,0,2.2,2.525l1.32.731a.623.623,0,0,1,.369-.311Zm3,4.284,6.132.853.181-1.489L6.628,4.294ZM12.5,7.277,6.369,6.424,6.189,7.913l6.132.853Z"/>
    <path id="Path_11676" data-name="Path 11676" d="M11.331,21.012l.457.583Zm.218-2.544-.721.207a.782.782,0,0,1,.539-.934Zm.294,1.595.738.072Zm-4.8.07a.782.782,0,0,1,.539-.934.719.719,0,0,1,.9.521Zm1.125.986-.605.457Zm.886.548-.123.749ZM7.374,14.961l-.457-.583ZM7.6,15.982a.773.773,0,0,1-.83.681.728.728,0,0,1-.645-.825Zm2.054-1.675.123-.749Zm1.376,2.086.182.728a.719.719,0,0,1-.9-.521Zm-.49-1.538.605-.457Zm10.638,3.331.457.583h0Zm.512-.949.738.072Zm-4.168-.483-.182-.728a.72.72,0,0,1,.9.521Zm.49,1.538-.605.457Zm.886.548-.124.749ZM17.22,12.135l-.457-.583ZM17,14.679l.721-.207a.782.782,0,0,1-.539.934Zm-.294-1.595-.738-.072Zm2.791-1.6.123-.749h0Zm.886.548.605-.457ZM10.035,20.717c.311-.089.506-.146.652-.2a.664.664,0,0,0,.187-.088l.913,1.166a2.113,2.113,0,0,1-.633.344c-.208.076-.465.149-.755.233Zm2.234-2.456c.08.318.166.663.228.966a3.08,3.08,0,0,1,.083.908L11.1,19.991c0,.022,0,0-.009-.094s-.028-.191-.055-.322c-.054-.263-.131-.574-.213-.9Zm-1.4,2.168a.67.67,0,0,0,.231-.438l1.475.144a2.244,2.244,0,0,1-.793,1.46Zm-2.392-.711c.083.332.137.546.188.707a.86.86,0,0,0,.1.235l-1.211.915a2.26,2.26,0,0,1-.3-.644c-.07-.218-.137-.487-.215-.8ZM10.4,22.172c-.29.083-.546.157-.762.2a2.027,2.027,0,0,1-.709.041l.247-1.5a.637.637,0,0,0,.2-.024c.151-.032.346-.087.657-.177ZM8.77,20.661a.607.607,0,0,0,.4.256l-.247,1.5a2.035,2.035,0,0,1-1.368-.84Zm-.1-5.4c-.311.089-.506.146-.652.2a.663.663,0,0,0-.187.089l-.913-1.166a2.118,2.118,0,0,1,.633-.344c.208-.076.464-.149.755-.233Zm-.839.288a.67.67,0,0,0-.231.438l-1.475-.144a2.244,2.244,0,0,1,.793-1.46ZM8.305,13.8c.29-.083.546-.157.762-.2a2.025,2.025,0,0,1,.709-.041l-.247,1.5a.637.637,0,0,0-.2.024c-.151.032-.346.087-.657.177Zm2,2.8c-.082-.327-.16-.638-.236-.894q-.057-.192-.1-.308c-.034-.087-.049-.1-.036-.086l1.211-.915a2.981,2.981,0,0,1,.352.831c.088.295.174.641.254.958Zm-.532-3.043a2.035,2.035,0,0,1,1.368.84l-1.211.915a.607.607,0,0,0-.4-.256Zm10.984,2.637-.692-2.766,1.442-.414.692,2.766Zm-.879,1.7c.311-.089.506-.146.652-.2a.662.662,0,0,0,.187-.089l.913,1.166a2.114,2.114,0,0,1-.633.344c-.208.076-.464.149-.755.233Zm2.321-2.11c.078.313.146.582.187.807a2.349,2.349,0,0,1,.037.72l-1.476-.143a.891.891,0,0,0-.023-.257c-.031-.167-.084-.382-.167-.713ZM20.72,17.6a.67.67,0,0,0,.231-.438l1.476.143a2.244,2.244,0,0,1-.793,1.46Zm-2.478-1.056c.082.327.16.637.236.894q.057.192.1.308c.034.087.049.1.036.086l-1.211.915a2.986,2.986,0,0,1-.352-.831c-.088-.295-.174-.641-.254-.958Zm2,2.8c-.29.083-.546.157-.762.2a2.027,2.027,0,0,1-.709.041l.247-1.5a.644.644,0,0,0,.2-.024c.151-.032.346-.087.657-.177Zm-1.629-1.511a.607.607,0,0,0,.4.256l-.247,1.5a2.034,2.034,0,0,1-1.368-.84Zm-.1-5.4c-.311.089-.506.146-.652.2a.665.665,0,0,0-.187.089l-.913-1.165a2.116,2.116,0,0,1,.633-.345c.208-.076.464-.149.755-.233Zm-2.234,2.456c-.08-.318-.166-.663-.228-.966a3.079,3.079,0,0,1-.083-.908l1.475.144c0-.022,0,0,.009.094s.028.191.055.322c.054.263.131.574.213.9Zm1.4-2.168a.67.67,0,0,0-.231.438l-1.475-.144a2.243,2.243,0,0,1,.793-1.46Zm.475-1.743c.29-.083.546-.157.762-.2a2.027,2.027,0,0,1,.709-.041l-.247,1.5a.637.637,0,0,0-.2.023c-.151.032-.346.087-.657.177Zm1.917,2.453c-.083-.332-.137-.546-.188-.707a.861.861,0,0,0-.1-.235l1.211-.915a2.257,2.257,0,0,1,.3.644c.07.218.137.487.215.8Zm-.445-2.7a2.035,2.035,0,0,1,1.368.84l-1.211.915a.607.607,0,0,0-.4-.256Zm-2.439,4.675-5.972,1.714-.364-1.455,5.972-1.714ZM11.367,17.74l5.972-1.714.364,1.455L11.731,19.2Z"/>
  </g>
</svg>
