<svg xmlns="http://www.w3.org/2000/svg" width="13.407" height="8.942" viewBox="0 0 13.407 8.942">
  <path id="Icon_ionic-ios-arrow-round-back" data-name="Icon ionic-ios-arrow-round-back" d="M12.739,11.423a.609.609,0,0,1,0,.857L9.917,15.116H20.688a.605.605,0,0,1,0,1.211H9.917l2.831,2.836a.613.613,0,0,1,0,.857.6.6,0,0,1-.852,0L8.054,16.149h0a.68.68,0,0,1-.126-.191.578.578,0,0,1-.047-.233.607.607,0,0,1,.172-.424l3.837-3.865A.593.593,0,0,1,12.739,11.423Z" transform="translate(-7.882 -11.252)" fill="#001e6c"/>
</svg>
