<svg xmlns="http://www.w3.org/2000/svg" xmlns:xlink="http://www.w3.org/1999/xlink" width="85.732" height="32.385" viewBox="0 0 85.732 32.385">
  <defs>
    <clipPath id="clip-path">
      <path id="Path_11699" data-name="Path 11699" d="M22.762,166.7h85.733V199.08H22.762Zm0,0" transform="translate(-22.762 -166.695)" fill="#191921"/>
    </clipPath>
  </defs>
  <g id="jump_rope" data-name="jump rope" clip-path="url(#clip-path)">
    <path id="Path_11698" data-name="Path 11698" d="M87.563,188.92c-6.67,2.889-18.895,3.814-18.895,3.814-17.052-3.191-27.1-7.131-27.063-9.3.051-3.319,8.134-6.056,8.134-6.056,19.376-.832,22.73-.014,30.222.992,4.3.577,10.932,2.566,12.842,4.551C94.686,184.884,89.391,188.128,87.563,188.92Zm-54.862.126s-7.383-1.382-5.387-5.128c1.068-2.006,3.988-3.2,8.052-4.231C35.365,179.687,28.3,183.823,32.7,189.046Zm62.249-9.6a10.126,10.126,0,0,0-5.759-2.989S93.909,175.945,94.949,179.449Zm5.545,1.2a6.511,6.511,0,0,1,3.19,3.569l-3.415.338A10.114,10.114,0,0,0,100.494,180.65Zm-3.221-6.585s-7.639-8.417-22.221-7.261a89.856,89.856,0,0,0-20.259,4.326,65.63,65.63,0,0,0-10.348,2.983s-18.407.818-21.273,8.7c-1.256,3.46-.048,10.5,9.673,11.1,1.293.082,2.559,1.263,4.6,1.423.283,2.33,2.252,3.136,4.207,3.487.106.017.212.031.321.041,2.139.195,4.125-1.439,4.906-3.834,6.783.583,13.115,1.156,13.115,1.156s18.267,5.053,26.824,1.467c1.955-.816,5.291-2.344,8.738-3.951a6,6,0,0,0,4.93,2.719,4.553,4.553,0,0,0,2.566-.8c1.368-.955,2.937-2.521,2.664-4.462-.075-.532,1.99-3.207,1.99-3.207s5.056-8.219-10.431-13.889" transform="translate(-22.762 -166.695)" fill="#191921"/>
  </g>
</svg>
