<svg xmlns="http://www.w3.org/2000/svg" width="84.391" height="76.409" viewBox="0 0 84.391 76.409">
  <g id="lower_body" data-name="lower body" transform="translate(-245.771 -431.052)">
    <path id="Path_12638" data-name="Path 12638" d="M58.756,32.864c-4.678-.579-8.821,2.081-12.041,5.231-2.278,2.221-3.475,5.925-3.908,9.018-.267,1.909-.235,3.857-1.069,5.562C40.611,55,38.123,56.342,35.66,57.131s-5.091,1.133-7.4,2.247a14.652,14.652,0,0,0-7.548,9.5,22.316,22.316,0,0,0,.516,12.353c2.234,7.2,7.968,13.842,15.44,14.81,7,.91,14.052-3.227,21-1.973a34.62,34.62,0,0,1,7.866,2.966c5.951,2.673,14.046,5.887,20.576,3.545,5.779-2.075,7.542-7.376,7.446-13.066A12.658,12.658,0,0,0,91.939,81a18.272,18.272,0,0,0-3.532-3.819,32.63,32.63,0,0,1-6.281-6.9c-4.347-7.064-3.233-16.324-6.848-23.783a28.263,28.263,0,0,0-7.134-8.783C65.438,35.378,62.307,33.3,58.756,32.864Z" transform="translate(227.822 400.638)" fill="#f4fafe"/>
    <path id="Path_12639" data-name="Path 12639" d="M101.463,144.216c-.694-.076-1.394-.127-2.094-.165H42.015L20.154,144h-.127a7.007,7.007,0,0,0-.916.083.636.636,0,0,0,0,1.209l.916.083H42.358l57.049-.032a19.087,19.087,0,0,0,2.087-.165.5.5,0,0,0-.032-.961Z" transform="translate(228.328 360.203)" fill="#c6c6c6"/>
    <path id="Path_12677" data-name="Path 12677" d="M99.788,84.35a18.456,18.456,0,0,0-3.182-.929,10.063,10.063,0,0,0-2.985-.636.14.14,0,0,0-.134.172v.076a.045.045,0,0,0,.038,0,5.314,5.314,0,0,1,1.368.363l1.776.477a17.462,17.462,0,0,0,3.017.636.108.108,0,0,0,.1-.159Z" transform="matrix(0.819, -0.574, 0.574, 0.819, 162.727, 430.582)" fill="#35a3e5"/>
    <path id="Path_12678" data-name="Path 12678" d="M107.766,74.056a72.774,72.774,0,0,0-8.331-.465,80.971,80.971,0,0,0-8.7-.038.1.1,0,1,0,0,.191c2.8.3,5.677.248,8.5.363s5.671.4,8.484.3C107.906,74.4,107.97,74.088,107.766,74.056Z" transform="matrix(0.819, -0.574, 0.574, 0.819, 165.517, 432.765)" fill="#35a3e5"/>
    <path id="Path_12679" data-name="Path 12679" d="M97.075,63c-1.095.2-2.17.509-3.265.732a12.417,12.417,0,0,0-2.87.636V64.4a7.293,7.293,0,0,0,2.794-.185,16.2,16.2,0,0,0,3.418-.9A.164.164,0,1,0,97.075,63Z" transform="translate(202.053 380.674)" fill="#35a3e5"/>
    <g id="Group_3873" data-name="Group 3873" transform="translate(-8045.229 -1874.249)">
      <path id="Path_13514" data-name="Path 13514" d="M0,500Z" transform="translate(8291 1881.71)" fill="#fff"/>
      <path id="Path_13305" data-name="Path 13305" d="M191.68,290.214a.048.048,0,0,0-.079,0l-.072.11a.075.075,0,0,0-.043.017c-.211.194-.493.534-.4.841a.151.151,0,0,0,.177.1.218.218,0,0,0,.35.069.9.9,0,0,0,.192-.6,1.1,1.1,0,0,0-.127-.544Z" transform="translate(8145.69 2041.269)" fill="#233645"/>
      <path id="Path_13306" data-name="Path 13306" d="M114.746,292.154c-.089-.17-.122-.479-.3-.563a.134.134,0,0,0-.137,0c-.187.125-.146.4-.1.584s.156.536.419.515a.239.239,0,0,0,.218-.189A.479.479,0,0,0,114.746,292.154Z" transform="translate(8204.175 2040.22)" fill="#233645"/>
      <path id="Path_13307" data-name="Path 13307" d="M82.739,283.438c-.1-.091-.2-.182-.307-.271l-.086-.074c-.089.046-.177.091-.261.139s-.168.079-.24.122a1.475,1.475,0,0,0-.283.165,4.6,4.6,0,0,0-1.844,2.347q-.448.362-.877.759a10.339,10.339,0,0,0-.91.625,7.851,7.851,0,0,0-1.269,1.14.023.023,0,0,1-.012,0c-.649-.548-1.36-1.049-2.017-1.571-.479-.386-1.039-.757-1.54-1.174l-.16-.139c-.125-.108-.239-.22-.362-.338a5.925,5.925,0,0,1,.433-.479,1.1,1.1,0,0,0,.419-.671,1.456,1.456,0,0,0-.134-.608.78.78,0,0,0-.292-.776,1.227,1.227,0,0,0-.211-.3.022.022,0,0,0-.036,0v.048l-.175-.165a3.427,3.427,0,0,1-.268-.256.364.364,0,0,0-.429-.163c-.046,0-.441.148-.4.208a.177.177,0,0,0-.069-.069.582.582,0,0,0-.608.072.211.211,0,0,0-.127-.091.874.874,0,0,0-.637.141.62.62,0,0,0-.695.1.12.12,0,0,0-.1.06c-.177.311-.465,1.339.117,1.437a.2.2,0,0,0,.091,0,3.034,3.034,0,0,0,.625,1.993A10.475,10.475,0,0,0,71.1,287.37a22.088,22.088,0,0,0,1.585,2.067,19.646,19.646,0,0,0,1.916,1.9c.46.4,1.1,1.051,1.729,1.106a.158.158,0,0,0,.1-.026,2.809,2.809,0,0,0,.958-.239,5.3,5.3,0,0,0,1.267-.628.134.134,0,0,0,.038-.045l.239-.122a15.032,15.032,0,0,0,2.874-1.645,7.594,7.594,0,0,0,1.226-.936l.067-.055.151-.479c.012-.115.022-.24.031-.345l-.084.053c.034-.057.065-.115.1-.172,0-.105.017-.213.026-.319,0-.568-.019-1.138-.038-1.705Q83.044,284.609,82.739,283.438Z" transform="translate(8238.516 2047.665)" fill="#dca47a"/>
      <path id="Path_13308" data-name="Path 13308" d="M81.316,301.015a9.723,9.723,0,0,0-1.054-1.284,4.818,4.818,0,0,0-1.106-1.2s-.019,0-.014.012a1,1,0,0,0,.048.134,1.2,1.2,0,0,0-.4-.292.014.014,0,0,0-.017.022,3.5,3.5,0,0,0,.5.5l.105.117c.2.285.462.551.663.8a7.358,7.358,0,0,0,1.2,1.279C81.285,301.132,81.344,301.063,81.316,301.015Z" transform="translate(8231.096 2035.038)" fill="#db916b"/>
      <path id="Path_13309" data-name="Path 13309" d="M72.14,288.53v.017S72.15,288.53,72.14,288.53Z" transform="translate(8236.137 2042.534)" fill="#db916b"/>
      <path id="Path_13310" data-name="Path 13310" d="M85.53,286.57a1.264,1.264,0,0,0,.172.584,3.008,3.008,0,0,0,.378.508.067.067,0,0,0,0-.079c-.055-.091-.115-.177-.177-.263-.053-.125-.141-.24-.2-.369A3.662,3.662,0,0,0,85.53,286.57Z" transform="translate(8225.954 2044.024)" fill="#db916b"/>
      <path id="Path_13311" data-name="Path 13311" d="M95.033,300.6a3.461,3.461,0,0,0-.575.817.958.958,0,0,0-.165-.239.072.072,0,0,0-.069-.022c-.05-.086-.093-.2-.189-.239a.053.053,0,0,0-.06.026h0a.844.844,0,0,0-.057-.072.067.067,0,0,0-.062-.022c-.036-.067-.072-.137-.115-.2a.084.084,0,0,0-.105-.034,1.6,1.6,0,0,0-.16-.259,5.566,5.566,0,0,0-.524-1.2.177.177,0,0,0-.321.134,5.028,5.028,0,0,0,.263.829,23.216,23.216,0,0,1,1.217,2.706,1.837,1.837,0,0,0,.2-.493c.019-.057.034-.115.048-.175.077-.16.144-.326.225-.479.18-.333.422-.644.575-.989a.079.079,0,0,0-.122-.091Z" transform="translate(8220.559 2034.51)" fill="#da906a"/>
      <path id="Path_13312" data-name="Path 13312" d="M99.386,324.566a.089.089,0,0,0-.115-.127l-.163.077a2.745,2.745,0,0,0-.441.05c-.17.024-.115.273.038.283a.975.975,0,0,0,.654-.148A.1.1,0,0,0,99.386,324.566Z" transform="translate(8216.042 2015.233)" fill="#da906a"/>
      <path id="Path_13313" data-name="Path 13313" d="M71.99,281.131c0-.029.041-.12.06-.211a1.788,1.788,0,0,0,.156-.218,1.041,1.041,0,0,0,.22-.378.058.058,0,0,0-.057-.074.458.458,0,0,0-.3.168h-.026a.51.51,0,0,0-.18.22.584.584,0,0,0-.034.067.165.165,0,0,0-.16-.132,5.821,5.821,0,0,0-1.808.172.091.091,0,0,0-.036,0,.409.409,0,0,0-.093.041,1.818,1.818,0,0,0-.4.2c-.029.019-.031.074,0,.081a.451.451,0,0,0,.1,0,1,1,0,0,0-.211.369.259.259,0,0,0,.057.239h0l.024.019a.137.137,0,0,0,.05.031h.012a.254.254,0,0,0,.319-.105c.055-.113.079-.24.137-.347a1.164,1.164,0,0,0,.122-.239l.127-.017a1.913,1.913,0,0,0-.165.254.285.285,0,0,0,.137.407.3.3,0,0,0,.239,0,.208.208,0,0,0,.182-.1,1.677,1.677,0,0,0,.268-.6v-.017h.158a2.707,2.707,0,0,0-.148.24.3.3,0,0,0,.144.431.307.307,0,0,0,.412-.2,1.816,1.816,0,0,0,.141-.491h.223a.2.2,0,0,0,.041-.012,1.089,1.089,0,0,0-.091.455,1,1,0,0,0,.479.812.144.144,0,0,0,.206-.16C72.242,281.67,71.892,281.543,71.99,281.131Z" transform="translate(8238.37 2048.831)" fill="#edb389"/>
      <path id="Path_13314" data-name="Path 13314" d="M105.533,285.39a4.984,4.984,0,0,0-2.979,2.814.093.093,0,0,0-.153-.043,1.967,1.967,0,0,0-.3.479c-.089.141-.211.263-.3.4-1.3.812-2.826,1.839-2.982,3.425h.014c.733-1.758,2.179-2.512,3.667-3.554a.136.136,0,0,0-.017-.239,6.544,6.544,0,0,1,1.219-1.825,11.2,11.2,0,0,1,1.885-1.344.072.072,0,0,0-.055-.117Z" transform="translate(8215.847 2044.922)" fill="#edb389"/>
      <path id="Path_13315" data-name="Path 13315" d="M84.172,291.567c.022-.091.041-.182.055-.273l-.1-.182a.075.075,0,0,0-.038.029c-.024.029-.046.06-.067.091a.048.048,0,0,0-.067,0,2.8,2.8,0,0,0-.311.34,2.524,2.524,0,0,0,.153-.587.041.041,0,0,0-.019-.038l.194-.352-.1-.129-.137.1c.026-.062.05-.125.074-.187l-.077-.108c-.079.074-.153.148-.239.228a3.483,3.483,0,0,0,.132-.364l-.18-.256a3.046,3.046,0,0,0-.541.5l-.086-.093a6.672,6.672,0,0,0-.934-.905h0l.062.072c-.041-.038-.079-.077-.122-.11a.025.025,0,1,0-.038.031,3.306,3.306,0,0,0,.321.479c.148.3.338.58.51.862-.129.163-.256.326-.383.479-.513.6-1.073,1.15-1.638,1.7-.611.594-1.229,1.176-1.844,1.76-.479.462-1.03.9-1.468,1.408-.335-.29-.683-.57-.994-.881a21.919,21.919,0,0,1-1.732-1.916c-.551-.692-1.049-1.423-1.581-2.129a4.467,4.467,0,0,0-1.494-1.511c-.041-.089-.079-.18-.12-.268h0a1.059,1.059,0,0,0,.165-.268,2.606,2.606,0,0,1,.386-.5c.089-.093.182-.18.275-.263a2.608,2.608,0,0,0,.479-.307c.062.014.129-.062.172-.1a.357.357,0,0,0,.146-.2c.024-.127-.115-.292-.24-.2v.014a.034.034,0,0,0-.031-.017,1.932,1.932,0,0,0-.261.029.315.315,0,0,0-.019-.132.594.594,0,0,0-.014-.184h0a1.354,1.354,0,0,0-.014-.24H72.4a.7.7,0,0,1-.017.093l-.038,0a1.8,1.8,0,0,0-.122.256.031.031,0,0,0-.036.024,1.069,1.069,0,0,0-.026.132.622.622,0,0,1-.034.069.082.082,0,0,1-.019.022l-.084.012H71.8a.055.055,0,0,0-.029-.014H71.68a.039.039,0,0,0-.019-.012l-.1-.026a1.128,1.128,0,0,1-.034-.175v-.113a.48.48,0,0,0,0-.1.022.022,0,0,0-.014-.026c0-.034,0-.067,0-.1a1.28,1.28,0,0,0,.022-.206c0-.041-.057-.045-.069,0-.05.139-.081.285-.125.424-.026.084-.06.165-.089.24a3.593,3.593,0,0,0-.453-.048l-.024-.036c-.048-.079-.079-.172-.127-.251a.575.575,0,0,0,0-.11.048.048,0,0,0-.091-.024.6.6,0,0,0-.057.283,1.322,1.322,0,0,0,0,.136l-.122.012a.055.055,0,0,0-.014.105h.029a.3.3,0,0,0-.014.043.137.137,0,0,0-.053.062v.026h0a.074.074,0,0,0-.077.089h0a.5.5,0,0,0,.031.132h0a.09.09,0,0,0,0,.024,10.193,10.193,0,0,0,1.039,2.62,1.4,1.4,0,0,0,.283.24l.043.014c.1.127.206.254.292.383.376.558.733,1.121,1.145,1.65a11.107,11.107,0,0,0,3.063,2.852h0c.28.259.568.525.872.766a.115.115,0,0,0,0,.041,24.406,24.406,0,0,0,4.141-1.856c.74-.431,1.437-.915,2.177-1.358.108-.067.223-.132.338-.2a6.794,6.794,0,0,0,.647-1.456A.085.085,0,0,0,84.172,291.567Z" transform="translate(8237.579 2043.853)" fill="#db916b"/>
      <path id="Path_13316" data-name="Path 13316" d="M82.739,283.438c-.1-.091-.2-.182-.307-.271l-.086-.074c-.089.046-.177.091-.261.139s-.168.079-.24.122a1.475,1.475,0,0,0-.283.165,4.6,4.6,0,0,0-1.844,2.347q-.448.362-.877.759a10.339,10.339,0,0,0-.91.625,7.851,7.851,0,0,0-1.269,1.14.023.023,0,0,1-.012,0c-.649-.548-1.36-1.049-2.017-1.571-.479-.386-1.039-.757-1.54-1.174l-.16-.139c-.125-.108-.239-.22-.362-.338a5.925,5.925,0,0,1,.433-.479,1.1,1.1,0,0,0,.419-.671,1.456,1.456,0,0,0-.134-.608.78.78,0,0,0-.292-.776,1.227,1.227,0,0,0-.211-.3.022.022,0,0,0-.036,0v.048l-.175-.165a3.427,3.427,0,0,1-.268-.256.364.364,0,0,0-.429-.163c-.046,0-.441.148-.4.208a.177.177,0,0,0-.069-.069.582.582,0,0,0-.608.072.211.211,0,0,0-.127-.091.874.874,0,0,0-.637.141.62.62,0,0,0-.695.1.12.12,0,0,0-.1.06c-.177.311-.465,1.339.117,1.437a.2.2,0,0,0,.091,0,3.034,3.034,0,0,0,.625,1.993A10.475,10.475,0,0,0,71.1,287.37a22.088,22.088,0,0,0,1.585,2.067,19.646,19.646,0,0,0,1.916,1.9c.46.4,1.1,1.051,1.729,1.106a.158.158,0,0,0,.1-.026,2.809,2.809,0,0,0,.958-.239,5.3,5.3,0,0,0,1.267-.628.134.134,0,0,0,.038-.045l.239-.122a15.032,15.032,0,0,0,2.874-1.645,7.594,7.594,0,0,0,1.226-.936l.067-.055.151-.479c.012-.115.022-.24.031-.345l-.084.053c.034-.057.065-.115.1-.172,0-.105.017-.213.026-.319,0-.568-.019-1.138-.038-1.705Q83.044,284.609,82.739,283.438Z" transform="translate(8238.516 2047.665)" fill="#dca47a"/>
      <path id="Path_13317" data-name="Path 13317" d="M194.6,279.328a.659.659,0,0,0-.448-.445.422.422,0,0,0-.268.029h-.062a.647.647,0,0,0-.556-.038l-.072-.045a.694.694,0,0,0-.6-.019.479.479,0,0,0-.56,0,.807.807,0,0,0-.055-.129.453.453,0,0,0-.479-.24c-.218.062-.321.46-.319.666h0a3.213,3.213,0,0,0-.541,2.155,1.346,1.346,0,0,0,.381.654,5.731,5.731,0,0,1-.6.809c-.314.316-.68.575-1.02.86a11.919,11.919,0,0,0-1.569,1.578,6.845,6.845,0,0,0-.9-.776c-.616-.414-1.291-.824-1.868-1.288a8.084,8.084,0,0,1-.745-.771c-.12-.127-.24-.259-.345-.4a4.71,4.71,0,0,0-.307-.426c-.117-.12-.216-.216-.331-.321a5.625,5.625,0,0,0-1.2-.8l-.017.029-.271.453.031.024a.88.88,0,0,0-.11.1c-.038.065-.079.125-.12.187l-.057.292c-.043.208-.086.417-.127.625a13.011,13.011,0,0,0,.314,3.8l.022.024a.178.178,0,0,0,0,.034c.014.06.026.122.043.182.062.067.127.132.189.2a12.1,12.1,0,0,0,3.645,2.282c.508.24,1.018.491,1.53.718a7.282,7.282,0,0,0,1.3.239l.055-.036a16.519,16.519,0,0,0,1.379-1.03l.086-.072a28.32,28.32,0,0,0,2.431-3.547,14.535,14.535,0,0,0,1.075-2.129,10.929,10.929,0,0,0,.575-1.023,4.791,4.791,0,0,0,.182-.992l.014-.014A1.673,1.673,0,0,0,194.6,279.328Z" transform="translate(8153.016 2050.213)" fill="#dca47a"/>
      <path id="Path_13318" data-name="Path 13318" d="M194.614,308.783c-.05-.019-.1-.041-.148-.065-.3-.148-.594-.321-.905-.457a2.44,2.44,0,0,1-.886-.553,2.577,2.577,0,0,1-.172-.22c-.105-.089-.208-.182-.311-.278a3.619,3.619,0,0,0,2.424,1.573Z" transform="translate(8144.839 2028.328)" fill="#db916b"/>
      <path id="Path_13319" data-name="Path 13319" d="M225.926,287.374h.019a.239.239,0,0,1,.05-.048l.146-.091a.31.31,0,0,0,.041-.038.086.086,0,0,0,.022-.077l.115-.017c.069-.014.057-.105,0-.127a.974.974,0,0,0-.144-.038h0c.034-.05-.024-.1-.072-.091a.977.977,0,0,0-.2.069,2.737,2.737,0,0,1-.544-.053.323.323,0,0,1-.046-.074c-.048-.113-.017-.24-.055-.35h-.014a.479.479,0,0,0-.1.292,7.267,7.267,0,0,1,.539.8.069.069,0,0,0,.036-.053v-.014l.062-.046a.064.064,0,0,0,.06,0l.069-.034Z" transform="translate(8119.772 2044.123)" fill="#db916b"/>
      <path id="Path_13320" data-name="Path 13320" d="M221.873,295.085v-.012h0a.036.036,0,0,0-.067-.022v.012h0a.137.137,0,0,1-.012.019h0a.021.021,0,0,0-.029,0l.017-.038h0a8.783,8.783,0,0,0-.491.867c-.165.29-.328.577-.479.877a.036.036,0,0,0,0,.014l-.352.57s0,.019.017,0c.273-.4.536-.817.8-1.231h0q.086-.129.165-.266c.077-.125.156-.24.239-.374a1.893,1.893,0,0,0,.175-.283V295.2h0a.091.091,0,0,0,0-.057h0v-.031Z" transform="translate(8123.339 2037.588)" fill="#db916b"/>
      <path id="Path_13321" data-name="Path 13321" d="M220.137,285.639l-.017.041h.019l.019-.036C220.168,285.636,220.144,285.624,220.137,285.639Z" transform="translate(8123.598 2044.738)" fill="#da906a"/>
      <path id="Path_13322" data-name="Path 13322" d="M219.841,287.878a1.2,1.2,0,0,0-.151-.2,1.857,1.857,0,0,1-.091-.211,2.565,2.565,0,0,1-.168-.611.574.574,0,0,1-.022.108v-.019a.034.034,0,0,0-.067,0,1.236,1.236,0,0,0,0,.546.062.062,0,0,0,0,.036,1.916,1.916,0,0,0,.151.5h0l.041-.038a.987.987,0,0,0,.189.228.4.4,0,0,1-.213.125.034.034,0,0,0-.019.05c.132.192.371,0,.429-.165A.4.4,0,0,0,219.841,287.878Z" transform="translate(8124.212 2043.804)" fill="#da906a"/>
      <path id="Path_13323" data-name="Path 13323" d="M233.46,283.84Z" transform="translate(8113.453 2046.101)" fill="#da906a"/>
      <path id="Path_13324" data-name="Path 13324" d="M196.815,278.461a.333.333,0,0,1-.208.122.318.318,0,0,1-.261-.089.359.359,0,0,1-.1-.156h0a.448.448,0,0,1,.029-.328h0a.9.9,0,0,0,0-.16s0-.012-.012,0a1.171,1.171,0,0,0-.1.422.435.435,0,0,1-.014.134c-.081.057-.134.146-.239.184a.357.357,0,0,1-.479-.18h0c.024-.177.034-.362.053-.536h-.019a3.355,3.355,0,0,0-.12.534.625.625,0,0,1-.4.041.369.369,0,0,1-.218-.153c.026-.156.077-.3.1-.46h0a1.469,1.469,0,0,0-.22.6.177.177,0,0,1-.053.034.24.24,0,0,1-.261.031l-.022-.014a1,1,0,0,0,.148-.718,1.458,1.458,0,0,0-.228-1.142.132.132,0,0,0-.223.093,4.421,4.421,0,0,0,.163.754.732.732,0,0,1,0,.1,2.155,2.155,0,0,1-.022.5c-.038.192-.16.362-.108.56a.036.036,0,0,0,.019.026,1.047,1.047,0,0,0,.038.311,7.343,7.343,0,0,1,.757,1.126.793.793,0,0,1,.223-.175h.026a.2.2,0,0,1,.053-.048,4.066,4.066,0,0,1,.623-.352.261.261,0,0,1,.194,0,1.16,1.16,0,0,0,.239-.184.278.278,0,0,0,.17.077.049.049,0,0,0,.012.031v.029a.192.192,0,0,0-.031.053c-.029.072-.053.148-.074.223-.182.414-.283.9-.438,1.308-.062.163-.132.328-.194.5a12.27,12.27,0,0,0-.778,1.257q-.575.9-1.2,1.775a25.918,25.918,0,0,1-2.927,3.353.021.021,0,0,1-.017.019,15.794,15.794,0,0,1-2.539-1.37,18.518,18.518,0,0,1-2.426-1.8c-.1-.225-.194-.448-.287-.673-.014-.034-.026-.072-.041-.105.074-.263.125-.536.175-.81a4.056,4.056,0,0,1,.259-.326c.239-.266.51-.505.757-.762l.065-.048a.187.187,0,0,1-.022-.108l-.108.084a4.762,4.762,0,0,0-.836.582c.029-.117.057-.239.1-.347a10.253,10.253,0,0,1,.637-1.437,5.03,5.03,0,0,0,.829,1.042,7.375,7.375,0,0,1,.762.426c-.065-.057-.127-.12-.192-.175a.182.182,0,0,1-.072-.163c-.371-.335-.73-.68-1.1-1.035l-.18-.2c.017-.031.031-.06.046-.091-.069-.072-.134-.144-.2-.216-.28.309-.577.606-.821.9-.1.125-.208.239-.314.369l-.057.141c-.074.184-.141.371-.2.558a3.834,3.834,0,0,0-.117.551,11.919,11.919,0,0,0-.24,2.136c.062.144.129.287.2.424.012.036.026.072.041.105a26.959,26.959,0,0,1,2.6,1.617c-.347-.3-.718-.575-1.075-.869a.083.083,0,0,0-.019-.062,8.822,8.822,0,0,0,1.006.769c.687.455,1.387.9,2.115,1.288a9.734,9.734,0,0,0,.958.491,9.478,9.478,0,0,0,1.408-1.075,29.8,29.8,0,0,0,2.218-2.826,11.519,11.519,0,0,0,1.562-2.285.144.144,0,0,0,.127-.062,7,7,0,0,0,.587-1.617.287.287,0,0,1,.031-.093,1.293,1.293,0,0,0,.172-.431,2.716,2.716,0,0,0,.16-.881.189.189,0,0,0-.062-.137.077.077,0,0,0,0-.065.46.46,0,0,0,.266-.1c.038-.2.084-.4.1-.6a2.264,2.264,0,0,1,.017-.338A2.043,2.043,0,0,1,196.815,278.461Z" transform="translate(8150.633 2051.616)" fill="#da906a"/>
      <path id="Path_13325" data-name="Path 13325" d="M219.319,275.482c0-.05-.079-.067-.091-.014-.057.227-.086.46-.132.69a.1.1,0,0,0-.038.014c-.268.22-.323.719-.479,1.032s-.445.642-.6,1c-.029.069.062.127.12.093a2.369,2.369,0,0,0,.793-1.054c.06-.129.137-.278.2-.433A2.472,2.472,0,0,0,219.319,275.482Z" transform="translate(8125.227 2052.492)" fill="#edb389"/>
      <path id="Path_13326" data-name="Path 13326" d="M227.98,279.8a.081.081,0,0,0-.1-.06c-.271.108-.376.417-.462.675s.35.386.419.115A1.859,1.859,0,0,0,227.98,279.8Z" transform="translate(8118.059 2049.222)" fill="#edb389"/>
      <path id="Path_13327" data-name="Path 13327" d="M230.471,280.076a1.147,1.147,0,0,0-.311.745c0,.24.393.319.441.06a2.3,2.3,0,0,1,.139-.6C230.816,280.121,230.6,279.915,230.471,280.076Z" transform="translate(8115.962 2049.008)" fill="#edb389"/>
      <path id="Path_13328" data-name="Path 13328" d="M233.727,280.4a.132.132,0,0,0-.218-.057,1.183,1.183,0,0,0-.24.62.18.18,0,0,0,.132.172.187.187,0,0,0,.2-.081A.769.769,0,0,0,233.727,280.4Z" transform="translate(8113.597 2048.789)" fill="#edb389"/>
      <path id="Path_13329" data-name="Path 13329" d="M226.284,279.736a.156.156,0,0,0-.295,0,.565.565,0,0,1-.022.086.16.16,0,0,0,.275.161A.3.3,0,0,0,226.284,279.736Z" transform="translate(8119.161 2049.302)" fill="#edb389"/>
      <path id="Path_13330" data-name="Path 13330" d="M210.728,294.484a.225.225,0,0,1,.043-.06,2.677,2.677,0,0,1,.182-.335.1.1,0,0,0,0-.026c0-.031-.048-.034-.062,0a1.567,1.567,0,0,1-.156.3c-.079.1-.17.182-.256.273l-.041.043.012-.017a.046.046,0,0,0-.069-.053c-.323.319-.632.649-.958.958a9.418,9.418,0,0,0-1.035,1.039h0l-.388.342c.038.187.069.371.093.558.041.141.084.283.125.424.041.072.081.141.12.216a.406.406,0,0,1,.031-.1,16.426,16.426,0,0,0,1.4-1.973c.223-.333.448-.666.663-1,.036-.055.072-.11.105-.165A3.68,3.68,0,0,1,210.728,294.484Z" transform="translate(8132.815 2038.344)" fill="#edb389"/>
      <path id="Path_13331" data-name="Path 13331" d="M194.6,279.328a.659.659,0,0,0-.448-.445.422.422,0,0,0-.268.029h-.062a.647.647,0,0,0-.556-.038l-.072-.045a.694.694,0,0,0-.6-.019.479.479,0,0,0-.56,0,.807.807,0,0,0-.055-.129.453.453,0,0,0-.479-.24c-.218.062-.321.46-.319.666h0a3.213,3.213,0,0,0-.541,2.155,1.346,1.346,0,0,0,.381.654,5.731,5.731,0,0,1-.6.809c-.314.316-.68.575-1.02.86a11.919,11.919,0,0,0-1.569,1.578,6.845,6.845,0,0,0-.9-.776c-.616-.414-1.291-.824-1.868-1.288a8.084,8.084,0,0,1-.745-.771c-.12-.127-.24-.259-.345-.4a4.71,4.71,0,0,0-.307-.426c-.117-.12-.216-.216-.331-.321a5.625,5.625,0,0,0-1.2-.8l-.017.029-.271.453.031.024a.88.88,0,0,0-.11.1c-.038.065-.079.125-.12.187l-.057.292c-.043.208-.086.417-.127.625a13.011,13.011,0,0,0,.314,3.8l.022.024a.178.178,0,0,0,0,.034c.014.06.026.122.043.182.062.067.127.132.189.2a12.1,12.1,0,0,0,3.645,2.282c.508.24,1.018.491,1.53.718a7.282,7.282,0,0,0,1.3.239l.055-.036a16.519,16.519,0,0,0,1.379-1.03l.086-.072a28.32,28.32,0,0,0,2.431-3.547,14.535,14.535,0,0,0,1.075-2.129,10.929,10.929,0,0,0,.575-1.023,4.791,4.791,0,0,0,.182-.992l.014-.014A1.673,1.673,0,0,0,194.6,279.328Z" transform="translate(8153.016 2050.213)" fill="#dca47a"/>
      <path id="Path_13332" data-name="Path 13332" d="M25.06,281.934a.258.258,0,0,1-.026-.1c-.014-.479-.065-.958-.057-1.425a.191.191,0,0,0-.074,0,.391.391,0,0,0-.11.017h0a.041.041,0,0,0,0-.017H23.741a.359.359,0,0,0-.153.3.385.385,0,0,0,.017.089,3.15,3.15,0,0,0,0,.419,2.35,2.35,0,0,0,0,.319,11.777,11.777,0,0,0-1.791-.029,8.268,8.268,0,0,0-1.933.065c.05.608.05,1.229.072,1.82a.759.759,0,0,0,.012.158,10.144,10.144,0,0,0,1.868.045,7.25,7.25,0,0,0,1.88-.055c0,.292.017.587.014.881a.383.383,0,0,0,.089.271h1.241v-.5l-.046-.031c.019-.091.034-.184.046-.28Z" transform="translate(8275.881 2048.713)" fill="#b8c5d6" fill-rule="evenodd"/>
      <path id="Path_13333" data-name="Path 13333" d="M63.348,287.211a.757.757,0,0,1-.575.1.225.225,0,0,1-.218-.223v-.026h0a.479.479,0,0,1-.666.122l-.046-.036a.557.557,0,0,1-.783-.062.208.208,0,0,1-.316.125l-.014-.012a.216.216,0,0,1-.18-.029.381.381,0,0,1-.266-.366.893.893,0,0,1-.089-.3.038.038,0,0,0-.031-.017,12.385,12.385,0,0,0-1.633-.036c-.3,0-.659-.036-.992-.017v.97h2.63a.223.223,0,0,1,.093.019H63.25c.038-.06.074-.122.113-.184Z" transform="translate(8247.241 2044.134)" fill="#b8c5d6" fill-rule="evenodd"/>
      <path id="Path_13334" data-name="Path 13334" d="M226.985,287.329a.094.094,0,0,1-.024-.019.548.548,0,0,1-.462,0,.4.4,0,0,1-.259.069.433.433,0,0,1-.2-.057.424.424,0,0,1-.132.065.266.266,0,0,1-.239-.05.5.5,0,0,0,.019.081v.045l.019.024,1.772-.034a.287.287,0,0,1-.05-.041A.544.544,0,0,1,226.985,287.329Z" transform="translate(8119.377 2043.462)" fill="#b8c5d6" fill-rule="evenodd"/>
      <path id="Path_13335" data-name="Path 13335" d="M93.751,286.933a7.169,7.169,0,0,1,2.194-1.008c-1.641-.089-3.307,0-4.946,0h-2.57c-.9,0-1.827-.057-2.725.026a.024.024,0,0,0-.017,0,.3.3,0,0,0-.113,0,1.08,1.08,0,0,0,.158.673,2.271,2.271,0,0,0,.239.345h6.646a.215.215,0,0,1,.1,0h.994Z" transform="translate(8225.924 2044.545)" fill="#b8c5d6" fill-rule="evenodd"/>
      <path id="Path_13336" data-name="Path 13336" d="M188.836,283.615h-6.5c-.309,0-.632-.022-.958-.017h0a.036.036,0,0,0-.031,0,3.111,3.111,0,0,0-.618.072c-.11,0-.216-.019-.311-.022a3.667,3.667,0,0,0-.515.029,12.778,12.778,0,0,1,1.676.718,4.513,4.513,0,0,1,.455.24h7.424a1.232,1.232,0,0,1,.019-.24,1.619,1.619,0,0,1,.278-.766Z" transform="translate(8154.185 2046.287)" fill="#b8c5d6" fill-rule="evenodd"/>
      <path id="Path_13337" data-name="Path 13337" d="M239.367,283.4c-.319.014-.635.046-.91.05a16.378,16.378,0,0,0-1.676.022c-.539,0-1.08,0-1.612.014,0,.362-.11.836-.429.987,1.02-.022,2.041-.046,3.061-.084l.28.038h1.279Z" transform="translate(8112.479 2046.435)" fill="#b8c5d6" fill-rule="evenodd"/>
      <path id="Path_13338" data-name="Path 13338" d="M129.949,370.889c-.41.038-.817.084-1.224.134a13.293,13.293,0,0,0,.141,3.078,9.354,9.354,0,0,0,.479,2.481c.1.515.192,1.03.24,1.554.091.821-.017,1.72.05,2.563-.158.6-.378,1.178-.56,1.8a7.49,7.49,0,0,0-.165,2.874c.1,1.068.24,2.132.357,3.2.084.718.1,1.514.216,2.261a7.664,7.664,0,0,0,0,.786,3.368,3.368,0,0,0,.331,1.736,1.14,1.14,0,0,0,.1.283.156.156,0,0,0,.263.017,1.279,1.279,0,0,0,1.49-.034,1.729,1.729,0,0,0,.388-.479c.144.079.35.05.378-.144a5.379,5.379,0,0,0,.05-1.128c.1-.642-.019-1.32.026-1.973.029-.393.168-.838.218-1.267.11-.256.2-.52.295-.771a4,4,0,0,0,.371-1.2,7.033,7.033,0,0,0,.158-1.171,4.61,4.61,0,0,0,.036-.977,6.342,6.342,0,0,0-.364-2.709,5.918,5.918,0,0,0,.328-2.572.24.24,0,0,0,.084-.05c.9-.85.922-2.634,1.023-3.8a16.978,16.978,0,0,0,.108-2.567.075.075,0,0,1,0-.019,2.128,2.128,0,0,1,0-.39,3.058,3.058,0,0,1,.014-.364,1.4,1.4,0,0,0-.046-.412.218.218,0,0,1,.239-.275c.022-.24.062-.479.072-.718h-.165C133.251,370.644,131.6,370.735,129.949,370.889Z" transform="translate(8193.144 1980.096)" fill="#dca47a"/>
      <path id="Path_13339" data-name="Path 13339" d="M138.243,377.132a6.037,6.037,0,0,0-.419-2c-.017-.036-.053-.029-.074,0-.022-.036-.038-.072-.062-.105s-.137-.057-.151.019a1.729,1.729,0,0,0-.031.24.043.043,0,0,0-.014.022,6.767,6.767,0,0,0,.108,2.045c.038.352.072.707.122,1.061,0,.148-.012.3-.022.45a15.989,15.989,0,0,1-.5,2.821,2.288,2.288,0,0,0-.24.376.565.565,0,0,1-.417.213.8.8,0,0,1-.661-.443h-.014c.182.261.388.568.68.642a5.341,5.341,0,0,0-.117.977c-.029.283-.067.565-.1.848a2.713,2.713,0,0,1-.2.366,3.671,3.671,0,0,1-.51.625,5.1,5.1,0,0,1-.352.479c-.218,1.65-.218,3.339-.271,5a.058.058,0,1,0,.115-.014c-.014-.086-.017-.218-.026-.326a1.95,1.95,0,0,0,.062-.254c.036-.24.046-.5.062-.745.031-.445.062-.891.1-1.336.06-.836.141-1.676.156-2.515a2.448,2.448,0,0,0,.865-.8,4.684,4.684,0,0,0,.081,1.269c.065.757.24,1.518.311,2.268a19.272,19.272,0,0,1-.422,2.239c-.259.778-.587,1.523-.781,2.323a.1.1,0,0,0,.062.11,8.522,8.522,0,0,0-.1,1.511c0,.357,0,.718.019,1.087a2.542,2.542,0,0,1-.592.639,1.781,1.781,0,0,1-1.827.1c-.038-.014-.062.031-.048.062a1.3,1.3,0,0,0,1.6.479.151.151,0,0,0,.151.156,1.212,1.212,0,0,0,.819-.592,4.6,4.6,0,0,0,.175.671.1.1,0,0,0,.2-.026c.046-.438.05-.879.055-1.317a1.873,1.873,0,0,0,.287-.855.12.12,0,0,0-.2-.084l-.065.065a1.753,1.753,0,0,1,.024-.354,21.84,21.84,0,0,1,.441-2.546,7.425,7.425,0,0,0,.627-3.113,13.573,13.573,0,0,0-.376-2.934,18.2,18.2,0,0,0,.187-1.916c.029-.261.06-.522.105-.781a.122.122,0,0,0,.06-.053,6.809,6.809,0,0,0,.7-1.839c.038-.1.072-.194.1-.285a.11.11,0,0,0-.014-.1c.084-.436.144-.877.187-1.31a.081.081,0,0,0,.1-.06c.017-.11.029-.223.038-.335A6.564,6.564,0,0,0,138.243,377.132Z" transform="translate(8189.828 1976.775)" fill="#db916b"/>
      <path id="Path_13340" data-name="Path 13340" d="M139.511,397.857a3.185,3.185,0,0,1-.342,1.03,7.763,7.763,0,0,1-.718.74h0a1.856,1.856,0,0,0,1.166-1.763C139.628,397.8,139.54,397.79,139.511,397.857Z" transform="translate(8185.708 1959.425)" fill="#db916b"/>
      <path id="Path_13341" data-name="Path 13341" d="M130.456,381.452c-.321-1.118-.718-2.211-1-3.353a25.339,25.339,0,0,1-.4-3.676.045.045,0,0,0-.089-.012,7.971,7.971,0,0,0,.137,3.336,22.657,22.657,0,0,0,1.047,3.779C130.219,381.725,130.514,381.651,130.456,381.452Z" transform="translate(8193.02 1977.245)" fill="#dca47a"/>
      <path id="Path_13342" data-name="Path 13342" d="M130.035,379.672c-.105-.239-.2-.5-.287-.754h0q-.055-.139-.1-.28c-.017-.043-.031-.086-.048-.132-.06-.3-.125-.606-.189-.908-.086-.742-.211-1.482-.24-2.239a15.565,15.565,0,0,0-.074-3.01.031.031,0,0,0-.06,0,3.894,3.894,0,0,0-.2.958c-.014-.117-.029-.239-.046-.35v-.022a.1.1,0,0,0-.172-.046c-.228.268-.125.718-.11,1.054.029.745.12,1.487.216,2.227a6.2,6.2,0,0,0,.666,2.548c0,.548.022,1.09.036,1.638,0,.431-.036.869,0,1.3a11.258,11.258,0,0,0-.757,2.656,10.741,10.741,0,0,0-.086,3.195c.122,1.2.331,2.361.419,3.552a32.232,32.232,0,0,0,.2,3.339.065.065,0,0,0,.125,0,12.569,12.569,0,0,0,.055-3.188c-.06-1.142-.175-2.275-.287-3.41a11.394,11.394,0,0,1,.034-3.353c.077-.4.194-.8.307-1.2-.034.687-.046,1.377-.055,2.057a28.924,28.924,0,0,0,.271,4.244c0,.038.069.031.067,0-.038-.7-.113-1.408-.153-2.115s.029-1.415.026-2.12c0-1.15.187-2.342.172-3.5a5.88,5.88,0,0,0-.062-2.395c.024,0,.053-.014.048-.041s-.014-.115-.024-.172c.1.177.2.35.3.513a.026.026,0,0,0,.014-.05Z" transform="translate(8193.297 1978.807)" fill="#edb389"/>
      <path id="Path_13343" data-name="Path 13343" d="M138.591,410.526c-.108-.213-.374-.311-.529-.5a2,2,0,0,1-.309-1.2h0a2.277,2.277,0,0,0,.105,1.32c.108.266.359.606.675.544a.117.117,0,0,0,.057-.168Z" transform="translate(8186.278 1951.045)" fill="#edb389"/>
      <path id="Path_13344" data-name="Path 13344" d="M129.949,370.889c-.41.038-.817.084-1.224.134a13.293,13.293,0,0,0,.141,3.078,9.354,9.354,0,0,0,.479,2.481c.1.515.192,1.03.24,1.554.091.821-.017,1.72.05,2.563-.158.6-.378,1.178-.56,1.8a7.49,7.49,0,0,0-.165,2.874c.1,1.068.24,2.132.357,3.2.084.718.1,1.514.216,2.261a7.664,7.664,0,0,0,0,.786,3.368,3.368,0,0,0,.331,1.736,1.14,1.14,0,0,0,.1.283.156.156,0,0,0,.263.017,1.279,1.279,0,0,0,1.49-.034,1.729,1.729,0,0,0,.388-.479c.144.079.35.05.378-.144a5.379,5.379,0,0,0,.05-1.128c.1-.642-.019-1.32.026-1.973.029-.393.168-.838.218-1.267.11-.256.2-.52.295-.771a4,4,0,0,0,.371-1.2,7.033,7.033,0,0,0,.158-1.171,4.61,4.61,0,0,0,.036-.977,6.342,6.342,0,0,0-.364-2.709,5.918,5.918,0,0,0,.328-2.572.24.24,0,0,0,.084-.05c.9-.85.922-2.634,1.023-3.8a16.978,16.978,0,0,0,.108-2.567.075.075,0,0,1,0-.019,2.128,2.128,0,0,1,0-.39,3.058,3.058,0,0,1,.014-.364,1.4,1.4,0,0,0-.046-.412.218.218,0,0,1,.239-.275c.022-.24.062-.479.072-.718h-.165C133.251,370.644,131.6,370.735,129.949,370.889Z" transform="translate(8193.144 1980.096)" fill="#dca47a"/>
      <path id="Path_13345" data-name="Path 13345" d="M163.764,390.744a5.143,5.143,0,0,0-.05-1.612v-.843a6.889,6.889,0,0,0,.132-1.293,13.864,13.864,0,0,0-.156-2.577,1.111,1.111,0,0,0-.017-.125v-.239a6.778,6.778,0,0,0-.273-1.971c-.053-.16-.115-.316-.182-.479a3.31,3.31,0,0,0-.35-.838c-.024-1.14-.366-2.294-.41-3.434a20.38,20.38,0,0,0-.084-3.466v-.091a13.914,13.914,0,0,0-.139-2.51c-.848-.093-1.691-.239-2.529-.328-1.092-.117-2.187-.213-3.283-.278a.146.146,0,0,1,0,.034.268.268,0,0,0-.086.113c-.019-.055-.043-.105-.065-.156h-.4a5.783,5.783,0,0,0,.12.987,1.437,1.437,0,0,1,.2.958q.141.647.295,1.293a12.853,12.853,0,0,0,.649,2.874,6.572,6.572,0,0,0,1.14,2.531,11.271,11.271,0,0,0,.407,1.722,6.41,6.41,0,0,0,.448,1.128.509.509,0,0,1-.012.134,15.629,15.629,0,0,0,.029,2.84,6.345,6.345,0,0,0,.41,2.084,12.011,12.011,0,0,0,.865,1.36l.014.113a8.8,8.8,0,0,0,.565,2.51,2.525,2.525,0,0,0,.014.328,6.052,6.052,0,0,0,.137,1.873c.06.187.393.24.426,0a2.048,2.048,0,0,1,.022-.208h0a6.459,6.459,0,0,0,.8.084,1.677,1.677,0,0,0,.826-.091.292.292,0,0,0,.06-.041.307.307,0,0,0,.58-.127,13.062,13.062,0,0,0-.11-1.645,4.732,4.732,0,0,0,0-.613Z" transform="translate(8172.46 1980.081)" fill="#dca47a"/>
      <path id="Path_13346" data-name="Path 13346" d="M165.306,392.14c.8-2.771.187-5.434-.675-8.095a15.788,15.788,0,0,1-.829-4.071c0-.108.019-.213.024-.316a.043.043,0,0,0-.043-.045,32.113,32.113,0,0,0-.115-4.3.1.1,0,0,0-.074-.079,3.419,3.419,0,0,0-.148-.6.043.043,0,0,0-.081,0c-.022.067-.043.139-.06.208-.026-.069-.055-.139-.084-.206s-.117-.024-.122.034a4.283,4.283,0,0,0-.012.582c-.259-.034-.517-.055-.778-.074a.376.376,0,0,0-.177,0,17.63,17.63,0,0,0-1.916,0l-.208.012a5.866,5.866,0,0,0-1.847.115.261.261,0,0,0,0-.043l.086-.958c0-.024-.036-.029-.043,0-.017.081-.034.16-.048.24a2.384,2.384,0,0,0-.012-.292.029.029,0,0,0-.055,0c-.022.163-.038.328-.053.493v-.414a.017.017,0,0,0-.034,0l-.036.278c0-.024-.048-.034-.055,0s-.024.125-.034.187v-.388a.034.034,0,0,0-.06-.014v-.034a.02.02,0,0,0-.041,0c-.031.148-.055.3-.074.455v-.4c0-.038-.053-.036-.057,0a15.837,15.837,0,0,0-.046,2.211,11.148,11.148,0,0,0,.172,1.916c.026.206.062.412.105.616a.031.031,0,0,0,.024.022,1.367,1.367,0,0,0,.031.218.053.053,0,0,0,.043.043c.012.081.024.16.038.24a.048.048,0,0,0,.1,0,.654.654,0,0,1,0-.069l.041.086a.046.046,0,0,0,.081-.034,2.016,2.016,0,0,1-.079-.352,2.032,2.032,0,0,0,.163.3c.024.034.079.014.067-.026a9.6,9.6,0,0,1-.268-1.286V377.04c0-.419.017-.9.026-1.351a5.746,5.746,0,0,1,.869-.2c.479-.062.958-.1,1.423-.12a18.892,18.892,0,0,1,2.27.057,2.159,2.159,0,0,1,.259.057l.1.036h.034c.019.266.048.532.067.8s.014.479.024.719c0,.522-.012,1.044,0,1.564-.062,1.1-.256,2.194-.24,3.281a.149.149,0,0,0,.017.069c-.029.122-.057.24-.081.369h.019a.146.146,0,0,1,0-.029h0c.014-.017.024-.034.036-.05-.029.084-.06.17-.091.254a.012.012,0,0,0,.024,0l.057-.132h.022a4.042,4.042,0,0,0,.484-.831v.017a11.334,11.334,0,0,0,.266,1.916v.036a21.049,21.049,0,0,0,.381,4.021c0,.043.079.034.074,0-.074-.759-.163-1.518-.225-2.278-.012-.144-.019-.287-.029-.431a.045.045,0,0,0,.034-.041v-.144a32.208,32.208,0,0,1,.548,3.3,35.281,35.281,0,0,1,.029,3.832,9.054,9.054,0,0,0,.24,3.008,6.859,6.859,0,0,0,0,.769,2.175,2.175,0,0,0,0,.8,4.79,4.79,0,0,0,.24,1.243c.019.055.115.053.108-.014-.029-.323-.072-.642-.108-.958.022.043.041.084.065.122a.127.127,0,0,0,.24-.062,7.609,7.609,0,0,0-.163-1.181l-.043-.316a.215.215,0,0,0,.146-.182,15.824,15.824,0,0,0-.139-1.894c-.014-.292-.019-.587-.019-.881a.144.144,0,0,0,.235-.067Z" transform="translate(8171.16 1977.355)" fill="#db916b"/>
      <path id="Path_13347" data-name="Path 13347" d="M175.513,417.177h-.029l.014-.031c.014-.041-.041-.089-.079-.06a1.2,1.2,0,0,1-.426.256h-.031a1.467,1.467,0,0,1-.177,0c-.093,0-.187-.029-.29-.034h0a1.1,1.1,0,0,1-.4-.479h0a.685.685,0,0,0,.479.637h.019l.043.019a.85.85,0,0,0,.695-.137.765.765,0,0,0,.223-.134.046.046,0,0,0,0-.043C175.57,417.2,175.551,417.16,175.513,417.177Z" transform="translate(8158.596 1944.961)" fill="#db916b"/>
      <path id="Path_13348" data-name="Path 13348" d="M170.85,407.831a1.039,1.039,0,0,1-1.13.146.788.788,0,0,0,.939.335.8.8,0,0,0,.393-.479,3.562,3.562,0,0,0,.175-.5A1.741,1.741,0,0,1,170.85,407.831Z" transform="translate(8161.927 1952.186)" fill="#db916b"/>
      <path id="Path_13349" data-name="Path 13349" d="M170.422,432.754a8.6,8.6,0,0,0-.441-1.916,11.554,11.554,0,0,1-.819-1.9c-.18-.683-.184-1.305-.3-1.961h-.019a5.8,5.8,0,0,0,.752,3.664,8.894,8.894,0,0,1,.568,2.184,9.053,9.053,0,0,0,.632,1.945c.026.06.11.014.1-.043C170.782,434.059,170.564,433.415,170.422,432.754Z" transform="translate(8162.654 1937.242)" fill="#db916b"/>
      <path id="Path_13350" data-name="Path 13350" d="M162.546,394.125a.435.435,0,0,0-.014-.053h0a.024.024,0,0,0,0-.024V394a.026.026,0,0,1,0-.012.024.024,0,0,0-.014-.026,10.607,10.607,0,0,0-.462-1.1c-.055-.163-.105-.328-.148-.493a11.171,11.171,0,0,1-.218-1.217,2.515,2.515,0,0,0-.034-.266h0a.258.258,0,0,0-.019-.12c-.019-.038-.012,0-.012,0v.172l-.036-.05h0c-.2-.4-.546-.738-.769-1.138a6.718,6.718,0,0,1-.553-1.3,12.93,12.93,0,0,1-.376-2.776.024.024,0,0,0-.046,0,5.575,5.575,0,0,0,.216,2.9,7.093,7.093,0,0,0,.546,1.3,3.853,3.853,0,0,0,.752,1.061,4.4,4.4,0,0,0,.34,1.648,9.754,9.754,0,0,0,.4,1.1,1.5,1.5,0,0,0-.05.316v.067a3.628,3.628,0,0,0-.057.52c-.022.228-.038.457-.053.685-.012.177-.019.357-.026.539a3.174,3.174,0,0,0,0,.426v.022a6.451,6.451,0,0,0,.077,1.36c0,.057.093.043.1,0a.05.05,0,0,0,.1-.024c0-.412-.022-.819-.029-1.229.05-.331.091-.661.148-.989.048-.273.127-.553.177-.833.022-.1.043-.192.067-.287a.091.091,0,0,0,0-.132Z" transform="translate(8169.522 1968.665)" fill="#edb389"/>
      <path id="Path_13351" data-name="Path 13351" d="M175.614,448.292a3.559,3.559,0,0,0-.132-.333v-.012c-.175-.81-.331-1.636-.529-2.44a.026.026,0,1,0-.053,0,6.181,6.181,0,0,0,.216,1.471,3.378,3.378,0,0,0,.168.786c.069.393.141.783.175,1.178s-.036.8,0,1.2a.065.065,0,0,0,.127.019,1.971,1.971,0,0,0,.113-.7A2.493,2.493,0,0,0,175.614,448.292Z" transform="translate(8157.988 1923.173)" fill="#edb389"/>
      <path id="Path_13352" data-name="Path 13352" d="M164.29,391.811a6.309,6.309,0,0,1-1.013-1.842,5.269,5.269,0,0,1-.39-2.12h-.017a5.938,5.938,0,0,0,1.322,4.091C164.271,392,164.352,391.876,164.29,391.811Z" transform="translate(8167.185 1967.001)" fill="#edb389"/>
      <path id="Path_13353" data-name="Path 13353" d="M177.8,425.931a8.9,8.9,0,0,0-.565-2.318.05.05,0,0,0-.093.026c.079.735.328,1.463.441,2.2.127.826.182,1.657.273,2.486a.055.055,0,1,0,.11,0A11.125,11.125,0,0,0,177.8,425.931Z" transform="translate(8156.284 1939.822)" fill="#edb389"/>
      <path id="Path_13354" data-name="Path 13354" d="M163.764,390.744a5.143,5.143,0,0,0-.05-1.612v-.843a6.889,6.889,0,0,0,.132-1.293,13.864,13.864,0,0,0-.156-2.577,1.111,1.111,0,0,0-.017-.125v-.239a6.778,6.778,0,0,0-.273-1.971c-.053-.16-.115-.316-.182-.479a3.31,3.31,0,0,0-.35-.838c-.024-1.14-.366-2.294-.41-3.434a20.38,20.38,0,0,0-.084-3.466v-.091a13.914,13.914,0,0,0-.139-2.51c-.848-.093-1.691-.239-2.529-.328-1.092-.117-2.187-.213-3.283-.278a.146.146,0,0,1,0,.034.268.268,0,0,0-.086.113c-.019-.055-.043-.105-.065-.156h-.4a5.783,5.783,0,0,0,.12.987,1.437,1.437,0,0,1,.2.958q.141.647.295,1.293a12.853,12.853,0,0,0,.649,2.874,6.572,6.572,0,0,0,1.14,2.531,11.271,11.271,0,0,0,.407,1.722,6.41,6.41,0,0,0,.448,1.128.509.509,0,0,1-.012.134,15.629,15.629,0,0,0,.029,2.84,6.345,6.345,0,0,0,.41,2.084,12.011,12.011,0,0,0,.865,1.36l.014.113a8.8,8.8,0,0,0,.565,2.51,2.525,2.525,0,0,0,.014.328,6.052,6.052,0,0,0,.137,1.873c.06.187.393.24.426,0a2.048,2.048,0,0,1,.022-.208h0a6.459,6.459,0,0,0,.8.084,1.677,1.677,0,0,0,.826-.091.292.292,0,0,0,.06-.041.307.307,0,0,0,.58-.127,13.062,13.062,0,0,0-.11-1.645,4.732,4.732,0,0,0,0-.613Z" transform="translate(8172.46 1980.081)" fill="#dca47a"/>
      <path id="Path_13355" data-name="Path 13355" d="M137.49,258.107a14.279,14.279,0,0,0,1.186,2.256l.057.084a.262.262,0,0,1,.06.048c.752.845,1.48,1.717,2.306,2.491a.67.67,0,0,1,.172.314,10.622,10.622,0,0,0,.766.841c.074.077.141.158.211.24.014-.11.031-.189.055-.16a10.591,10.591,0,0,0,1.645-2.7q.3-.616.565-1.238a.137.137,0,0,0,.067-.043c.192-.52.393-1.039.587-1.559a.639.639,0,0,0,0-.1h.034c.091-.24.177-.479.263-.719q-.51-.115-1.035-.187c0-.127,0-.251.012-.374a9.667,9.667,0,0,0-.105-2.081,5.952,5.952,0,0,0,.065-.659.24.24,0,0,0,.216-.067,1.075,1.075,0,0,0,.213-.719,2.853,2.853,0,0,0,.012-.5,2.075,2.075,0,0,0,.024-.4.213.213,0,0,0-.4-.108.67.67,0,0,0-.036.072.18.18,0,0,0-.031.014,6.582,6.582,0,0,0-.117-1.339,1.351,1.351,0,0,0-.175-.644.99.99,0,0,0-.22-.311.148.148,0,0,0-.208,0,.558.558,0,0,0-.3-.2.328.328,0,0,0-.263.038,1.963,1.963,0,0,0-.932.433c-.1.062-.208.122-.319.187a3.886,3.886,0,0,0-.5-.036l-.175-.079a3.974,3.974,0,0,0-.352-.206,1.906,1.906,0,0,0-.877-.479,1.026,1.026,0,0,0-.175,0,.479.479,0,0,0-.307.038l-.026.014a1.23,1.23,0,0,0-.848.58,3.837,3.837,0,0,0-.419,1.77.148.148,0,0,0,0,.031l.089.3a.33.33,0,0,0-.287-.17.148.148,0,0,0-.132.074c-.113.2.017.45.043.666.036.28.065.56.091.841a.3.3,0,0,0,.431.254c-.086.038,0,.7,0,.8-.019.342-.084.68-.105,1.023,0,.125.041,1.461.074,1.449l-.16.057C137.969,257.992,137.729,258.048,137.49,258.107Z" transform="translate(8186.438 2071.677)" fill="#dca47a"/>
      <path id="Path_13356" data-name="Path 13356" d="M150.869,277.353a.783.783,0,0,0-.606-.345c-.295-.05-.594-.1-.891-.146a3.112,3.112,0,0,0,.057-.5c.072-.055.146-.113.218-.172a.18.18,0,0,0-.067-.292.718.718,0,0,0,.172-.216.12.12,0,0,0-.132-.172,1.166,1.166,0,0,0-.479.386,2.091,2.091,0,0,0-.187.228,1.685,1.685,0,0,0-.1.2l-.156.11a.108.108,0,0,0-.043.017c-.292.184-.57.4-.848.608l-.445.3-.026.019a.69.69,0,0,0-.307.105c-.11.048-.239.036-.34.081a3.543,3.543,0,0,0-.836-.572c-.4-.24-.807-.508-1.217-.747a2.259,2.259,0,0,0-.239-.17l-.139-.12a2.379,2.379,0,0,0-.24-.347h0a2.131,2.131,0,0,0,.347.783,2.616,2.616,0,0,0,.424.62c.18.254.345.517.529.771.285.4.687.97,1.2,1.078a2.4,2.4,0,0,0,.113.687.065.065,0,0,0,.069.043.281.281,0,0,0,.043-.031.062.062,0,0,0,.014-.031h0c.043-.041.086-.084.127-.129a.049.049,0,0,0,0-.014.24.24,0,0,1,.079-.084,9.39,9.39,0,0,0,.759-1.039,11.261,11.261,0,0,0,.647-1.047l.292-.239.053-.043.192-.144h.089a.735.735,0,0,1,.041.074c.024.05.034.108.053.16a.64.64,0,0,1,0,.192,7.64,7.64,0,0,1-.24.853,12.733,12.733,0,0,1-.879,2.024.034.034,0,0,0,.057.034,7.6,7.6,0,0,0,.991-2.012,8.734,8.734,0,0,0,.3-1.08,2.393,2.393,0,0,0,.479.1,2.469,2.469,0,0,1,.992.287C150.845,277.442,150.893,277.391,150.869,277.353Z" transform="translate(8181.478 2052.437)" fill="#db916b"/>
      <path id="Path_13357" data-name="Path 13357" d="M140.444,285.664q-.479-.654-.927-1.317a6.047,6.047,0,0,0-1.147-1.423.053.053,0,0,0-.034,0,.055.055,0,0,0-.091.053.5.5,0,0,0,.148.228c.081.084.16.175.239.251h0c.261.342.529.68.774,1.035.271.4.548.79.829,1.181Z" transform="translate(8185.865 2046.808)" fill="#db916b"/>
      <path id="Path_13358" data-name="Path 13358" d="M151.324,300.505c-.62-.848-1.281-1.676-1.916-2.505h-.218a32.846,32.846,0,0,0,2.026,2.591C151.266,300.634,151.372,300.567,151.324,300.505Z" transform="translate(8177.541 2035.332)" fill="#db916b"/>
      <path id="Path_13359" data-name="Path 13359" d="M140.525,279.984c.029.055.062.105.1.158.24.081.479.158.7.24a5.878,5.878,0,0,1,.584.072l.187.041a1.087,1.087,0,0,0,.932-.505.129.129,0,0,0-.144-.187l-.048.022c-.41.5-.977.35-1.518-.062a6.867,6.867,0,0,1-1.406-1.334,3.637,3.637,0,0,1-.719-1.231c-.024-.251-.057-.5-.065-.75a9.054,9.054,0,0,0,0-.92h0a.017.017,0,0,0,0-.012h0a.043.043,0,0,0-.084,0,3.154,3.154,0,0,0-.038,1.6h0c-.019-.036-.067-.012-.067.022l-.036-.072c-.019-.043-.077,0-.069.029s0,.026,0,.041h-.014a.8.8,0,0,0-.089-.127.065.065,0,0,0-.1,0,1.4,1.4,0,0,0-.177-.137.022.022,0,0,0-.031.024.038.038,0,0,0-.026.024c-.057.182.113.347.24.479.228.381.556.733.8,1.068.323.438.623.9.958,1.324A1.046,1.046,0,0,1,140.525,279.984Z" transform="translate(8185.76 2052.457)" fill="#edb389"/>
      <path id="Path_13360" data-name="Path 13360" d="M147.756,295.063c-.223-.359-.479-.69-.718-1.03-.184-.254-.34-.623-.618-.774h0a2.315,2.315,0,0,0,.479.929,7.367,7.367,0,0,0,.718.972C147.689,295.233,147.807,295.142,147.756,295.063Z" transform="translate(8179.647 2038.937)" fill="#db916b"/>
      <path id="Path_13361" data-name="Path 13361" d="M143.816,276.72a3.9,3.9,0,0,0-.29-.273c-.053-.065-.11-.125-.168-.184a.1.1,0,0,0,0-.108,1.2,1.2,0,0,0-.515-.479c-.273-.177-.536-.371-.8-.572l-.01-.038c-.285-.28-.587-.718-.929-1.013a3.041,3.041,0,0,0-.551-.532c-.046-.031-.089.022-.081.062a1.655,1.655,0,0,0,.117.414.048.048,0,0,0-.026.046,2.221,2.221,0,0,0,.929,1.217l.271.287a5.676,5.676,0,0,0,1.885,1.468C143.818,277.086,143.933,276.842,143.816,276.72Z" transform="translate(8184.167 2053.956)" fill="#da906a"/>
      <path id="Path_13362" data-name="Path 13362" d="M137.49,258.107a14.279,14.279,0,0,0,1.186,2.256l.057.084a.262.262,0,0,1,.06.048c.752.845,1.48,1.717,2.306,2.491a.67.67,0,0,1,.172.314,10.622,10.622,0,0,0,.766.841c.074.077.141.158.211.24.014-.11.031-.189.055-.16a10.591,10.591,0,0,0,1.645-2.7q.3-.616.565-1.238a.137.137,0,0,0,.067-.043c.192-.52.393-1.039.587-1.559a.639.639,0,0,0,0-.1h.034c.091-.24.177-.479.263-.719q-.51-.115-1.035-.187c0-.127,0-.251.012-.374a9.667,9.667,0,0,0-.105-2.081,5.952,5.952,0,0,0,.065-.659.24.24,0,0,0,.216-.067,1.075,1.075,0,0,0,.213-.719,2.853,2.853,0,0,0,.012-.5,2.075,2.075,0,0,0,.024-.4.213.213,0,0,0-.4-.108.67.67,0,0,0-.036.072.18.18,0,0,0-.031.014,6.582,6.582,0,0,0-.117-1.339,1.351,1.351,0,0,0-.175-.644.99.99,0,0,0-.22-.311.148.148,0,0,0-.208,0,.558.558,0,0,0-.3-.2.328.328,0,0,0-.263.038,1.963,1.963,0,0,0-.932.433c-.1.062-.208.122-.319.187a3.886,3.886,0,0,0-.5-.036l-.175-.079a3.974,3.974,0,0,0-.352-.206,1.906,1.906,0,0,0-.877-.479,1.026,1.026,0,0,0-.175,0,.479.479,0,0,0-.307.038l-.026.014a1.23,1.23,0,0,0-.848.58,3.837,3.837,0,0,0-.419,1.77.148.148,0,0,0,0,.031l.089.3a.33.33,0,0,0-.287-.17.148.148,0,0,0-.132.074c-.113.2.017.45.043.666.036.28.065.56.091.841a.3.3,0,0,0,.431.254c-.086.038,0,.7,0,.8-.019.342-.084.68-.105,1.023,0,.125.041,1.461.074,1.449l-.16.057C137.969,257.992,137.729,258.048,137.49,258.107Z" transform="translate(8186.438 2071.677)" fill="#dca47a"/>
      <path id="Path_13363" data-name="Path 13363" d="M146.21,260.621a1.381,1.381,0,0,0-.637-.117c-.148,0-.292.031-.441.041a2.214,2.214,0,0,0-.436.055.532.532,0,0,0-.251.125v.022a.024.024,0,0,0,0,.017.381.381,0,0,0,.3.134,3.775,3.775,0,0,1,.57-.034,3.282,3.282,0,0,1,.347.038,1.2,1.2,0,0,0,.352.055.548.548,0,0,0,.28-.141C146.383,260.741,146.282,260.666,146.21,260.621Z" transform="translate(8181.15 2063.85)" fill="#db916b" fill-rule="evenodd"/>
      <path id="Path_13364" data-name="Path 13364" d="M155.725,255.79c-.012.022-.024.043-.034.065a.5.5,0,0,0,0-.1h0a2.134,2.134,0,0,0,.034-.239c0-.019-.022-.019-.029,0a1.508,1.508,0,0,0-.072.17,1.307,1.307,0,0,0-.081-.271c-.084-.206-.263-.369-.3-.584,0-.012,0-.014-.014-.014v-.134c0-.046-.081-.014-.084.024-.019.292,0,.582-.038.874-.026.223-.105.445-.122.668l-.062-.048a.414.414,0,0,0-.216-.084h-.314c-.228-.014-.438-.105-.663-.134a.479.479,0,0,0-.309.057.633.633,0,0,0-.177.079c-.022.012-.206.146-.206.151a9.552,9.552,0,0,0-.031,1.612,1.676,1.676,0,0,0-.407-.012c-.146.017-.331.072-.311.163.012.048.113.057.189.057h.364a1.271,1.271,0,0,0,.192,0,.151.151,0,0,0,.1.019.333.333,0,0,0,.158-.036h0l.024-.017c0-.012.022-.034.017-.048s0,0-.014-.014v-.026c-.06-.431-.06-.874-.12-1.305v-.031a.961.961,0,0,1,.105-.115,1.846,1.846,0,0,1,.17-.127,6.324,6.324,0,0,1,1.394.113.112.112,0,0,0,.053,0c0,.081.086.17.117.24a3.175,3.175,0,0,0,.175.493s.012.012.019.012.026.057.043.086a.585.585,0,0,1,0,.172,2.575,2.575,0,0,1-.034.333,2.223,2.223,0,0,1-.307.417,8.841,8.841,0,0,1-.534,1.13.175.175,0,0,1-.069.079,1.467,1.467,0,0,0-.012.177c.1-.18.2-.357.314-.532a3.183,3.183,0,0,1,.479-.793.537.537,0,0,0,.127-.089,1.508,1.508,0,0,0,.153-.1,7.25,7.25,0,0,0,.105.754,2.122,2.122,0,0,1-.338.917c-.017.022,0,.065.034.038a1.564,1.564,0,0,0,.5-1.279v-.1a14.457,14.457,0,0,1,.053-2.407h0a.155.155,0,0,1,.017-.084c.017-.029,0-.086,0-.129a.187.187,0,0,1,0-.043.019.019,0,0,0-.031-.007Z" transform="translate(8175.187 2068.295)" fill="#db916b" fill-rule="evenodd"/>
      <path id="Path_13365" data-name="Path 13365" d="M146.254,260.045a.819.819,0,0,0-.251-.1,2.379,2.379,0,0,0-.651,0,3.4,3.4,0,0,0-.582.1,2.843,2.843,0,0,0-.319.089c-.079.031-.295.148-.081.12.287-.038.57-.12.862-.132a3.169,3.169,0,0,1,.5.024c.156.019.4.163.544.038C146.336,260.128,146.309,260.083,146.254,260.045Z" transform="translate(8181.276 2064.287)" fill="#3b2517" fill-rule="evenodd"/>
      <path id="Path_13366" data-name="Path 13366" d="M157.923,259.977a3.524,3.524,0,0,0-1.253-.29,1.725,1.725,0,0,0-.433-.067h-.055a.2.2,0,0,0,.144.256,2.585,2.585,0,0,0,.639.055,2.578,2.578,0,0,1,.941.062C157.921,260.01,157.935,259.984,157.923,259.977Z" transform="translate(8172.229 2064.52)" fill="#3b2517" fill-rule="evenodd"/>
      <path id="Path_13367" data-name="Path 13367" d="M146.279,259.791c-.11-.266-.7-.146-.939-.122a2,2,0,0,0-1.14.333h0a2.908,2.908,0,0,1,.9-.239c.2-.022.924-.1,1.027.122C146.169,259.966,146.308,259.86,146.279,259.791Z" transform="translate(8181.335 2064.519)" fill="#673a22" fill-rule="evenodd"/>
      <path id="Path_13368" data-name="Path 13368" d="M157.148,259.53c-.3-.055-.594-.093-.891-.146a.041.041,0,0,0-.024,0l-.038.017c-.057.034-.108.105-.055.132a2.263,2.263,0,0,0,.869.093,4.311,4.311,0,0,1,.886.2A1.389,1.389,0,0,0,157.148,259.53Z" transform="translate(8172.272 2064.701)" fill="#673a22" fill-rule="evenodd"/>
      <path id="Path_13369" data-name="Path 13369" d="M146.522,246.2a1.836,1.836,0,0,0-.017-.3,2.4,2.4,0,0,0-.426-1.087,4.7,4.7,0,0,0-.762-.869c-.239-.218-.441-.455-.666-.663-.35,0-.7-.05-1.051-.067h-.163a8.159,8.159,0,0,1-1.186,0,.95.95,0,0,0-.072.067,5.781,5.781,0,0,0-.479.4l-.1.086a5.857,5.857,0,0,0-.508.366,1.526,1.526,0,0,0-.551.587,2.86,2.86,0,0,0-.357.69l-.014.05c-.012.034-.024.069-.034.1a3.661,3.661,0,0,0-.132.6c0,.239.11,1.293.134,1.511.048.148.091.3.132.448h0a5.288,5.288,0,0,1-.081-1.612,2.064,2.064,0,0,1,.187-.615.877.877,0,0,1,.491-.333,1.2,1.2,0,0,1,.618,0h.079a.74.74,0,0,1,.419.12.959.959,0,0,1,.184.206,2.875,2.875,0,0,1,.479.429,3.334,3.334,0,0,0,1.183.086l.108-.026a1.916,1.916,0,0,1,.608-.534.127.127,0,0,1,.048-.017.957.957,0,0,1,.18-.1.7.7,0,0,1,.22-.1.958.958,0,0,1,.362,0,.8.8,0,0,1,.56.419,4.6,4.6,0,0,1,.41,2.072A7.649,7.649,0,0,0,146.522,246.2Z" transform="translate(8184.522 2077)" fill="#3b2517" fill-rule="evenodd"/>
      <path id="Path_13370" data-name="Path 13370" d="M158.641,263.063h0a1.571,1.571,0,0,0-.558-.093,2.258,2.258,0,0,0-.311.014c-.055,0-.239,0-.278.038a.24.24,0,0,0-.057.081v.014c-.074.158.069.273.223.3a1.437,1.437,0,0,0,.891-.122C158.621,263.259,158.777,263.127,158.641,263.063Z" transform="translate(8171.285 2061.973)" fill="#f2f3f2" fill-rule="evenodd"/>
      <path id="Path_13371" data-name="Path 13371" d="M158.812,263.184h0a.055.055,0,0,1-.017-.079c0-.012.06-.055.077-.043h0a.7.7,0,0,0,.046.069c.019.024.038.036,0,.053a.113.113,0,0,1-.11,0Zm.431-.24c-.084,0-.168-.014-.24-.017a2.1,2.1,0,0,0-.311.014h-.041a.169.169,0,0,0-.024.074c-.017.278.295.359.517.239C159.243,263.215,159.33,263.045,159.243,262.944Z" transform="translate(8170.363 2062.005)" fill="#3b2517" fill-rule="evenodd"/>
      <path id="Path_13372" data-name="Path 13372" d="M145.565,263.012h.026a2.845,2.845,0,0,1,1.128.043.177.177,0,0,1,.053.079v.014c.065.156-.084.254-.24.271a1.523,1.523,0,0,1-.884-.175C145.575,263.2,145.431,263.051,145.565,263.012Z" transform="translate(8180.339 2061.968)" fill="#f2f3f2" fill-rule="evenodd"/>
      <path id="Path_13373" data-name="Path 13373" d="M153.318,274.638a4.354,4.354,0,0,0-.5-.026c-.1,0-.2-.019-.3-.022a.184.184,0,0,1,.017.038.422.422,0,0,0,.031.1c.067,0,.137.012.2.017a1.706,1.706,0,0,0,.529-.017C153.327,274.722,153.375,274.647,153.318,274.638Z" transform="translate(8175.008 2053.135)" fill="#db916b" fill-rule="evenodd"/>
      <path id="Path_13374" data-name="Path 13374" d="M143.087,267.866a10.059,10.059,0,0,0,.407,1.13.153.153,0,0,0,.055.079v.177c-.074-.18-.156-.357-.239-.532a3.353,3.353,0,0,0-.51-1.013v-.388A2.043,2.043,0,0,0,143.087,267.866Z" transform="translate(8182.4 2058.664)" fill="#edb389" fill-rule="evenodd"/>
      <path id="Path_13375" data-name="Path 13375" d="M154.14,274.94Z" transform="translate(8173.776 2052.869)" fill="#673a22" fill-rule="evenodd"/>
      <path id="Path_13376" data-name="Path 13376" d="M146.515,268.851a13.965,13.965,0,0,1-.254-1.7c-.266.608-.63,2.464-2.019,2.481a.817.817,0,0,1-.479-.263c0-.017-.074-.115-.127-.211a4.566,4.566,0,0,1-.572-.019c-.134.218-.129.443-.479.493-.9.137-2.019-1.808-2.306-2.579a16.871,16.871,0,0,1-.328,1.8,1.058,1.058,0,0,0,.017.117c-.014,0,0,.031,0,.048a1.347,1.347,0,0,0,.172.335c.156.137.321.266.479.393a13.347,13.347,0,0,1,1.123.9c.541.369,1.688,1.068,1.717,1.068s1-.733,1.463-1.1a12.208,12.208,0,0,1,.992-.865c.144-.127.287-.256.422-.393a1.362,1.362,0,0,0,.148-.335v-.048C146.483,268.959,146.51,268.889,146.515,268.851Z" transform="translate(8184.567 2058.87)" fill="#673a22" fill-rule="evenodd"/>
      <path id="Path_13377" data-name="Path 13377" d="M161.963,270.675c-.017.053-.036.105-.053.158v-.06c.012-.057.022-.117.029-.177a7.241,7.241,0,0,1-.132-.745v.079a1.143,1.143,0,0,0-.034-.24h0v-.031h-.014l-.057.165v.019a6.314,6.314,0,0,1-.038.8,4.35,4.35,0,0,1-.192.764c0-.1.017-.2.019-.3a1.916,1.916,0,0,0-.086-.616c-.041.065-.084.129-.129.192a7.715,7.715,0,0,1-.089.838c-.029.158-.065.314-.105.479a2.516,2.516,0,0,1,.311-.227c.127-.108.251-.218.374-.333a.339.339,0,0,1,.019-.043.031.031,0,0,1,0,.014v.014l.046-.046a1.3,1.3,0,0,0,.156-.335v-.048c0-.01.012-.079.017-.117l-.043-.16Zm-.905,1.312a2.776,2.776,0,0,0-.014-.6,3.74,3.74,0,0,0-.069-.383c-.041.038-.079.074-.12.108s-.11.091-.172.137l.014.419v.019a5.452,5.452,0,0,1-.239.718.894.894,0,0,0-.137.24l.055-.043C160.607,272.417,160.823,272.189,161.058,271.988Z" transform="translate(8169.076 2056.885)" fill="#3b2517" fill-rule="evenodd"/>
      <path id="Path_13378" data-name="Path 13378" d="M141.856,272.28a3.316,3.316,0,0,1-.388-1.8.055.055,0,0,0-.017-.046.931.931,0,0,1-.069-.151,4.9,4.9,0,0,0,.067,1.078,3.283,3.283,0,0,0,.156.754l.117.089C141.765,272.225,141.811,272.251,141.856,272.28Z" transform="translate(8183.482 2056.413)" fill="#3b2517" fill-rule="evenodd"/>
      <path id="Path_13379" data-name="Path 13379" d="M144.773,276.257a6.005,6.005,0,0,1-.635-1.629l-.089-.089a2.875,2.875,0,0,0,.206.833,4.605,4.605,0,0,0,.314.718C144.637,276.149,144.7,276.2,144.773,276.257Z" transform="translate(8181.449 2053.173)" fill="#3b2517" fill-rule="evenodd"/>
      <path id="Path_13380" data-name="Path 13380" d="M142.2,272.07a5.123,5.123,0,0,0,.5,1.729l.141.12a7.922,7.922,0,0,1-.618-1.811Z" transform="translate(8182.856 2055.052)" fill="#3b2517" fill-rule="evenodd"/>
      <path id="Path_13381" data-name="Path 13381" d="M151.078,272.044c-.431,0-.865.038-1.3.031-.393,0-.79-.062-1.181-.036a.019.019,0,0,0,0,.038,5.569,5.569,0,0,0,1.279.1,7.7,7.7,0,0,0,1.176-.026C151.095,272.15,151.145,272.044,151.078,272.044Z" transform="translate(8178.001 2055.08)" fill="#db916b" fill-rule="evenodd"/>
      <path id="Path_13382" data-name="Path 13382" d="M139.319,261.579c-.022-.017-.046,0-.057.031a.8.8,0,0,0-.06.443,2.172,2.172,0,0,0,.108.606h0a2.748,2.748,0,0,0-.034-.419,1.08,1.08,0,0,1,0-.517,2.6,2.6,0,0,1,.122.422c0,.036.043.012.055,0A.46.46,0,0,0,139.319,261.579Z" transform="translate(8185.144 2063.035)" fill="#db916b" fill-rule="evenodd"/>
      <path id="Path_13383" data-name="Path 13383" d="M167.034,261.749a.771.771,0,0,0-.211.814c0,.022.034,0,.034-.019a1.794,1.794,0,0,1,.046-.453c.036-.117.108-.218.148-.331C167.055,261.751,167.046,261.739,167.034,261.749Z" transform="translate(8164.161 2062.904)" fill="#db916b" fill-rule="evenodd"/>
      <path id="Path_13384" data-name="Path 13384" d="M151.2,272.552h-.441c-.12,0-.239,0-.366-.012h-.144c-.046,0-.1.05-.046.06a5.361,5.361,0,0,0,.869.139,3.538,3.538,0,0,0,.759-.086c.05,0,.187-.062.158-.1C151.742,272.557,151.457,272.554,151.2,272.552Z" transform="translate(8176.785 2054.694)" fill="#fff" fill-rule="evenodd"/>
      <path id="Path_13385" data-name="Path 13385" d="M150.284,248.12h-.014a.128.128,0,0,1,0,.031c0,.017.019,0,.019,0A.118.118,0,0,1,150.284,248.12Z" transform="translate(8176.719 2073.266)" fill="#673a22" fill-rule="evenodd"/>
      <path id="Path_13386" data-name="Path 13386" d="M143.349,250.715a.194.194,0,0,0,.034.029,1.833,1.833,0,0,0,0-.323.073.073,0,0,0,0-.022c0-.616-.479-1.562-1.312-1.305a2.143,2.143,0,0,0-1.13,1.624h0a.91.91,0,0,1,.671-.587C142.152,250,143.3,250.679,143.349,250.715Z" transform="translate(8183.814 2072.558)" fill="#673a22" fill-rule="evenodd"/>
      <path id="Path_13387" data-name="Path 13387" d="M158.76,250.93c-.074-.335-.2-.872-.582-1.023a.551.551,0,0,0-.479.036,1.576,1.576,0,0,0-.678.6,2.491,2.491,0,0,0-.422.831,2.376,2.376,0,0,0,.256-.187c.307-.2.656-.453,1.03-.309a.929.929,0,0,1,.342.144,1.514,1.514,0,0,1,.6.757A2.51,2.51,0,0,0,158.76,250.93Z" transform="translate(8171.905 2071.936)" fill="#673a22" fill-rule="evenodd"/>
      <path id="Path_13388" data-name="Path 13388" d="M150.076,250.438h.113a.367.367,0,0,1,.069.017,2.359,2.359,0,0,0-.742-1.875c-.014,0-.029.017-.022.026a3.432,3.432,0,0,1,.539,1.255A5.414,5.414,0,0,1,150.076,250.438Z" transform="translate(8177.311 2072.916)" fill="#673a22" fill-rule="evenodd"/>
      <path id="Path_13389" data-name="Path 13389" d="M156.032,249.116a1.2,1.2,0,0,0-.268.223,2.419,2.419,0,0,0-.774,1.542,1.129,1.129,0,0,0,.2-.024h.036v-.081a4.269,4.269,0,0,1,.24-.819,3.113,3.113,0,0,1,.568-.821S156.041,249.109,156.032,249.116Z" transform="translate(8173.129 2072.509)" fill="#673a22" fill-rule="evenodd"/>
      <path id="Path_13390" data-name="Path 13390" d="M143.15,256.53a2.043,2.043,0,0,1,.158-.165c-.031-.2-.055-.407-.067-.613a4.926,4.926,0,0,0-.029-.651h0a2.572,2.572,0,0,0-.062,1.406A.072.072,0,0,0,143.15,256.53Z" transform="translate(8182.187 2067.958)" fill="#edb389" fill-rule="evenodd"/>
      <path id="Path_13391" data-name="Path 13391" d="M143.756,246.4c-.137-.438-.347-.853-.917-.783a2.481,2.481,0,0,0-1.959,1.763c0,.012.012,0,.017,0a3.207,3.207,0,0,1,.671-1.035,2.376,2.376,0,0,1,1.209-.642c.644-.1.81.479.944.929a3.688,3.688,0,0,1,.194,1.511c0,.053.06.026.067,0A3.513,3.513,0,0,0,143.756,246.4Z" transform="translate(8183.86 2075.176)" fill="#673a22" fill-rule="evenodd"/>
      <path id="Path_13392" data-name="Path 13392" d="M153.21,263.2h0c-.067-.453-.041-.924-.127-1.375,0-.014-.019,0-.019,0a7.157,7.157,0,0,0,.041,1.413C153.11,263.317,153.215,263.264,153.21,263.2Z" transform="translate(8174.607 2062.844)" fill="#edb389" fill-rule="evenodd"/>
      <path id="Path_13393" data-name="Path 13393" d="M147.032,263.192h0a.06.06,0,0,1-.017-.079c0-.012.06-.057.079-.043h0a.721.721,0,0,0,.046.072c.019.024.038.034,0,.053a.113.113,0,0,1-.11,0Zm.431-.24a2.174,2.174,0,0,0-.239-.014,2.239,2.239,0,0,0-.311.014h-.041a.16.16,0,0,0-.024.074c-.017.278.295.359.517.24A.222.222,0,0,0,147.463,262.952Z" transform="translate(8179.322 2061.997)" fill="#3b2517" fill-rule="evenodd"/>
      <path id="Path_13394" data-name="Path 13394" d="M141.662,350.677a4.983,4.983,0,0,0-.1-1.233v-.084a8.217,8.217,0,0,0-.11-1.1c-.074-.628-.132-1.257-.2-1.885a8.316,8.316,0,0,0-.659-3.078.105.105,0,0,0-.194.053.355.355,0,0,1,0,.05l-.029-.045a.093.093,0,0,0-.168.024h0a4.406,4.406,0,0,0-.946-.184c-.031.1-.065.2-.1.295-.105.266-.536.148-.431-.117q.041-.1.072-.208l-.479-.017-3.092-.093-2.936-.084a9.877,9.877,0,0,0-2.3-.014h-.012c.022-.079.043-.158.067-.24.05-.16-.2-.271-.275-.115-.041.079-.074.16-.11.239-.211,1.5-.771,2.948-.977,4.464a30.442,30.442,0,0,0-.239,3.616.194.194,0,0,0,.211-.019,8.907,8.907,0,0,0,1.236-.041H130c.383-.038.764-.069,1.147-.081a16.028,16.028,0,0,1,2.987.192l.366.022v.014a.038.038,0,0,0,.017.022.148.148,0,0,0,.089.074v-.077a3.065,3.065,0,0,1,.014-.364q0-.072,0-.144a2.962,2.962,0,0,0,.627-.053,2.031,2.031,0,0,1,.081.766h.285a.022.022,0,0,0,0-.012c.165,0,.333.017.5.022.915-.079,1.835-.141,2.754-.132a21.353,21.353,0,0,1,2.766.285.3.3,0,0,0,.022-.086.322.322,0,0,0,0-.048.223.223,0,0,0,.014-.081v-.1C141.672,350.938,141.669,350.809,141.662,350.677Z" transform="translate(8193.328 2001.469)" fill="#79cedb" fill-rule="evenodd"/>
      <path id="Path_13395" data-name="Path 13395" d="M144.634,344.347h-.493a.211.211,0,0,0-.175-.251c-.216-.026-.436-.041-.654-.048.06-.067.065-.184-.05-.206a16.257,16.257,0,0,0-3.082-.213l.4-.026a.086.086,0,1,0,0-.172,33.909,33.909,0,0,0-4.907-.132c-.958.026-1.947.045-2.917.129a1.594,1.594,0,0,0-.544.024.139.139,0,0,0-.1-.074,3.783,3.783,0,0,0-1.459-.017.223.223,0,0,0-.1.369.065.065,0,0,0,.019.017.158.158,0,0,0-.043.211,1.936,1.936,0,0,0-.323.139.079.079,0,0,0,.019.141,1.842,1.842,0,0,0,.479.084,1.788,1.788,0,0,0-.386.144.065.065,0,0,0,.017.12,5.352,5.352,0,0,0,1.811-.026l.522-.038a12.335,12.335,0,0,0,1.329.11c.766.05,1.535.077,2.3.1.718.026,1.437.053,2.155.074a9.572,9.572,0,0,0,1.995,0c.24,0,.479.019.718.024.189.505.479,1,.639,1.494.091.273.172.548.239.829a4.072,4.072,0,0,0-1.209.613h0c.35-.115.675-.278,1.03-.378.074-.022.148-.038.225-.055.024.1.046.2.069.3-.134.014-.266.034-.4.05a.958.958,0,0,0-.613.239h0a10.094,10.094,0,0,1,1.051-.115c.041.177.077.352.11.529a1.124,1.124,0,0,0,.024.177c.12.843.2,1.715.314,2.579l.022.283a10.076,10.076,0,0,0,.24,2.395.139.139,0,0,0,.263,0c.012-.053.022-.105.031-.158a.189.189,0,0,0,.283-.163,22,22,0,0,0-.424-3.5c-.05-.467-.113-.929-.192-1.391l-.079-.429a.122.122,0,0,0,.067-.1,5.35,5.35,0,0,0-.575-3.216,16.685,16.685,0,0,0,2.373-.182C144.842,344.61,144.794,344.352,144.634,344.347Z" transform="translate(8192.004 2000.909)" fill="#58bec7" fill-rule="evenodd"/>
      <path id="Path_13396" data-name="Path 13396" d="M149.473,366.847a1.1,1.1,0,0,0-.17.057,4.895,4.895,0,0,0-1.25.548,11.664,11.664,0,0,0,1.423-1.138c.024-.024,0-.06-.036-.045a10.35,10.35,0,0,0-1.387.915,7.768,7.768,0,0,0-.687.4c-.115.074-.24.144-.369.225h-.05a.831.831,0,0,0-.189,0c-.148,0-.295.038-.445.043a2.57,2.57,0,0,0-.479.019l-.084-.019a1.779,1.779,0,0,0-.364-.371,18.164,18.164,0,0,0-1.765-1.106c-.048-.029-.108.043-.062.079.362.28.738.536,1.111.8.043.081.081.165.122.239a3.4,3.4,0,0,0-1.5-.431c-.017,0-.024.022,0,.031.386.239.85.273,1.255.479a2.56,2.56,0,0,1,.338.208c.041.208.132.429.172.611a3.115,3.115,0,0,0,.292,1.128.16.16,0,0,0,.24.029h.017a.2.2,0,0,0,.3.11c.137-.062.163-.24.144-.448a.4.4,0,0,0,.187-.019.091.091,0,0,0,.038-.148.577.577,0,0,0-.278-.132c-.034-.134-.069-.259-.093-.338a.644.644,0,0,0,.24.184.115.115,0,0,0,.117-.017h.012l.172-.108a.369.369,0,0,0-.069.295.05.05,0,0,0,.072.029l.053-.031v.323a.718.718,0,0,0,.029.534.234.234,0,0,0,.019.113.086.086,0,0,0,.165,0v-.046l.012-.012a.91.91,0,0,0,.086-.429,1.8,1.8,0,0,0,.1.417.184.184,0,0,0,.359-.048c0-.259-.055-.515-.072-.774v-.568a3.51,3.51,0,0,1,.5-.517,13.694,13.694,0,0,1,1.437-.877,2.351,2.351,0,0,0,.357-.158A.018.018,0,0,0,149.473,366.847Z" transform="translate(8182.038 1983.415)" fill="#58bec7" fill-rule="evenodd"/>
      <path id="Path_13397" data-name="Path 13397" d="M136.276,367.906a1.48,1.48,0,0,0-.592-.141,2,2,0,0,0-.745-.014h0c.381.189.9.081,1.312.2C136.286,367.976,136.308,367.925,136.276,367.906Z" transform="translate(8188.377 1982.308)" fill="#58bec7" fill-rule="evenodd"/>
      <path id="Path_13398" data-name="Path 13398" d="M141.662,350.677a4.983,4.983,0,0,0-.1-1.233v-.084a8.217,8.217,0,0,0-.11-1.1c-.074-.628-.132-1.257-.2-1.885a8.316,8.316,0,0,0-.659-3.078.105.105,0,0,0-.194.053.355.355,0,0,1,0,.05l-.029-.045a.093.093,0,0,0-.168.024h0a4.406,4.406,0,0,0-.946-.184c-.031.1-.065.2-.1.295-.105.266-.536.148-.431-.117q.041-.1.072-.208l-.479-.017-3.092-.093-2.936-.084a9.877,9.877,0,0,0-2.3-.014h-.012c.022-.079.043-.158.067-.24.05-.16-.2-.271-.275-.115-.041.079-.074.16-.11.239-.211,1.5-.771,2.948-.977,4.464a30.442,30.442,0,0,0-.239,3.616.194.194,0,0,0,.211-.019,8.907,8.907,0,0,0,1.236-.041H130c.383-.038.764-.069,1.147-.081a16.028,16.028,0,0,1,2.987.192l.366.022v.014a.038.038,0,0,0,.017.022.148.148,0,0,0,.089.074v-.077a3.065,3.065,0,0,1,.014-.364q0-.072,0-.144a2.962,2.962,0,0,0,.627-.053,2.031,2.031,0,0,1,.081.766h.285a.022.022,0,0,0,0-.012c.165,0,.333.017.5.022.915-.079,1.835-.141,2.754-.132a21.353,21.353,0,0,1,2.766.285.3.3,0,0,0,.022-.086.322.322,0,0,0,0-.048.223.223,0,0,0,.014-.081v-.1C141.672,350.938,141.669,350.809,141.662,350.677Z" transform="translate(8193.328 2001.469)" fill="#35a3e5"/>
      <path id="Path_13399" data-name="Path 13399" d="M131.628,286.238a10.81,10.81,0,0,1,.718-1.5.24.24,0,0,1,.031-.081,7,7,0,0,1,.718-.982.251.251,0,0,0-.043-.22l-.014-.012c-.63-.342-1.255-.7-1.88-1.049l-.055-.019a.208.208,0,0,0-.074-.048c-.22-.079-.448-.153-.675-.228-.388-.105-.781-.2-1.176-.278a.255.255,0,0,1-.105,0c-.3-.057-.6-.1-.9-.158l-.127-.014a.253.253,0,0,1-.091-.029c-.156-.031-.309-.067-.462-.11h-.026c-.055.144-.1.29-.146.436-.012.038-.024.079-.038.117a10.139,10.139,0,0,0-.436.958c-.345.719-.68,1.437-1.023,2.155-.414.877-.91,1.744-1.336,2.634-.584-.982-1.523-1.844-2.134-2.74a19.366,19.366,0,0,0-1.849-2.543l-.113-.158c-.12-.165-.239-.362-.374-.546h-.046a1.032,1.032,0,0,0-.239.019l-.776.182c-.172.062-.342.125-.5.172-.551.16-1.1.319-1.653.5a.206.206,0,0,1-.105,0c-.292.115-.584.228-.881.328l-.046.012c-.525.29-1.039.6-1.576.869v.105a9.218,9.218,0,0,1,1.523,1.585,6.2,6.2,0,0,1,1.363,1.753,3.113,3.113,0,0,1,.216,1.581,3.382,3.382,0,0,0,.105.414.1.1,0,0,0,0,.029.036.036,0,0,0,0,.022c.062.156.127.309.194.462a4.936,4.936,0,0,0,.445,1.14c.077.151.158.316.251.479.012.719.11,1.449.067,2.132-.062,1.047-.433,2.352-.117,3.37a.175.175,0,0,0,.239.1,19.868,19.868,0,0,0,4.752.455,27.184,27.184,0,0,0,3.082.24,7.141,7.141,0,0,0,3.073-.46,1.276,1.276,0,0,0,.347-.029.3.3,0,0,0,.12-.031.113.113,0,0,0,.077-.074h0a.089.089,0,0,0,0-.034,6,6,0,0,0,.11-1.856c0-.673.022-1.346.041-2.019a15.012,15.012,0,0,1,.383-2.634c.072-.156.139-.314.2-.479l.11-.213c.1-.206.22-.424.311-.649a.211.211,0,0,0,.141-.086,4.293,4.293,0,0,1-.141-1.09A6.927,6.927,0,0,1,131.628,286.238Z" transform="translate(8204.158 2047.873)" fill="#4d5b6b" fill-rule="evenodd"/>
      <path id="Path_13400" data-name="Path 13400" d="M170.261,309.518c-.254.4-.479.809-.706,1.226a.16.16,0,0,0,.089.213c-.158.266-.311.536-.448.812-.036.074.06.163.122.093.16-.184.316-.378.479-.575.479-.941.917-1.916,1.356-2.848C170.843,308.8,170.548,309.154,170.261,309.518Z" transform="translate(8162.332 2027.392)" fill="#4d5b6b" fill-rule="evenodd"/>
      <path id="Path_13401" data-name="Path 13401" d="M180.712,294.637c-.285.34-.577.678-.867,1.013a14.394,14.394,0,0,1-1.375,1.727.223.223,0,0,1,.034.24c-.086.18-.17.362-.254.541.184-.275.369-.551.56-.817.7-.992,1.454-1.954,2.136-2.963l.182-.218C180.983,294.325,180.839,294.481,180.712,294.637Z" transform="translate(8155.44 2038.252)" fill="#4d5b6b" fill-rule="evenodd"/>
      <path id="Path_13402" data-name="Path 13402" d="M176.2,289.572l-.18.127a.074.074,0,0,0-.019-.036c-.374.525-.893,1-1.286,1.478-.287.345-.582.683-.874,1.02a14.884,14.884,0,0,1-.958,1.248,2.425,2.425,0,0,0,.532-.338q-.41.647-.821,1.293c-.22.347-.457.695-.695,1.044a30.063,30.063,0,0,1-1.533,2.975h.014c.125-.144.239-.29.359-.441.366-.352.7-.757,1.027-1.121.077-.086.158-.172.239-.259l.137-.12c-.1.513-.168,1.032-.24,1.523V298c-.036.151-.069.3-.1.455-.084.718-.17,1.418-.273,2.122-.072.5-.12,1.025-.208,1.538a.06.06,0,0,0,.1-.014l.029-.067a2.947,2.947,0,0,0,.213-.522c.137-.352.261-.718.371-1.08a.048.048,0,0,0,.026,0,13.109,13.109,0,0,0-.038,1.813,14.233,14.233,0,0,0-.093,1.775.108.108,0,0,0,.208.029c.043-.148.079-.3.11-.45a.24.24,0,0,0,.366.019.132.132,0,0,0,.11-.1,10.555,10.555,0,0,0,.113-2.179c0-.508.031-1.013.053-1.518a.06.06,0,0,0,.072-.038,9.62,9.62,0,0,0,.263-1.971.144.144,0,0,0,.11-.089c.026-.072.046-.144.067-.216a.1.1,0,0,0,.175,0,7.85,7.85,0,0,0,.422-3.738c.031-.17.067-.338.113-.5a7.6,7.6,0,0,1,.357-1.015.546.546,0,0,0,.055-.05.029.029,0,0,0,0-.034l.019-.014a.043.043,0,0,0,0-.069,12.272,12.272,0,0,1,.6-1.138.053.053,0,0,0-.036-.079c.24-.266.5-.529.718-.814l.448-.381C176.317,289.617,176.254,289.536,176.2,289.572Z" transform="translate(8161.433 2041.748)" fill="#233645" fill-rule="evenodd"/>
      <path id="Path_13403" data-name="Path 13403" d="M134.439,284.022c-.6-.975-2.019-1.351-3.042-1.691a11.9,11.9,0,0,0-3.966-1.023.077.077,0,0,0-.134-.019l-.022.031h-.1a.081.081,0,0,0-.022.16h0a20.866,20.866,0,0,0-1.368,2.788c-.156.323-.319.644-.479.958a9.91,9.91,0,0,0-.958,2.132c-.127-.122-.268-.24-.393-.354-.048-.048-.1-.093-.148-.139a.113.113,0,0,0,0-.086,25.859,25.859,0,0,0-2.127-2.9,11.968,11.968,0,0,0-1.777-2.127l-.263-.328c-.874.259-1.736.548-2.587.879-.239.057-.465.129-.7.208-.644.314-1.293.618-1.93.946a.038.038,0,0,1,0,.024.065.065,0,0,0-.019-.017l-.218.11.019.038c-.091.06-.177.125-.261.192.081.062.168.12.239.184a.915.915,0,0,1,.134.139.737.737,0,0,1,.2.019.548.548,0,0,1,.268.192c.295.292.524.639.8.958a12.658,12.658,0,0,1,.958.936l.239.328q.8,1.047,1.648,2.05l.354.407a2.394,2.394,0,0,0,.393.479.017.017,0,0,0,.026,0c.041.043.079.089.12.134.182.2.553.757.817.786a.137.137,0,0,0,0-.053.225.225,0,0,0-.057-.129c-.457-.58-.912-1.166-1.336-1.77-.077-.113-.148-.225-.223-.338-.364-.548-.809-1.071-1.212-1.6a17.761,17.761,0,0,0-1.219-1.554,2.114,2.114,0,0,1-.283-.338c-.527-.862,1.384-1.267,1.887-1.509.393-.187.786-.376,1.183-.551.3-.132.683-.225.992-.376a17.231,17.231,0,0,0,1.59,2.141,24.191,24.191,0,0,0,2.1,2.606.122.122,0,0,0,.093.034,2.51,2.51,0,0,0,.551.678.141.141,0,0,0,.208-.026.091.091,0,0,0,.062-.05c.17-.3.323-.618.479-.936.422-.819.783-1.676,1.2-2.505a15.661,15.661,0,0,0,1.2-2.579c.56.18,1.171.24,1.736.41q.9.263,1.779.6c.606.24,1.229.462,1.818.738.548.256,1.011.627,1.54.905a.146.146,0,0,0,.2-.2Zm-17.6,2.021c-.141-.211-.278-.424-.414-.639a.089.089,0,0,1-.012-.026C116.556,285.605,116.7,285.826,116.836,286.044Z" transform="translate(8204.341 2048.064)" fill="#67707a" fill-rule="evenodd"/>
      <path id="Path_13404" data-name="Path 13404" d="M176.284,290.458a15.223,15.223,0,0,0-1.437,1.506c-1.051,1.653-2.467,3.037-3.607,4.632a17.909,17.909,0,0,0,2.1-2.345c.153-.2.3-.4.448-.608.433-.457.807-1,1.2-1.475.453-.553.958-1.059,1.4-1.626C176.451,290.478,176.339,290.411,176.284,290.458Z" transform="translate(8160.771 2041.08)" fill="#67707a" fill-rule="evenodd"/>
      <path id="Path_13405" data-name="Path 13405" d="M129.654,322.2a.223.223,0,0,1,.386-.225c.077.137.151.275.225.414a5.421,5.421,0,0,0-.3-.589c-.012-.079-.026-.158-.038-.24a.7.7,0,0,1-.012.158,2.1,2.1,0,0,0-.366-.431.017.017,0,0,0-.029.012,2,2,0,0,0,.1.692,1.234,1.234,0,0,0-.144-.132c-.024-.019-.072-.012-.069.029a2.615,2.615,0,0,0,.433,1.075,32.486,32.486,0,0,1-.22,3.753c.031.132.06.263.079.4a.748.748,0,0,0,.019.125l.117.017a.031.031,0,0,1,0-.014.048.048,0,0,0,0,.017,1.177,1.177,0,0,1,.239.048c0-.479.072-.958.086-1.425.024-.74.055-1.473.115-2.208a6.337,6.337,0,0,0,.553.793C130.447,323.7,130.071,322.939,129.654,322.2Z" transform="translate(8192.583 2017.628)" fill="#67707a" fill-rule="evenodd"/>
      <path id="Path_13406" data-name="Path 13406" d="M117.784,298.68c.448.8.85,1.621,1.272,2.433-.254-.675-.479-1.358-.687-2.05a.182.182,0,0,1,0-.026,10.524,10.524,0,0,0-.817-1.887v-.086c-.1-.453-.239-.9-.342-1.329-.029-.105-.057-.223-.089-.342.278.29.58.56.865.831.352.335.707.668,1.085.975.2.182.4.362.606.536a24.727,24.727,0,0,1-1.983-2.395c-.357-.39-.718-.781-1.066-1.178-.85-.958-1.641-1.961-2.51-2.893,0-.014-.034,0-.041,0a1.677,1.677,0,0,0-.383-.338c-.048-.074-.1-.144-.132-.213-.079-.148-.316-.012-.24.134.117.192.283.479.527.508h.014a.162.162,0,0,0-.012-.074c.151.2.335.381.479.568.295.366.572.747.879,1.1a.034.034,0,0,0,.055-.041c-.084-.144-.172-.28-.268-.414.479.558.958,1.1,1.437,1.643a.314.314,0,0,0-.048-.029h0a1.792,1.792,0,0,0-.148-.184h0a5.809,5.809,0,0,1,.362.932c.019.24.043.479.069.73,0,.17.017.34.026.508a3.255,3.255,0,0,0,.1.793.055.055,0,0,0,.057.041c.022.134.043.268.067.4.017.089.156.057.151-.022h0a4.661,4.661,0,0,0-.038-.479c.065.335.137.668.228,1l.05.342a.1.1,0,0,0,.057.079.651.651,0,0,0,.029.148.05.05,0,0,0,.06.034.2.2,0,0,0,.024.062.509.509,0,0,1,0,.105l.038-.024.036.105c.024.117.05.239.081.352l.029.187c-.069-.144-.141-.29-.211-.436,0-.019-.038,0-.034.014.05.17.11.342.17.513.012.278.012.558.014.836,0,.045.074.06.081.012a4.419,4.419,0,0,0,.043-.479.042.042,0,0,0,.017.038h0a8.219,8.219,0,0,0,1.039,1.837.022.022,0,0,0,.019,0l.017.026c.014.019.05,0,.041-.019-.239-.7-.6-1.356-.862-2.045-.086-.223-.163-.45-.239-.675,0-.086-.012-.17-.019-.256A.2.2,0,0,1,117.784,298.68Z" transform="translate(8204.829 2040.92)" fill="#233645" fill-rule="evenodd"/>
      <path id="Path_13407" data-name="Path 13407" d="M130.359,325.79a.041.041,0,0,0-.029.034v.012c.022,0,.022,0,.034-.029a.012.012,0,0,0,0-.017Z" transform="translate(8191.884 2014.198)" fill="#233645" fill-rule="evenodd"/>
      <path id="Path_13408" data-name="Path 13408" d="M128.84,337.213v.05h0v-.05Z" transform="translate(8193.017 2005.512)" fill="#233645" fill-rule="evenodd"/>
      <path id="Path_13409" data-name="Path 13409" d="M131.628,286.238a10.81,10.81,0,0,1,.718-1.5.24.24,0,0,1,.031-.081,7,7,0,0,1,.718-.982.251.251,0,0,0-.043-.22l-.014-.012c-.63-.342-1.255-.7-1.88-1.049l-.055-.019a.208.208,0,0,0-.074-.048c-.22-.079-.448-.153-.675-.228-.388-.105-.781-.2-1.176-.278a.255.255,0,0,1-.105,0c-.3-.057-.6-.1-.9-.158l-.127-.014a.253.253,0,0,1-.091-.029c-.156-.031-.309-.067-.462-.11h-.026c-.055.144-.1.29-.146.436-.012.038-.024.079-.038.117a10.139,10.139,0,0,0-.436.958c-.345.719-.68,1.437-1.023,2.155-.414.877-.91,1.744-1.336,2.634-.584-.982-1.523-1.844-2.134-2.74a19.366,19.366,0,0,0-1.849-2.543l-.113-.158c-.12-.165-.239-.362-.374-.546h-.046a1.032,1.032,0,0,0-.239.019l-.776.182c-.172.062-.342.125-.5.172-.551.16-1.1.319-1.653.5a.206.206,0,0,1-.105,0c-.292.115-.584.228-.881.328l-.046.012c-.525.29-1.039.6-1.576.869v.105a9.218,9.218,0,0,1,1.523,1.585,6.2,6.2,0,0,1,1.363,1.753,3.113,3.113,0,0,1,.216,1.581,3.382,3.382,0,0,0,.105.414.1.1,0,0,0,0,.029.036.036,0,0,0,0,.022c.062.156.127.309.194.462a4.936,4.936,0,0,0,.445,1.14c.077.151.158.316.251.479.012.719.11,1.449.067,2.132-.062,1.047-.433,2.352-.117,3.37a.175.175,0,0,0,.239.1,19.868,19.868,0,0,0,4.752.455,27.184,27.184,0,0,0,3.082.24,7.141,7.141,0,0,0,3.073-.46,1.276,1.276,0,0,0,.347-.029.3.3,0,0,0,.12-.031.113.113,0,0,0,.077-.074h0a.089.089,0,0,0,0-.034,6,6,0,0,0,.11-1.856c0-.673.022-1.346.041-2.019a15.012,15.012,0,0,1,.383-2.634c.072-.156.139-.314.2-.479l.11-.213c.1-.206.22-.424.311-.649a.211.211,0,0,0,.141-.086,4.293,4.293,0,0,1-.141-1.09A6.927,6.927,0,0,1,131.628,286.238Z" transform="translate(8204.158 2047.873)" fill="#4d5b6b"/>
      <path id="Path_13410" data-name="Path 13410" d="M152.63,276.02a14.769,14.769,0,0,1,.369,2.141,11.737,11.737,0,0,1,.268-1.573c.041-.182.084-.366.127-.548-.034-.055-.074-.122-.11-.189a2.874,2.874,0,0,1-.536,0A1.951,1.951,0,0,1,152.63,276.02Z" transform="translate(8174.924 2052.177)" fill="#3b2517" fill-rule="evenodd"/>
      <path id="Path_13411" data-name="Path 13411" d="M156.505,277.46c0,.079-.012.158-.019.239a3.008,3.008,0,0,0-.014.867.768.768,0,0,1-.017.1c0,.034.022.022.029,0a5.844,5.844,0,0,0,.259-1.094A1.283,1.283,0,0,1,156.505,277.46Z" transform="translate(8172.021 2050.953)" fill="#3b2517" fill-rule="evenodd"/>
      <path id="Path_13412" data-name="Path 13412" d="M265.066,278.143h-.2a3.529,3.529,0,0,0,0-.39,3.177,3.177,0,0,1,.012-.338,2,2,0,0,0-.014-.465H263.6a4.874,4.874,0,0,0-.141,1.267c-.525.062-.958.172-.862.374a.5.5,0,0,0,.218.24c-.34.024-.678.055-1.015.1a.12.12,0,1,0,0,.24c.366.05.733.081,1.1.105-.043.019-.086.038-.129.062a.1.1,0,0,0,0,.163,2.326,2.326,0,0,0,.261.115.239.239,0,0,0,.1.4c.1.024.211.043.316.06a2.828,2.828,0,0,0,.048.285,3.214,3.214,0,0,0,.089.984.339.339,0,0,0,.014.053s0,.012,0,.017v.017h0a.447.447,0,0,0,.091.148h1.1a.285.285,0,0,0,.022-.144,9.071,9.071,0,0,0,.029-1.253c.441,0,.881,0,1.315.014a8.127,8.127,0,0,0,2.246-.1v-1.94a29.389,29.389,0,0,0-3.329-.017Z" transform="translate(8091.991 2051.341)" fill="#b8c5d6" fill-rule="evenodd"/>
      <path id="Path_13413" data-name="Path 13413" d="M45.176,265.138c-.014-.084-.034-.168-.055-.251v-6.921c0-1.827.072-3.746-.065-5.58a2.526,2.526,0,0,0-.031-.3.612.612,0,0,1,.031-.069v-2.242c-.017-.026-.036-.048-.053-.072H41.26c0,4.716.141,9.422.081,14.13,0,.821-.026,1.643-.041,2.464,0,.18-.127,1.164,0,1.274h.012l.129.129h3.734Z" transform="translate(8259.634 2072.064)" fill="#3b2517"/>
      <path id="Path_13414" data-name="Path 13414" d="M257.542,264.351q-.024-.125-.057-.251v-.592c0-.718.012-1.437,0-2.155,0-1.391,0-2.781-.014-4.174,0-1.825.072-3.746-.065-5.578a2.111,2.111,0,0,0-.031-.3.605.605,0,0,1,.031-.069V249c-.017-.026-.034-.048-.05-.072h-3.719c0,4.713.139,9.422.079,14.13,0,.821-.026,1.643-.041,2.464,0,.18-.125,1.164,0,1.274h.012l.129.129h3.727Z" transform="translate(8098.122 2072.65)" fill="#3b2517"/>
      <path id="Path_13415" data-name="Path 13415" d="M24.217,286.907A5.182,5.182,0,0,0,23,286.864a2.91,2.91,0,0,0-1.2.153h0a2.909,2.909,0,0,0,1.2.153,5.179,5.179,0,0,0,1.219-.043.117.117,0,0,0,0-.22Z" transform="translate(8274.421 2043.814)" fill="#c3d2e7" fill-rule="evenodd"/>
      <path id="Path_13416" data-name="Path 13416" d="M37.874,285.363c-.127-.144-.45-.1-.6-.012a.139.139,0,0,0,0,.24c.151.089.479.132.6,0a.151.151,0,0,0,0-.228Z" transform="translate(8262.706 2045.013)" fill="#c3d2e7" fill-rule="evenodd"/>
      <path id="Path_13417" data-name="Path 13417" d="M60.524,286.929V286.9a.064.064,0,0,0,0-.029h0a.1.1,0,0,0-.089-.067,4.056,4.056,0,0,0-1.473-.048.163.163,0,1,0,0,.326,4.006,4.006,0,0,0,1.473-.048.091.091,0,0,0,.089-.065h0A.067.067,0,0,0,60.524,286.929Z" transform="translate(8246.282 2043.919)" fill="#c3d2e7" fill-rule="evenodd"/>
      <path id="Path_13418" data-name="Path 13418" d="M93.457,286.549a15.448,15.448,0,0,0-3.329-.093c-.6,0-1.2,0-1.8.014a5.01,5.01,0,0,1-1.985-.029c-.436-.208-.436.611,0,.4a5.163,5.163,0,0,1,1.985-.029c.563.017,1.2.012,1.8.014a15.149,15.149,0,0,0,3.329-.093.1.1,0,0,0,0-.187Z" transform="translate(8225.585 2044.148)" fill="#c3d2e7" fill-rule="evenodd"/>
      <path id="Path_13419" data-name="Path 13419" d="M194.98,284.219c-1.339-.048-2.687-.017-4.028,0-.62,0-1.241,0-1.861.019a5.636,5.636,0,0,0-1.861.144h0a4.953,4.953,0,0,0,1.705.137c.673.019,1.344.022,2.017.026,1.341,0,2.69.041,4.028,0a.163.163,0,1,0,0-.326Z" transform="translate(8148.611 2045.832)" fill="#c3d2e7" fill-rule="evenodd"/>
      <path id="Path_13420" data-name="Path 13420" d="M240.291,284.628a6.014,6.014,0,0,0-1.5-.065c-.577,0-1.145-.067-1.72-.084a.24.24,0,0,0,0,.465c.575-.019,1.14-.084,1.72-.084a5.9,5.9,0,0,0,1.5-.067.086.086,0,0,0,0-.165Z" transform="translate(8110.842 2045.614)" fill="#c3d2e7" fill-rule="evenodd"/>
      <path id="Path_13421" data-name="Path 13421" d="M271.437,282.219v-.1c0-.223,0-.453.017-.68h0v-.206a4.125,4.125,0,0,1-.479,0,.114.114,0,0,0,0,.041.689.689,0,0,0-.053.072c0,.287,0,.575-.012.862A4.928,4.928,0,0,1,271.437,282.219Z" transform="translate(8084.972 2048.085)" fill="#c3d2e7" fill-rule="evenodd"/>
      <path id="Path_13422" data-name="Path 13422" d="M278.984,283.657a9.876,9.876,0,0,0-1.662-.024c-.393.012-.884-.1-1.2.172a.014.014,0,0,0,0,.022c.311.268.8.158,1.2.17a9.87,9.87,0,0,0,1.662-.024.165.165,0,0,0,0-.316Z" transform="translate(8081.01 2046.276)" fill="#c3d2e7" fill-rule="evenodd"/>
      <path id="Path_13423" data-name="Path 13423" d="M144.9,348.377c-1.791-.012-3.578-.093-5.367-.168-1.471-.062-2.96-.192-4.433-.12-.115,0-.239-.012-.347-.014s-.45.074-.539,0a.046.046,0,0,0-.074.043c.06.369.661.347.941.369a5.836,5.836,0,0,0,.817.012c1.2.139,2.46.091,3.636.144a29.922,29.922,0,0,0,5.417.117C145.171,348.729,145.121,348.377,144.9,348.377Z" transform="translate(8188.988 1997.258)" fill="#58bec7" fill-rule="evenodd"/>
      <path id="Path_13424" data-name="Path 13424" d="M178.609,466.4c-.24-.821-.556-1.617-.81-2.436l-.031-.036c-.074-.211-.141-.424-.206-.637a1.6,1.6,0,0,0-.172-.558.405.405,0,0,0-.031-.1,3.092,3.092,0,0,1-3.051-.062,4.966,4.966,0,0,0,.017.905c.019.441,0,.886.05,1.327a3.413,3.413,0,0,0-.163.4,2.584,2.584,0,0,0-.41.342,1.617,1.617,0,0,0-.417,1.126,1.2,1.2,0,0,0,.077.536c.283.151.56.314.85.441h.057a3.456,3.456,0,0,0,1.475.031,3.648,3.648,0,0,1,.577-.026c.69-.148,1.382-.275,2.067-.433.046-.218.089-.436.127-.656a.321.321,0,0,0-.029-.057C178.6,466.481,178.6,466.443,178.609,466.4Z" transform="translate(8159.143 1910.168)" fill="#b8c5d6" fill-rule="evenodd"/>
      <path id="Path_13425" data-name="Path 13425" d="M188.933,463.023c-.148-.357-.285-.718-.4-1.085a3.647,3.647,0,0,0-.386-1.09.048.048,0,0,0-.081,0,.9.9,0,0,0-.081.192.393.393,0,0,0-.2.24.022.022,0,0,0-.031,0c-.012.038-.022.079-.031.117l-.029-.053c0-.019-.022-.024-.034,0a.925.925,0,0,0-.077.771,4.132,4.132,0,0,0,.1.429,2.839,2.839,0,0,0,.268.819,3.619,3.619,0,0,1,.536,1.138,5.236,5.236,0,0,1-.019,1.547.113.113,0,0,0,0,.05c-.012.129.168.239.259.125a1.31,1.31,0,0,0,.137-.225.163.163,0,0,0,.144-.014.515.515,0,0,0,.335-.069.479.479,0,0,0,.134-.1.24.24,0,0,0,.062-.134.3.3,0,0,0,.072-.259v-.019a.22.22,0,0,0,.077-.139A5.3,5.3,0,0,0,188.933,463.023Z" transform="translate(8148.378 1911.502)" fill="#8394a4" fill-rule="evenodd"/>
      <path id="Path_13426" data-name="Path 13426" d="M185,463Z" transform="translate(8150.307 1909.849)" fill="#8293a3"/>
      <path id="Path_13427" data-name="Path 13427" d="M186.951,467.642a1.885,1.885,0,0,0-1.217-1.265,1.166,1.166,0,0,1-.766-1,12.861,12.861,0,0,0-.256-1.451H184.7a10.3,10.3,0,0,0,.177,1.324,1.633,1.633,0,0,0,.275.857,2.981,2.981,0,0,0,.855.5,1.916,1.916,0,0,1,.848,1.061.05.05,0,0,0,.1-.026Z" transform="translate(8150.535 1909.141)" fill="#8293a3"/>
      <path id="Path_13428" data-name="Path 13428" d="M176.077,462.255a11.608,11.608,0,0,0-.256-1.437c0-.034-.062-.026-.06,0,.024.347.079.685.134,1.027a1.9,1.9,0,0,1,.05.826,1.289,1.289,0,0,1-.376.508,8.186,8.186,0,0,0-1.32,1.2h0a12.968,12.968,0,0,0,1.643-1.4.958.958,0,0,0,.184-.726Z" transform="translate(8158.482 1911.525)" fill="#8293a3"/>
      <path id="Path_13429" data-name="Path 13429" d="M187.561,463.574a1.376,1.376,0,0,0-.1-.278.017.017,0,0,0-.031,0,.764.764,0,0,0,.029.3,1.032,1.032,0,0,0,.12.323.043.043,0,0,0,.079-.034A2.543,2.543,0,0,0,187.561,463.574Z" transform="translate(8148.464 1909.631)" fill="#8293a3"/>
      <path id="Path_13430" data-name="Path 13430" d="M178.609,466.4c-.24-.821-.556-1.617-.81-2.436l-.031-.036c-.074-.211-.141-.424-.206-.637a1.6,1.6,0,0,0-.172-.558.405.405,0,0,0-.031-.1,3.092,3.092,0,0,1-3.051-.062,4.966,4.966,0,0,0,.017.905c.019.441,0,.886.05,1.327a3.413,3.413,0,0,0-.163.4,2.584,2.584,0,0,0-.41.342,1.617,1.617,0,0,0-.417,1.126,1.2,1.2,0,0,0,.077.536c.283.151.56.314.85.441h.057a3.456,3.456,0,0,0,1.475.031,3.648,3.648,0,0,1,.577-.026c.69-.148,1.382-.275,2.067-.433.046-.218.089-.436.127-.656a.321.321,0,0,0-.029-.057C178.6,466.481,178.6,466.443,178.609,466.4Z" transform="translate(8159.143 1910.168)" fill="#b8c5d6"/>
      <path id="Path_13431" data-name="Path 13431" d="M130.034,464.32v-.012a5.29,5.29,0,0,0-.132-.905,4.237,4.237,0,0,1,0-1.128c.014-.1.115-.479,0-.625a2.9,2.9,0,0,1-2.22.307,1.236,1.236,0,0,1-1.032-.426h-.05c-.141.548-.117,1.118-.285,1.676-.074.24-.187.479-.273.718-.206.28-.424.551-.63.843a1.068,1.068,0,0,0-.208.613,1.275,1.275,0,0,0,.146.972,9.054,9.054,0,0,0,2.155.5,6.127,6.127,0,0,0,.915-.12,2.963,2.963,0,0,0,1.37-.374c.295-.184.292-.479.295-.8A7.242,7.242,0,0,0,130.034,464.32Z" transform="translate(8195.82 1910.967)" fill="#b8c5d6" fill-rule="evenodd"/>
      <path id="Path_13432" data-name="Path 13432" d="M139.986,464.184c-.093-.92.081-1.854,0-2.757a.11.11,0,0,0-.17-.086.062.062,0,0,0-.108,0,4.219,4.219,0,0,0-.491,2.3c-.014.376-.019.764-.017,1.152-.175-.17-.371-.331-.546-.51-.69-.718-.223-1.7-.275-2.555,0,0-.014-.014-.019,0a5.2,5.2,0,0,0-.184,1.157,2.229,2.229,0,0,0,.12,1.078,1.916,1.916,0,0,0,.58.668,2.264,2.264,0,0,1,.328.335c0,.393.019.786.038,1.169a.659.659,0,0,1-.036.086,1.925,1.925,0,0,1-.115.192l-.1.1c-.031.034,0,.1.05.084h0a.046.046,0,0,0,.057,0,.6.6,0,0,0,.105-.1.72.72,0,0,0,.122-.132.223.223,0,0,0,.362-.108.109.109,0,0,1,.019-.074.148.148,0,0,0,.1-.055C140.257,465.547,140.053,464.852,139.986,464.184Z" transform="translate(8185.932 1911.134)" fill="#8394a4" fill-rule="evenodd"/>
      <path id="Path_13433" data-name="Path 13433" d="M126.319,463.244a.014.014,0,1,0-.029,0,6.706,6.706,0,0,1-.194,1.576c-.182.606-.675.687-1.2.9a2.178,2.178,0,0,0-1.4,1.226c-.012.036.048.065.067.026a2.108,2.108,0,0,1,1-.987c.4-.2.869-.3,1.243-.534a1.08,1.08,0,0,0,.414-.75A4.34,4.34,0,0,0,126.319,463.244Z" transform="translate(8197.082 1909.674)" fill="#8394a4" fill-rule="evenodd"/>
      <path id="Path_13434" data-name="Path 13434" d="M130.034,464.32v-.012a5.29,5.29,0,0,0-.132-.905,4.237,4.237,0,0,1,0-1.128c.014-.1.115-.479,0-.625a2.9,2.9,0,0,1-2.22.307,1.236,1.236,0,0,1-1.032-.426h-.05c-.141.548-.117,1.118-.285,1.676-.074.24-.187.479-.273.718-.206.28-.424.551-.63.843a1.068,1.068,0,0,0-.208.613,1.275,1.275,0,0,0,.146.972,9.054,9.054,0,0,0,2.155.5,6.127,6.127,0,0,0,.915-.12,2.963,2.963,0,0,0,1.37-.374c.295-.184.292-.479.295-.8A7.242,7.242,0,0,0,130.034,464.32Z" transform="translate(8195.82 1910.967)" fill="#b8c5d6"/>
      <path id="Path_13435" data-name="Path 13435" d="M129.968,482.24a6.579,6.579,0,0,1-2.713.4,9.531,9.531,0,0,1-1.4-.24c-.206-.048-.479-.187-.692-.108l-.036.017a1.951,1.951,0,0,0,.065.35,6.232,6.232,0,0,0,4.826.213,4.724,4.724,0,0,1,.122-.656.328.328,0,0,0-.175.022Z" transform="translate(8195.838 1895.236)" fill="#8394a4" fill-rule="evenodd"/>
      <path id="Path_13436" data-name="Path 13436" d="M177.721,483.319c-.251.046-.465.077-.532.089a8.943,8.943,0,0,1-2.838-.081c-.266-.034-.424-.256-.7-.228-.057,0,.017.565.2.616a7.871,7.871,0,0,0,2.558.263,5.237,5.237,0,0,0,2.3-.479c.029-.18.065-.359.1-.539C178.779,483.106,178.185,483.235,177.721,483.319Z" transform="translate(8158.953 1894.669)" fill="#8394a4" fill-rule="evenodd"/>
      <path id="Path_13437" data-name="Path 13437" d="M128.215,475.378c-.393-.211-.922.079-1.253.3-.148.1-.69.479-.311.649a.034.034,0,0,0,.05-.031c0-.24.563-.5.742-.577a6.392,6.392,0,0,1,.75-.175.091.091,0,0,0,.022-.163Z" transform="translate(8194.781 1900.491)" fill="#d7dee9" fill-rule="evenodd"/>
      <path id="Path_13438" data-name="Path 13438" d="M176.078,474.96a1.484,1.484,0,0,0-1.023.386,1.111,1.111,0,0,0-.295.354.865.865,0,0,0-.079.434h.014a1.183,1.183,0,0,1,.618-.719c.254-.132.589-.117.807-.295a.1.1,0,0,0-.043-.16Z" transform="translate(8158.156 1900.763)" fill="#d7dee9" fill-rule="evenodd"/>
      <path id="Path_13439" data-name="Path 13439" d="M43.248,257.3a3.2,3.2,0,0,0,.132-.448,2.332,2.332,0,0,0,.067.24.57.57,0,0,0,.113.2H44.3a.455.455,0,0,0,.163-.328c.041-.2.081-.558.117-.992a4.486,4.486,0,0,0,.287,1.32H45.4a8.159,8.159,0,0,0,.285-3.24c-.012-.594-.024-1.2-.065-1.777a1.779,1.779,0,0,0-.139-.769h-.7a1.482,1.482,0,0,0-.127.62c-.024.254-.036.508-.046.762a4.737,4.737,0,0,0-.263-1.382h-.879a1.305,1.305,0,0,0-.122.3,1.528,1.528,0,0,0-.055-.3H42.41a3.114,3.114,0,0,0-.077.647c-.043.661-.034,1.329-.046,1.993a8.7,8.7,0,0,0,.16,3.149Z" transform="translate(8258.889 2070.688)" fill="#716658" fill-rule="evenodd"/>
      <path id="Path_13440" data-name="Path 13440" d="M255.973,256.115c.034-.132.06-.263.081-.4a.9.9,0,0,0,.144.189.285.285,0,0,0,.4,0,1.155,1.155,0,0,0,.3-.6,2.245,2.245,0,0,0,.225.807h.745a6.306,6.306,0,0,0,.168-2.783,20.983,20.983,0,0,0-.213-3l.019-.034c-.3.022-.6.036-.9.046a.522.522,0,0,0,.187.182,22.5,22.5,0,0,0-.184,2.809c0,.278-.029.582-.048.893-.024-.24-.048-.462-.05-.663,0-.465,0-.927-.014-1.389a6.765,6.765,0,0,1,0-1.827l-.857.022a6.343,6.343,0,0,1,0,1.65v.46a20.528,20.528,0,0,0-.228-2.1c-.326,0-.651.019-.975.038,0,.225,0,.45.022.675a.262.262,0,0,0,0,.06c-.093.924-.079,1.851-.089,2.778a5.427,5.427,0,0,0,.158,2.2Z" transform="translate(8097.322 2071.615)" fill="#716658" fill-rule="evenodd"/>
      <path id="Path_13441" data-name="Path 13441" d="M43.838,294.214c-.175,0-.352-.012-.527-.024a19.334,19.334,0,0,0-.079,2.587,22.843,22.843,0,0,0-.062,3.729.364.364,0,0,0,.718,0,23.938,23.938,0,0,0-.017-3.729A18.05,18.05,0,0,0,43.838,294.214Z" transform="translate(8258.219 2038.229)" fill="#673a22" fill-rule="evenodd"/>
      <path id="Path_13442" data-name="Path 13442" d="M47.789,294.34H46.91a21.639,21.639,0,0,0,.014,2.373c-.022,1.289-.079,2.57-.151,3.856a.551.551,0,0,0,.366.635l.17.014a.632.632,0,0,0,.534-.639,37.281,37.281,0,0,0,.074-4.04A13.779,13.779,0,0,0,47.789,294.34Z" transform="translate(8255.438 2038.115)" fill="#673a22" fill-rule="evenodd"/>
      <path id="Path_13443" data-name="Path 13443" d="M47.954,291.85l-.014.034h.58a.161.161,0,0,0-.014-.029Z" transform="translate(8254.541 2040.009)" fill="#673a22" fill-rule="evenodd"/>
      <path id="Path_13444" data-name="Path 13444" d="M53,297.242a16.094,16.094,0,0,0-.108-3.022c-.287,0-.572.019-.857.024a13,13,0,0,0-.072,2.249v1.873a13.629,13.629,0,0,1,0,1.928c-.091.592.479,1.1.843.616a2.033,2.033,0,0,0,.22-1.327Q53.021,298.411,53,297.242Z" transform="translate(8251.489 2038.207)" fill="#673a22" fill-rule="evenodd"/>
      <path id="Path_13445" data-name="Path 13445" d="M255.3,301.82a.589.589,0,0,0,.038.187q.435-.022.869,0v-.026c.048-.292.081-.592.105-.893a3.465,3.465,0,0,0,.175.73.357.357,0,0,0,.184.208l.295.014a.388.388,0,0,0,.172-.12l.036-.043a.562.562,0,0,0,.041-.062v.146a.612.612,0,0,0,0,.093c.374.019.747.036,1.121.036a.575.575,0,0,0,0-.364c.017-1.315-.012-2.634-.055-3.952a8.709,8.709,0,0,0-.175-2.395l-.783.014a3.609,3.609,0,0,0-.148,1.011,7.619,7.619,0,0,0-.158-1.006h-.742a5.342,5.342,0,0,0-.122,1.068c-.031-.362-.062-.718-.091-1.066h-.747a17.715,17.715,0,0,0,0,2.874C255.344,299.459,255.222,300.661,255.3,301.82Z" transform="translate(8096.888 2037.324)" fill="#673a22" fill-rule="evenodd"/>
    </g>
  </g>
</svg>
