<svg xmlns="http://www.w3.org/2000/svg" width="215.117" height="304.795" viewBox="0 0 215.117 304.795">
  <g id="Onboarding_Illustration_1" data-name="Onboarding Illustration 1" transform="translate(-72.299 -69)">
    <g id="Group_3878" data-name="Group 3878" transform="translate(176.494 154.169)">
      <path id="Path_13518" data-name="Path 13518" d="M.82,2.031a.461.461,0,0,1-.11.027.415.415,0,0,1-.236-.035.464.464,0,0,1-.222-.272A1.693,1.693,0,0,1,.183,1.07,2.4,2.4,0,0,1,.3.383.559.559,0,0,1,.5.1.258.258,0,0,1,.675.058.238.238,0,0,1,.753.081.258.258,0,0,1,.83.093.393.393,0,0,1,1,.193a.67.67,0,0,1,.161.286,1.784,1.784,0,0,1,.062.57,2.383,2.383,0,0,1-.073.572.813.813,0,0,1-.136.291.331.331,0,0,1-.131.1A.16.16,0,0,1,.82,2.031Z" transform="translate(0.421 2.166)" fill="#3b2645"/>
      <path id="Path_13519" data-name="Path 13519" d="M.819,2.029a.455.455,0,0,1-.109.025.421.421,0,0,1-.235-.039.475.475,0,0,1-.222-.272,1.668,1.668,0,0,1-.071-.675A2.344,2.344,0,0,1,.3.389.568.568,0,0,1,.491.107.267.267,0,0,1,.67.059a.238.238,0,0,1,.079.02A.258.258,0,0,1,.826.091a.394.394,0,0,1,.166.1.671.671,0,0,1,.162.286,1.784,1.784,0,0,1,.063.57,2.382,2.382,0,0,1-.072.572.812.812,0,0,1-.136.291.331.331,0,0,1-.131.1A.159.159,0,0,1,.819,2.029Z" transform="translate(7.689 1.936)" fill="#3b2645"/>
      <path id="Path_13520" data-name="Path 13520" d="M1.909,6.3a1.536,1.536,0,0,0-.341,0c-.131.009-.273.022-.409.023a1.123,1.123,0,0,1-.376-.047.382.382,0,0,1-.24-.214q.015-.327.052-.651t.093-.645q.057-.321.134-.638T1,3.5c.052-.3.111-.568.171-.833s.121-.522.179-.786.111-.536.155-.831.079-.613.1-.969l-.017,0L1.545.071,1.5.063l-.028,0q-.241.76-.451,1.529T.636,3.134Q.459,3.911.313,4.7T.055,6.272a.161.161,0,0,0-.007.085.164.164,0,0,0,.037.077.168.168,0,0,0,.071.049.169.169,0,0,0,.086.007c.132,0,.263,0,.394,0s.261.015.392.024.263.019.4.025.268.009.4.005a.18.18,0,0,0,.137-.011A.124.124,0,0,0,1.909,6.3Z" transform="translate(2.72 1.135)" fill="#a4644e"/>
      <path id="Path_13521" data-name="Path 13521" d="M1.881.359A1.8,1.8,0,0,0,1.426.226,2.117,2.117,0,0,0,.9.205a1.483,1.483,0,0,0-.49.123.871.871,0,0,0-.363.3A.143.143,0,0,0,.046.79.147.147,0,0,0,.075.823.15.15,0,0,0,.2.855.457.457,0,0,0,.377.848,1.2,1.2,0,0,0,.557.789C.618.765.679.739.74.717A.854.854,0,0,1,.925.67a2.028,2.028,0,0,1,.8.141A.245.245,0,0,0,1.911.8.241.241,0,0,0,1.985.744.235.235,0,0,0,2.021.48.241.241,0,0,0,1.965.407.245.245,0,0,0,1.881.359Z" transform="translate(0 0.021)" fill="#3b2645"/>
      <path id="Path_13522" data-name="Path 13522" d="M2.182.758A1.5,1.5,0,0,0,1.735.371,1.518,1.518,0,0,0,.58.227,1.493,1.493,0,0,0,.054.494C.049.52.043.552.04.584a.4.4,0,0,0,0,.1A.186.186,0,0,0,.076.77.165.165,0,0,0,.164.826Q.286.833.409.834t.245,0Q.777.828.9.819T1.144.8q.1,0,.2.015t.2.029q.1.018.2.042t.2.055a.206.206,0,0,0,.084,0A.2.2,0,0,0,2.1.9.2.2,0,0,0,2.158.837.2.2,0,0,0,2.182.758Z" transform="translate(7.284)" fill="#3b2645"/>
      <path id="Path_13523" data-name="Path 13523" d="M4.475.743a4.5,4.5,0,0,0-.59.229c-.184.085-.359.173-.538.254a3.569,3.569,0,0,1-.558.206,2.474,2.474,0,0,1-.649.084,2.813,2.813,0,0,1-.356.005,2.817,2.817,0,0,1-.352-.039A2.817,2.817,0,0,1,1.087,1.4a2.812,2.812,0,0,1-.332-.127.543.543,0,0,1-.148-.046.724.724,0,0,1-.1-.06.533.533,0,0,0-.1-.056.51.51,0,0,0-.15-.036.112.112,0,0,0-.09.009A.11.11,0,0,0,.149,1.1a.108.108,0,0,0-.023.114A.725.725,0,0,0,.38,1.7a1.45,1.45,0,0,0,.526.274,3.418,3.418,0,0,0,.626.125c.206.024.4.033.555.037A3.034,3.034,0,0,0,2.813,2.1,3.016,3.016,0,0,0,3.5,1.892a2.986,2.986,0,0,0,.615-.36,2.952,2.952,0,0,0,.516-.5.144.144,0,0,0,.059-.1.155.155,0,0,0-.029-.1A.215.215,0,0,0,4.578.757.158.158,0,0,0,4.475.743Z" transform="translate(2.152 8.361)" fill="#a4644e"/>
    </g>
    <g id="Group_3877" data-name="Group 3877" transform="translate(72.299 81.434)">
      <path id="Path_11037" data-name="Path 11037" d="M347.492,140.584c-2.817.319-5.687.532-8.558.691H174l-2.87-.266a2.5,2.5,0,0,1,0-4.97c.957,0,1.914-.186,2.9-.239H338.908c2.9.159,5.741.372,8.584.691a2.046,2.046,0,1,1,0,4.093Z" transform="translate(-139.052 147.352)" fill="#c6c6c6"/>
      <path id="Path_11038" data-name="Path 11038" d="M231.383,272.652c-5.315-3.614-9.913-8.345-16.106-9.647-4.6-.983-9.355,0-14.059.133A32.264,32.264,0,0,1,168.927,226.2c2.126-14.511,14.006-27.241,12.172-41.806-1.223-9.541-7.973-17.2-13.288-25.168-8.584-12.81-13.74-29.66-7.176-43.613,7.1-15.1,25.115-21.607,35.693-34.55,7.415-9.089,10.843-20.969,18.6-29.9s18.6-13.9,29.633-17.275c14.7-4.492,30.564-6.352,45.473-2.658a67.824,67.824,0,0,1,41.274,31.892,78.136,78.136,0,0,1,8.717,52.011c-1.648,9.329-4.837,19-1.914,28.012s11.561,15.2,18.6,21.873a51.293,51.293,0,0,1,14.644,22.192,29.235,29.235,0,0,1-3.8,25.647c-3.189,4.226-7.734,7.256-11.029,11.4-10.046,12.571-6.166,31.2-11.88,46.244-6.883,18.072-29.235,28.517-47.573,22.085-7.973-2.844-14.883-8.319-22.458-12.279C260.378,272.918,244.459,281.821,231.383,272.652Z" transform="translate(-157.661 -29.26)" fill="#35a3e5" opacity="0.05"/>
    </g>
    <path id="Path_11072" data-name="Path 11072" d="M47.626.213c-7.973-.478-15.813,0-23.707,0A207,207,0,0,0,.239.585a.239.239,0,0,0,0,.478,213.252,213.252,0,0,0,23.68.372c7.973,0,15.946.345,23.707,0a.611.611,0,0,0,0-1.223Z" transform="matrix(0.819, 0.574, -0.574, 0.819, 75.75, 120.964)" fill="#35a3e5"/>
    <path id="Path_11073" data-name="Path 11073" d="M25.374.508A121.7,121.7,0,0,0,.1.827c-.133,0-.133.239,0,.266a123.558,123.558,0,0,0,25.275.292.452.452,0,0,0,0-.877Z" transform="matrix(0.819, 0.574, -0.574, 0.819, 97.34, 142.826)" fill="#35a3e5"/>
    <path id="Path_11074" data-name="Path 11074" d="M32.765.3C27.357-.257,21.883.129,16.461.153S5.566-.185.157.515C.071.515,0,.644,0,.8s.071.289.157.289c5.408.7,10.9.362,16.3.386s10.9.41,16.3-.145a.557.557,0,0,0,.228-.518A.557.557,0,0,0,32.765.3Z" transform="matrix(0.574, -0.819, 0.819, 0.574, 215.45, 96.026)" fill="#35a3e5"/>
    <g id="Group_3875" data-name="Group 3875" transform="translate(112.671 105.95)">
      <path id="Path_12932" data-name="Path 12932" d="M605.536,151.959s-1.767,3.578-1.2,4.822,1.273,0,1.273,0-.72,1.228.206,1.923,1.681-.82,1.681-.82a1.148,1.148,0,0,0,.856,1.419c1.158.342,1.51-1.057,1.51-1.057s.438,1.767,1.646.906c2.043-1.455,2.079-4.394,2.079-4.394s-.06-.7-1.193-.956a1.581,1.581,0,0,0-2.013-1.51s-1.142-1.676-2.355-.554A1.385,1.385,0,0,0,605.536,151.959Z" transform="translate(-487.491 -142.404)" fill="#693a2b"/>
      <path id="Path_12913" data-name="Path 12913" d="M517.8,243.59s8.435,17.756,2.627,18.828c-7.962,1.46-11.178-13.247-11.178-13.247Z" transform="translate(-440.316 -188.381)" fill="#163342"/>
      <path id="Path_12914" data-name="Path 12914" d="M529.045,225.273s4.53-3.583,6.487-5.536,10.494-15.658,12.22-18.325,3.689-7.927,4.867-10.2,12.794-19.78,12.794-19.78l4.474,1.882s-8.007,20.253-10.066,23.625-4.082,10.207-5.652,13.186-10.066,14.993-11.536,17.741a50.533,50.533,0,0,0-2.909,8.1S527.027,232.676,529.045,225.273Z" transform="translate(-450.04 -152.539)" fill="#8e4f3a"/>
      <path id="Path_12915" data-name="Path 12915" d="M496.05,258.064a56.954,56.954,0,0,1,.418,10.5c-.418,4.283,11.722,1.142,11.722,1.142s-.679-9.311.362-12.663S496.05,258.064,496.05,258.064Z" transform="translate(-433.759 -194.435)" fill="#8e4f3a"/>
      <path id="Path_12916" data-name="Path 12916" d="M445.485,385.476s-1.636,4.026-2.708,6.8-6.211,14.017-7.62,22-3.523,22.482-3.83,26.474a44.246,44.246,0,0,1-3.417,13.327c-1.6,3.261-5.194,12.839-5.6,18.954s-3.553,33.112-3.553,33.112,2.748,2.391,7.449-.9c0,0,7.721-25.532,9.638-29.282s4.7-13.483,4.973-17.032,3.483-7.549,6.175-15.768,13.962-31.929,15.059-36.615c0,0,.106-2.089,2.909-1.691L463.171,384.5Z" transform="translate(-395.369 -258.372)" fill="#35a3e5"/>
      <path id="Path_12917" data-name="Path 12917" d="M507.857,385.334s1.751,4.349,2.818,7.117,6.185,14.027,7.58,22.019,3.478,22.487,3.78,26.479a44.369,44.369,0,0,0,3.392,13.337c1.6,3.271,5.169,12.849,5.536,18.959s3.493,33.122,3.493,33.122-2.753,2.386-7.444-.916c0,0-7.675-25.547-9.563-29.3s-4.671-13.493-4.937-17.042-3.468-7.549-6.15-15.783-14.092-32.045-15.6-36.887a1.782,1.782,0,0,0-2.446-1.414L472.47,383.92Z" transform="translate(-422.047 -258.084)" fill="#35a3e5"/>
      <path id="Path_12918" data-name="Path 12918" d="M412.607,620.087a2.518,2.518,0,0,1-1.847.7c-1.117-.076-4.459-1.268-5.863-.6s-1.847,7.107-4.57,8.828-10.891,7.086-10.207,11.224,11.989,2.436,14.742-1.183,5.4-2.059,7.615-4.6S412.381,622.507,412.607,620.087Z" transform="translate(-381.124 -375.336)"/>
      <path id="Path_12919" data-name="Path 12919" d="M578.782,621.109a2.627,2.627,0,0,0,1.867.659c1.117-.065,4.459-1.258,5.863-.589s1.832,7.112,4.53,8.833,10.876,7.091,10.187,11.249-11.994,2.411-14.742-1.213-5.39-2.069-7.6-4.615S579.008,623.53,578.782,621.109Z" transform="translate(-474.426 -375.83)"/>
      <path id="Path_12920" data-name="Path 12920" d="M487.236,227.067s-1.107-1.329-1.51,0,.936,5.32,1.087,5.9c0,0,.669,2.235.941,1.948S487.236,227.067,487.236,227.067Z" transform="translate(-428.594 -179.881)" fill="#8e4f3a"/>
      <path id="Path_12921" data-name="Path 12921" d="M526.682,227.415s1.107-1.334,1.51,0-.936,5.32-1.087,5.9c0,0-.669,2.235-.941,1.948S526.682,227.415,526.682,227.415Z" transform="translate(-448.689 -180.053)" fill="#8e4f3a"/>
      <path id="Path_12922" data-name="Path 12922" d="M499.514,202.252s10.167,1.57,8.682,17.585-10.464,14.747-11.073,14.737-9,.332-9.734-19.216C487.4,215.358,487.063,200.9,499.514,202.252Z" transform="translate(-429.458 -167.804)" fill="#8e4f3a"/>
      <path id="Path_12923" data-name="Path 12923" d="M489.191,214.081s11.284,3.357,16.689,2.285c0,0,.342,2.013,1.117,2.114s1.173-3.81,1.173-3.81.267-13.025-11.515-13.151-9.391,14.092-9.391,14.092l.161,2.431S489.111,218.727,489.191,214.081Z" transform="translate(-429.296 -167.484)" fill="#163342"/>
      <path id="Path_12924" data-name="Path 12924" d="M498.8,263.52s3.558,3.372,9.059.277a5.709,5.709,0,0,1-4.691,2.632A5.22,5.22,0,0,1,498.8,263.52Z" transform="translate(-435.125 -198.28)" fill="#633029"/>
      <path id="Path_12925" data-name="Path 12925" d="M490.638,274.79a29.611,29.611,0,0,0,4.771,1.822c1.409.237,10.755,7.846,11.072,8.632s-2.194,7.222-3.141,10.207-4.993,20.957-4.615,22.211,3.89,13.866,4.057,14.882c-24.435,4.812-37.163.69-37.163.69s4.132-12.195,3.976-14.55-2.436-15.7-4.082-19.468-4.4-13.247-4.4-13.247,10.675-8.319,10.992-8.868,5.662-1.57,7.127-2.3Z" transform="translate(-416.405 -203.878)" fill="#8e4f3a"/>
      <path id="Path_12926" data-name="Path 12926" d="M443.426,225.378a83.469,83.469,0,0,1-7.071-5.627c-1.938-1.938-10.489-15.673-12.21-18.34s-3.689-7.927-4.867-10.2-12.794-19.78-12.794-19.78L402,173.312s8.007,20.253,10.066,23.625,4.082,10.207,5.652,13.186,10.066,14.993,11.541,17.741a50,50,0,0,1,2.909,8.1S445.445,232.782,443.426,225.378Z" transform="translate(-387.045 -152.539)" fill="#8e4f3a"/>
      <path id="Path_12927" data-name="Path 12927" d="M499.537,277.377s5.154,15.869,6.935,22.648c0,0-2.713,12.134-3.02,13.946,0,0-15.2-2.929-30.429.5,0,0-3.287-14.263-3.6-15.069a78.013,78.013,0,0,0,7.509-21.949,6.921,6.921,0,0,1,3.427-.981s-1.444,15.869,8.994,15.708,7.232-15.854,7.232-15.854a19.018,19.018,0,0,1,2.954,1.047Z" transform="translate(-420.532 -204.643)" fill="#35a3e5"/>
      <path id="Path_12928" data-name="Path 12928" d="M402.867,164.295a7.772,7.772,0,0,1-1.173-2.733c-.055-.866.05-2.119.03-2.909a29.921,29.921,0,0,0-.805-4.942c-.131-.317-1.706-1.928-1.9-2.6s-.418-2.1-1.007-1.9-.73,1.51-.73,1.51a.866.866,0,0,0-.775-.584,1.509,1.509,0,0,0-1.394.654s-.624-.468-1.077-.337a1.918,1.918,0,0,0-1.273.891,1.782,1.782,0,0,0-1.193.191,1.611,1.611,0,0,0-.805,1.329s-1.122.312-1.193.956a5.544,5.544,0,0,0,.307,1.661,18.526,18.526,0,0,0,4.57,6.86,18.3,18.3,0,0,1,3.734,5.536Z" transform="translate(-380.865 -141.493)" fill="#8e4f3a"/>
      <rect id="Rectangle_17543" data-name="Rectangle 17543" width="16.8" height="3.085" transform="matrix(0.905, -0.425, 0.425, 0.905, 5.991, 15.461)" fill="#b85858"/>
      <path id="Path_12929" data-name="Path 12929" d="M397.643,151.959s1.762,3.578,1.2,4.822-1.278,0-1.278,0,.725,1.228-.206,1.923-1.676-.82-1.676-.82a1.153,1.153,0,0,1-.861,1.419c-1.153.342-1.51-1.057-1.51-1.057s-.433,1.767-1.641.906c-2.043-1.455-2.079-4.394-2.079-4.394s.06-.7,1.193-.956a1.6,1.6,0,0,1,2.013-1.51s1.137-1.676,2.35-.554A1.389,1.389,0,0,1,397.643,151.959Z" transform="translate(-380.88 -142.404)" fill="#693a2b"/>
      <path id="Path_12930" data-name="Path 12930" d="M404.667,134.613l1.117-.539a1.782,1.782,0,0,1,2.376.82l7.429,15.305a1.782,1.782,0,0,1-.82,2.381l-1.117.539a1.777,1.777,0,0,1-2.376-.82l-7.449-15.305a1.782,1.782,0,0,1,.84-2.381Z" transform="translate(-387.865 -133.896)" fill="#eb7171"/>
      <rect id="Rectangle_17544" data-name="Rectangle 17544" width="4.796" height="20.57" rx="2.398" transform="translate(13.294 25.034) rotate(154.12)" fill="#eb7171"/>
      <path id="Path_12931" data-name="Path 12931" d="M596.38,164.295a7.774,7.774,0,0,0,1.173-2.733c.055-.866-.055-2.119-.03-2.909a30.473,30.473,0,0,1,.805-4.942c.126-.317,1.706-1.928,1.9-2.6s.423-2.1,1.007-1.9.73,1.51.73,1.51a.876.876,0,0,1,.78-.584,1.5,1.5,0,0,1,1.389.654s.624-.468,1.077-.337a1.937,1.937,0,0,1,1.278.891,1.782,1.782,0,0,1,1.193.191,1.611,1.611,0,0,1,.805,1.329s1.122.312,1.193.956a5.385,5.385,0,0,1-.312,1.661,18.627,18.627,0,0,1-4.565,6.86,18.357,18.357,0,0,0-3.74,5.536Z" transform="translate(-483.594 -141.493)" fill="#8e4f3a"/>
      <rect id="Rectangle_17545" data-name="Rectangle 17545" width="3.085" height="16.8" transform="matrix(0.425, -0.905, 0.905, 0.425, 112.281, 11.085)" fill="#b85858"/>
      <path id="Path_12933" data-name="Path 12933" d="M595.765,134.613l-1.112-.539a1.787,1.787,0,0,0-2.381.82L584.823,150.2a1.782,1.782,0,0,0,.825,2.381l1.112.539a1.782,1.782,0,0,0,2.38-.82l7.429-15.305A1.782,1.782,0,0,0,595.765,134.613Z" transform="translate(-477.765 -133.896)" fill="#eb7171"/>
      <path id="Path_12934" data-name="Path 12934" d="M626.26,148.855l-1.938-.936a1.324,1.324,0,0,0-1.767.609l-7.826,16.131a1.324,1.324,0,0,0,.614,1.767l1.938.936a1.324,1.324,0,0,0,1.767-.609l7.826-16.106a1.329,1.329,0,0,0-.614-1.792Z" transform="translate(-492.642 -140.795)" fill="#eb7171"/>
    </g>
  </g>
</svg>
