<svg xmlns="http://www.w3.org/2000/svg" xmlns:xlink="http://www.w3.org/1999/xlink" width="303.774" height="250.358" viewBox="0 0 303.774 250.358">
  <defs>
    <linearGradient id="linear-gradient" y1="0.503" x2="1" y2="0.503" gradientUnits="objectBoundingBox">
      <stop offset="0.01" stop-color="#fbf2f1"/>
      <stop offset="1" stop-color="#e0cecd"/>
    </linearGradient>
    <linearGradient id="linear-gradient-2" x1="-0.001" y1="0.498" x2="1" y2="0.498" gradientUnits="objectBoundingBox">
      <stop offset="0.01" stop-color="#c0aead"/>
      <stop offset="1" stop-color="#e0cecd"/>
    </linearGradient>
    <linearGradient id="linear-gradient-3" x1="0" y1="0.499" x2="1" y2="0.499" xlink:href="#linear-gradient-2"/>
    <linearGradient id="linear-gradient-4" x1="-0.007" y1="0.5" x2="0.993" y2="0.5" xlink:href="#linear-gradient-2"/>
    <linearGradient id="linear-gradient-5" x1="0" y1="0.501" x2="1.001" y2="0.501" xlink:href="#linear-gradient-2"/>
    <linearGradient id="linear-gradient-6" x1="0" y1="0.5" x2="1" y2="0.5" xlink:href="#linear-gradient"/>
    <linearGradient id="linear-gradient-7" x1="0" y1="0.504" x2="1" y2="0.504" xlink:href="#linear-gradient-2"/>
    <linearGradient id="linear-gradient-8" x1="-0.007" y1="0.49" x2="0.995" y2="0.49" xlink:href="#linear-gradient-2"/>
    <linearGradient id="linear-gradient-9" x1="-0.001" y1="0.502" x2="1.001" y2="0.502" xlink:href="#linear-gradient-2"/>
    <linearGradient id="linear-gradient-10" x1="0" y1="0.5" x2="1.001" y2="0.5" xlink:href="#linear-gradient-2"/>
    <linearGradient id="linear-gradient-11" x1="0" y1="0.5" x2="1" y2="0.5" xlink:href="#linear-gradient"/>
    <clipPath id="clip-path">
      <path id="Path_15187" data-name="Path 15187" d="M509.79,182.56c-1.81,8.14-3.62,16.35-7.26,23.81-.82-.22-1.64-.42-2.45-.62l-.76-.2c4.44-13.55,9.16-27,8.19-41.08l4,2C512,171.79,511,177.29,509.79,182.56Z" fill="none"/>
    </clipPath>
    <linearGradient id="linear-gradient-12" x1="0" y1="0.5" x2="1" y2="0.5" xlink:href="#linear-gradient"/>
    <clipPath id="clip-path-2">
      <path id="Path_15200" data-name="Path 15200" d="M529.92,174.07a71.538,71.538,0,0,1-2.12,9.47q-1.6,5.93-3.61,11.72l-.6,1.71q-1.74,4.86-3.76,9.62c-.25.58-3.08,6.58-3.11,6.88h0c-.86-.58-1.69-1.17-2.53-1.76l-1.62-1.11c6.35-11.81,9.11-25.23,11.67-38.44.84.31,1.69.61,2.54.9C527.81,173.42,528.86,173.76,529.92,174.07Z" fill="none"/>
    </clipPath>
    <linearGradient id="linear-gradient-13" x1="0.626" y1="0.043" x2="0.445" y2="0.733" gradientUnits="objectBoundingBox">
      <stop offset="0.01" stop-color="#f3d43c"/>
      <stop offset="1" stop-color="#db9f2e"/>
    </linearGradient>
    <linearGradient id="linear-gradient-14" x1="0.455" y1="-0.355" x2="0.513" y2="0.795" gradientUnits="objectBoundingBox">
      <stop offset="0.01" stop-color="#f3d43c"/>
      <stop offset="1" stop-color="#bb491a"/>
    </linearGradient>
    <linearGradient id="linear-gradient-15" x1="0.453" y1="-0.207" x2="0.637" y2="2.104" xlink:href="#linear-gradient-14"/>
    <linearGradient id="linear-gradient-16" x1="0.622" y1="0.009" x2="0.403" y2="0.945" xlink:href="#linear-gradient-13"/>
    <linearGradient id="linear-gradient-17" x1="0.477" y1="-0.213" x2="0.506" y2="0.745" xlink:href="#linear-gradient-14"/>
    <linearGradient id="linear-gradient-18" x1="0.472" y1="-0.27" x2="0.557" y2="2.135" xlink:href="#linear-gradient-14"/>
    <linearGradient id="linear-gradient-19" x1="-242.766" y1="270.797" x2="-244.609" y2="269.605" gradientUnits="objectBoundingBox">
      <stop offset="0.01" stop-color="#311d18"/>
      <stop offset="1" stop-color="#2b111d"/>
    </linearGradient>
    <linearGradient id="linear-gradient-20" x1="-113.785" y1="220.509" x2="-114.651" y2="219.536" xlink:href="#linear-gradient-19"/>
    <linearGradient id="linear-gradient-21" x1="35.183" y1="-77.769" x2="35.935" y2="-77.025" xlink:href="#linear-gradient-19"/>
    <linearGradient id="linear-gradient-22" x1="29.623" y1="-91.928" x2="29.441" y2="-90.934" xlink:href="#linear-gradient-19"/>
    <linearGradient id="linear-gradient-23" x1="15.794" y1="-37.122" x2="16.142" y2="-36.593" xlink:href="#linear-gradient-19"/>
    <linearGradient id="linear-gradient-24" x1="-287.172" y1="250.519" x2="-286.831" y2="250.519" xlink:href="#linear-gradient-19"/>
  </defs>
  <g id="Onboarding_Illustration_2" data-name="Onboarding Illustration 2" transform="translate(-1395.113 845.007)">
    <path id="Path_12781" data-name="Path 12781" d="M318.039,437.5c-2.323-.234-4.645-.426-7.011-.533l-190.953-.106H20.135l-3.047.277a2.131,2.131,0,0,0,0,4.049l3.047.277h99.9l165.893-.107h.277c4.368-.106,24.186,0,24.847,0,2.365-.106,4.688-.3,6.989-.554a1.683,1.683,0,0,0,0-3.3Z" transform="translate(1379.491 -1036.811)" fill="#c6c6c6"/>
    <path id="Path_12782" data-name="Path 12782" d="M75.309,548.505c-9.568-.213-20.2-1.321-26.487-8.524-7.075-8.076-5.754-20.435-10.143-30.217-4.624-10.292-15.3-17.047-19.029-27.7-4.262-11.891,1.534-24.974,8.865-35.224S45.05,427.3,49.269,415.429c4.07-11.528,2.941-24.186,5.008-36.226,5.157-29.663,31.559-54.232,61.52-57.045,12.423-1.215,25.571,1.215,35.565,8.694,16.515,12.423,21.778,36.226,39,47.648,16.28,10.8,38.506,7.479,55.894,16.408a44.025,44.025,0,0,1,23.44,37.185c.384,13.6-5.668,27.127-3.324,40.488,1.342,7.693,5.349,14.618,7.65,22.076A51.142,51.142,0,0,1,233,560.119c-27.446,4.262-52.229-12.786-78.844-15.769-14.533-1.641-26.168,6.265-39.934,6.137C101.455,550.359,88.286,548.783,75.309,548.505Z" transform="translate(1384.745 -1166.868)" fill="#f4fafe"/>
    <path id="Path_12819" data-name="Path 12819" d="M104.58,350a104.415,104.415,0,0,0-30.792,7.16A107.908,107.908,0,0,0,45.745,371.8c-.341.256,0,.831.341.6a170.745,170.745,0,0,1,28.576-14.362,188.983,188.983,0,0,1,30.046-7.139C105.219,350.81,105.091,350,104.58,350Z" transform="translate(1439.397 -1135.043)" fill="#35a3e5"/>
    <path id="Path_12820" data-name="Path 12820" d="M111.248,356.695a86.98,86.98,0,0,0-25.955,3.282A101.388,101.388,0,0,0,61,369.5c-.362.192,0,.682.3.511a131.81,131.81,0,0,1,24.335-8.822,181.684,181.684,0,0,1,25.571-3.409.554.554,0,0,0,.043-1.087Z" transform="translate(1456.638 -1127.504)" fill="#35a3e5"/>
    <g id="Group_4048" data-name="Group 4048" transform="translate(-4697.726 -2789.038)">
      <path id="Path_15152" data-name="Path 15152" d="M557.32,193.91c-.37,4.6-.78,9.21-1.47,13.77-.06.43-.13.85-.2,1.28-.4,2.49-.9,5-1.52,7.4a51.56,51.56,0,0,1-7.28,16.82c-26.4-10.81-30.13-19.7-30.13-19.7-.42-.28-.82-.56-1.23-.85h-.06l-1.1-.78h0s.08-.34.11-.48a12.632,12.632,0,0,1,.41-1.23c.45-1.37.89-2.74,1.34-4.12q2-6,3.94-12L524,182.13c1-3,1.79-6.07,2.81-9.06,1,.35,2.08.69,3.14,1,0,0,6.51-.81,26,6.23a7.6,7.6,0,0,1,.35.77C557.94,185.08,557.66,189.59,557.32,193.91Z" transform="translate(5682 1921)" fill="#35a3e5"/>
      <path id="Path_15153" data-name="Path 15153" d="M529.92,174.07a71.538,71.538,0,0,1-2.12,9.47q-1.6,5.93-3.61,11.72l-.6,1.71q-1.74,4.86-3.76,9.62c-.25.58-3.08,6.58-3.11,6.88h0l-.36-.24-.87-.61h-.06l-1.1-.78-.14-.1-1.62-1.11a25.871,25.871,0,0,0-3.93-2.19,44.734,44.734,0,0,0-6.11-2c-.82-.22-1.64-.42-2.45-.62-3.17-.79-6.33-1.73-9.47-2.69l-1-.29-.14-.05c-1.39-.42-2.77-.84-4.14-1.24a34.282,34.282,0,0,0-3.62-.83,52,52,0,0,1-6.42-1.35c-2.24-.69-4.08-1.05-5.62-2.81-1.68-1.91-2.17-4.71-2.38-7.63v-.66c-.09-1.71-.12-3.44-.24-5a17.125,17.125,0,0,0-.47-3,11.819,11.819,0,0,0-1.19-2.92h0c-1.85-3.13-5.09-4.72-9.54-4.88-.8,0-1.07-.9-1.09-1.71a5.65,5.65,0,0,1,.58-2.34,28.439,28.439,0,0,1,2.92-5.19l.55-.74c.47-.62,1.1-1.76,2-1.75a3.26,3.26,0,0,1,1.64.9c.52.42,1,.88,1.35,1.1a9,9,0,0,0,1.29.72,4.91,4.91,0,0,0,2.88.45,3.78,3.78,0,0,0,2.45-1.68,13.41,13.41,0,0,0,1.76-5.52c.28-1.9.4-3.75.59-5a85.111,85.111,0,0,1,19.9,5.88c5.86,2.47,11.8,5.51,18.88,9l4.57,2.24c2.72,1.31,5.42,2.46,8.18,3.49.84.31,1.69.61,2.54.9C527.81,173.42,528.86,173.76,529.92,174.07Z" transform="translate(5682 1921)" fill="#f5a784"/>
      <path id="Path_15154" data-name="Path 15154" d="M675.78,241a36,36,0,0,1-1,3.58l-.12.35-.06.17a1.142,1.142,0,0,1-.13.35c-.04.11-.13.35-.2.52l-.08.18c-.07.17-.14.34-.22.5a1.1,1.1,0,0,1-.07.16l-.16.31a.8.8,0,0,1-.08.16l-.16.29-.09.15-.26.39a3,3,0,0,1-1,.91L669.12,248l-.72-.24-.9-.31-.47-.16-.6-.21-.18-.06-.77-.27-.33-.11-.76-.27-.63-.21-10.3-3.56-4.28-1.48-.93-.33-1-.33-.26-.09-1.11-.38-.26-.09-1.62-.6-2.7-.93-1.6-.56-2-.67-1.22-.43-4-1.4-1.53-.53-3.2-1.12-2.75-1-2.86-1-1.92-.67-1.93-.67-1.92-.67-.32-.11-3.54-1.24-1-.34-2.89-1-9.52-3.35-6.27-2.22-2.87-1-2.64-.94-2.86-1-1.4-.5-1.66-.59-6.16-2.22-2-.72-1-.35-6.53-2.4-.77-.29c-1.64-.61-3.1-1.17-4.35-1.65l-.56-.22-.27-.11a18.622,18.622,0,0,1-3-1.56c-1.35-.85-2.68-1.82-4-2.61l-10.71-6.64q-9.15-5.7-18.32-11.37l-.67-.42a15.07,15.07,0,0,1,1.69-5.91l.51-.7,4.47-6.11a9.861,9.861,0,0,1,1.38,0h.73a13.928,13.928,0,0,1,1.51.15l.41.05h.77c.14,0,.28.05.43.06l.62.11.62.1h.16l.85.16.72.15.76.16.8.17.41.1.43.1.43.1.45.11.45.12.48.12.82.21,1.64.45,1,.28h.1l1.61.48q2.63.79,5.73,1.86l1.14.4,1.73.62q3.23,1.15,6.93,2.62l.64.26q1.89.75,3.9,1.59c.26.1.53.21.79.33q3.52,1.47,7.46,3.22l1,.45,4.18,1.9,1.08.5c7.51,3.49,16,7.69,25.61,12.74l1.26.66q9.35,4.94,20.08,11c3.59,2,7.37,4,11.33,6.12l2,1,8.52,4.44,1.62.85a.09.09,0,0,1,.06,0l2,1,1.85,1c5.28,2.81,10.75,5.8,16.36,9.1.75.43,1.51.88,2.26,1.33Z" transform="translate(5682 1921)" fill="#f5a784"/>
      <path id="Path_15155" data-name="Path 15155" d="M653.46,242.58l-4.28-1.48h0l-1.89-.65-.26-.09-1.11-.38-.26-.09L644,239.3l-2.7-.93-1.6-.56-2-.67-1.22-.43-4-1.4-1.53-.53-3.2-1.12-2.75-1-2.86-1-1.92-.67-1.93-.67-1.92-.67-.32-.11-3.54-1.24-1-.34-2.89-1-9.52-3.35-6.27-2.22-2.87-1-2.64-.94-2.86-1-1.4-.5-1.66-.59-6.16-2.22-2-.72-1-.35-6.53-2.4-.77-.29c-1.64-.61-3.1-1.17-4.35-1.65l-.56-.22-.27-.11-.52-.2-1.58-.64c-.71-.3-1.25-.54-1.61-.72l-.21-.1h-.09l-.39-.19-.36-.17-.81-.37-2.44-1.07-.35-.15-2.42-1-.46-.18c-1.64-.67-3.41-1.37-5.24-2.08l-.55-.22-2.8-1.08-.54-.21-2.3-.87-.56-.22-.54-.2-1.22-.46L531.61,198l-.54-.2-1.34-.5-1.78-.66-.44-.16-.55-.2-.85-.31H526l-.47-.17-.45-.17-.45-.16-.44-.16a6.216,6.216,0,0,1-1-.37,1,1,0,0,1-.4-.44,2.34,2.34,0,0,1-.13-1,16.9,16.9,0,0,1,.08-2,40.8,40.8,0,0,1,.87-6.12,14.88,14.88,0,0,1,1.35-4.45,3.72,3.72,0,0,1,.46-.64l.05-.06c1.64-1.87,3-4.09,4.47-6.11a9.861,9.861,0,0,1,1.38,0h.73a13.928,13.928,0,0,1,1.51.15l.41.05h.56l.43.06.62.11.62.1h.16l.85.16.72.15.76.16.8.17.41.1.43.1.43.1.45.11.45.12.48.12.82.21,1.64.45,1,.28h.1l1.61.48q2.63.79,5.73,1.86l1.14.4,1.73.62q3.23,1.15,6.93,2.62l.64.26q1.89.75,3.9,1.59c.26.1.53.21.79.33q3.52,1.47,7.46,3.22l1,.45,4.18,1.9,1.08.5c7.51,3.49,16,7.69,25.61,12.74l1.26.66q9.35,4.94,20.08,11c3.59,2,7.37,4,11.33,6.12l2,1,8.52,4.44,1.62.85h.06l2,1,1.85,1a23.46,23.46,0,0,1-2.76,12.72Z" transform="translate(5682 1921)" fill="#35a3e5"/>
      <path id="Path_15156" data-name="Path 15156" d="M675.78,241q-3.79-2.28-7.52-4.36a17.41,17.41,0,0,1-4.88,9.33l8.86,3.05C674.39,247.91,675.78,241,675.78,241Z" transform="translate(5682 1921)" fill="url(#linear-gradient)"/>
      <path id="Path_15157" data-name="Path 15157" d="M673.85,241.53a3,3,0,0,1-1.28-.52,12.6,12.6,0,0,0-1.32-.54,16.328,16.328,0,0,1-2.71-1.09c-.21-.12-.11-.51.15-.43.95.31,1.91.61,2.86.93.46.16.92.33,1.37.53s.94.4,1.09.88a.18.18,0,0,1-.16.24Z" transform="translate(5682 1921)" fill="url(#linear-gradient-2)"/>
      <path id="Path_15158" data-name="Path 15158" d="M673.57,244.12a3.62,3.62,0,0,1-1.28-.58c-.48-.23-1-.43-1.46-.62q-1.49-.6-2.94-1.26c-.21-.1-.09-.46.13-.38,1,.33,2.07.7,3.09,1.09.49.19,1,.37,1.46.6s1,.42,1.18.88a.21.21,0,0,1-.18.27Z" transform="translate(5682 1921)" fill="url(#linear-gradient-3)"/>
      <path id="Path_15159" data-name="Path 15159" d="M672.7,246.16c-.41.2-.94-.19-1.31-.36s-1-.44-1.53-.64c-1-.39-2-.75-3-1.1-.25-.09-.1-.49.15-.43a21.729,21.729,0,0,1,3.07.93c.5.19,1,.39,1.48.6l.74.33c.21.1.46.2.52.45a.2.2,0,0,1-.12.22Z" transform="translate(5682 1921)" fill="url(#linear-gradient-4)"/>
      <path id="Path_15160" data-name="Path 15160" d="M671.92,247.46c-.41.24-1-.07-1.37-.24a13.758,13.758,0,0,0-1.44-.59,16.6,16.6,0,0,1-2.91-.9.2.2,0,1,1,.18-.36,28.481,28.481,0,0,0,2.9.7,11.574,11.574,0,0,1,1.35.5,6.844,6.844,0,0,0,.68.26,1.4,1.4,0,0,1,.64.3.21.21,0,0,1-.03.33Z" transform="translate(5682 1921)" fill="url(#linear-gradient-5)"/>
      <path id="Path_15161" data-name="Path 15161" d="M652.39,228h0a36,36,0,0,1-3.21,13.06h0" transform="translate(5682 1921)" fill="none" stroke="#e5e5e6" stroke-linecap="round" stroke-linejoin="round" stroke-width="0.44"/>
      <path id="Path_15162" data-name="Path 15162" d="M557.38,205.51s16.87,1.17,92.62,33.63" transform="translate(5682 1921)" fill="none" stroke="#e5e5e6" stroke-linecap="round" stroke-linejoin="round" stroke-width="0.44"/>
      <path id="Path_15163" data-name="Path 15163" d="M670.63,256.71v.25a.76.76,0,0,1,0,.15v.24a2.935,2.935,0,0,1-.08.49.376.376,0,0,0,0,.2v.26a2.336,2.336,0,0,1-.07.25c0,.05,0,.11,0,.16l-.09.3c-.07.21-.14.42-.22.63l-.12.31h0l-.12.3c-.23.57-.48,1.13-.72,1.63a.915.915,0,0,1-.07.14c-.19.4-.38.78-.55,1.09l-.09.18-.14.25-.09.18-.16.28h0a.72.72,0,0,1-.07.11h0c-2.9-.55-5.73-1.14-8.51-1.76q-5.22-1.17-10.16-2.42l-1.77-.44-.75-.19-1.36-.35-.19-.05-1.76-.45-2-.51-5.38-1.41-1.7-.44-2.5-.64-2-.51h-.05l-1-.25-1.11-.28-1.51-.36-1.49-.36-1.48-.34c-.49-.11-1-.23-1.47-.33l-1.46-.32c-1-.21-1.92-.41-2.88-.59l-1.42-.28c-32.31-6-54.2-12.68-69-18.74-26.4-10.81-30.13-19.7-30.13-19.7h0v-.05l-.13-1a14.828,14.828,0,0,1,.24-2.3,38.883,38.883,0,0,1,.92-4.39c.47-1.76,1-4.39,2.13-5.85s3.49-.07,4.94.36l13.58,4,12.63,3.7c3.4,1,6.94,1.74,10.22,3l.43.16.45.17.47.18.48.18,1.31.51.36.14.74.29.18.07.56.22.58.22.58.23h.06l.41.16,2.13.85.89.35.28.11.66.27,1.37.55.7.28.76.3,2.36.95,3.09,1.25,1.27.52,3.28,1.33h.07l4.14,1.69.49.2,2.11.86,1.48.61,1.17.48h0l1.23.5,2.49,1,2.48,1,6.56,2.72,1.87.77.94.39,1.87.77,2.81,1.17,2.51,1,5.15,2.14,1.27.53,1.53.64,1.62.67,1.87.78,3.55,1.48.15.06,2.22.93.57.23,1.46.62,1.73.72,1.17.49,5.63,2.35,2.15.9.53.22,4,1.67,10.39,4.36,2,.86.75.31L666,254l.93.39,2.27,1,.35.15.32.13.14.06.19.08.26.11v.06a.275.275,0,0,0,.05.18v.19a1.1,1.1,0,0,1,0,.18,1.546,1.546,0,0,1,.12.18Z" transform="translate(5682 1921)" fill="#f5a784"/>
      <path id="Path_15164" data-name="Path 15164" d="M649.12,260l-1.77-.44-.75-.19-1.36-.35-.19-.05-1.76-.45-2-.51-5.38-1.41-1.7-.44-2.5-.64-2-.51h-.05l-1-.25-1.11-.28-1.51-.36-1.49-.36-1.48-.34c-.49-.11-1-.23-1.47-.33l-1.46-.32c-1-.21-1.92-.41-2.88-.59l-1.42-.28c-32.31-6-54.2-12.68-69-18.74-26.4-10.81-30.13-19.7-30.13-19.7h0a4.458,4.458,0,0,1-.14-1.09,14.82,14.82,0,0,1,.24-2.3,38.91,38.91,0,0,1,.92-4.39,39.517,39.517,0,0,1,3.24-8.21,2.641,2.641,0,0,1,.55-.77,1.08,1.08,0,0,1,1-.17h0a10.361,10.361,0,0,1,1.07.43c8,3.22,22.39,8.88,30.18,11.4l1.88.59.84.24.24.06.19.06.35.11.3.1.19.07.23.07c.85.3,1.94.69,3.25,1.19l.43.16.45.17.47.18.48.18,1.31.51.36.14.74.29.18.07.56.22.58.22.58.23h.06l.41.16,2.13.85h0l.89.35.28.11.66.27,1.37.55.7.28.76.3,2.36.95,3.09,1.25,1.27.52,3.28,1.33h.07l4.14,1.69.49.2,2.11.86,1.48.61,1.17.48h0l1.23.5,2.49,1,2.48,1,6.56,2.72,1.87.77.94.39,1.87.77,2.81,1.17,2.51,1,5.15,2.14,1.27.53,1.53.64,1.62.67,1.87.78,3.55,1.48.15.06,2.22.93.57.23,1.46.62,1.73.72,1.17.49,5.63,2.35,2.15.9.53.22,4,1.67A25.7,25.7,0,0,1,649.12,260Z" transform="translate(5682 1921)" fill="#35a3e5"/>
      <path id="Path_15165" data-name="Path 15165" d="M667.79,264.22c-2.9-.55-5.73-1.14-8.51-1.76a17.4,17.4,0,0,0,2.58-10.21l8.64,3.63C671.34,258.17,667.79,264.22,667.79,264.22Z" transform="translate(5682 1921)" fill="url(#linear-gradient-6)"/>
      <path id="Path_15166" data-name="Path 15166" d="M666.68,262.57a2.91,2.91,0,0,0-1.3-.47,13.562,13.562,0,0,1-1.35-.48,16.633,16.633,0,0,0-2.74-1c-.24,0-.43.31-.18.42.92.41,1.83.83,2.76,1.22a13.3,13.3,0,0,0,1.37.52,1.8,1.8,0,0,0,1.4.07.18.18,0,0,0,.04-.28Z" transform="translate(5682 1921)" fill="url(#linear-gradient-7)"/>
      <path id="Path_15167" data-name="Path 15167" d="M668.19,260.45a3.529,3.529,0,0,0-1.33-.43c-.51-.14-1-.32-1.5-.5-1-.36-2-.71-3-1-.21-.06-.37.28-.15.38,1,.44,2,.85,3,1.24.5.19,1,.38,1.5.53a2.12,2.12,0,0,0,1.46.13.2.2,0,0,0,.02-.35Z" transform="translate(5682 1921)" fill="url(#linear-gradient-8)"/>
      <path id="Path_15168" data-name="Path 15168" d="M668.91,258.34c-.17-.42-.83-.47-1.22-.6l-1.56-.54c-1-.38-2-.79-3-1.21-.25-.1-.4.3-.18.42a22.13,22.13,0,0,0,2.92,1.36q.74.28,1.5.54l.76.24a.76.76,0,0,0,.69,0A.19.19,0,0,0,668.91,258.34Z" transform="translate(5682 1921)" fill="url(#linear-gradient-9)"/>
      <path id="Path_15169" data-name="Path 15169" d="M669.2,256.86c-.15-.45-.77-.6-1.18-.74a12.666,12.666,0,0,1-1.46-.52,16.941,16.941,0,0,0-2.78-1.26c-.25-.07-.34.29-.11.39a26.508,26.508,0,0,1,2.63,1.4,9.108,9.108,0,0,0,1.34.53c.23.08.46.16.68.26a1.39,1.39,0,0,0,.68.21.23.23,0,0,0,.2-.27Z" transform="translate(5682 1921)" fill="url(#linear-gradient-10)"/>
      <path id="Path_15170" data-name="Path 15170" d="M647.5,246.22A25.77,25.77,0,0,1,645.05,259" transform="translate(5682 1921)" fill="none" stroke="#e5e5e6" stroke-linecap="round" stroke-linejoin="round" stroke-width="0.44"/>
      <path id="Path_15171" data-name="Path 15171" d="M517.53,211.58S532,234.45,645.85,257.13" transform="translate(5682 1921)" fill="none" stroke="#e5e5e6" stroke-linecap="round" stroke-linejoin="round" stroke-width="0.44"/>
      <path id="Path_15172" data-name="Path 15172" d="M465.36,177.18c-1.85-3.13-5.09-4.72-9.54-4.88-.8,0-1.07-.9-1.09-1.71a5.651,5.651,0,0,1,.58-2.34,28.443,28.443,0,0,1,2.92-5.19c.72-.36,1.45-.69,2.18-1a7,7,0,0,1,2-.58c.52.42,1,.88,1.35,1.1a9,9,0,0,0,1.29.72,8.07,8.07,0,0,1-1.07,3.53,16.421,16.421,0,0,1-1.7,2.81,3.7,3.7,0,0,0-.87,1.57,2.38,2.38,0,0,0,.54,1.76,12.2,12.2,0,0,0,1.34,1.35,10.739,10.739,0,0,1,2.07,2.86Z" transform="translate(5682 1921)" fill="#714193" opacity="0.25"/>
      <path id="Path_15173" data-name="Path 15173" d="M490.82,166.7s-12.65-5-12.92-5.7-5.19-9.43-5.19-9.43-4.54-67.13-4.82-69.77c-.25-2.44,6.76-4.77,8.68-.46a5.271,5.271,0,0,1,.35,1.16c1.09,5.72,6,64.72,15.19,74,.18.18.36.34.54.49l.27.21C502,164.52,490.82,166.7,490.82,166.7Z" transform="translate(5682 1921)" fill="#f5a784"/>
      <path id="Path_15174" data-name="Path 15174" d="M467.66,83.17s-8.71-8.27-7.11-9.38,4.24,1.46,4.59,1.74-2.3-14.38-.56-14.94,3.08,8.75,3.08,8.75-1.06-12,.33-12.29,2.77,12,2.77,12-1-11.54.7-11.47,2.15,11.26,2.15,11.26,0-7,1.39-7,1.48,20,1.7,21.57S469.93,86,469.93,86Z" transform="translate(5682 1921)" fill="#f5a784"/>
      <path id="Path_15175" data-name="Path 15175" d="M489.63,202.77l-.14-.05c-1.92-.53-6.63-1-9.07,1.78s-3,57.29-3.79,62.81a3.492,3.492,0,0,1-.06.35.87.87,0,0,1-.33.48c-.51.34-1.44,0-2.5-.67-2.35-1.52-5.31-4.74-5.51-5.86-.31-1.77-.92-72.75-.92-72.75l4.25-2.07s11.68,9.71,16.31,14C489.29,202.09,490.05,202.89,489.63,202.77Z" transform="translate(5682 1921)" fill="#f5a784"/>
      <path id="Path_15176" data-name="Path 15176" d="M476.63,267.31a1.071,1.071,0,0,1-.06.35,2.07,2.07,0,0,1-.33.48c-2.13,2.32-12.36,5.72-12.75,5.09a.67.67,0,0,1-.07-.54c.31-1.37,3.56-3.47,3.56-3.47h-.28c-12.83,1-15.64-.89-15.36-1.46a.13.13,0,0,1,.06-.07c.62-.47,8.05-1.86,10.84-2.81,4.74-1.62,6-3.29,6-3.29s5,2,7.27,4A2.66,2.66,0,0,1,476.63,267.31Z" transform="translate(5682 1921)" fill="#f5a784"/>
      <path id="Path_15177" data-name="Path 15177" d="M509.79,182.56c-1.81,8.14-3.62,16.35-7.26,23.81-.82-.22-1.64-.42-2.45-.62l-.76-.2c-2.91-.74-5.82-1.6-8.71-2.49A15.12,15.12,0,0,0,483,190a19,19,0,0,0-8.2-2.27,35.419,35.419,0,0,0-7.48.43c-.09-1.71-.12-3.44-.24-5a35.77,35.77,0,0,0,11.4-1.16,7.58,7.58,0,0,0,4-2.06,8.47,8.47,0,0,0,1.5-4,11.2,11.2,0,0,0,.18-5.14,9.42,9.42,0,0,0-2.75-4A18.741,18.741,0,0,0,476,163a11.07,11.07,0,0,0-5.61-.92,13.41,13.41,0,0,0,1.76-5.52,59.26,59.26,0,0,0,14.26,2.62,11,11,0,0,0,4.24-.48,5.78,5.78,0,0,0,2-1.23c4.73,2,9.51,4.36,14.9,7l4,2C512,171.79,511,177.29,509.79,182.56Z" transform="translate(5682 1921)" fill="#35a3e5"/>
      <path id="Path_15178" data-name="Path 15178" d="M509.79,182.56c-1.81,8.14-3.62,16.35-7.26,23.81-.82-.22-1.64-.42-2.45-.62l-.76-.2c4.44-13.55,9.16-27,8.19-41.08l4,2C512,171.79,511,177.29,509.79,182.56Z" transform="translate(5682 1921)" fill="url(#linear-gradient-11)"/>
      <g id="Group_4039" data-name="Group 4039" transform="translate(5682 1921)" clip-path="url(#clip-path)">
        <path id="Path_15179" data-name="Path 15179" d="M507.81,203.3a11.249,11.249,0,0,0-2.36-.7,18.748,18.748,0,0,1-2.41-.77,9.7,9.7,0,0,1-3.73-2.59c-.21-.25-.56.11-.35.36a9.88,9.88,0,0,0,3.75,2.73,17.288,17.288,0,0,0,2.39.82,7.69,7.69,0,0,0,2.64.39C507.86,203.53,507.94,203.36,507.81,203.3Z" fill="#fff"/>
        <path id="Path_15180" data-name="Path 15180" d="M510.28,199.67a6.34,6.34,0,0,0-1.3-.24c-.39-.06-.79-.13-1.18-.22a18.318,18.318,0,0,1-2.5-.73c-.82-.29-1.62-.64-2.41-1s-1.57-.8-2.37-1.16a.213.213,0,1,0-.21.37c.75.48,1.57.88,2.36,1.28a26.035,26.035,0,0,0,2.47,1.09,17.449,17.449,0,0,0,2.55.78,10.855,10.855,0,0,0,1.27.21,3.26,3.26,0,0,0,1.32,0,.19.19,0,1,0,0-.38Z" fill="#fff"/>
        <path id="Path_15181" data-name="Path 15181" d="M512.39,195.64a15.491,15.491,0,0,0-2.66-.92,29.072,29.072,0,0,1-2.74-1,32.719,32.719,0,0,1-5.08-2.74c-.26-.17-.49.24-.24.41a29.721,29.721,0,0,0,5.11,2.92,27.652,27.652,0,0,0,2.66,1,8.141,8.141,0,0,0,2.86.64.17.17,0,0,0,.09-.31Z" fill="#fff"/>
        <path id="Path_15182" data-name="Path 15182" d="M514.13,189c-.14-.21-.33-.25-.55-.35l-.67-.26-1.48-.55c-1-.36-1.95-.74-2.91-1.15q-2.88-1.23-5.63-2.72c-.33-.18-.63.32-.3.5,1.84,1,3.72,2,5.65,2.82.95.41,1.91.81,2.89,1.18l1.42.51c.24.08.48.15.73.21a1.16,1.16,0,0,0,.73.09.2.2,0,0,0,.12-.28Z" fill="#fff"/>
        <path id="Path_15183" data-name="Path 15183" d="M515.13,184.07a6,6,0,0,0-1.41-.57l-1.5-.5c-1-.35-2-.73-3-1.16a41.928,41.928,0,0,1-5.58-3c-.3-.18-.56.28-.27.47a39.068,39.068,0,0,0,5.63,3.11c1,.43,1.91.82,2.89,1.17a9,9,0,0,0,3.11.78.18.18,0,0,0,.13-.3Z" fill="#fff"/>
        <path id="Path_15184" data-name="Path 15184" d="M516.06,180.16a4.911,4.911,0,0,0-1.31-.49l-1.4-.43c-.92-.29-1.84-.63-2.74-1a36.767,36.767,0,0,1-5.24-2.65c-.3-.19-.57.28-.28.47a34,34,0,0,0,5.25,2.82,23.63,23.63,0,0,0,2.7,1c.46.16.93.3,1.4.42a4.33,4.33,0,0,0,1.51.23.22.22,0,0,0,.11-.37Z" fill="#fff"/>
        <path id="Path_15185" data-name="Path 15185" d="M516.25,177a5.06,5.06,0,0,0-1.38-.58q-.74-.24-1.47-.51a30.644,30.644,0,0,1-2.93-1.24,41.641,41.641,0,0,1-5.4-3.16c-.23-.15-.52.21-.3.39a29.677,29.677,0,0,0,5.4,3.39c1,.47,1.93.9,2.93,1.28.48.18,1,.35,1.46.51a4.32,4.32,0,0,0,1.58.31.21.21,0,0,0,.11-.39Z" fill="#fff"/>
        <path id="Path_15186" data-name="Path 15186" d="M518.15,172.33a8.479,8.479,0,0,0-1.7-.71l-1.68-.56c-1.13-.4-2.26-.82-3.38-1.27-2.26-.9-4.51-1.88-6.69-3-.22-.11-.41.21-.19.33a63.619,63.619,0,0,0,6.61,3.3c1.12.47,2.25.92,3.39,1.33.58.2,1.15.41,1.74.59a6.5,6.5,0,0,0,1.79.38.22.22,0,0,0,.11-.39Z" fill="#fff"/>
      </g>
      <path id="Path_15188" data-name="Path 15188" d="M557.27,209.43l.3.1a9.72,9.72,0,0,1-2.59,4.15c-1.38-.87-1.66-2-1.54-3.57a8,8,0,0,1,.33-1.74l1.88.59.84.24.24.06.19.06Z" transform="translate(5682 1921)" fill="#714193" opacity="0.25"/>
      <path id="Path_15189" data-name="Path 15189" d="M557.76,208.55c-.71-.3-1.25-.54-1.61-.72l-.21-.1h-.09l-.39-.19-.36-.17-.81-.37c.2-.49.42-1,.65-1.46a5.342,5.342,0,0,1,.83-1.4c.36-.41.72-.91,1.27-.88a9,9,0,0,1,.72,5.29Z" transform="translate(5682 1921)" fill="#714193" opacity="0.25"/>
      <path id="Path_15190" data-name="Path 15190" d="M529.92,174.07a71.538,71.538,0,0,1-2.12,9.47q-1.6,5.93-3.61,11.72l-.6,1.71q-1.74,4.86-3.76,9.62c-.25.58-3.08,6.58-3.11,6.88h0c-.86-.58-1.69-1.17-2.53-1.76l-1.62-1.11c6.35-11.81,9.11-25.23,11.67-38.44.84.31,1.69.61,2.54.9C527.81,173.42,528.86,173.76,529.92,174.07Z" transform="translate(5682 1921)" fill="url(#linear-gradient-12)"/>
      <g id="Group_4040" data-name="Group 4040" transform="translate(5682 1921)" clip-path="url(#clip-path-2)">
        <path id="Path_15191" data-name="Path 15191" d="M522.31,211.5a2.75,2.75,0,0,0-1.16-.69l-1.33-.62c-.89-.44-1.77-.92-2.62-1.44a32.408,32.408,0,0,1-4.81-3.6c-.24-.21-.6.14-.36.37a31.15,31.15,0,0,0,4.81,3.74,29.939,29.939,0,0,0,2.65,1.49c.46.23.92.44,1.38.64a2.52,2.52,0,0,0,1.35.34.16.16,0,0,0,.09-.23Z" fill="#fff"/>
        <path id="Path_15192" data-name="Path 15192" d="M523.51,208.12c-.93-.34-1.86-.63-2.77-1.05s-1.84-.9-2.75-1.39a56.452,56.452,0,0,1-5.18-3.21c-.27-.19-.51.25-.25.44a46.641,46.641,0,0,0,5.33,3.45c.91.51,1.84,1,2.79,1.43a4.61,4.61,0,0,0,2.83.68C523.7,208.43,523.66,208.17,523.51,208.12Z" fill="#fff"/>
        <path id="Path_15193" data-name="Path 15193" d="M524.79,204.82a5.379,5.379,0,0,0-1.36-.67q-.67-.27-1.35-.57c-.92-.4-1.82-.83-2.7-1.3a43.662,43.662,0,0,1-5.08-3.18c-.22-.16-.5.2-.29.37a32.683,32.683,0,0,0,5.06,3.44,23.389,23.389,0,0,0,2.75,1.36,7.9,7.9,0,0,0,2.86.94C524.91,205.21,524.93,204.94,524.79,204.82Z" fill="#fff"/>
        <path id="Path_15194" data-name="Path 15194" d="M526.38,201.3a5.261,5.261,0,0,0-1.33-.58l-1.41-.54q-1.39-.54-2.73-1.2a39.631,39.631,0,0,1-5.15-3c-.26-.18-.49.24-.24.43a34.772,34.772,0,0,0,5.17,3.2c.88.45,1.79.86,2.71,1.23.47.19.94.37,1.41.53a4.2,4.2,0,0,0,1.46.34.212.212,0,0,0,.11-.41Z" fill="#fff"/>
        <path id="Path_15195" data-name="Path 15195" d="M528.26,197.89a5.811,5.811,0,0,0-1.34-.73l-1.46-.67c-1-.47-2-1-2.93-1.49a58.2,58.2,0,0,1-5.54-3.39c-.25-.17-.48.24-.24.42a56.89,56.89,0,0,0,5.51,3.56c.94.52,1.89,1,2.85,1.48.49.24,1,.46,1.47.67a4.91,4.91,0,0,0,1.53.5.21.21,0,0,0,.15-.35Z" fill="#fff"/>
        <path id="Path_15196" data-name="Path 15196" d="M529.42,193.06a5.55,5.55,0,0,0-1.33-.73l-1.33-.62c-.94-.47-1.86-1-2.77-1.46a51.751,51.751,0,0,1-5.19-3.37c-.19-.14-.44.18-.25.33a44.368,44.368,0,0,0,5.14,3.56c.89.53,1.81,1,2.74,1.49.48.24,1,.47,1.44.68a4.54,4.54,0,0,0,1.4.47.21.21,0,0,0,.15-.35Z" fill="#fff"/>
        <path id="Path_15197" data-name="Path 15197" d="M531.17,188.62a8.851,8.851,0,0,0-1.42-.59c-.5-.21-1-.45-1.48-.7-1-.51-2-1.08-2.94-1.64-2-1.14-4-2.3-5.91-3.49-.23-.14-.42.2-.21.35,1.94,1.31,3.9,2.57,5.92,3.76,1,.57,1.92,1.14,2.92,1.66.46.23.93.46,1.41.65a3.9,3.9,0,0,0,1.6.4.22.22,0,0,0,.11-.4Z" fill="#fff"/>
        <path id="Path_15198" data-name="Path 15198" d="M532,182.93a5.312,5.312,0,0,0-1.42-.63l-1.5-.56q-1.5-.6-3-1.29a51,51,0,0,1-5.69-3.06c-.31-.2-.58.29-.28.48a45.5,45.5,0,0,0,5.72,3.25c1,.46,2,.89,3,1.28.5.2,1,.39,1.5.56a4.79,4.79,0,0,0,1.62.38.22.22,0,0,0,.05-.41Z" fill="#fff"/>
        <path id="Path_15199" data-name="Path 15199" d="M532.9,178c-.46-.18-1-.24-1.43-.38a11.9,11.9,0,0,1-1.31-.45c-1-.39-1.92-.81-2.87-1.22-1.93-.81-3.86-1.62-5.8-2.39-.28-.11-.48.36-.2.48,2,.91,3.93,1.78,5.91,2.65.95.42,1.91.86,2.88,1.25a4.43,4.43,0,0,0,2.82.49.23.23,0,0,0,0-.43Z" fill="#fff"/>
      </g>
      <path id="Path_15201" data-name="Path 15201" d="M697.36,256.91a7.73,7.73,0,0,1-5.32,1.93,15.47,15.47,0,0,1-5.62-1.26c-4.86-1.9-9.17-4.95-13.42-8a2.61,2.61,0,0,1-1.11-1.24,2.579,2.579,0,0,1,.07-1.32c.1-.43.2-.86.32-1.28a10.259,10.259,0,0,1,.85-2.28c.65-1.22,1.89-2.58,3.37-2.52a28.361,28.361,0,0,1,4.84.69,38.66,38.66,0,0,1,9.1,3.38,53.327,53.327,0,0,1,4.79,2.79,10.349,10.349,0,0,1,3.07,2.73,4.638,4.638,0,0,1,.53,1.07A5.17,5.17,0,0,1,697.36,256.91Z" transform="translate(5682 1921)" fill="url(#linear-gradient-13)"/>
      <path id="Path_15202" data-name="Path 15202" d="M673,246.83c2.51,1.16,5,2.32,7.56,3.43,3.26,1.43,7.17,4.09,10.92,3.19a2.64,2.64,0,0,0,1.65-1.07,1.72,1.72,0,0,0-.43-2.25,14,14,0,0,0-4.21-2.31c-1.5-.65-3-1.23-4.59-1.76a42.891,42.891,0,0,0-9.55-2.22,11.351,11.351,0,0,0-1.35,2.99Z" transform="translate(5682 1921)" fill="url(#linear-gradient-14)"/>
      <path id="Path_15203" data-name="Path 15203" d="M678.87,244a9.85,9.85,0,0,0-2.35,3,4.1,4.1,0,0,0-.38,1.53,2,2,0,0,0,.11.93h-.07a.52.52,0,0,0-.18.18.48.48,0,0,0-.07.26.507.507,0,0,0,.25.43h0a.47.47,0,0,0,.26.08.5.5,0,0,0,.26-.08.51.51,0,0,0,.26-.44.56.56,0,0,0-.07-.26h0a.86.86,0,0,0,0-.63,2.28,2.28,0,0,1,0-.64,3.481,3.481,0,0,1,.4-1.33,16.305,16.305,0,0,1,2-2.71.264.264,0,0,0-.42-.32Z" transform="translate(5682 1921)" fill="#e5e5e6"/>
      <path id="Path_15204" data-name="Path 15204" d="M680.34,250.78c-.53-2.29.95-4.33,2.62-5.71.2-.15.45.16.29.33-1.31,1.38-2.66,3.14-2.2,5.15C681.16,251,680.45,251.25,680.34,250.78Z" transform="translate(5682 1921)" fill="#e5e5e6"/>
      <path id="Path_15205" data-name="Path 15205" d="M683.81,253a2.78,2.78,0,0,1,0-1.64,6.463,6.463,0,0,1,.5-1.6,8.18,8.18,0,0,1,2.31-2.91c.19-.16.46.16.29.33a9.769,9.769,0,0,0-2,2.83,6.552,6.552,0,0,0-.43,1.45,6.148,6.148,0,0,0-.08.75,2.44,2.44,0,0,1,0,.76.32.32,0,0,1-.59.03Z" transform="translate(5682 1921)" fill="#e5e5e6"/>
      <path id="Path_15206" data-name="Path 15206" d="M688.23,254a4.9,4.9,0,0,1,.6-2.92,9.29,9.29,0,0,1,2.22-2.65c.2-.17.5.07.31.28a12.8,12.8,0,0,0-1.85,2.6A4.49,4.49,0,0,0,689,254C689.09,254.53,688.32,254.54,688.23,254Z" transform="translate(5682 1921)" fill="#e5e5e6"/>
      <path id="Path_15207" data-name="Path 15207" d="M691.6,248.9l-.09.08a.39.39,0,0,1-.23.07.45.45,0,0,1-.23,0l-.11-.08a.41.41,0,0,1-.14-.21h0a.319.319,0,0,1,0-.19.37.37,0,0,1,0-.18l.08-.11a.491.491,0,0,1,.21-.14.53.53,0,0,1,.25,0,.37.37,0,0,1,.18.08.47.47,0,0,1,.14.14l.05.11a.43.43,0,0,1,0,.25h0a.38.38,0,0,1-.11.23Z" transform="translate(5682 1921)" fill="#e5e5e6"/>
      <path id="Path_15208" data-name="Path 15208" d="M684.4,253.29a.421.421,0,0,1-.16.11.34.34,0,0,1-.17,0,.46.46,0,0,1-.23,0h0a.49.49,0,0,1-.2-.18h0l-.05-.12a.15.15,0,0,1,0-.07.4.4,0,0,1,0-.19h0a.549.549,0,0,1,.12-.24.52.52,0,0,1,.22-.14.58.58,0,0,1,.26,0,.57.57,0,0,1,.23.12h0l.08.11.06.12a.13.13,0,0,1,0,.06h0v.07h0a.31.31,0,0,1,0,.19v.08a.409.409,0,0,1-.16.08Z" transform="translate(5682 1921)" fill="#e5e5e6"/>
      <path id="Path_15209" data-name="Path 15209" d="M687.17,247.24h0a.49.49,0,0,1-.7-.63h0a.5.5,0,1,1,.72.64Z" transform="translate(5682 1921)" fill="#e5e5e6"/>
      <path id="Path_15210" data-name="Path 15210" d="M680.92,251.45a.621.621,0,0,1-.24.08h-.13a.46.46,0,0,1-.23-.12.449.449,0,0,1-.12-.16.41.41,0,0,1-.05-.19.311.311,0,0,1,0-.19.419.419,0,0,1,.1-.17l.1-.09a.53.53,0,0,1,.24-.08h.13a.55.55,0,0,1,.24.12.36.36,0,0,1,.11.16.47.47,0,0,1,0,.38.32.32,0,0,1-.09.17Z" transform="translate(5682 1921)" fill="#e5e5e6"/>
      <path id="Path_15211" data-name="Path 15211" d="M682.74,245.53c-.47-.41.18-1.13.64-.72S683.2,246,682.74,245.53Z" transform="translate(5682 1921)" fill="#e5e5e6"/>
      <path id="Path_15212" data-name="Path 15212" d="M679.3,244.25a.49.49,0,0,1-.24.08h-.12a.46.46,0,0,1-.22-.11.361.361,0,0,1-.11-.16.26.26,0,0,1-.05-.17.31.31,0,0,1,0-.19.29.29,0,0,1,.09-.16l.1-.08a.49.49,0,0,1,.23-.08h.12a.49.49,0,0,1,.23.11.461.461,0,0,1,.11.16,516.084,516.084,0,0,0,0,.35.369.369,0,0,1-.1.17Z" transform="translate(5682 1921)" fill="#e5e5e6"/>
      <path id="Path_15213" data-name="Path 15213" d="M688.93,254.16a.211.211,0,0,0-.06-.1.4.4,0,0,0-.13-.13h-.12a.39.39,0,0,0-.15,0h0a.56.56,0,0,0-.26.07l-.1.08a.609.609,0,0,0-.13.22.31.31,0,0,0,0,.19.41.41,0,0,0,0,.18.489.489,0,0,0,.18.17h.51a.33.33,0,0,0,.13-.13.421.421,0,0,0,.09-.16v-.13a.41.41,0,0,0,.04-.26Z" transform="translate(5682 1921)" fill="#e5e5e6"/>
      <path id="Path_15214" data-name="Path 15214" d="M697.36,256.91a7.73,7.73,0,0,1-5.32,1.93,15.47,15.47,0,0,1-5.62-1.26c-4.86-1.9-9.17-4.95-13.42-8a2.61,2.61,0,0,1-1.11-1.24,2.579,2.579,0,0,1,.07-1.32c.1-.43.2-.86.32-1.28a12.347,12.347,0,0,1,.87,1.33,20.209,20.209,0,0,0,2.07,2.36,23.06,23.06,0,0,0,5,3.74,21.921,21.921,0,0,0,6.67,2.35,12.38,12.38,0,0,0,7.73-.77,7.25,7.25,0,0,0,3.64-4.22,4.64,4.64,0,0,1,.53,1.07,5.17,5.17,0,0,1-1.43,5.31Z" transform="translate(5682 1921)" fill="#714193" opacity="0.25"/>
      <path id="Path_15215" data-name="Path 15215" d="M673.89,247.28a9,9,0,0,1-3.56-2.1,3,3,0,0,1-.8-1.11,1.27,1.27,0,0,1,.22-1.3,1.8,1.8,0,0,1,1.65-.27,12,12,0,0,1,3.84,1.42,1.19,1.19,0,0,1,.64,1,2,2,0,0,1-.34,1.14A3.6,3.6,0,0,1,673.89,247.28Z" transform="translate(5682 1921)" fill="url(#linear-gradient-15)"/>
      <g id="Group_4041" data-name="Group 4041" transform="translate(5682 1921)" opacity="0.25">
        <path id="Path_15216" data-name="Path 15216" d="M466.55,76a4.33,4.33,0,0,1,1.3.57,5.382,5.382,0,0,1,1.1.92,5.249,5.249,0,0,1,.82,1.17,4.321,4.321,0,0,1,.46,1.35c-.28-.39-.53-.77-.81-1.12a10.759,10.759,0,0,0-.87-1c-.3-.29-.62-.64-.95-1A8.688,8.688,0,0,0,466.55,76Z" fill="#714193"/>
      </g>
      <g id="Group_4042" data-name="Group 4042" transform="translate(5682 1921)" opacity="0.25">
        <path id="Path_15217" data-name="Path 15217" d="M471.58,78a7.729,7.729,0,0,1,.34-1.36,6.75,6.75,0,0,1,.57-1.29,6,6,0,0,1,.84-1.15,3.909,3.909,0,0,1,1.15-.84c-.29.37-.57.73-.82,1.1s-.48.76-.7,1.16l-.66,1.19a10.457,10.457,0,0,1-.72,1.19Z" fill="#714193"/>
      </g>
      <g id="Group_4043" data-name="Group 4043" transform="translate(5682 1921)" opacity="0.25">
        <path id="Path_15218" data-name="Path 15218" d="M468.59,72.42a6,6,0,0,1,1.11-.36,11.067,11.067,0,0,1,1.12-.22,8.772,8.772,0,0,1,1.15-.09,6.52,6.52,0,0,1,1.16,0,6.832,6.832,0,0,1-1.11.36,11.069,11.069,0,0,1-1.12.22,10.943,10.943,0,0,1-1.14.09A6.589,6.589,0,0,1,468.59,72.42Z" fill="#714193"/>
      </g>
      <path id="Path_15219" data-name="Path 15219" d="M492.11,156.52a21.629,21.629,0,0,1-5-7c-3.85-8.36-4.58-18.4-6.11-27.37-1.91-11.19-3.13-20.23-4.53-33.73a35.72,35.72,0,0,1-.15-5.57,4.94,4.94,0,0,1,.27-1.47,5.27,5.27,0,0,1,.35,1.16C478,88.22,482.89,147.22,492.11,156.52Z" transform="translate(5682 1921)" fill="#714193" opacity="0.25"/>
      <path id="Path_15220" data-name="Path 15220" d="M468.68,267.89a10.809,10.809,0,0,1-2,1.35c-12.83,1-15.64-.89-15.36-1.46A44.58,44.58,0,0,0,468.68,267.89Z" transform="translate(5682 1921)" fill="#714193" opacity="0.25"/>
      <path id="Path_15221" data-name="Path 15221" d="M516.36,213.24l-.87-.61h-.06l-1.1-.78-.14-.1-1.62-1.11a25.869,25.869,0,0,0-3.93-2.19,44.726,44.726,0,0,0-6.11-2c-.82-.22-1.64-.42-2.45-.62-3.17-.79-6.33-1.73-9.47-2.69l-1-.29-.14-.05c-1.92-.53-6.63-1-9.07,1.78s-3,57.29-3.79,62.81a1.071,1.071,0,0,1-.06.35.87.87,0,0,1-.33.48,25.987,25.987,0,0,1-2.35,1.58c-1,.53-2,1-3.09,1.46a40.25,40.25,0,0,1-6.52,2.09c-.35.08-.85.06-.91-.29s.25-.49.51-.61l9.39-4.64c1.52-.74,2-2.32,2.19-3.89s.25-3.32.34-5l.31-5.09.78-13.2.88-14.64q.38-6.47.77-12.94l.48-8.14c0-.43.06-.86.08-1.29a4.2,4.2,0,0,1,2.63-2.92,5.851,5.851,0,0,1,1.36-.38,12,12,0,0,1,4.78.51l.64.17c8.76,2.35,17.68,4.78,25.26,9.75a7.09,7.09,0,0,1,2.61,2.49Z" transform="translate(5682 1921)" fill="#714193" opacity="0.25"/>
      <path id="Path_15222" data-name="Path 15222" d="M670.63,256.71v.25a.76.76,0,0,1,0,.15v.24a2.935,2.935,0,0,1-.08.49.376.376,0,0,0,0,.2v.26a2.336,2.336,0,0,1-.07.25c0,.05,0,.11,0,.16l-.09.3c-.07.21-.14.42-.22.63l-.12.31h0l-.12.3c-.23.57-.48,1.13-.72,1.63a.915.915,0,0,1-.07.14c-.19.4-.38.78-.55,1.09l-.09.18-.14.25-.09.18-.16.28h0a.72.72,0,0,1-.07.11h0c-2.9-.55-5.73-1.14-8.51-1.76q-5.22-1.17-10.16-2.42l-1.77-.44-.75-.19-1.36-.35-.19-.05-1.76-.45-2-.51-5.38-1.41-1.7-.44-2.5-.64-2-.51h-.05l-1-.25-1.11-.28-1.51-.36-1.49-.36-1.48-.34c-.49-.11-1-.23-1.47-.33l-1.46-.32c-1-.21-1.92-.41-2.88-.59l-1.42-.28c-32.31-6-54.2-12.68-69-18.74-26.4-10.81-30.13-19.7-30.13-19.7h0v-.05c4.35,2.21,49.62,24.54,142.57,47.11,3.36.82,7.36-2.68,10-5.18l.35.15.32.13.14.06.19.08.26.11v.06a.275.275,0,0,0,.05.18v.19a1.094,1.094,0,0,1,0,.18A1.548,1.548,0,0,1,670.63,256.71Z" transform="translate(5682 1921)" fill="#714193" opacity="0.25"/>
      <path id="Path_15223" data-name="Path 15223" d="M692,271.77c-1.55.87-3.46.7-5.21.43a52.987,52.987,0,0,1-5.44-1.11,38.587,38.587,0,0,1-9-3.56,27.68,27.68,0,0,1-4.07-2.71,3.4,3.4,0,0,1-1-2.82,5.908,5.908,0,0,1,.18-1.3,14.132,14.132,0,0,1,1.5-3.43,1.95,1.95,0,0,1,2.48-1.22c5.19.59,10.43,1.19,15.32,3a15.649,15.649,0,0,1,5,2.81,7.9,7.9,0,0,1,2.62,4.53,1.165,1.165,0,0,0,.06.45,5.17,5.17,0,0,1-2.44,4.93Z" transform="translate(5682 1921)" fill="url(#linear-gradient-16)"/>
      <path id="Path_15224" data-name="Path 15224" d="M669.58,258.05c2.64.81,5.29,1.62,7.92,2.48,3.39,1.11,8.08,1.74,10.27,4.91a2.65,2.65,0,0,1,.51,1.9,1.71,1.71,0,0,1-1.82,1.38,13.82,13.82,0,0,1-4.67-1.08c-1.56-.52-3.09-1.11-4.6-1.75a44.065,44.065,0,0,1-8.6-4.71,11.311,11.311,0,0,1,.99-3.13Z" transform="translate(5682 1921)" fill="url(#linear-gradient-17)"/>
      <path id="Path_15225" data-name="Path 15225" d="M670.54,258.31a9,9,0,0,0-4-.81,2.92,2.92,0,0,0-1.34.29,1.31,1.31,0,0,0-.7,1.12,1.82,1.82,0,0,0,1,1.3,12.17,12.17,0,0,0,3.81,1.5,1.21,1.21,0,0,0,1.11-.28,1.93,1.93,0,0,0,.5-1.08A3.47,3.47,0,0,0,670.54,258.31Z" transform="translate(5682 1921)" fill="url(#linear-gradient-18)"/>
      <path id="Path_15226" data-name="Path 15226" d="M674,257.78a.48.48,0,0,0-.46.63,2.82,2.82,0,0,0-.55.54,4.1,4.1,0,0,0-.72,1.39,9.791,9.791,0,0,0-.23,3.77.25.25,0,0,0,.49,0,15.584,15.584,0,0,1,.34-3.34,3.4,3.4,0,0,1,.58-1.25,2.5,2.5,0,0,1,.46-.46,1,1,0,0,0,.37-.37.5.5,0,0,0-.28-.91Z" transform="translate(5682 1921)" fill="#e5e5e6"/>
      <path id="Path_15227" data-name="Path 15227" d="M677.69,260c-1.92,1.35-2.19,3.86-1.85,6,0,.25.43.19.43-.06-.06-1.89.1-4.1,1.79-5.3C678.45,260.37,678.08,259.72,677.69,260Z" transform="translate(5682 1921)" fill="#e5e5e6"/>
      <path id="Path_15228" data-name="Path 15228" d="M681.76,260.64a2.93,2.93,0,0,0-1.1,1.21,7.114,7.114,0,0,0-.69,1.54,8.129,8.129,0,0,0-.22,3.7c0,.25.45.19.44,0a9.63,9.63,0,0,1,.41-3.42,6.332,6.332,0,0,1,.64-1.37,5.325,5.325,0,0,1,.45-.61,2.279,2.279,0,0,0,.46-.61A.332.332,0,0,0,681.76,260.64Z" transform="translate(5682 1921)" fill="#e5e5e6"/>
      <path id="Path_15229" data-name="Path 15229" d="M685.74,262.83a4.87,4.87,0,0,0-1.5,2.58,9.11,9.11,0,0,0-.11,3.45.21.21,0,1,0,.42,0,12.531,12.531,0,0,1,.35-3.17,5.211,5.211,0,0,1,.54-1.26,4.8,4.8,0,0,1,.88-1A.417.417,0,0,0,685.74,262.83Z" transform="translate(5682 1921)" fill="#e5e5e6"/>
      <path id="Path_15230" data-name="Path 15230" d="M684.82,268.91a.617.617,0,0,0,0-.13.59.59,0,0,0-.12-.2.45.45,0,0,0-.21-.12h-.15a.51.51,0,0,0-.24.07h0a.29.29,0,0,0-.14.13.51.51,0,0,0-.09.16v.14a.51.51,0,0,0,.25.42.481.481,0,0,0,.18.06.41.41,0,0,0,.19,0l.12-.05a.45.45,0,0,0,.18-.18h0a.658.658,0,0,0,.07-.25Z" transform="translate(5682 1921)" fill="#e5e5e6"/>
      <path id="Path_15231" data-name="Path 15231" d="M682.38,260.83a.3.3,0,0,0,0-.18.31.31,0,0,0-.1-.15.37.37,0,0,0-.2-.12h0a.42.42,0,0,0-.27,0h0l-.13.05h-.05a.35.35,0,0,0-.13.14h0a.481.481,0,0,0-.07.26.45.45,0,0,0,.07.25.39.39,0,0,0,.18.18.45.45,0,0,0,.25.07h.13l.12-.05h.05a.34.34,0,0,0,.1-.16.11.11,0,0,0,0-.07.681.681,0,0,0,.05-.22Z" transform="translate(5682 1921)" fill="#e5e5e6"/>
      <path id="Path_15232" data-name="Path 15232" d="M680.42,267.19h0a.49.49,0,0,0-.94,0h0a.51.51,0,0,0,.48.64.52.52,0,0,0,.46-.64Z" transform="translate(5682 1921)" fill="#e5e5e6"/>
      <path id="Path_15233" data-name="Path 15233" d="M678.57,259.89a.609.609,0,0,0-.13-.22l-.11-.08a.52.52,0,0,0-.25-.07.41.41,0,0,0-.19.05.37.37,0,0,0-.17.1.541.541,0,0,0-.1.16.34.34,0,0,0,0,.2v.13a.541.541,0,0,0,.13.22l.11.08a.43.43,0,0,0,.25.07.41.41,0,0,0,.19,0,.389.389,0,0,0,.17-.11.44.44,0,0,0,.1-.16.31.31,0,0,0,0-.19Z" transform="translate(5682 1921)" fill="#e5e5e6"/>
      <path id="Path_15234" data-name="Path 15234" d="M676,265.51a.5.5,0,1,0,.5.5A.5.5,0,0,0,676,265.51Z" transform="translate(5682 1921)" fill="#e5e5e6"/>
      <path id="Path_15235" data-name="Path 15235" d="M672.56,264.17a.609.609,0,0,0-.13-.22l-.1-.07a.48.48,0,0,0-.24-.07.37.37,0,0,0-.18.05.51.51,0,0,0-.16.09.54.54,0,0,0-.1.16.391.391,0,0,0,0,.18v.13a.451.451,0,0,0,.12.21l.1.08a.67.67,0,0,0,.24.07.41.41,0,0,0,.19,0,.46.46,0,0,0,.25-.25.31.31,0,0,0,0-.19Z" transform="translate(5682 1921)" fill="#e5e5e6"/>
      <path id="Path_15236" data-name="Path 15236" d="M686.67,262.8a.45.45,0,0,0-.12-.21l-.1-.08a.55.55,0,0,0-.25-.07.41.41,0,0,0-.19.05.39.39,0,0,0-.16.1.29.29,0,0,0-.1.16.37.37,0,0,0,0,.18v.13a.43.43,0,0,0,.12.22l.1.08a.54.54,0,0,0,.25.06.31.31,0,0,0,.19,0,.39.39,0,0,0,.16-.1.44.44,0,0,0,.1-.16.41.41,0,0,0,0-.19Z" transform="translate(5682 1921)" fill="#e5e5e6"/>
      <path id="Path_15237" data-name="Path 15237" d="M692,271.77c-1.55.87-3.46.7-5.21.43a52.987,52.987,0,0,1-5.44-1.11,38.587,38.587,0,0,1-9-3.56,27.68,27.68,0,0,1-4.07-2.71,3.4,3.4,0,0,1-1-2.82,1.41,1.41,0,0,1,.34.2c1,.73,1.75,1.75,2.74,2.48a22.725,22.725,0,0,0,3.67,2.2,40.532,40.532,0,0,0,8.61,2.81,14.48,14.48,0,0,0,7.12.32,8,8,0,0,0,4.65-3.61,1.166,1.166,0,0,0,.06.45,5.17,5.17,0,0,1-2.47,4.92Z" transform="translate(5682 1921)" fill="#714193" opacity="0.25"/>
      <path id="Path_15238" data-name="Path 15238" d="M675.78,241a36,36,0,0,1-1,3.58l-.12.35-.06.17a1.142,1.142,0,0,1-.13.35c-.04.11-.13.35-.2.52l-.08.18c-.07.17-.14.34-.22.5a1.1,1.1,0,0,1-.07.16l-.16.31a.8.8,0,0,1-.08.16l-.16.29-.09.15-.26.39a3,3,0,0,1-1,.91L669.12,248l-.72-.24-.9-.31-.47-.16-.6-.21-.18-.06-.77-.27-.33-.11-.76-.27-.63-.21-10.3-3.56-4.28-1.48-.93-.33-1-.33-.26-.09-1.11-.38-.26-.09-1.62-.6-2.7-.93-1.6-.56-2-.67-1.22-.43-4-1.4-1.53-.53-3.2-1.12-2.75-1-2.86-1-1.92-.67-1.93-.67-1.92-.67-.32-.11-3.54-1.24-1-.34-2.89-1-9.52-3.35-6.27-2.22-2.87-1-2.64-.94-2.86-1-1.4-.5-1.66-.59-6.16-2.22-2-.72-1-.35-6.53-2.4-.77-.29c-1.64-.61-3.1-1.17-4.35-1.65l-.56-.22-.27-.11a18.622,18.622,0,0,1-3-1.56,4.4,4.4,0,0,0,0-2,5.219,5.219,0,0,1,.1-2.67s107.52,43.08,111.38,41.71c2.27-.81,3.13-3.85,4.15-5.78.75.43,1.51.88,2.26,1.33Z" transform="translate(5682 1921)" fill="#714193" opacity="0.25"/>
      <path id="Path_15239" data-name="Path 15239" d="M556.93,202.77A13,13,0,0,1,555,213.68a4.25,4.25,0,0,1-2.09-3.93,13.541,13.541,0,0,1,1.5-4.62,5.561,5.561,0,0,1,.83-1.41,2.76,2.76,0,0,1,1.69-.95Z" transform="translate(5682 1921)" fill="#35a3e5"/>
      <path id="Path_15240" data-name="Path 15240" d="M455.85,171.54a4.8,4.8,0,0,1,2,7.12,4.69,4.69,0,0,0,.27-3.64,6.14,6.14,0,0,0-2.27-3.48Z" transform="translate(5682 1921)" fill="url(#linear-gradient-19)"/>
      <path id="Path_15241" data-name="Path 15241" d="M455.78,171.32a6.87,6.87,0,0,1,5.8,8.74C461.53,176.47,459,173,455.78,171.32Z" transform="translate(5682 1921)" fill="url(#linear-gradient-20)"/>
      <path id="Path_15242" data-name="Path 15242" d="M437.46,177.57a4.543,4.543,0,0,0,.35-.78c1.17-3.56.7-8.07-1.88-10.76a6.39,6.39,0,0,0-3.64-1.34,7.791,7.791,0,0,0-1.28,0,1.7,1.7,0,0,0-1.24.67,7.638,7.638,0,0,0-.39.75,4.661,4.661,0,0,1-1.48,1.22A1.74,1.74,0,0,0,427,169c0,.24.17.45.21.69.11.66-.44,1.22-.68,1.84a2.07,2.07,0,0,0,.32,2c.33.4.81.69,1,1.17a5.158,5.158,0,0,1,.15,1.25,2.1,2.1,0,0,0,1,1.48,6.208,6.208,0,0,1,1,.59c.3.26.48.68.81.87l.16.07c.24.07.51,0,.76.05a2.31,2.31,0,0,1,.55.26,2.56,2.56,0,0,0,2.13.08,12.23,12.23,0,0,0,2.24-1,4.08,4.08,0,0,0,.81-.78Z" transform="translate(5682 1921)" fill="url(#linear-gradient-21)"/>
      <path id="Path_15243" data-name="Path 15243" d="M437.46,177.57a4.543,4.543,0,0,0,.35-.78c1.17-3.56.7-8.07-1.88-10.76a6.39,6.39,0,0,0-3.64-1.34,3.191,3.191,0,0,1,.16.32,5.63,5.63,0,0,1-.16,3.06,10,10,0,0,0,.26,4.59,8.77,8.77,0,0,1,.74,3.63,3.11,3.11,0,0,1-1.52,2.23,3,3,0,0,1-1,.35l.16.07c.24.07.51,0,.76.05a2.31,2.31,0,0,1,.55.26,2.56,2.56,0,0,0,2.13.08,12.231,12.231,0,0,0,2.24-1A4.08,4.08,0,0,0,437.46,177.57Z" transform="translate(5682 1921)" fill="#714193" opacity="0.25"/>
      <path id="Path_15244" data-name="Path 15244" d="M446.68,184.37a6.249,6.249,0,0,0,1.37-3.05,4,4,0,0,0-.72-2.45,11.451,11.451,0,0,0-.89-1.09,10.929,10.929,0,0,0-2.74-2.18,8.35,8.35,0,0,0-5.61-1.1,8.14,8.14,0,0,0-3.61,1.73.8.8,0,0,0-.13.13.56.56,0,0,0-.16.29,1.52,1.52,0,0,0,.09.51c.23,1.06-1.2,2.06-.77,3.06.16.35.5.57.71.89a3.249,3.249,0,0,1,.3,1.56,1.53,1.53,0,0,0,.71,1.36,4.943,4.943,0,0,0,.55.15c.71.22,1.09.95,1.47,1.58s1,1.29,1.73,1.17c.42-.07.8-.4,1.23-.34a2.85,2.85,0,0,1,.74.37,1.53,1.53,0,0,0,1.41,0c.19-.1.35-.24.54-.33a4,4,0,0,1,1.16-.22,3.11,3.11,0,0,0,1.12-.4A4.33,4.33,0,0,0,446.68,184.37Z" transform="translate(5682 1921)" fill="url(#linear-gradient-22)"/>
      <path id="Path_15245" data-name="Path 15245" d="M446.68,184.37a6.249,6.249,0,0,0,1.37-3.05,4,4,0,0,0-.72-2.45,11.451,11.451,0,0,0-.89-1.09,12.819,12.819,0,0,0-2.74-2.18,8.35,8.35,0,0,0-5.61-1.1,8.14,8.14,0,0,0-3.61,1.73.8.8,0,0,0-.13.13h.16a5.87,5.87,0,0,1,2.45,2,10.34,10.34,0,0,0,4,2.63,9.2,9.2,0,0,1,3.49,1.63,3.26,3.26,0,0,1,.91,2.65,3.148,3.148,0,0,1-.16.69,4.33,4.33,0,0,0,1.48-1.59Z" transform="translate(5682 1921)" fill="#714193" opacity="0.25"/>
      <path id="Path_15246" data-name="Path 15246" d="M453.44,151.52a10.365,10.365,0,0,0-1.08-.47,13,13,0,0,0-5.45-.76c-2,.14-4.23.49-5.62,2.07a9,9,0,0,0-.9,10.25,18.32,18.32,0,0,0,5.26,6.35l.63.42a11.19,11.19,0,0,0,8.87,1.42,15.9,15.9,0,0,0,7.65-4.16,8.38,8.38,0,0,0,2.34-4.67,7.72,7.72,0,0,0-1.34-5,14.869,14.869,0,0,0-2.89-3.14,13.66,13.66,0,0,0-3.51-2.14.56.56,0,0,0-.63.15,1.74,1.74,0,0,1-.8.65,1.07,1.07,0,0,1-.63-.13A15.89,15.89,0,0,1,453.44,151.52Z" transform="translate(5682 1921)" fill="#f5a784"/>
      <path id="Path_15247" data-name="Path 15247" d="M457.21,178.23a5.31,5.31,0,0,0,.94-5,6.55,6.55,0,0,0-1.63-2.66c-1-1-1.78-.53-2.95,0a6.45,6.45,0,0,1-3.62.07.744.744,0,0,1-.71-.4c-.25-.74.85-1.38.76-2.08a6.952,6.952,0,0,0-.17-.73c-.09-.7.4-1.42.17-2.09-.16-.47-.63-.75-1-1.08a3.24,3.24,0,0,1-1-2c0-.14,0-.29,0-.43a2.891,2.891,0,0,0-.14-1c-.37-.88-1.51-1.17-2-2-.66-1-.13-2.4-.66-3.47a8.67,8.67,0,0,1-.82-1.4,2.73,2.73,0,0,1,.16-1.38c.26-.86.29-1.72-.62-2.19-.65-.34-1.36-.06-2.06-.06s-1.12-.15-1.64.45c-.21.24-.36.52-.57.75-.89,1-2.69.68-3.45,1.76a8.657,8.657,0,0,0-.61,1.64,5.86,5.86,0,0,1-1.65,1.83,2.93,2.93,0,0,0-1.18,2.09c0,.34.12.66.14,1,.1,1.41-1.32,2.64-1.09,4,.13.8.79,1.43.94,2.23s-.24,1.69,0,2.5c.27,1.09,1.5,1.65,2,2.64s.34,1.9.85,2.7,1.7,1.21,2.39,2c.54.61.79,1.47,1.44,2s1.31.33,1.88.67c.33.21.51.55.8.8a1.13,1.13,0,0,0,.45.27c.42.13.88,0,1.31.11a8,8,0,0,1,1.65.88,5.45,5.45,0,0,0,3.22-.06C451.68,180.06,455,180.86,457.21,178.23Z" transform="translate(5682 1921)" fill="url(#linear-gradient-23)"/>
      <path id="Path_15248" data-name="Path 15248" d="M453.24,155.48c.85.1,1.51.43,1.47.73s-.75.47-1.6.37-1.51-.42-1.47-.73S452.39,155.38,453.24,155.48Z" transform="translate(5682 1921)" fill="#1d1109"/>
      <path id="Path_15249" data-name="Path 15249" d="M448.71,155.5a2.74,2.74,0,0,0,.56,1.18,6.687,6.687,0,0,0,.79,1,11.636,11.636,0,0,0,.88.84,9.181,9.181,0,0,0,1,.72c.16.1.31-.13.17-.25a8.11,8.11,0,0,1-.84-.82,7.209,7.209,0,0,1-.72-.93,8.648,8.648,0,0,1-.53-1,5.339,5.339,0,0,0-.56-1.09.45.45,0,0,0-.42-.15h-.12a.46.46,0,0,0-.21.5Z" transform="translate(5682 1921)" fill="url(#linear-gradient-24)"/>
      <path id="Path_15250" data-name="Path 15250" d="M457.15,178.18a5.29,5.29,0,0,0,.94-5,6.42,6.42,0,0,0-1.63-2.66c-1-1-1.78-.54-2.95,0a6.54,6.54,0,0,1-3.62.08c-.28-.05-.61-.14-.7-.41-.26-.74.84-1.38.75-2.07a5.953,5.953,0,0,0-.17-.73c-.09-.71.41-1.43.17-2.1-.16-.47-.62-.74-1-1.08a3.16,3.16,0,0,1-1-2v-.43h-.07a1.2,1.2,0,0,0-.62,1.12,3.22,3.22,0,0,0,.55,1.33,2.19,2.19,0,0,1,.37,1.37,1.84,1.84,0,0,1-.3.67c-.56.84-1.46,1.63-1.31,2.62,0,.23.12.44.13.67a3.17,3.17,0,0,1-.47,1.35,2.74,2.74,0,0,0,1.25,3.36c.41.21.88.31,1.29.53.59.32,1.08.91,1.75,1a5.16,5.16,0,0,1,1.18,0,1,1,0,0,1,.53,1.34,1.59,1.59,0,0,1-1.23.92c-.55.1-1.18,0-1.58.4-.23.22-.34.56-.59.77a1.55,1.55,0,0,1-1.07.23h-2.6a4.2,4.2,0,0,1-1.54-.22,1.83,1.83,0,0,0-.87-.26,1.5,1.5,0,0,0-.72.41,1.24,1.24,0,0,0,.45.26c.43.13.88,0,1.31.11.62.12,1.08.63,1.66.89a5.5,5.5,0,0,0,3.21-.07C451.63,180,454.92,180.81,457.15,178.18Z" transform="translate(5682 1921)" fill="#714193" opacity="0.25"/>
      <path id="Path_15251" data-name="Path 15251" d="M459.16,158.27a3.21,3.21,0,0,0,1.46-3.05" transform="translate(5682 1921)" fill="none" stroke="#462a1b" stroke-linecap="round" stroke-linejoin="round" stroke-width="0.27"/>
      <path id="Path_15252" data-name="Path 15252" d="M454.85,172.41a3.16,3.16,0,0,0,1.26-2.44c-.06-1.13-1.27-.61-1.93-.35a3.66,3.66,0,0,1-2,.16,16.328,16.328,0,0,0-1.88-.5,3,3,0,0,0-1.53.66,2,2,0,0,0-.82,1.65,2.08,2.08,0,0,0,1.28,1.67,4.61,4.61,0,0,0,2.18.28,6.05,6.05,0,0,0,3.44-1.13Z" transform="translate(5682 1921)" fill="#f5a784"/>
      <path id="Path_15253" data-name="Path 15253" d="M450.1,172.3a4,4,0,0,1,2.46-2.84" transform="translate(5682 1921)" fill="none" stroke="#462a1b" stroke-linecap="round" stroke-linejoin="round" stroke-width="0.27"/>
      <path id="Path_15254" data-name="Path 15254" d="M451.51,171.57a3.14,3.14,0,0,1,1.05-2.11" transform="translate(5682 1921)" fill="none" stroke="#462a1b" stroke-linecap="round" stroke-linejoin="round" stroke-width="0.27"/>
      <path id="Path_15255" data-name="Path 15255" d="M456.38,157.05c.63.11.93,1.48.66,3.06s-1,2.78-1.61,2.67-.92-1.47-.66-3.05S455.76,157,456.38,157.05Z" transform="translate(5682 1921)" fill="#ba979b" opacity="0.25"/>
    </g>
  </g>
</svg>
