<svg xmlns="http://www.w3.org/2000/svg" width="292.751" height="265.063" viewBox="0 0 292.751 265.063">
  <g id="Onboarding_Illustration_3" data-name="Onboarding Illustration 3" transform="translate(-245.771 -431.052)">
    <path id="Path_12638" data-name="Path 12638" d="M154.287,33.061c-16.227-2.009-30.6,7.219-41.77,18.148-7.9,7.705-12.054,20.554-13.556,31.284-.927,6.623-.817,13.379-3.709,19.3-3.908,8.058-12.54,12.717-21.084,15.454s-17.662,3.93-25.676,7.793C35.378,131.2,26.105,144,22.308,157.975s-2.495,29.01,1.788,42.852c7.749,24.97,27.641,48.018,53.56,51.374,24.285,3.157,48.747-11.193,72.855-6.844,9.582,1.722,18.39,6.292,27.288,10.288,20.642,9.273,48.725,20.422,71.376,12.3,20.046-7.2,26.162-25.588,25.831-45.325a43.912,43.912,0,0,0-5.608-22.563,63.385,63.385,0,0,0-12.253-13.246c-8.08-7.219-16.094-14.726-21.79-23.932-15.079-24.506-11.215-56.629-23.755-82.5a98.046,98.046,0,0,0-24.749-30.467C177.468,41.782,166.606,34.563,154.287,33.061Z" transform="translate(233.04 406.492)" fill="#f4fafe"/>
    <path id="Path_12639" data-name="Path 12639" d="M305.872,144.751c-2.406-.265-4.835-.441-7.263-.574H99.647L23.811,144H23.37a24.31,24.31,0,0,0-3.179.287,2.208,2.208,0,0,0,0,4.195l3.179.287h77.47l197.9-.11a66.213,66.213,0,0,0,7.241-.574,1.744,1.744,0,0,0-.11-3.334Z" transform="translate(231.361 540.811)" fill="#c6c6c6"/>
    <path id="Path_12677" data-name="Path 12677" d="M21.869,5.463A64.022,64.022,0,0,0,10.831,2.24C7.674,1.445,3.722-.255.476.032a.486.486,0,0,0-.464.6V.893a.155.155,0,0,0,.132,0A18.435,18.435,0,0,1,4.892,2.152l6.16,1.656A60.575,60.575,0,0,0,21.516,6.015a.375.375,0,0,0,.353-.552Z" transform="matrix(0.819, -0.574, 0.574, 0.819, 388.038, 478.632)" fill="#35a3e5"/>
    <path id="Path_12678" data-name="Path 12678" d="M59.41,2.086A252.452,252.452,0,0,0,30.511.475,280.89,280.89,0,0,0,.331.342.331.331,0,0,0,.331,1c9.714,1.038,19.693.861,29.473,1.258S49.475,3.654,59.234,3.3C59.9,3.278,60.117,2.2,59.41,2.086Z" transform="matrix(0.819, -0.574, 0.574, 0.819, 371.089, 465.378)" fill="#35a3e5"/>
    <path id="Path_12679" data-name="Path 12679" d="M112.223,63.009c-3.8.684-7.528,1.766-11.326,2.539a43.076,43.076,0,0,0-9.957,2.208v.132a25.3,25.3,0,0,0,9.692-.64,56.21,56.21,0,0,0,11.856-3.135.568.568,0,1,0-.265-1.1Z" transform="translate(318.642 411.819)" fill="#35a3e5"/>
    <g id="Group_3873" data-name="Group 3873" transform="translate(245.771 482.772)">
      <path id="Path_13514" data-name="Path 13514" d="M0,500Z" transform="translate(0 -286.657)" fill="#fff"/>
      <path id="Path_13305" data-name="Path 13305" d="M193.189,290.265a.166.166,0,0,0-.274,0l-.249.382a.259.259,0,0,0-.15.058c-.731.673-1.711,1.853-1.379,2.916a.524.524,0,0,0,.615.357.756.756,0,0,0,1.213.241,3.123,3.123,0,0,0,.665-2.069,3.82,3.82,0,0,0-.44-1.886Z" transform="translate(-32.328 -251.159)" fill="#233645"/>
      <path id="Path_13306" data-name="Path 13306" d="M116.172,293.589c-.307-.59-.424-1.662-1.047-1.952a.465.465,0,0,0-.474,0c-.648.432-.507,1.371-.357,2.027s.54,1.861,1.454,1.786a.831.831,0,0,0,.756-.656A1.662,1.662,0,0,0,116.172,293.589Z" transform="translate(-19.316 -251.393)" fill="#233645"/>
      <path id="Path_13307" data-name="Path 13307" d="M116.632,287.521c-.341-.316-.7-.631-1.063-.939l-.3-.257c-.307.158-.615.316-.906.482s-.582.274-.831.424a5.117,5.117,0,0,0-.98.573,15.96,15.96,0,0,0-6.4,8.142q-1.554,1.254-3.041,2.634a35.856,35.856,0,0,0-3.157,2.168,27.232,27.232,0,0,0-4.4,3.955.081.081,0,0,1-.042,0c-2.251-1.9-4.719-3.639-7-5.45-1.662-1.338-3.606-2.625-5.342-4.071l-.557-.482c-.432-.374-.831-.764-1.255-1.172a20.565,20.565,0,0,1,1.5-1.662,3.813,3.813,0,0,0,1.454-2.326,5.051,5.051,0,0,0-.465-2.11,2.707,2.707,0,0,0-1.014-2.692,4.255,4.255,0,0,0-.731-1.03.075.075,0,0,0-.125,0v.166l-.606-.573a11.9,11.9,0,0,1-.93-.889,1.263,1.263,0,0,0-1.487-.565c-.158,0-1.529.515-1.4.723a.616.616,0,0,0-.241-.241,2.019,2.019,0,0,0-2.11.249.732.732,0,0,0-.44-.316,3.033,3.033,0,0,0-2.21.49,2.152,2.152,0,0,0-2.409.357.415.415,0,0,0-.349.207c-.615,1.08-1.612,4.644.407,4.985a.7.7,0,0,0,.316,0,10.526,10.526,0,0,0,2.168,6.912,36.337,36.337,0,0,0,3.556,5.949,76.622,76.622,0,0,0,5.5,7.17,68.151,68.151,0,0,0,6.646,6.6c1.6,1.4,3.805,3.647,6,3.838a.547.547,0,0,0,.341-.091,9.743,9.743,0,0,0,3.323-.831,18.38,18.38,0,0,0,4.4-2.177.465.465,0,0,0,.133-.158l.831-.424c3.39-1.662,7.02-3.323,9.97-5.708a26.348,26.348,0,0,0,4.254-3.248l.233-.191.523-1.662c.042-.4.075-.831.108-1.2l-.291.183c.116-.2.224-.4.332-.6,0-.365.058-.739.091-1.1,0-1.969-.066-3.946-.133-5.915Q117.687,291.584,116.632,287.521Z" transform="translate(-11.678 -249.736)" fill="#dca47a"/>
      <path id="Path_13308" data-name="Path 13308" d="M87.6,307.5a33.725,33.725,0,0,0-3.656-4.453c-1.155-1.346-2.285-3.323-3.838-4.154,0,0-.066,0-.05.041a3.477,3.477,0,0,0,.166.465,4.154,4.154,0,0,0-1.387-1.014.05.05,0,0,0-.058.075,12.136,12.136,0,0,0,1.736,1.72l.366.407c.69.989,1.6,1.911,2.3,2.758a25.525,25.525,0,0,0,4.154,4.436C87.493,307.911,87.7,307.669,87.6,307.5Z" transform="translate(-13.326 -252.546)" fill="#db916b"/>
      <path id="Path_13309" data-name="Path 13309" d="M72.14,288.53v.058S72.173,288.53,72.14,288.53Z" transform="translate(-12.207 -250.878)" fill="#db916b"/>
      <path id="Path_13310" data-name="Path 13310" d="M85.53,286.57a4.386,4.386,0,0,0,.6,2.027,10.433,10.433,0,0,0,1.313,1.761.233.233,0,0,0,0-.274c-.191-.316-.4-.615-.615-.914-.183-.432-.49-.831-.681-1.28A12.711,12.711,0,0,0,85.53,286.57Z" transform="translate(-14.471 -250.547)" fill="#db916b"/>
      <path id="Path_13311" data-name="Path 13311" d="M100.979,304.356a12,12,0,0,0-1.994,2.833,3.325,3.325,0,0,0-.573-.831.249.249,0,0,0-.241-.075c-.174-.3-.324-.69-.656-.831a.183.183,0,0,0-.208.091h0a2.945,2.945,0,0,0-.2-.249.233.233,0,0,0-.216-.075c-.125-.233-.249-.474-.4-.7a.291.291,0,0,0-.366-.116,5.569,5.569,0,0,0-.557-.9,19.311,19.311,0,0,0-1.819-4.154.615.615,0,0,0-1.113.465,17.436,17.436,0,0,0,.914,2.874c1.878,2.841,2.708,6.289,4.22,9.388a6.373,6.373,0,0,0,.69-1.711c.066-.2.116-.4.166-.606.266-.557.5-1.13.781-1.662.623-1.155,1.462-2.235,1.994-3.431a.274.274,0,0,0-.424-.316Z" transform="translate(-15.671 -252.663)" fill="#da906a"/>
      <path id="Path_13312" data-name="Path 13312" d="M101.419,324.9a.307.307,0,0,0-.4-.44l-.565.266a9.527,9.527,0,0,0-1.529.175c-.59.083-.4.947.133.98a3.382,3.382,0,0,0,2.268-.515A.341.341,0,0,0,101.419,324.9Z" transform="translate(-16.677 -256.952)" fill="#da906a"/>
      <path id="Path_13313" data-name="Path 13313" d="M78.871,283.307c0-.1.141-.415.208-.731a6.2,6.2,0,0,0,.54-.756,3.612,3.612,0,0,0,.764-1.313.2.2,0,0,0-.2-.258,1.587,1.587,0,0,0-1.047.582h-.091a1.769,1.769,0,0,0-.623.764,2.031,2.031,0,0,0-.116.233.573.573,0,0,0-.557-.457,20.191,20.191,0,0,0-6.273.6.315.315,0,0,0-.125,0,1.417,1.417,0,0,0-.324.141,6.307,6.307,0,0,0-1.4.681c-.1.066-.108.258,0,.283a1.567,1.567,0,0,0,.341,0,3.464,3.464,0,0,0-.731,1.279.9.9,0,0,0,.2.831h0l.083.066a.474.474,0,0,0,.174.108h.042a.881.881,0,0,0,1.1-.366c.191-.39.274-.831.474-1.2a4.036,4.036,0,0,0,.424-.831l.44-.058a6.632,6.632,0,0,0-.573.881.989.989,0,0,0,.474,1.412,1.039,1.039,0,0,0,.831,0,.723.723,0,0,0,.631-.349,5.817,5.817,0,0,0,.93-2.094v-.058h.548a9.391,9.391,0,0,0-.515.831,1.047,1.047,0,0,0,.5,1.5,1.064,1.064,0,0,0,1.429-.681,6.3,6.3,0,0,0,.49-1.7h.773a.709.709,0,0,0,.141-.042,3.779,3.779,0,0,0-.316,1.578,3.465,3.465,0,0,0,1.662,2.816.5.5,0,0,0,.714-.557C79.744,285.177,78.531,284.736,78.871,283.307Z" transform="translate(-11.71 -249.477)" fill="#edb389"/>
      <path id="Path_13314" data-name="Path 13314" d="M122.108,285.39c-4.486,1.055-8.308,5.425-10.335,9.762a.324.324,0,0,0-.532-.15,6.823,6.823,0,0,0-1.039,1.662c-.307.49-.731.914-1.038,1.4-4.52,2.816-9.8,6.38-10.344,11.88h.05c2.542-6.1,7.56-8.715,12.72-12.329a.474.474,0,0,0-.058-.831,22.7,22.7,0,0,1,4.229-6.331c1.961-2.027,4.287-3.107,6.538-4.661a.249.249,0,0,0-.191-.407Z" transform="translate(-16.721 -250.347)" fill="#edb389"/>
      <path id="Path_13315" data-name="Path 13315" d="M118.56,303.349c.075-.316.141-.631.191-.947l-.349-.632a.259.259,0,0,0-.133.1c-.083.1-.158.208-.233.316a.166.166,0,0,0-.233,0,9.731,9.731,0,0,0-1.08,1.18,8.756,8.756,0,0,0,.532-2.035.141.141,0,0,0-.066-.133l.673-1.221-.332-.449-.474.357c.091-.216.174-.432.258-.648l-.266-.374c-.274.258-.532.515-.831.789a12.092,12.092,0,0,0,.457-1.263l-.623-.889a10.566,10.566,0,0,0-1.878,1.736l-.3-.324a23.143,23.143,0,0,0-3.24-3.14h0l.216.249c-.141-.133-.274-.266-.424-.382a.086.086,0,1,0-.133.108,11.47,11.47,0,0,0,1.113,1.662c.515,1.03,1.171,2.011,1.77,2.991-.449.565-.889,1.13-1.329,1.662-1.778,2.077-3.722,3.988-5.683,5.89-2.119,2.06-4.262,4.079-6.4,6.106-1.662,1.6-3.573,3.115-5.093,4.885-1.163-1.005-2.368-1.977-3.448-3.057a76.041,76.041,0,0,1-6.007-6.646c-1.911-2.4-3.639-4.935-5.483-7.386-1.429-1.886-2.983-4.262-5.184-5.242-.141-.307-.274-.623-.415-.931h0a3.674,3.674,0,0,0,.573-.93,9.04,9.04,0,0,1,1.338-1.736c.307-.324.631-.623.955-.914a9.049,9.049,0,0,0,1.662-1.063c.216.05.449-.216.6-.341a1.238,1.238,0,0,0,.507-.69c.083-.44-.4-1.014-.831-.706v.05a.116.116,0,0,0-.108-.058,6.693,6.693,0,0,0-.906.1,1.093,1.093,0,0,0-.066-.457,2.06,2.06,0,0,0-.05-.64h0a4.7,4.7,0,0,0-.05-.831h-.05a2.424,2.424,0,0,1-.058.324l-.133.008a6.236,6.236,0,0,0-.424.889.108.108,0,0,0-.125.083,3.7,3.7,0,0,0-.091.457,2.164,2.164,0,0,1-.116.241.285.285,0,0,1-.066.075l-.291.041h-.781a.191.191,0,0,0-.1-.05h-.3a.134.134,0,0,0-.066-.042L74.8,289.4a3.91,3.91,0,0,1-.116-.607v-.39a1.664,1.664,0,0,0,0-.349.075.075,0,0,0-.05-.091c0-.116,0-.233,0-.341a4.443,4.443,0,0,0,.075-.714c0-.141-.2-.158-.241,0-.174.482-.282.989-.432,1.47-.091.291-.208.573-.307.831a12.476,12.476,0,0,0-1.57-.166l-.083-.124c-.166-.274-.274-.6-.44-.872a2,2,0,0,0,0-.382.166.166,0,0,0-.316-.083,2.078,2.078,0,0,0-.2.98,4.587,4.587,0,0,0,0,.473l-.424.042a.191.191,0,0,0-.05.366h.1a1.049,1.049,0,0,0-.05.149.474.474,0,0,0-.183.216v.091h0a.258.258,0,0,0-.266.307h0a1.744,1.744,0,0,0,.108.457h0a.314.314,0,0,0,0,.083,35.36,35.36,0,0,0,3.606,9.089,4.863,4.863,0,0,0,.98.831l.15.05c.349.44.714.881,1.014,1.329,1.3,1.936,2.542,3.888,3.971,5.724A38.531,38.531,0,0,0,90.7,317.664h0c.972.9,1.969,1.82,3.024,2.659a.4.4,0,0,0,0,.141,84.663,84.663,0,0,0,14.365-6.439c2.567-1.5,4.985-3.174,7.552-4.711.374-.233.773-.457,1.171-.681a23.569,23.569,0,0,0,2.243-5.051A.294.294,0,0,0,118.56,303.349Z" transform="translate(-11.885 -250.585)" fill="#db916b"/>
      <path id="Path_13316" data-name="Path 13316" d="M116.632,287.521c-.341-.316-.7-.631-1.063-.939l-.3-.257c-.307.158-.615.316-.906.482s-.582.274-.831.424a5.117,5.117,0,0,0-.98.573,15.96,15.96,0,0,0-6.4,8.142q-1.554,1.254-3.041,2.634a35.856,35.856,0,0,0-3.157,2.168,27.232,27.232,0,0,0-4.4,3.955.081.081,0,0,1-.042,0c-2.251-1.9-4.719-3.639-7-5.45-1.662-1.338-3.606-2.625-5.342-4.071l-.557-.482c-.432-.374-.831-.764-1.255-1.172a20.565,20.565,0,0,1,1.5-1.662,3.813,3.813,0,0,0,1.454-2.326,5.051,5.051,0,0,0-.465-2.11,2.707,2.707,0,0,0-1.014-2.692,4.255,4.255,0,0,0-.731-1.03.075.075,0,0,0-.125,0v.166l-.606-.573a11.9,11.9,0,0,1-.93-.889,1.263,1.263,0,0,0-1.487-.565c-.158,0-1.529.515-1.4.723a.616.616,0,0,0-.241-.241,2.019,2.019,0,0,0-2.11.249.732.732,0,0,0-.44-.316,3.033,3.033,0,0,0-2.21.49,2.152,2.152,0,0,0-2.409.357.415.415,0,0,0-.349.207c-.615,1.08-1.612,4.644.407,4.985a.7.7,0,0,0,.316,0,10.526,10.526,0,0,0,2.168,6.912,36.337,36.337,0,0,0,3.556,5.949,76.622,76.622,0,0,0,5.5,7.17,68.151,68.151,0,0,0,6.646,6.6c1.6,1.4,3.805,3.647,6,3.838a.547.547,0,0,0,.341-.091,9.743,9.743,0,0,0,3.323-.831,18.38,18.38,0,0,0,4.4-2.177.465.465,0,0,0,.133-.158l.831-.424c3.39-1.662,7.02-3.323,9.97-5.708a26.348,26.348,0,0,0,4.254-3.248l.233-.191.523-1.662c.042-.4.075-.831.108-1.2l-.291.183c.116-.2.224-.4.332-.6,0-.365.058-.739.091-1.1,0-1.969-.066-3.946-.133-5.915Q117.687,291.584,116.632,287.521Z" transform="translate(-11.678 -249.736)" fill="#dca47a"/>
      <path id="Path_13317" data-name="Path 13317" d="M227.084,281.538a2.285,2.285,0,0,0-1.554-1.545,1.464,1.464,0,0,0-.931.1h-.216a2.243,2.243,0,0,0-1.927-.133l-.249-.158a2.409,2.409,0,0,0-2.085-.067,1.661,1.661,0,0,0-1.944,0,2.8,2.8,0,0,0-.191-.449,1.57,1.57,0,0,0-1.662-.831c-.756.216-1.113,1.6-1.1,2.31h0c-1.2,2.177-2.493,4.985-1.878,7.477a4.669,4.669,0,0,0,1.321,2.268,19.885,19.885,0,0,1-2.094,2.808c-1.088,1.1-2.359,1.994-3.539,2.983a41.341,41.341,0,0,0-5.442,5.475,23.749,23.749,0,0,0-3.107-2.692c-2.135-1.437-4.478-2.858-6.48-4.47a28.034,28.034,0,0,1-2.584-2.675c-.415-.44-.831-.9-1.2-1.371a16.344,16.344,0,0,0-1.063-1.479c-.407-.415-.748-.748-1.146-1.113a19.515,19.515,0,0,0-4.154-2.758l-.058.1-.939,1.57.108.083a3.058,3.058,0,0,0-.382.357c-.133.224-.274.432-.415.648l-.2,1.014c-.15.723-.3,1.446-.44,2.168a45.135,45.135,0,0,0,1.088,13.177l.075.083a.626.626,0,0,0,0,.116c.05.208.091.424.15.631.216.233.44.457.656.7,3.5,3.647,8.15,5.749,12.645,7.918,1.761.831,3.531,1.7,5.309,2.492a25.254,25.254,0,0,0,4.52.831l.191-.124a57.3,57.3,0,0,0,4.785-3.573l.3-.249c3.323-3.7,5.724-8.167,8.433-12.3a50.422,50.422,0,0,0,3.73-7.386c.432-1.039,1.72-2.493,1.994-3.548a16.623,16.623,0,0,0,.631-3.44l.05-.05C226.843,286.032,227.641,282.95,227.084,281.538Z" transform="translate(-30.699 -249.169)" fill="#dca47a"/>
      <path id="Path_13318" data-name="Path 13318" d="M200.6,312.668c-.174-.066-.341-.141-.515-.224-1.055-.515-2.06-1.113-3.141-1.587a8.467,8.467,0,0,1-3.074-1.919,8.95,8.95,0,0,1-.6-.764c-.366-.307-.723-.632-1.08-.964a12.553,12.553,0,0,0,8.408,5.458Z" transform="translate(-32.516 -254.039)" fill="#db916b"/>
      <path id="Path_13319" data-name="Path 13319" d="M227.842,289.68h.067a.824.824,0,0,1,.174-.166l.507-.316a1.065,1.065,0,0,0,.141-.133.3.3,0,0,0,.075-.266l.4-.058c.241-.05.2-.366,0-.44a3.383,3.383,0,0,0-.5-.133h0c.116-.174-.083-.341-.249-.316a3.382,3.382,0,0,0-.681.241,9.5,9.5,0,0,1-1.886-.183,1.12,1.12,0,0,1-.158-.258c-.166-.391-.058-.831-.191-1.213h-.05a1.661,1.661,0,0,0-.341,1.014,25.211,25.211,0,0,1,1.869,2.775.241.241,0,0,0,.125-.183V290l.216-.158a.224.224,0,0,0,.208,0l.241-.116Z" transform="translate(-38.094 -250.525)" fill="#db916b"/>
      <path id="Path_13320" data-name="Path 13320" d="M225.362,295.213v-.041h0a.125.125,0,0,0-.233-.075v.042h0a.47.47,0,0,1-.042.066h0a.075.075,0,0,0-.1,0l.058-.133h0a30.467,30.467,0,0,0-1.7,3.007c-.573,1.005-1.138,2-1.662,3.041a.123.123,0,0,0,0,.05l-1.221,1.977s0,.066.058,0c.947-1.4,1.861-2.833,2.758-4.27h0q.3-.449.573-.922c.266-.432.54-.831.831-1.3a6.569,6.569,0,0,0,.606-.98v-.05h0a.316.316,0,0,0,0-.2h0v-.108Z" transform="translate(-37.3 -251.978)" fill="#db916b"/>
      <path id="Path_13321" data-name="Path 13321" d="M220.178,285.655l-.058.141h.066l.066-.125C220.286,285.647,220.2,285.605,220.178,285.655Z" transform="translate(-37.243 -250.388)" fill="#da906a"/>
      <path id="Path_13322" data-name="Path 13322" d="M221.147,290.391a4.156,4.156,0,0,0-.523-.681,6.443,6.443,0,0,1-.316-.731,8.9,8.9,0,0,1-.581-2.118,1.992,1.992,0,0,1-.075.374v-.066a.116.116,0,0,0-.233,0,4.288,4.288,0,0,0,0,1.894.216.216,0,0,0,0,.124,6.646,6.646,0,0,0,.523,1.72h0l.141-.133a3.425,3.425,0,0,0,.656.789,1.4,1.4,0,0,1-.739.432.116.116,0,0,0-.067.174c.457.665,1.288,0,1.487-.573A1.4,1.4,0,0,0,221.147,290.391Z" transform="translate(-37.106 -250.595)" fill="#da906a"/>
      <path id="Path_13323" data-name="Path 13323" d="M233.46,283.84Z" transform="translate(-39.5 -250.085)" fill="#da906a"/>
      <path id="Path_13324" data-name="Path 13324" d="M227.049,283.086a1.155,1.155,0,0,1-.723.424,1.105,1.105,0,0,1-.906-.307,1.247,1.247,0,0,1-.341-.54h0a1.553,1.553,0,0,1,.1-1.138h0a3.114,3.114,0,0,0,0-.557s0-.042-.041,0a4.063,4.063,0,0,0-.357,1.462,1.509,1.509,0,0,1-.05.465c-.283.2-.465.507-.831.64a1.238,1.238,0,0,1-1.662-.623h0c.083-.615.116-1.255.183-1.861h-.067a11.637,11.637,0,0,0-.415,1.853,2.169,2.169,0,0,1-1.387.141,1.28,1.28,0,0,1-.756-.532c.091-.54.266-1.055.341-1.6h0a5.1,5.1,0,0,0-.764,2.077.614.614,0,0,1-.183.116.831.831,0,0,1-.906.108l-.075-.05a3.456,3.456,0,0,0,.515-2.492,5.058,5.058,0,0,0-.789-3.963.457.457,0,0,0-.773.324,15.342,15.342,0,0,0,.565,2.617,2.538,2.538,0,0,1,0,.341,7.478,7.478,0,0,1-.075,1.72c-.133.665-.557,1.254-.374,1.944a.125.125,0,0,0,.066.091,3.632,3.632,0,0,0,.133,1.08,25.469,25.469,0,0,1,2.625,3.9,2.752,2.752,0,0,1,.773-.606h.091a.706.706,0,0,1,.183-.166,14.109,14.109,0,0,1,2.16-1.221.906.906,0,0,1,.673,0,4.024,4.024,0,0,0,.831-.64.964.964,0,0,0,.59.266.169.169,0,0,0,.041.108v.1a.668.668,0,0,0-.108.183c-.1.249-.183.515-.258.773-.631,1.437-.98,3.115-1.52,4.536-.216.565-.457,1.138-.673,1.72a42.577,42.577,0,0,0-2.7,4.362q-1.994,3.132-4.154,6.156a89.905,89.905,0,0,1-10.152,11.631.073.073,0,0,1-.058.066,54.793,54.793,0,0,1-8.806-4.752,64.247,64.247,0,0,1-8.416-6.231c-.341-.781-.673-1.554-1-2.335-.05-.116-.091-.249-.141-.365.258-.914.432-1.861.606-2.808a14.072,14.072,0,0,1,.9-1.13c.831-.922,1.77-1.753,2.625-2.642l.224-.166a.648.648,0,0,1-.075-.374l-.374.291a16.52,16.52,0,0,0-2.9,2.019c.1-.407.2-.831.332-1.2a35.57,35.57,0,0,1,2.21-4.985,17.447,17.447,0,0,0,2.875,3.614,25.579,25.579,0,0,1,2.642,1.479c-.224-.2-.44-.415-.665-.607a.632.632,0,0,1-.249-.565c-1.288-1.163-2.534-2.359-3.805-3.589l-.623-.7c.058-.108.108-.208.158-.316-.241-.249-.465-.5-.689-.748-.972,1.072-2,2.1-2.85,3.132-.357.432-.723.831-1.088,1.279l-.2.49c-.258.64-.49,1.288-.706,1.936a13.3,13.3,0,0,0-.407,1.911,41.348,41.348,0,0,0-.831,7.411c.216.5.449,1,.706,1.47.042.125.091.249.141.366a93.52,93.52,0,0,1,9.023,5.608c-1.2-1.047-2.492-1.994-3.73-3.016a.288.288,0,0,0-.066-.216,30.6,30.6,0,0,0,3.489,2.667c2.384,1.578,4.81,3.116,7.336,4.47a33.775,33.775,0,0,0,3.323,1.7,32.885,32.885,0,0,0,4.885-3.73,103.4,103.4,0,0,0,7.693-9.8c1.745-2.335,4.221-5.026,5.417-7.926a.5.5,0,0,0,.44-.216c1.063-1.579,1.412-3.805,2.035-5.608a.993.993,0,0,1,.108-.324,4.484,4.484,0,0,0,.6-1.5,9.419,9.419,0,0,0,.557-3.057.656.656,0,0,0-.216-.474.266.266,0,0,0,0-.224,1.6,1.6,0,0,0,.922-.349c.133-.69.291-1.379.357-2.077a7.858,7.858,0,0,1,.058-1.171A7.075,7.075,0,0,1,227.049,283.086Z" transform="translate(-31.229 -248.857)" fill="#da906a"/>
      <path id="Path_13325" data-name="Path 13325" d="M222.632,275.6c0-.174-.274-.233-.316-.05-.2.789-.3,1.6-.457,2.393a.363.363,0,0,0-.133.05c-.931.764-1.122,2.492-1.662,3.581S218.52,283.8,218,285.043c-.1.241.216.44.415.324a8.218,8.218,0,0,0,2.75-3.656c.208-.449.474-.964.681-1.5A8.574,8.574,0,0,0,222.632,275.6Z" transform="translate(-36.881 -248.663)" fill="#edb389"/>
      <path id="Path_13326" data-name="Path 13326" d="M229.4,279.955a.283.283,0,0,0-.357-.208c-.939.374-1.3,1.446-1.6,2.343s1.213,1.338,1.454.4A6.448,6.448,0,0,0,229.4,279.955Z" transform="translate(-38.474 -249.39)" fill="#edb389"/>
      <path id="Path_13327" data-name="Path 13327" d="M231.24,280.219a3.98,3.98,0,0,0-1.08,2.584c0,.831,1.363,1.105,1.529.208a7.978,7.978,0,0,1,.482-2.069C232.436,280.377,231.689,279.662,231.24,280.219Z" transform="translate(-38.941 -249.438)" fill="#edb389"/>
      <path id="Path_13328" data-name="Path 13328" d="M234.857,280.633a.457.457,0,0,0-.756-.2,4.1,4.1,0,0,0-.831,2.152.623.623,0,0,0,.457.6.648.648,0,0,0,.7-.283A2.667,2.667,0,0,0,234.857,280.633Z" transform="translate(-39.467 -249.486)" fill="#edb389"/>
      <path id="Path_13329" data-name="Path 13329" d="M227.1,280a.54.54,0,0,0-1.022,0,1.957,1.957,0,0,1-.075.3.557.557,0,0,0,.955.557A1.047,1.047,0,0,0,227.1,280Z" transform="translate(-38.229 -249.372)" fill="#edb389"/>
      <path id="Path_13330" data-name="Path 13330" d="M217.463,295.585a.78.78,0,0,1,.15-.208,9.288,9.288,0,0,1,.631-1.163.341.341,0,0,0,0-.091c0-.108-.166-.116-.216,0a5.443,5.443,0,0,1-.54,1.047c-.274.332-.59.631-.889.947l-.141.149.042-.058a.158.158,0,0,0-.241-.183c-1.122,1.1-2.193,2.252-3.323,3.323a32.673,32.673,0,0,0-3.589,3.606h0L208,304.142c.133.648.241,1.288.324,1.936.141.49.291.98.432,1.471.141.249.283.49.415.748a1.409,1.409,0,0,1,.108-.349,56.976,56.976,0,0,0,4.869-6.846c.773-1.155,1.554-2.31,2.3-3.473.125-.191.249-.382.366-.573A12.754,12.754,0,0,1,217.463,295.585Z" transform="translate(-35.192 -251.81)" fill="#edb389"/>
      <path id="Path_13331" data-name="Path 13331" d="M227.084,281.538a2.285,2.285,0,0,0-1.554-1.545,1.464,1.464,0,0,0-.931.1h-.216a2.243,2.243,0,0,0-1.927-.133l-.249-.158a2.409,2.409,0,0,0-2.085-.067,1.661,1.661,0,0,0-1.944,0,2.8,2.8,0,0,0-.191-.449,1.57,1.57,0,0,0-1.662-.831c-.756.216-1.113,1.6-1.1,2.31h0c-1.2,2.177-2.493,4.985-1.878,7.477a4.669,4.669,0,0,0,1.321,2.268,19.885,19.885,0,0,1-2.094,2.808c-1.088,1.1-2.359,1.994-3.539,2.983a41.341,41.341,0,0,0-5.442,5.475,23.749,23.749,0,0,0-3.107-2.692c-2.135-1.437-4.478-2.858-6.48-4.47a28.034,28.034,0,0,1-2.584-2.675c-.415-.44-.831-.9-1.2-1.371a16.344,16.344,0,0,0-1.063-1.479c-.407-.415-.748-.748-1.146-1.113a19.515,19.515,0,0,0-4.154-2.758l-.058.1-.939,1.57.108.083a3.058,3.058,0,0,0-.382.357c-.133.224-.274.432-.415.648l-.2,1.014c-.15.723-.3,1.446-.44,2.168a45.135,45.135,0,0,0,1.088,13.177l.075.083a.626.626,0,0,0,0,.116c.05.208.091.424.15.631.216.233.44.457.656.7,3.5,3.647,8.15,5.749,12.645,7.918,1.761.831,3.531,1.7,5.309,2.492a25.254,25.254,0,0,0,4.52.831l.191-.124a57.3,57.3,0,0,0,4.785-3.573l.3-.249c3.323-3.7,5.724-8.167,8.433-12.3a50.422,50.422,0,0,0,3.73-7.386c.432-1.039,1.72-2.493,1.994-3.548a16.623,16.623,0,0,0,.631-3.44l.05-.05C226.843,286.032,227.641,282.95,227.084,281.538Z" transform="translate(-30.699 -249.169)" fill="#dca47a"/>
      <path id="Path_13332" data-name="Path 13332" d="M37.85,285.71a.9.9,0,0,1-.091-.349c-.05-1.662-.224-3.323-.2-4.943a.661.661,0,0,0-.258,0,1.355,1.355,0,0,0-.382.058h0a.141.141,0,0,0,0-.058H33.273a1.246,1.246,0,0,0-.532,1.03,1.337,1.337,0,0,0,.058.307,10.926,10.926,0,0,0,0,1.454,8.153,8.153,0,0,0,0,1.105,40.848,40.848,0,0,0-6.214-.1c-2.177,0-4.578-.3-6.7.224.174,2.11.174,4.262.249,6.314a2.632,2.632,0,0,0,.042.548,35.2,35.2,0,0,0,6.48.158c2.094.008,4.486.366,6.522-.191,0,1.014.058,2.035.05,3.057a1.33,1.33,0,0,0,.307.939h4.3v-1.736l-.158-.108c.066-.316.116-.64.158-.972Z" transform="translate(-3.365 -249.503)" fill="#b8c5d6" fill-rule="evenodd"/>
      <path id="Path_13333" data-name="Path 13333" d="M77.687,289.146a2.626,2.626,0,0,1-1.994.349.781.781,0,0,1-.756-.773v-.091h0a1.662,1.662,0,0,1-2.31.424l-.158-.125a1.931,1.931,0,0,1-2.717-.216.723.723,0,0,1-1.1.432l-.05-.042a.748.748,0,0,1-.623-.1,1.321,1.321,0,0,1-.922-1.271,3.1,3.1,0,0,1-.307-1.047.133.133,0,0,0-.108-.058,42.963,42.963,0,0,0-5.666-.125c-1.055,0-2.285-.124-3.44-.058v3.365h9.122a.772.772,0,0,1,.324.067h10.36c.133-.208.258-.424.39-.64Z" transform="translate(-9.733 -250.522)" fill="#b8c5d6" fill-rule="evenodd"/>
      <path id="Path_13334" data-name="Path 13334" d="M230.231,287.376a.328.328,0,0,1-.083-.066,1.9,1.9,0,0,1-1.6,0,1.38,1.38,0,0,1-.9.241,1.5,1.5,0,0,1-.69-.2,1.472,1.472,0,0,1-.457.224.923.923,0,0,1-.831-.175,1.741,1.741,0,0,0,.067.282v.158l.066.083,6.148-.116a1,1,0,0,1-.175-.141A1.886,1.886,0,0,1,230.231,287.376Z" transform="translate(-38.182 -250.672)" fill="#b8c5d6" fill-rule="evenodd"/>
      <path id="Path_13335" data-name="Path 13335" d="M113.95,289.52a24.866,24.866,0,0,1,7.61-3.5c-5.691-.307-11.473,0-17.156,0H95.49c-3.124,0-6.339-.2-9.455.091a.083.083,0,0,0-.058,0,1.03,1.03,0,0,0-.39,0,3.746,3.746,0,0,0,.548,2.335,7.879,7.879,0,0,0,.831,1.2h23.055a.746.746,0,0,1,.332,0H113.8Z" transform="translate(-14.478 -250.431)" fill="#b8c5d6" fill-rule="evenodd"/>
      <path id="Path_13336" data-name="Path 13336" d="M210.9,283.666H188.341c-1.072,0-2.193-.075-3.323-.058h0a.125.125,0,0,0-.108,0,10.792,10.792,0,0,0-2.143.249c-.382,0-.748-.066-1.08-.075a12.735,12.735,0,0,0-1.786.1,44.328,44.328,0,0,1,5.816,2.492,15.666,15.666,0,0,1,1.578.831h25.755a4.27,4.27,0,0,1,.066-.831,5.617,5.617,0,0,1,.964-2.659Z" transform="translate(-30.438 -250.043)" fill="#b8c5d6" fill-rule="evenodd"/>
      <path id="Path_13337" data-name="Path 13337" d="M250.791,283.4c-1.1.05-2.2.158-3.157.175a56.807,56.807,0,0,0-5.816.075c-1.869,0-3.747,0-5.591.05,0,1.255-.382,2.9-1.487,3.423,3.539-.075,7.079-.158,10.618-.291l.972.133h4.437Z" transform="translate(-39.717 -250.01)" fill="#b8c5d6" fill-rule="evenodd"/>
      <path id="Path_13338" data-name="Path 13338" d="M133.1,371.527c-1.421.133-2.833.291-4.245.465-.515,3.539.208,7.793.49,10.676a32.448,32.448,0,0,0,1.662,8.607c.341,1.786.665,3.573.831,5.392.316,2.85-.058,5.965.174,8.89-.548,2.069-1.313,4.088-1.944,6.231a25.983,25.983,0,0,0-.573,9.97c.341,3.705.831,7.394,1.238,11.091.291,2.492.332,5.251.748,7.843a26.576,26.576,0,0,0,0,2.725c.075,1.512,0,4.719,1.147,6.023a3.955,3.955,0,0,0,.349.98.54.54,0,0,0,.914.058,4.436,4.436,0,0,0,5.168-.116A6,6,0,0,0,140.4,448.7c.5.274,1.213.175,1.313-.5a18.662,18.662,0,0,0,.174-3.913c.349-2.227-.066-4.578.091-6.846.1-1.363.581-2.908.756-4.4.382-.889.706-1.8,1.022-2.675a13.875,13.875,0,0,0,1.288-4.154,24.4,24.4,0,0,0,.548-4.063,15.992,15.992,0,0,0,.125-3.39c.075-3.082,0-6.7-1.263-9.4a20.53,20.53,0,0,0,1.138-8.923.834.834,0,0,0,.291-.174c3.107-2.949,3.2-9.139,3.548-13.177a58.9,58.9,0,0,0,.374-8.906.259.259,0,0,1,0-.066,7.38,7.38,0,0,1,0-1.354,10.616,10.616,0,0,1,.05-1.263,4.871,4.871,0,0,0-.158-1.429.756.756,0,0,1,.831-.956c.075-.831.216-1.662.249-2.492h-.573C144.555,370.68,138.823,371,133.1,371.527Z" transform="translate(-21.771 -264.769)" fill="#dca47a"/>
      <path id="Path_13339" data-name="Path 13339" d="M151.109,382.4a20.942,20.942,0,0,0-1.454-6.929c-.058-.125-.183-.1-.258,0-.075-.125-.133-.249-.216-.366s-.474-.2-.523.066a6,6,0,0,0-.108.831.15.15,0,0,0-.05.075c-.482,2.285.133,4.794.374,7.1.133,1.221.249,2.451.424,3.681,0,.515-.041,1.039-.075,1.562a55.467,55.467,0,0,1-1.736,9.787,7.937,7.937,0,0,0-.831,1.3,1.961,1.961,0,0,1-1.446.739,2.783,2.783,0,0,1-2.293-1.537h-.05c.631.906,1.346,1.969,2.36,2.227a18.525,18.525,0,0,0-.407,3.39c-.1.981-.233,1.961-.349,2.941a9.411,9.411,0,0,1-.681,1.271,12.732,12.732,0,0,1-1.77,2.168,17.71,17.71,0,0,1-1.221,1.662c-.756,5.724-.756,11.581-.939,17.331a.2.2,0,1,0,.4-.05c-.05-.3-.058-.756-.091-1.13a6.764,6.764,0,0,0,.216-.881c.125-.831.158-1.728.216-2.584.108-1.545.216-3.091.332-4.636.208-2.9.49-5.816.54-8.723a8.493,8.493,0,0,0,3-2.783,16.249,16.249,0,0,0,.282,4.4c.224,2.626.831,5.268,1.08,7.868-.54,2.567-.606,5.209-1.462,7.768-.9,2.7-2.035,5.284-2.708,8.059a.341.341,0,0,0,.216.382,29.562,29.562,0,0,0-.341,5.242c0,1.238,0,2.492.066,3.772a8.82,8.82,0,0,1-2.052,2.218c-2.135,1.5-4.029,1.171-6.339.341-.133-.05-.216.108-.166.216.964,2.01,3.556,2.251,5.533,1.662a.523.523,0,0,0,.523.54,4.2,4.2,0,0,0,2.841-2.052,15.942,15.942,0,0,0,.606,2.326.357.357,0,0,0,.7-.091c.158-1.52.174-3.049.191-4.569a6.5,6.5,0,0,0,1-2.966.415.415,0,0,0-.7-.291l-.224.224a6.082,6.082,0,0,1,.083-1.23,75.762,75.762,0,0,1,1.529-8.831,25.756,25.756,0,0,0,2.177-10.8,47.085,47.085,0,0,0-1.3-10.177,63.139,63.139,0,0,0,.648-6.646c.1-.906.208-1.811.366-2.708a.424.424,0,0,0,.208-.183,23.622,23.622,0,0,0,2.418-6.381c.133-.341.249-.673.349-.989a.382.382,0,0,0-.05-.341c.291-1.512.5-3.041.648-4.545a.282.282,0,0,0,.349-.208c.058-.382.1-.773.133-1.163C151.64,387.462,151.333,384.82,151.109,382.4Z" transform="translate(-22.509 -265.508)" fill="#db916b"/>
      <path id="Path_13340" data-name="Path 13340" d="M142.131,397.968a11.05,11.05,0,0,1-1.188,3.572,26.927,26.927,0,0,1-2.492,2.567h0c2.733-1.047,3.822-3.323,4.046-6.115C142.538,397.777,142.23,397.736,142.131,397.968Z" transform="translate(-23.425 -269.368)" fill="#db916b"/>
      <path id="Path_13341" data-name="Path 13341" d="M134.456,398.914c-1.113-3.88-2.492-7.669-3.473-11.631-1.038-4.27-.972-8.433-1.387-12.753a.158.158,0,0,0-.307-.041c-.947,3.705-.216,7.868.474,11.573a78.6,78.6,0,0,0,3.631,13.11C133.633,399.861,134.655,399.6,134.456,398.914Z" transform="translate(-21.797 -265.403)" fill="#dca47a"/>
      <path id="Path_13342" data-name="Path 13342" d="M133.9,397.81c-.366-.831-.69-1.736-1-2.617h0q-.191-.482-.349-.972c-.058-.149-.108-.3-.166-.457-.208-1.047-.432-2.1-.656-3.149-.3-2.575-.731-5.143-.831-7.768-.125-3.373.54-7.17-.258-10.443a.108.108,0,0,0-.208,0,13.508,13.508,0,0,0-.7,3.323c-.05-.407-.1-.831-.158-1.213v-.075a.357.357,0,0,0-.6-.158c-.789.931-.432,2.492-.382,3.655.1,2.584.415,5.159.748,7.727.382,3.007.681,6.239,2.31,8.84,0,1.9.075,3.78.125,5.683,0,1.5-.125,3.016,0,4.5a39.052,39.052,0,0,0-2.625,9.213,37.261,37.261,0,0,0-.3,11.083c.424,4.154,1.147,8.192,1.454,12.321.291,3.83,0,7.81.69,11.581a.224.224,0,0,0,.432,0c.748-3.564.382-7.477.191-11.058-.208-3.963-.607-7.893-1-11.831a39.525,39.525,0,0,1,.116-11.631c.266-1.387.673-2.783,1.063-4.154-.116,2.384-.158,4.777-.191,7.136a100.333,100.333,0,0,0,.939,14.722c0,.133.241.108.233,0-.133-2.443-.39-4.885-.532-7.336s.1-4.91.091-7.353c0-3.988.648-8.125.6-12.13a20.4,20.4,0,0,0-.216-8.308c.083,0,.183-.05.166-.141s-.05-.4-.083-.6c.332.615.681,1.213,1.039,1.778a.091.091,0,0,0,.05-.175Z" transform="translate(-21.737 -265.056)" fill="#edb389"/>
      <path id="Path_13343" data-name="Path 13343" d="M140.791,414.712c-.374-.74-1.3-1.08-1.836-1.728-.931-1.121-1.005-2.758-1.072-4.154h0a7.9,7.9,0,0,0,.366,4.578c.374.922,1.246,2.1,2.343,1.886a.407.407,0,0,0,.2-.582Z" transform="translate(-23.297 -271.232)" fill="#edb389"/>
      <path id="Path_13344" data-name="Path 13344" d="M133.1,371.527c-1.421.133-2.833.291-4.245.465-.515,3.539.208,7.793.49,10.676a32.448,32.448,0,0,0,1.662,8.607c.341,1.786.665,3.573.831,5.392.316,2.85-.058,5.965.174,8.89-.548,2.069-1.313,4.088-1.944,6.231a25.983,25.983,0,0,0-.573,9.97c.341,3.705.831,7.394,1.238,11.091.291,2.492.332,5.251.748,7.843a26.576,26.576,0,0,0,0,2.725c.075,1.512,0,4.719,1.147,6.023a3.955,3.955,0,0,0,.349.98.54.54,0,0,0,.914.058,4.436,4.436,0,0,0,5.168-.116A6,6,0,0,0,140.4,448.7c.5.274,1.213.175,1.313-.5a18.662,18.662,0,0,0,.174-3.913c.349-2.227-.066-4.578.091-6.846.1-1.363.581-2.908.756-4.4.382-.889.706-1.8,1.022-2.675a13.875,13.875,0,0,0,1.288-4.154,24.4,24.4,0,0,0,.548-4.063,15.992,15.992,0,0,0,.125-3.39c.075-3.082,0-6.7-1.263-9.4a20.53,20.53,0,0,0,1.138-8.923.834.834,0,0,0,.291-.174c3.107-2.949,3.2-9.139,3.548-13.177a58.9,58.9,0,0,0,.374-8.906.259.259,0,0,1,0-.066,7.38,7.38,0,0,1,0-1.354,10.616,10.616,0,0,1,.05-1.263,4.871,4.871,0,0,0-.158-1.429.756.756,0,0,1,.831-.956c.075-.831.216-1.662.249-2.492h-.573C144.555,370.68,138.823,371,133.1,371.527Z" transform="translate(-21.771 -264.769)" fill="#dca47a"/>
      <path id="Path_13345" data-name="Path 13345" d="M183.253,440.355a17.838,17.838,0,0,0-.174-5.591v-2.924a23.9,23.9,0,0,0,.457-4.486,48.091,48.091,0,0,0-.54-8.94,3.852,3.852,0,0,0-.058-.432v-.831a23.511,23.511,0,0,0-.947-6.838c-.183-.557-.4-1.1-.631-1.662a11.485,11.485,0,0,0-1.213-2.908c-.083-3.955-1.271-7.959-1.421-11.914s.54-8.15-.291-12.022v-.316a48.262,48.262,0,0,0-.482-8.707c-2.941-.324-5.866-.831-8.773-1.138-3.788-.407-7.585-.739-11.39-.964a.507.507,0,0,1,0,.116.93.93,0,0,0-.3.39c-.066-.191-.15-.366-.224-.54h-1.4a20.064,20.064,0,0,0,.415,3.423,4.984,4.984,0,0,1,.706,3.323q.49,2.243,1.022,4.486c.125,3.373,1.429,7.062,2.251,9.97.748,2.642,1.853,6.472,3.955,8.782a39.1,39.1,0,0,0,1.412,5.973,22.235,22.235,0,0,0,1.554,3.913,1.768,1.768,0,0,1-.041.465,54.212,54.212,0,0,0,.1,9.853c.233,2.393.382,5.026,1.421,7.228a41.651,41.651,0,0,0,3,4.719l.05.391c.4,2.9.715,6.023,1.961,8.707a8.76,8.76,0,0,0,.05,1.138c0,2.152-.2,4.436.474,6.5.208.648,1.363.831,1.479,0a7.106,7.106,0,0,1,.075-.723h0a22.412,22.412,0,0,0,2.792.291,5.817,5.817,0,0,0,2.866-.316,1.012,1.012,0,0,0,.208-.141,1.063,1.063,0,0,0,2.01-.44,45.3,45.3,0,0,0-.382-5.708,16.41,16.41,0,0,0,.008-2.127Z" transform="translate(-26.373 -264.772)" fill="#dca47a"/>
      <path id="Path_13346" data-name="Path 13346" d="M184.382,436.35c2.775-9.612.648-18.851-2.343-28.081a54.768,54.768,0,0,1-2.875-14.124c0-.374.067-.739.083-1.1a.15.15,0,0,0-.149-.158c-.125-4.919.39-10.044-.4-14.9a.341.341,0,0,0-.258-.274,11.866,11.866,0,0,0-.515-2.077.15.15,0,0,0-.283,0c-.075.233-.149.482-.208.723-.091-.241-.191-.482-.291-.714s-.407-.083-.424.116a14.861,14.861,0,0,0-.041,2.019c-.9-.116-1.795-.191-2.7-.258a1.3,1.3,0,0,0-.615,0,61.138,61.138,0,0,0-6.646,0l-.723.041a20.351,20.351,0,0,0-6.406.4.9.9,0,0,0,0-.15l.3-3.323c0-.083-.125-.1-.149,0-.058.282-.116.557-.166.831a8.26,8.26,0,0,0-.042-1.014.1.1,0,0,0-.191,0c-.075.565-.133,1.138-.183,1.711V374.58a.059.059,0,0,0-.116,0l-.125.964c0-.083-.166-.116-.191,0s-.083.432-.116.648v-1.346a.116.116,0,0,0-.208-.05v-.116a.071.071,0,0,0-.141,0c-.108.515-.191,1.047-.258,1.579v-1.388c0-.133-.183-.125-.2,0a54.932,54.932,0,0,0-.158,7.668,38.668,38.668,0,0,0,.6,6.646c.091.715.216,1.429.366,2.135a.108.108,0,0,0,.083.075,4.746,4.746,0,0,0,.108.756.183.183,0,0,0,.15.15c.042.283.083.557.133.831a.166.166,0,0,0,.332,0,2.255,2.255,0,0,1,0-.241l.141.3a.158.158,0,0,0,.282-.116,6.99,6.99,0,0,1-.274-1.221,7.044,7.044,0,0,0,.565,1.047c.083.116.274.05.233-.091a33.312,33.312,0,0,1-.931-4.462v-4.378c0-1.454.058-3.124.091-4.686a19.94,19.94,0,0,1,3.016-.7c1.662-.216,3.323-.341,4.935-.415a65.506,65.506,0,0,1,7.876.2,7.494,7.494,0,0,1,.9.2l.332.125h.116c.066.922.166,1.844.233,2.767s.05,1.662.083,2.492c0,1.811-.041,3.622,0,5.425-.216,3.805-.889,7.61-.831,11.382a.515.515,0,0,0,.058.241c-.1.424-.2.831-.282,1.28h.066a.505.505,0,0,1,0-.1h0c.05-.058.083-.116.125-.174-.1.291-.208.59-.316.881a.042.042,0,1,0,.083,0l.2-.457h.075a14.021,14.021,0,0,0,1.678-2.883v.058a39.315,39.315,0,0,0,.922,6.646v.125a73.017,73.017,0,0,0,1.321,13.949c0,.15.274.116.258,0-.258-2.634-.565-5.267-.781-7.9-.041-.5-.066-1-.1-1.5a.158.158,0,0,0,.116-.141v-.5a111.722,111.722,0,0,1,1.9,11.44,122.4,122.4,0,0,1,.1,13.293c0,3.215-.341,7.261.831,10.435a23.805,23.805,0,0,0,0,2.667,7.547,7.547,0,0,0,0,2.767,16.619,16.619,0,0,0,.831,4.312c.067.191.4.183.374-.05-.1-1.121-.249-2.227-.374-3.323.075.15.141.291.224.424a.44.44,0,0,0,.831-.216,26.4,26.4,0,0,0-.565-4.1l-.15-1.1a.747.747,0,0,0,.507-.631c.166-2.168-.382-4.387-.482-6.572-.05-1.014-.067-2.035-.067-3.057a.5.5,0,0,0,.814-.233Z" transform="translate(-26.662 -265.379)" fill="#db916b"/>
      <path id="Path_13347" data-name="Path 13347" d="M179,418.035h-.1l.05-.108c.05-.141-.141-.307-.274-.208a4.157,4.157,0,0,1-1.479.889h-.108a5.125,5.125,0,0,1-.615,0c-.324,0-.648-.1-1.005-.116h0a3.813,3.813,0,0,1-1.371-1.662h0a2.376,2.376,0,0,0,1.662,2.21h.066l.15.066a2.949,2.949,0,0,0,2.409-.474,2.655,2.655,0,0,0,.773-.465.158.158,0,0,0,0-.15C179.2,418.1,179.135,417.976,179,418.035Z" transform="translate(-29.456 -272.585)" fill="#db916b"/>
      <path id="Path_13348" data-name="Path 13348" d="M173.641,409.066a3.606,3.606,0,0,1-3.921.507,2.733,2.733,0,0,0,3.257,1.163,2.767,2.767,0,0,0,1.363-1.662,12.361,12.361,0,0,0,.606-1.745A6.039,6.039,0,0,1,173.641,409.066Z" transform="translate(-28.715 -270.978)" fill="#db916b"/>
      <path id="Path_13349" data-name="Path 13349" d="M174.518,447.011c-.465-2.235-.565-4.57-1.529-6.647a40.078,40.078,0,0,1-2.841-6.58c-.623-2.368-.64-4.528-1.03-6.8h-.067c-1,4.154.773,9.006,2.609,12.711,1.221,2.492,1.4,4.935,1.969,7.577a31.4,31.4,0,0,0,2.193,6.746c.091.208.382.05.349-.149C175.764,451.539,175.008,449.3,174.518,447.011Z" transform="translate(-28.554 -274.303)" fill="#db916b"/>
      <path id="Path_13350" data-name="Path 13350" d="M169.492,415.021a1.5,1.5,0,0,0-.05-.183h0a.083.083,0,0,0,0-.083v-.174a.092.092,0,0,1,0-.042.083.083,0,0,0-.05-.091,36.8,36.8,0,0,0-1.6-3.814c-.191-.565-.366-1.138-.515-1.711a38.739,38.739,0,0,1-.756-4.22,8.735,8.735,0,0,0-.116-.922h0a.894.894,0,0,0-.066-.415c-.066-.133-.042,0-.042,0v.6l-.125-.175h0c-.7-1.4-1.894-2.559-2.667-3.946a23.311,23.311,0,0,1-1.919-4.495c-.98-3.19-1.022-6.347-1.3-9.629a.083.083,0,0,0-.158,0c-.831,3.215-.208,6.945.748,10.069a24.6,24.6,0,0,0,1.894,4.5,13.368,13.368,0,0,0,2.609,3.681c-.174,1.878.615,3.971,1.18,5.716a33.834,33.834,0,0,0,1.387,3.805,5.207,5.207,0,0,0-.175,1.1v.233a12.594,12.594,0,0,0-.2,1.8c-.075.789-.133,1.587-.183,2.376-.042.615-.066,1.238-.091,1.869a11.018,11.018,0,0,0,0,1.479v.075a22.379,22.379,0,0,0,.266,4.719c0,.2.324.15.341,0a.174.174,0,0,0,.332-.083c0-1.429-.075-2.841-.1-4.262.175-1.147.316-2.293.515-3.431.166-.947.44-1.919.615-2.891.075-.332.15-.665.233-1a.316.316,0,0,0,0-.457Z" transform="translate(-27.026 -267.312)" fill="#edb389"/>
      <path id="Path_13351" data-name="Path 13351" d="M177.376,455.234a12.342,12.342,0,0,0-.457-1.155v-.041c-.606-2.808-1.146-5.674-1.836-8.466a.091.091,0,1,0-.183,0,21.437,21.437,0,0,0,.748,5.1,11.721,11.721,0,0,0,.581,2.725c.241,1.362.49,2.717.607,4.088s-.125,2.775,0,4.154a.224.224,0,0,0,.44.067,6.838,6.838,0,0,0,.39-2.434A8.648,8.648,0,0,0,177.376,455.234Z" transform="translate(-29.592 -277.433)" fill="#edb389"/>
      <path id="Path_13352" data-name="Path 13352" d="M167.952,401.592a21.887,21.887,0,0,1-3.514-6.389,18.278,18.278,0,0,1-1.354-7.353h-.058c-.6,2.65.125,5.251,1.039,7.751.764,2.119,1.662,5.035,3.548,6.439C167.886,402.24,168.168,401.816,167.952,401.592Z" transform="translate(-27.546 -267.682)" fill="#edb389"/>
      <path id="Path_13353" data-name="Path 13353" d="M179.425,431.715a30.86,30.86,0,0,0-1.961-8.042.174.174,0,0,0-.324.091c.274,2.551,1.138,5.076,1.529,7.627.44,2.866.631,5.749.947,8.624a.191.191,0,1,0,.382,0A38.594,38.594,0,0,0,179.425,431.715Z" transform="translate(-29.971 -273.729)" fill="#edb389"/>
      <path id="Path_13354" data-name="Path 13354" d="M183.253,440.355a17.838,17.838,0,0,0-.174-5.591v-2.924a23.9,23.9,0,0,0,.457-4.486,48.091,48.091,0,0,0-.54-8.94,3.852,3.852,0,0,0-.058-.432v-.831a23.511,23.511,0,0,0-.947-6.838c-.183-.557-.4-1.1-.631-1.662a11.485,11.485,0,0,0-1.213-2.908c-.083-3.955-1.271-7.959-1.421-11.914s.54-8.15-.291-12.022v-.316a48.262,48.262,0,0,0-.482-8.707c-2.941-.324-5.866-.831-8.773-1.138-3.788-.407-7.585-.739-11.39-.964a.507.507,0,0,1,0,.116.93.93,0,0,0-.3.39c-.066-.191-.15-.366-.224-.54h-1.4a20.064,20.064,0,0,0,.415,3.423,4.984,4.984,0,0,1,.706,3.323q.49,2.243,1.022,4.486c.125,3.373,1.429,7.062,2.251,9.97.748,2.642,1.853,6.472,3.955,8.782a39.1,39.1,0,0,0,1.412,5.973,22.235,22.235,0,0,0,1.554,3.913,1.768,1.768,0,0,1-.041.465,54.212,54.212,0,0,0,.1,9.853c.233,2.393.382,5.026,1.421,7.228a41.651,41.651,0,0,0,3,4.719l.05.391c.4,2.9.715,6.023,1.961,8.707a8.76,8.76,0,0,0,.05,1.138c0,2.152-.2,4.436.474,6.5.208.648,1.363.831,1.479,0a7.106,7.106,0,0,1,.075-.723h0a22.412,22.412,0,0,0,2.792.291,5.817,5.817,0,0,0,2.866-.316,1.012,1.012,0,0,0,.208-.141,1.063,1.063,0,0,0,2.01-.44,45.3,45.3,0,0,0-.382-5.708,16.41,16.41,0,0,0,.008-2.127Z" transform="translate(-26.373 -264.772)" fill="#dca47a"/>
      <path id="Path_13355" data-name="Path 13355" d="M137.49,277.61a49.532,49.532,0,0,0,4.113,7.826l.2.291a.91.91,0,0,1,.208.166c2.609,2.933,5.134,5.957,8,8.64a2.326,2.326,0,0,1,.6,1.088,36.847,36.847,0,0,0,2.659,2.916c.258.266.49.548.731.831.05-.382.108-.656.191-.557,2.492-2.667,4.154-6.14,5.708-9.38q1.047-2.135,1.961-4.3a.474.474,0,0,0,.233-.15c.665-1.8,1.363-3.605,2.035-5.408a2.22,2.22,0,0,0,0-.332h.116c.316-.831.615-1.662.914-2.492q-1.77-.4-3.589-.648c0-.44,0-.872.042-1.3a33.534,33.534,0,0,0-.366-7.22,20.642,20.642,0,0,0,.224-2.285.831.831,0,0,0,.748-.233,3.731,3.731,0,0,0,.739-2.493,9.9,9.9,0,0,0,.042-1.72,7.2,7.2,0,0,0,.083-1.4.739.739,0,0,0-1.371-.374,2.312,2.312,0,0,0-.125.249.618.618,0,0,0-.108.05,22.836,22.836,0,0,0-.407-4.644,4.686,4.686,0,0,0-.606-2.235,3.433,3.433,0,0,0-.764-1.08.515.515,0,0,0-.723,0,1.936,1.936,0,0,0-1.039-.69,1.138,1.138,0,0,0-.914.133c-1.18,0-2.285.914-3.232,1.5-.341.216-.723.424-1.105.648a13.494,13.494,0,0,0-1.745-.125l-.606-.274a13.771,13.771,0,0,0-1.221-.714,6.612,6.612,0,0,0-3.041-1.662,3.556,3.556,0,0,0-.607,0,1.662,1.662,0,0,0-1.063.133l-.091.05c-1.263.324-2.584,1.055-2.941,2.011-1.18,1.537-1.313,4.6-1.454,6.14a.515.515,0,0,0,0,.108l.307,1.03a1.147,1.147,0,0,0-1-.59.515.515,0,0,0-.457.258c-.39.706.058,1.562.15,2.31.125.972.224,1.944.316,2.916a1.047,1.047,0,0,0,1.5.881c-.3.133,0,2.443,0,2.783-.067,1.188-.291,2.359-.366,3.548,0,.432.141,5.068.258,5.026l-.557.2C139.152,277.211,138.321,277.4,137.49,277.61Z" transform="translate(-23.261 -244.394)" fill="#dca47a"/>
      <path id="Path_13356" data-name="Path 13356" d="M167.8,281.907a2.717,2.717,0,0,0-2.1-1.2c-1.022-.174-2.06-.349-3.091-.507a10.8,10.8,0,0,0,.2-1.728c.249-.191.507-.391.756-.6a.623.623,0,0,0-.233-1.014,2.491,2.491,0,0,0,.6-.748.415.415,0,0,0-.457-.6,4.046,4.046,0,0,0-1.662,1.338,7.249,7.249,0,0,0-.648.789,5.845,5.845,0,0,0-.349.681l-.54.382a.374.374,0,0,0-.15.058c-1.014.64-1.977,1.379-2.941,2.11l-1.545,1.047-.091.066a2.393,2.393,0,0,0-1.063.366c-.382.166-.831.125-1.18.282a12.291,12.291,0,0,0-2.9-1.986c-1.387-.831-2.8-1.761-4.221-2.592a7.827,7.827,0,0,0-.831-.59l-.482-.415a8.256,8.256,0,0,0-.831-1.2h0a7.394,7.394,0,0,0,1.2,2.717,9.075,9.075,0,0,0,1.471,2.152c.623.881,1.2,1.794,1.836,2.675.989,1.371,2.384,3.365,4.154,3.739a8.311,8.311,0,0,0,.391,2.384.224.224,0,0,0,.241.149.977.977,0,0,0,.15-.108.216.216,0,0,0,.05-.108h0c.15-.141.3-.291.44-.449a.169.169,0,0,0,0-.05.832.832,0,0,1,.274-.291,32.575,32.575,0,0,0,2.634-3.606,39.065,39.065,0,0,0,2.243-3.631l1.014-.831.183-.15.665-.5h.307a2.549,2.549,0,0,1,.141.257c.083.175.116.374.183.557a2.222,2.222,0,0,1,0,.665,26.5,26.5,0,0,1-.831,2.958,44.17,44.17,0,0,1-3.049,7.02.116.116,0,0,0,.2.116,26.379,26.379,0,0,0,3.439-6.979,30.3,30.3,0,0,0,1.047-3.747,8.3,8.3,0,0,0,1.662.349,8.567,8.567,0,0,1,3.44,1C167.714,282.214,167.88,282.04,167.8,281.907Z" transform="translate(-24.365 -248.674)" fill="#db916b"/>
      <path id="Path_13357" data-name="Path 13357" d="M145.876,292.464q-1.662-2.268-3.215-4.569a20.977,20.977,0,0,0-3.98-4.935.182.182,0,0,0-.116,0,.191.191,0,0,0-.316.183,1.72,1.72,0,0,0,.515.789c.282.291.557.607.831.872h0c.906,1.188,1.836,2.36,2.684,3.589.939,1.371,1.9,2.742,2.875,4.1Z" transform="translate(-23.389 -249.927)" fill="#db916b"/>
      <path id="Path_13358" data-name="Path 13358" d="M156.593,306.69c-2.152-2.941-4.445-5.816-6.646-8.69h-.756a113.952,113.952,0,0,0,7.029,8.989C156.393,307.139,156.759,306.906,156.593,306.69Z" transform="translate(-25.241 -252.48)" fill="#db916b"/>
      <path id="Path_13359" data-name="Path 13359" d="M145.816,291.1c.1.191.216.365.332.548.831.282,1.662.548,2.434.831a20.386,20.386,0,0,1,2.027.249l.648.141a3.772,3.772,0,0,0,3.232-1.753.449.449,0,0,0-.5-.648l-.166.075c-1.421,1.736-3.39,1.213-5.267-.216a23.822,23.822,0,0,1-4.877-4.627,12.616,12.616,0,0,1-2.493-4.27c-.083-.872-.2-1.728-.224-2.6a31.425,31.425,0,0,0,0-3.19h0a.058.058,0,0,0,0-.042h0a.15.15,0,0,0-.291,0,10.941,10.941,0,0,0-.133,5.55h0c-.066-.125-.233-.042-.233.075l-.125-.249c-.066-.15-.266,0-.241.1s0,.091,0,.141h-.05a2.774,2.774,0,0,0-.307-.44.224.224,0,0,0-.349,0,4.839,4.839,0,0,0-.615-.474.075.075,0,0,0-.108.083.133.133,0,0,0-.091.083c-.2.631.391,1.2.831,1.662.789,1.321,1.927,2.542,2.775,3.705,1.122,1.52,2.16,3.124,3.323,4.594A3.633,3.633,0,0,1,145.816,291.1Z" transform="translate(-23.414 -248.671)" fill="#edb389"/>
      <path id="Path_13360" data-name="Path 13360" d="M151.056,299.516c-.773-1.246-1.662-2.393-2.492-3.573-.64-.881-1.18-2.16-2.143-2.683h0c.058,1.163,1.088,2.268,1.662,3.224a25.555,25.555,0,0,0,2.492,3.373C150.823,300.106,151.23,299.79,151.056,299.516Z" transform="translate(-24.773 -251.678)" fill="#db916b"/>
      <path id="Path_13361" data-name="Path 13361" d="M152.061,284.643a13.521,13.521,0,0,0-1.005-.947c-.183-.224-.382-.432-.582-.64a.357.357,0,0,0,0-.374,4.155,4.155,0,0,0-1.786-1.662c-.947-.615-1.861-1.288-2.758-1.986l-.033-.133c-.989-.972-2.035-2.492-3.223-3.514a10.55,10.55,0,0,0-1.911-1.844c-.158-.108-.307.075-.282.216a5.741,5.741,0,0,0,.407,1.437.166.166,0,0,0-.091.158c.208,1.662,1.853,3.107,3.224,4.221l.939,1c1.778,1.886,4.063,4.154,6.538,5.093C152.069,285.914,152.468,285.067,152.061,284.643Z" transform="translate(-23.769 -248.337)" fill="#da906a"/>
      <path id="Path_13362" data-name="Path 13362" d="M137.49,277.61a49.532,49.532,0,0,0,4.113,7.826l.2.291a.91.91,0,0,1,.208.166c2.609,2.933,5.134,5.957,8,8.64a2.326,2.326,0,0,1,.6,1.088,36.847,36.847,0,0,0,2.659,2.916c.258.266.49.548.731.831.05-.382.108-.656.191-.557,2.492-2.667,4.154-6.14,5.708-9.38q1.047-2.135,1.961-4.3a.474.474,0,0,0,.233-.15c.665-1.8,1.363-3.605,2.035-5.408a2.22,2.22,0,0,0,0-.332h.116c.316-.831.615-1.662.914-2.492q-1.77-.4-3.589-.648c0-.44,0-.872.042-1.3a33.534,33.534,0,0,0-.366-7.22,20.642,20.642,0,0,0,.224-2.285.831.831,0,0,0,.748-.233,3.731,3.731,0,0,0,.739-2.493,9.9,9.9,0,0,0,.042-1.72,7.2,7.2,0,0,0,.083-1.4.739.739,0,0,0-1.371-.374,2.312,2.312,0,0,0-.125.249.618.618,0,0,0-.108.05,22.836,22.836,0,0,0-.407-4.644,4.686,4.686,0,0,0-.606-2.235,3.433,3.433,0,0,0-.764-1.08.515.515,0,0,0-.723,0,1.936,1.936,0,0,0-1.039-.69,1.138,1.138,0,0,0-.914.133c-1.18,0-2.285.914-3.232,1.5-.341.216-.723.424-1.105.648a13.494,13.494,0,0,0-1.745-.125l-.606-.274a13.771,13.771,0,0,0-1.221-.714,6.612,6.612,0,0,0-3.041-1.662,3.556,3.556,0,0,0-.607,0,1.662,1.662,0,0,0-1.063.133l-.091.05c-1.263.324-2.584,1.055-2.941,2.011-1.18,1.537-1.313,4.6-1.454,6.14a.515.515,0,0,0,0,.108l.307,1.03a1.147,1.147,0,0,0-1-.59.515.515,0,0,0-.457.258c-.39.706.058,1.562.15,2.31.125.972.224,1.944.316,2.916a1.047,1.047,0,0,0,1.5.881c-.3.133,0,2.443,0,2.783-.067,1.188-.291,2.359-.366,3.548,0,.432.141,5.068.258,5.026l-.557.2C139.152,277.211,138.321,277.4,137.49,277.61Z" transform="translate(-23.261 -244.394)" fill="#dca47a"/>
      <path id="Path_13363" data-name="Path 13363" d="M150.572,260.916a4.792,4.792,0,0,0-2.21-.407c-.515,0-1.014.108-1.529.141a7.682,7.682,0,0,0-1.512.191,1.846,1.846,0,0,0-.872.432v.075a.083.083,0,0,0,0,.058,1.321,1.321,0,0,0,1.047.465,13.089,13.089,0,0,1,1.977-.116,11.389,11.389,0,0,1,1.2.133,4.158,4.158,0,0,0,1.221.191,1.9,1.9,0,0,0,.972-.49C151.17,261.331,150.821,261.074,150.572,260.916Z" transform="translate(-24.439 -246.136)" fill="#db916b" fill-rule="evenodd"/>
      <path id="Path_13364" data-name="Path 13364" d="M164.219,258.589c-.042.075-.083.15-.116.224a1.737,1.737,0,0,0,0-.357h0a7.4,7.4,0,0,0,.116-.831c0-.066-.075-.066-.1,0a5.221,5.221,0,0,0-.249.59,4.534,4.534,0,0,0-.282-.939c-.291-.714-.914-1.279-1.047-2.027,0-.042,0-.05-.05-.05v-.465c0-.158-.282-.05-.291.083-.066,1.014,0,2.019-.133,3.033-.091.773-.366,1.545-.424,2.318l-.216-.166a1.436,1.436,0,0,0-.748-.291h-1.088c-.789-.05-1.52-.366-2.3-.465a1.662,1.662,0,0,0-1.072.2,2.2,2.2,0,0,0-.615.274c-.075.041-.714.507-.714.523a33.14,33.14,0,0,0-.108,5.591,5.814,5.814,0,0,0-1.412-.042c-.507.058-1.147.249-1.08.565.041.166.39.2.656.2h1.263a4.4,4.4,0,0,0,.665,0,.522.522,0,0,0,.341.066,1.154,1.154,0,0,0,.548-.125h0l.083-.058c0-.042.075-.117.058-.166s0,0-.05-.05v-.091c-.208-1.5-.208-3.032-.415-4.528V261.5a3.332,3.332,0,0,1,.366-.4,6.416,6.416,0,0,1,.59-.44,21.941,21.941,0,0,1,4.835.39.389.389,0,0,0,.183,0c0,.283.3.59.407.831a11.018,11.018,0,0,0,.606,1.711s.042.042.067.042.091.2.15.3a2.032,2.032,0,0,1,0,.6,8.928,8.928,0,0,1-.116,1.155,7.713,7.713,0,0,1-1.063,1.446,30.668,30.668,0,0,1-1.853,3.921.606.606,0,0,1-.241.274,5.081,5.081,0,0,0-.042.615c.341-.623.706-1.238,1.088-1.844a11.043,11.043,0,0,1,1.662-2.75,1.862,1.862,0,0,0,.44-.307,5.239,5.239,0,0,0,.532-.341,25.131,25.131,0,0,0,.366,2.617,7.361,7.361,0,0,1-1.171,3.182c-.058.075,0,.224.116.133a5.425,5.425,0,0,0,1.728-4.436v-.341a50.153,50.153,0,0,1,.183-8.35h0a.539.539,0,0,1,.058-.291c.058-.1,0-.3,0-.449a.646.646,0,0,1,0-.149.066.066,0,0,0-.108-.025Z" transform="translate(-25.766 -245.147)" fill="#db916b" fill-rule="evenodd"/>
      <path id="Path_13365" data-name="Path 13365" d="M151.134,260.337a2.84,2.84,0,0,0-.872-.332,8.249,8.249,0,0,0-2.26,0,11.8,11.8,0,0,0-2.019.349,9.858,9.858,0,0,0-1.1.307c-.274.108-1.022.515-.282.415,1-.133,1.977-.415,2.991-.457a11,11,0,0,1,1.736.083c.54.066,1.4.565,1.886.133C151.416,260.627,151.325,260.469,151.134,260.337Z" transform="translate(-24.411 -246.038)" fill="#3b2517" fill-rule="evenodd"/>
      <path id="Path_13366" data-name="Path 13366" d="M162.244,260.858c-1.288-.781-2.858-.739-4.345-1.005a5.98,5.98,0,0,0-1.5-.233H156.2a.706.706,0,0,0,.5.889,8.97,8.97,0,0,0,2.218.191,8.945,8.945,0,0,1,3.265.216C162.235,260.974,162.285,260.883,162.244,260.858Z" transform="translate(-26.423 -245.987)" fill="#3b2517" fill-rule="evenodd"/>
      <path id="Path_13367" data-name="Path 13367" d="M151.411,260.21c-.382-.922-2.443-.507-3.257-.424-1.238.116-3.049.266-3.955,1.155h0a10.088,10.088,0,0,1,3.124-.831c.681-.075,3.207-.349,3.564.424C151.029,260.817,151.511,260.451,151.411,260.21Z" transform="translate(-24.398 -245.987)" fill="#673a22" fill-rule="evenodd"/>
      <path id="Path_13368" data-name="Path 13368" d="M159.692,259.9c-1.03-.191-2.06-.324-3.091-.507a.141.141,0,0,0-.083,0l-.133.058c-.2.116-.374.365-.191.457.831.457,2.052.249,3.016.324a14.952,14.952,0,0,1,3.074.706A4.818,4.818,0,0,0,159.692,259.9Z" transform="translate(-26.414 -245.947)" fill="#673a22" fill-rule="evenodd"/>
      <path id="Path_13369" data-name="Path 13369" d="M162.6,253.578a6.369,6.369,0,0,0-.058-1.047,8.307,8.307,0,0,0-1.479-3.772,16.317,16.317,0,0,0-2.642-3.016c-.831-.756-1.529-1.579-2.31-2.3-1.213,0-2.426-.174-3.647-.233H151.9a28.318,28.318,0,0,1-4.113,0,3.282,3.282,0,0,0-.249.233,20.036,20.036,0,0,0-1.662,1.4l-.332.3a20.317,20.317,0,0,0-1.761,1.271,5.293,5.293,0,0,0-1.911,2.035,9.922,9.922,0,0,0-1.238,2.393l-.05.174c-.042.116-.083.241-.116.357a12.7,12.7,0,0,0-.457,2.094c0,.831.382,4.486.465,5.242.166.515.316,1.03.457,1.554h0a18.344,18.344,0,0,1-.282-5.591,7.161,7.161,0,0,1,.648-2.135,3.041,3.041,0,0,1,1.7-1.155,4.152,4.152,0,0,1,2.144,0h.274a2.567,2.567,0,0,1,1.454.415,3.325,3.325,0,0,1,.64.714,9.972,9.972,0,0,1,1.662,1.487,11.566,11.566,0,0,0,4.1.3l.374-.091a6.647,6.647,0,0,1,2.11-1.853.44.44,0,0,1,.166-.058,3.319,3.319,0,0,1,.623-.357,2.443,2.443,0,0,1,.764-.349,3.325,3.325,0,0,1,1.255,0,2.775,2.775,0,0,1,1.944,1.454c1.255,1.961,1.246,4.835,1.421,7.186A26.534,26.534,0,0,0,162.6,253.578Z" transform="translate(-23.688 -243.21)" fill="#3b2517" fill-rule="evenodd"/>
      <path id="Path_13370" data-name="Path 13370" d="M161.665,263.294h0a5.451,5.451,0,0,0-1.936-.324,7.823,7.823,0,0,0-1.08.05c-.191,0-.831,0-.964.133a.831.831,0,0,0-.2.283v.05c-.258.548.241.947.773,1.047a4.985,4.985,0,0,0,3.091-.424C161.6,263.975,162.138,263.518,161.665,263.294Z" transform="translate(-26.633 -246.554)" fill="#f2f3f2" fill-rule="evenodd"/>
      <path id="Path_13371" data-name="Path 13371" d="M159.269,263.818h0a.191.191,0,0,1-.058-.274c0-.042.208-.191.266-.15h0a2.418,2.418,0,0,0,.158.241c.066.083.133.125,0,.183a.39.39,0,0,1-.382,0Zm1.5-.831c-.291,0-.582-.05-.831-.058a7.3,7.3,0,0,0-1.08.05h-.141a.589.589,0,0,0-.083.258c-.058.964,1.022,1.246,1.795.831C160.765,263.926,161.064,263.337,160.765,262.988Z" transform="translate(-26.838 -246.546)" fill="#3b2517" fill-rule="evenodd"/>
      <path id="Path_13372" data-name="Path 13372" d="M145.7,263.1h.091a9.872,9.872,0,0,1,3.913.15.615.615,0,0,1,.183.274v.05c.224.54-.291.881-.831.939a5.284,5.284,0,0,1-3.066-.607C145.734,263.752,145.236,263.237,145.7,263.1Z" transform="translate(-24.62 -246.555)" fill="#f2f3f2" fill-rule="evenodd"/>
      <path id="Path_13373" data-name="Path 13373" d="M155.287,274.756a15.12,15.12,0,0,0-1.736-.091c-.332,0-.69-.066-1.03-.075a.638.638,0,0,1,.058.133,1.465,1.465,0,0,0,.108.357c.233,0,.474.042.681.058a5.921,5.921,0,0,0,1.836-.058C155.32,275.047,155.486,274.789,155.287,274.756Z" transform="translate(-25.805 -248.52)" fill="#db916b" fill-rule="evenodd"/>
      <path id="Path_13374" data-name="Path 13374" d="M143.8,269.214a34.888,34.888,0,0,0,1.412,3.921.532.532,0,0,0,.191.274v.615c-.258-.623-.54-1.238-.831-1.844a11.632,11.632,0,0,0-1.77-3.514V267.32A7.086,7.086,0,0,0,143.8,269.214Z" transform="translate(-24.161 -247.289)" fill="#edb389" fill-rule="evenodd"/>
      <path id="Path_13375" data-name="Path 13375" d="M154.14,274.94Z" transform="translate(-26.079 -248.579)" fill="#673a22" fill-rule="evenodd"/>
      <path id="Path_13376" data-name="Path 13376" d="M162.722,273.3a48.445,48.445,0,0,1-.881-5.907c-.922,2.11-2.185,8.549-7,8.607a2.834,2.834,0,0,1-1.662-.914c0-.058-.258-.4-.44-.731a15.833,15.833,0,0,1-1.986-.066c-.465.756-.449,1.537-1.662,1.712-3.124.474-7-6.273-8-8.948a58.52,58.52,0,0,1-1.138,6.248,3.672,3.672,0,0,0,.058.407c-.05,0,0,.108,0,.166a4.672,4.672,0,0,0,.6,1.163c.54.474,1.113.922,1.662,1.362,1.454.789,2.584,2.2,3.9,3.107,1.878,1.279,5.857,3.705,5.957,3.705s3.481-2.542,5.076-3.813a42.346,42.346,0,0,1,3.44-3c.5-.44,1-.889,1.462-1.362a4.726,4.726,0,0,0,.515-1.163V273.7C162.614,273.672,162.706,273.431,162.722,273.3Z" transform="translate(-23.679 -247.243)" fill="#673a22" fill-rule="evenodd"/>
      <path id="Path_13377" data-name="Path 13377" d="M166.019,273.183c-.058.183-.125.366-.183.548v-.208c.042-.2.075-.407.1-.615a25.13,25.13,0,0,1-.457-2.584v.274a3.965,3.965,0,0,0-.116-.831h0v-.108h-.05l-.2.573v.067a21.9,21.9,0,0,1-.133,2.758,15.092,15.092,0,0,1-.665,2.65c0-.349.058-.7.066-1.038a6.647,6.647,0,0,0-.3-2.135c-.141.224-.291.449-.449.665a26.757,26.757,0,0,1-.307,2.908c-.1.548-.224,1.088-.366,1.662a8.723,8.723,0,0,1,1.08-.789c.44-.374.872-.756,1.3-1.155a1.174,1.174,0,0,1,.066-.149.108.108,0,0,1,0,.05v.05l.158-.158a4.5,4.5,0,0,0,.54-1.163v-.166c0-.033.042-.274.058-.407l-.149-.557Zm-3.14,4.553a9.628,9.628,0,0,0-.05-2.077,12.962,12.962,0,0,0-.241-1.329c-.141.133-.274.258-.415.374s-.382.316-.6.474l.05,1.454v.066a18.912,18.912,0,0,1-.831,2.492,3.1,3.1,0,0,0-.474.831l.191-.149C161.317,279.223,162.065,278.433,162.879,277.735Z" transform="translate(-27.124 -247.685)" fill="#3b2517" fill-rule="evenodd"/>
      <path id="Path_13378" data-name="Path 13378" d="M143.041,277.217c-1.2-1.753-1.3-4.079-1.346-6.256a.189.189,0,0,0-.058-.158,3.228,3.228,0,0,1-.241-.523,17.013,17.013,0,0,0,.233,3.739,11.388,11.388,0,0,0,.54,2.617l.407.307C142.725,277.026,142.883,277.118,143.041,277.217Z" transform="translate(-23.921 -247.79)" fill="#3b2517" fill-rule="evenodd"/>
      <path id="Path_13379" data-name="Path 13379" d="M146.559,280.5a20.832,20.832,0,0,1-2.2-5.65l-.307-.307a9.972,9.972,0,0,0,.714,2.891,15.975,15.975,0,0,0,1.088,2.492C146.085,280.123,146.318,280.314,146.559,280.5Z" transform="translate(-24.372 -248.511)" fill="#3b2517" fill-rule="evenodd"/>
      <path id="Path_13380" data-name="Path 13380" d="M142.2,272.07a17.772,17.772,0,0,0,1.72,6l.49.415a27.483,27.483,0,0,1-2.144-6.281Z" transform="translate(-24.06 -248.093)" fill="#3b2517" fill-rule="evenodd"/>
      <path id="Path_13381" data-name="Path 13381" d="M157.238,272.072c-1.5,0-3,.133-4.495.108-1.363,0-2.742-.216-4.1-.124a.067.067,0,0,0,0,.133,19.322,19.322,0,0,0,4.437.357,26.723,26.723,0,0,0,4.079-.091C157.3,272.438,157.47,272.072,157.238,272.072Z" transform="translate(-25.14 -248.087)" fill="#db916b" fill-rule="evenodd"/>
      <path id="Path_13382" data-name="Path 13382" d="M139.631,261.6c-.075-.058-.158,0-.2.108a2.759,2.759,0,0,0-.208,1.537,7.534,7.534,0,0,0,.374,2.1h0a9.539,9.539,0,0,0-.116-1.454,3.747,3.747,0,0,1,0-1.795,9.035,9.035,0,0,1,.424,1.462c0,.125.15.042.191,0A1.6,1.6,0,0,0,139.631,261.6Z" transform="translate(-23.55 -246.317)" fill="#db916b" fill-rule="evenodd"/>
      <path id="Path_13383" data-name="Path 13383" d="M167.653,261.758a2.675,2.675,0,0,0-.731,2.825c0,.075.116,0,.116-.067a6.226,6.226,0,0,1,.158-1.57c.125-.407.374-.756.515-1.146C167.728,261.766,167.694,261.724,167.653,261.758Z" transform="translate(-28.218 -246.346)" fill="#db916b" fill-rule="evenodd"/>
      <path id="Path_13384" data-name="Path 13384" d="M153.72,272.582h-1.529c-.415,0-.831,0-1.271-.042h-.5c-.158,0-.349.174-.158.208a18.6,18.6,0,0,0,3.016.482,12.273,12.273,0,0,0,2.634-.3c.174,0,.648-.216.548-.341C155.589,272.6,154.6,272.59,153.72,272.582Z" transform="translate(-25.41 -248.173)" fill="#fff" fill-rule="evenodd"/>
      <path id="Path_13385" data-name="Path 13385" d="M150.32,248.12h-.05a.442.442,0,0,1,0,.108c0,.058.066,0,.066,0A.409.409,0,0,1,150.32,248.12Z" transform="translate(-25.424 -244.041)" fill="#673a22" fill-rule="evenodd"/>
      <path id="Path_13386" data-name="Path 13386" d="M149.3,254.824a.671.671,0,0,0,.116.1,6.357,6.357,0,0,0,0-1.122.251.251,0,0,0,0-.075c0-2.135-1.662-5.417-4.553-4.528-1.952.606-3.863,3.83-3.921,5.633h0a3.157,3.157,0,0,1,2.326-2.036C145.144,252.332,149.132,254.7,149.3,254.824Z" transform="translate(-23.846 -244.198)" fill="#673a22" fill-rule="evenodd"/>
      <path id="Path_13387" data-name="Path 13387" d="M164.094,253.55c-.258-1.163-.69-3.024-2.019-3.548a1.911,1.911,0,0,0-1.662.125,5.466,5.466,0,0,0-2.351,2.069,8.64,8.64,0,0,0-1.462,2.883,8.242,8.242,0,0,0,.889-.648c1.063-.681,2.276-1.57,3.573-1.072a3.225,3.225,0,0,1,1.188.5,5.251,5.251,0,0,1,2.069,2.625A8.708,8.708,0,0,0,164.094,253.55Z" transform="translate(-26.496 -244.337)" fill="#673a22" fill-rule="evenodd"/>
      <path id="Path_13388" data-name="Path 13388" d="M151.518,255.027h.391a1.272,1.272,0,0,1,.241.058c0-2.318-.739-5.234-2.576-6.505-.05,0-.1.058-.075.091a11.906,11.906,0,0,1,1.869,4.353A18.8,18.8,0,0,1,151.518,255.027Z" transform="translate(-25.293 -244.119)" fill="#673a22" fill-rule="evenodd"/>
      <path id="Path_13389" data-name="Path 13389" d="M158.6,249.119a4.158,4.158,0,0,0-.931.773,8.391,8.391,0,0,0-2.683,5.35,3.917,3.917,0,0,0,.706-.083h.125v-.282a14.8,14.8,0,0,1,.831-2.841,10.8,10.8,0,0,1,1.969-2.85S158.637,249.094,158.6,249.119Z" transform="translate(-26.223 -244.209)" fill="#673a22" fill-rule="evenodd"/>
      <path id="Path_13390" data-name="Path 13390" d="M143.321,260.06a7.088,7.088,0,0,1,.548-.573c-.108-.706-.191-1.412-.233-2.127a17.089,17.089,0,0,0-.1-2.26h0a8.924,8.924,0,0,0-.216,4.877A.249.249,0,0,0,143.321,260.06Z" transform="translate(-24.209 -245.222)" fill="#edb389" fill-rule="evenodd"/>
      <path id="Path_13391" data-name="Path 13391" d="M150.858,248.351c-.474-1.52-1.2-2.958-3.182-2.717-3.049.374-6.3,3.323-6.8,6.115,0,.042.042,0,.058,0a11.125,11.125,0,0,1,2.326-3.589,8.242,8.242,0,0,1,4.2-2.227c2.235-.341,2.808,1.662,3.273,3.224a12.8,12.8,0,0,1,.673,5.242c0,.183.208.091.233,0A12.188,12.188,0,0,0,150.858,248.351Z" transform="translate(-23.835 -243.616)" fill="#673a22" fill-rule="evenodd"/>
      <path id="Path_13392" data-name="Path 13392" d="M153.614,266.614h0c-.233-1.57-.141-3.207-.44-4.769,0-.05-.067,0-.067,0a24.831,24.831,0,0,0,.141,4.9C153.265,267,153.631,266.822,153.614,266.614Z" transform="translate(-25.894 -246.359)" fill="#edb389" fill-rule="evenodd"/>
      <path id="Path_13393" data-name="Path 13393" d="M147.489,263.82h0a.208.208,0,0,1-.058-.274c0-.041.208-.2.274-.149h0a2.51,2.51,0,0,0,.158.249c.066.083.133.116,0,.183a.39.39,0,0,1-.382,0Zm1.5-.831a7.529,7.529,0,0,0-.831-.05,7.758,7.758,0,0,0-1.08.05h-.141a.556.556,0,0,0-.083.257c-.058.964,1.022,1.246,1.795.831A.771.771,0,0,0,148.985,262.989Z" transform="translate(-24.846 -246.547)" fill="#3b2517" fill-rule="evenodd"/>
      <path id="Path_13394" data-name="Path 13394" d="M174.332,370.8a17.288,17.288,0,0,0-.357-4.279v-.291a28.5,28.5,0,0,0-.382-3.813c-.258-2.177-.457-4.362-.706-6.538-.4-3.456-.548-7.61-2.285-10.676a.366.366,0,0,0-.673.183,1.225,1.225,0,0,1,0,.175l-.1-.158a.324.324,0,0,0-.582.083h0a15.281,15.281,0,0,0-3.282-.64c-.108.349-.224.689-.357,1.022-.366.922-1.861.515-1.5-.407q.141-.357.249-.723l-1.662-.058-10.726-.324-10.186-.291c-2.434-.075-5.483-.6-7.992-.05h-.042c.075-.274.15-.548.233-.831.174-.557-.69-.939-.955-.4-.141.274-.258.557-.382.831-.731,5.209-2.675,10.227-3.39,15.486a105.6,105.6,0,0,0-.831,12.545.673.673,0,0,0,.731-.067,30.9,30.9,0,0,0,4.287-.141h.44c1.329-.133,2.65-.241,3.98-.282a55.6,55.6,0,0,1,10.36.665l1.271.075v.05a.133.133,0,0,0,.058.075.515.515,0,0,0,.307.257v-.266a10.627,10.627,0,0,1,.05-1.263q0-.249,0-.5a10.28,10.28,0,0,0,2.177-.183,7.047,7.047,0,0,1,.283,2.659h.989a.075.075,0,0,0,0-.042c.573,0,1.155.058,1.728.075,3.174-.274,6.364-.49,9.554-.457a74.059,74.059,0,0,1,9.6.989,1.055,1.055,0,0,0,.075-.3,1.119,1.119,0,0,0,0-.166.772.772,0,0,0,.05-.282v-.341C174.365,371.707,174.357,371.259,174.332,370.8Z" transform="translate(-21.73 -260.014)" fill="#79cedb" fill-rule="evenodd"/>
      <path id="Path_13395" data-name="Path 13395" d="M180.343,347.024h-1.711a.731.731,0,0,0-.606-.872c-.748-.091-1.512-.141-2.268-.166.208-.233.224-.64-.174-.715a56.392,56.392,0,0,0-10.693-.739l1.387-.092a.3.3,0,1,0,0-.6,117.621,117.621,0,0,0-17.023-.457c-3.323.091-6.754.158-10.119.449a5.528,5.528,0,0,0-1.886.083.481.481,0,0,0-.349-.257,13.127,13.127,0,0,0-5.06-.058.773.773,0,0,0-.341,1.28.225.225,0,0,0,.066.058.548.548,0,0,0-.15.731,6.728,6.728,0,0,0-1.122.482.274.274,0,0,0,.066.49,6.388,6.388,0,0,0,1.662.291,6.2,6.2,0,0,0-1.338.5.224.224,0,0,0,.058.415c2,.565,4.221.058,6.281-.091l1.811-.133a42.8,42.8,0,0,0,4.611.382c2.659.175,5.325.266,7.992.357,2.492.092,4.985.183,7.477.258a33.213,33.213,0,0,0,6.921,0c.831,0,1.662.066,2.492.083.656,1.753,1.662,3.456,2.218,5.184.316.947.6,1.9.831,2.875a14.124,14.124,0,0,0-4.2,2.127h0c1.213-.4,2.343-.964,3.573-1.313.258-.075.515-.133.781-.191.083.349.158.7.241,1.047-.465.05-.922.117-1.371.175a3.324,3.324,0,0,0-2.127.831h0a35.023,35.023,0,0,1,3.647-.4c.141.615.266,1.221.382,1.836a3.9,3.9,0,0,0,.083.615c.415,2.924.7,5.949,1.088,8.948l.075.98c.174,2.733,0,5.716.831,8.308a.482.482,0,0,0,.914,0c.042-.183.075-.366.108-.548a.656.656,0,0,0,.98-.565,76.312,76.312,0,0,0-1.471-12.155c-.174-1.62-.39-3.224-.665-4.827l-.274-1.487a.424.424,0,0,0,.233-.332c.457-3.248-.091-8.142-1.994-11.158a57.9,57.9,0,0,0,8.233-.631C181.065,347.938,180.9,347.041,180.343,347.024Z" transform="translate(-22.025 -260.139)" fill="#58bec7" fill-rule="evenodd"/>
      <path id="Path_13396" data-name="Path 13396" d="M164.772,368.28a3.8,3.8,0,0,0-.59.2,16.983,16.983,0,0,0-4.337,1.9,40.474,40.474,0,0,0,4.935-3.946c.083-.083,0-.208-.125-.158a35.9,35.9,0,0,0-4.81,3.174,26.966,26.966,0,0,0-2.384,1.379c-.4.258-.831.5-1.279.781h-.174a2.889,2.889,0,0,0-.656,0c-.515,0-1.022.133-1.545.15a8.917,8.917,0,0,0-1.662.066l-.291-.066a6.171,6.171,0,0,0-1.263-1.288,62.983,62.983,0,0,0-6.123-3.838c-.166-.1-.374.149-.216.274,1.255.972,2.559,1.861,3.855,2.767.15.282.282.573.424.831a11.79,11.79,0,0,0-5.2-1.5c-.058,0-.083.075,0,.108,1.338.831,2.949.947,4.353,1.662a8.888,8.888,0,0,1,1.172.723c.141.723.457,1.487.6,2.119.282,1.246.258,2.866,1.014,3.913a.557.557,0,0,0,.831.1h.058a.706.706,0,0,0,1.03.382c.474-.216.565-.831.5-1.554a1.389,1.389,0,0,0,.648-.067.316.316,0,0,0,.133-.515,2,2,0,0,0-.964-.457c-.116-.465-.241-.9-.324-1.172a2.235,2.235,0,0,0,.831.64.4.4,0,0,0,.407-.058h.042l.6-.374a1.28,1.28,0,0,0-.241,1.022.174.174,0,0,0,.249.1l.183-.108V376.6a2.492,2.492,0,0,0,.1,1.853.81.81,0,0,0,.066.391.3.3,0,0,0,.573,0v-.158l.042-.042a3.157,3.157,0,0,0,.3-1.487,6.238,6.238,0,0,0,.349,1.446.64.64,0,0,0,1.246-.166c0-.9-.191-1.786-.249-2.683V373.78a12.184,12.184,0,0,1,1.72-1.795,47.5,47.5,0,0,1,4.985-3.041,8.152,8.152,0,0,0,1.238-.548A.062.062,0,0,0,164.772,368.28Z" transform="translate(-24.241 -264.031)" fill="#58bec7" fill-rule="evenodd"/>
      <path id="Path_13397" data-name="Path 13397" d="M139.576,368.36a5.134,5.134,0,0,0-2.052-.49,6.938,6.938,0,0,0-2.584-.05h0c1.321.656,3.124.283,4.553.706C139.609,368.6,139.684,368.427,139.576,368.36Z" transform="translate(-22.831 -264.277)" fill="#58bec7" fill-rule="evenodd"/>
      <path id="Path_13398" data-name="Path 13398" d="M174.332,370.8a17.288,17.288,0,0,0-.357-4.279v-.291a28.5,28.5,0,0,0-.382-3.813c-.258-2.177-.457-4.362-.706-6.538-.4-3.456-.548-7.61-2.285-10.676a.366.366,0,0,0-.673.183,1.225,1.225,0,0,1,0,.175l-.1-.158a.324.324,0,0,0-.582.083h0a15.281,15.281,0,0,0-3.282-.64c-.108.349-.224.689-.357,1.022-.366.922-1.861.515-1.5-.407q.141-.357.249-.723l-1.662-.058-10.726-.324-10.186-.291c-2.434-.075-5.483-.6-7.992-.05h-.042c.075-.274.15-.548.233-.831.174-.557-.69-.939-.955-.4-.141.274-.258.557-.382.831-.731,5.209-2.675,10.227-3.39,15.486a105.6,105.6,0,0,0-.831,12.545.673.673,0,0,0,.731-.067,30.9,30.9,0,0,0,4.287-.141h.44c1.329-.133,2.65-.241,3.98-.282a55.6,55.6,0,0,1,10.36.665l1.271.075v.05a.133.133,0,0,0,.058.075.515.515,0,0,0,.307.257v-.266a10.627,10.627,0,0,1,.05-1.263q0-.249,0-.5a10.28,10.28,0,0,0,2.177-.183,7.047,7.047,0,0,1,.283,2.659h.989a.075.075,0,0,0,0-.042c.573,0,1.155.058,1.728.075,3.174-.274,6.364-.49,9.554-.457a74.059,74.059,0,0,1,9.6.989,1.055,1.055,0,0,0,.075-.3,1.119,1.119,0,0,0,0-.166.772.772,0,0,0,.05-.282v-.341C174.365,371.707,174.357,371.259,174.332,370.8Z" transform="translate(-21.73 -260.014)" fill="#35a3e5"/>
      <path id="Path_13399" data-name="Path 13399" d="M174.681,297.91a37.5,37.5,0,0,1,2.492-5.2.832.832,0,0,1,.108-.283,24.278,24.278,0,0,1,2.492-3.406.872.872,0,0,0-.15-.764l-.05-.041c-2.185-1.188-4.353-2.418-6.522-3.639l-.191-.067a.721.721,0,0,0-.258-.166c-.764-.274-1.554-.532-2.343-.789-1.346-.365-2.708-.7-4.079-.964a.886.886,0,0,1-.366,0c-1.039-.2-2.085-.357-3.132-.548l-.44-.05a.881.881,0,0,1-.316-.1c-.54-.108-1.072-.233-1.6-.382h-.091c-.191.5-.341,1.005-.507,1.512-.042.133-.083.274-.133.407a35.178,35.178,0,0,0-1.512,3.323c-1.2,2.492-2.359,4.985-3.548,7.477-1.437,3.041-3.157,6.048-4.636,9.139-2.027-3.406-5.284-6.4-7.4-9.5-1.961-2.883-3.921-6.214-6.414-8.823l-.39-.548c-.415-.573-.831-1.255-1.3-1.894h-.158a3.582,3.582,0,0,0-.831.066l-2.692.632c-.6.216-1.188.432-1.745.6-1.911.557-3.83,1.105-5.733,1.72a.716.716,0,0,1-.366,0c-1.014.4-2.027.789-3.057,1.138l-.158.042c-1.819,1.005-3.606,2.077-5.467,3.016v.366a31.978,31.978,0,0,1,5.284,5.5c1.811,1.853,3.7,3.722,4.727,6.081a10.8,10.8,0,0,1,.748,5.483,11.733,11.733,0,0,0,.366,1.437.354.354,0,0,0,0,.1.125.125,0,0,0,0,.075c.216.54.44,1.072.673,1.6a17.124,17.124,0,0,0,1.545,3.955c.266.523.548,1.1.872,1.662.042,2.492.382,5.026.233,7.394-.216,3.631-1.5,8.158-.407,11.689a.606.606,0,0,0,.831.341c5.151,1.487,11.166,1.412,16.483,1.578a94.3,94.3,0,0,0,10.693.831c3.323.116,7.477-.133,10.659-1.6a4.424,4.424,0,0,0,1.2-.1,1.028,1.028,0,0,0,.415-.108.391.391,0,0,0,.266-.258h0a.307.307,0,0,0,0-.116c.69-1.986.357-4.345.382-6.439,0-2.335.075-4.669.141-7a52.078,52.078,0,0,1,1.329-9.139c.249-.54.482-1.088.706-1.662l.382-.739c.357-.714.764-1.47,1.08-2.252a.731.731,0,0,0,.49-.3,14.892,14.892,0,0,1-.49-3.78A24.03,24.03,0,0,1,174.681,297.91Z" transform="translate(-19.319 -249.691)" fill="#4d5b6b" fill-rule="evenodd"/>
      <path id="Path_13400" data-name="Path 13400" d="M172.912,312.179c-.881,1.4-1.662,2.808-2.451,4.254a.557.557,0,0,0,.307.739c-.548.922-1.08,1.861-1.554,2.817-.125.257.208.565.424.324.557-.64,1.1-1.313,1.662-1.994,1.662-3.265,3.182-6.646,4.7-9.878C174.93,309.678,173.909,310.916,172.912,312.179Z" transform="translate(-28.626 -254.247)" fill="#4d5b6b" fill-rule="evenodd"/>
      <path id="Path_13401" data-name="Path 13401" d="M186.791,295.813c-.989,1.18-2,2.351-3.008,3.514a49.938,49.938,0,0,1-4.769,5.99.773.773,0,0,1,.116.831c-.3.623-.59,1.254-.881,1.878.64-.955,1.279-1.911,1.944-2.833,2.443-3.44,5.043-6.779,7.411-10.277l.631-.756C187.73,294.733,187.231,295.273,186.791,295.813Z" transform="translate(-30.159 -251.831)" fill="#4d5b6b" fill-rule="evenodd"/>
      <path id="Path_13402" data-name="Path 13402" d="M190.608,289.594l-.623.44a.257.257,0,0,0-.066-.125c-1.3,1.819-3.1,3.481-4.461,5.126-1,1.2-2.019,2.368-3.032,3.539A51.611,51.611,0,0,1,179.1,302.9a8.414,8.414,0,0,0,1.844-1.171q-1.421,2.243-2.85,4.486c-.764,1.2-1.587,2.409-2.409,3.622a104.3,104.3,0,0,1-5.317,10.319h.05c.432-.5.831-1.005,1.246-1.529,1.271-1.221,2.418-2.625,3.564-3.888.266-.3.548-.6.831-.9l.474-.415c-.341,1.778-.582,3.581-.831,5.284v.116c-.125.523-.241,1.055-.349,1.579-.291,2.492-.59,4.918-.947,7.361-.249,1.736-.415,3.556-.723,5.334a.208.208,0,0,0,.332-.05l.1-.233a10.228,10.228,0,0,0,.739-1.811c.474-1.221.906-2.492,1.288-3.747a.168.168,0,0,0,.091,0,45.469,45.469,0,0,0-.133,6.289,49.382,49.382,0,0,0-.324,6.156.374.374,0,0,0,.723.1c.15-.515.274-1.039.382-1.562a.831.831,0,0,0,1.271.067.457.457,0,0,0,.382-.349c.582-2.492.332-5.059.391-7.56,0-1.761.108-3.514.183-5.267a.208.208,0,0,0,.249-.133,33.372,33.372,0,0,0,.914-6.838.5.5,0,0,0,.382-.307c.091-.249.158-.5.233-.748a.349.349,0,0,0,.606,0,27.23,27.23,0,0,0,1.462-12.969c.108-.59.233-1.171.39-1.745a26.366,26.366,0,0,1,1.238-3.523,1.9,1.9,0,0,0,.191-.174.1.1,0,0,0,0-.116l.066-.05a.149.149,0,0,0,0-.241,42.584,42.584,0,0,1,2.069-3.946.183.183,0,0,0-.125-.274c.831-.922,1.728-1.836,2.492-2.825l1.553-1.321C191,289.752,190.783,289.469,190.608,289.594Z" transform="translate(-28.824 -251.053)" fill="#233645" fill-rule="evenodd"/>
      <path id="Path_13403" data-name="Path 13403" d="M185.026,290.847c-2.077-3.381-7-4.686-10.551-5.866-4.1-1.371-9.272-3.772-13.758-3.548a.266.266,0,0,0-.465-.066l-.075.108h-.341a.282.282,0,0,0-.075.557h0c-1.994,2.908-3.232,6.53-4.744,9.671-.54,1.122-1.1,2.235-1.662,3.323a34.38,34.38,0,0,0-3.323,7.394c-.44-.424-.931-.831-1.363-1.23-.166-.166-.341-.324-.515-.482a.39.39,0,0,0,0-.3c-2.019-3.581-4.885-6.8-7.378-10.053-1.853-2.418-3.73-5.425-6.165-7.378l-.914-1.138c-3.032.9-6.023,1.9-8.973,3.049-.831.2-1.612.449-2.418.723-2.235,1.088-4.486,2.143-6.7,3.282a.133.133,0,0,1,0,.083.225.225,0,0,0-.066-.058l-.756.382.066.133c-.316.208-.615.432-.906.665.282.216.582.415.831.64a3.175,3.175,0,0,1,.465.482,2.555,2.555,0,0,1,.706.066,1.9,1.9,0,0,1,.931.665c1.022,1.013,1.819,2.218,2.792,3.323s2.492,2.052,3.323,3.249l.831,1.138q2.767,3.631,5.716,7.112l1.23,1.412a8.3,8.3,0,0,0,1.362,1.662.058.058,0,0,0,.091,0c.141.15.274.307.415.465.631.689,1.919,2.625,2.833,2.725a.476.476,0,0,0,0-.183.78.78,0,0,0-.2-.448c-1.587-2.011-3.165-4.046-4.636-6.14-.266-.39-.515-.781-.773-1.171-1.263-1.9-2.808-3.714-4.2-5.533a61.613,61.613,0,0,0-4.229-5.392,7.334,7.334,0,0,1-.98-1.171c-1.828-2.991,4.8-4.4,6.547-5.234,1.363-.648,2.725-1.3,4.1-1.911,1.039-.457,2.368-.781,3.44-1.3,1.446,2.667,3.747,5.126,5.517,7.427,2.318,3.016,4.561,6.372,7.286,9.039a.424.424,0,0,0,.324.116,8.708,8.708,0,0,0,1.911,2.351.49.49,0,0,0,.723-.091.316.316,0,0,0,.216-.174c.59-1.047,1.122-2.143,1.662-3.248,1.462-2.841,2.717-5.816,4.154-8.69s3.257-5.816,4.154-8.948c1.944.623,4.063.831,6.023,1.421q3.124.914,6.173,2.094c2.1.831,4.262,1.6,6.306,2.559,1.9.889,3.506,2.177,5.342,3.141a.507.507,0,0,0,.69-.7Zm-61.064,7.012c-.49-.731-.964-1.471-1.437-2.218a.307.307,0,0,1-.042-.091C122.989,296.339,123.488,297.1,123.961,297.859Z" transform="translate(-19.278 -249.647)" fill="#67707a" fill-rule="evenodd"/>
      <path id="Path_13404" data-name="Path 13404" d="M188.737,290.5a52.8,52.8,0,0,0-4.985,5.226c-3.647,5.733-8.557,10.535-12.512,16.068a62.125,62.125,0,0,0,7.278-8.134c.532-.681,1.047-1.387,1.554-2.11,1.5-1.587,2.8-3.456,4.154-5.118,1.57-1.919,3.323-3.672,4.852-5.641C189.318,290.565,188.928,290.332,188.737,290.5Z" transform="translate(-28.972 -251.201)" fill="#67707a" fill-rule="evenodd"/>
      <path id="Path_13405" data-name="Path 13405" d="M130.257,324.462a.775.775,0,0,1,1.338-.781c.266.474.523.956.781,1.438a18.807,18.807,0,0,0-1.03-2.044c-.042-.274-.091-.548-.133-.831a2.44,2.44,0,0,1-.042.548,7.289,7.289,0,0,0-1.271-1.5.058.058,0,0,0-.1.041,6.953,6.953,0,0,0,.349,2.4,4.29,4.29,0,0,0-.5-.457c-.083-.066-.249-.041-.241.1a9.072,9.072,0,0,0,1.5,3.73,112.69,112.69,0,0,1-.764,13.019c.108.457.208.914.274,1.371a2.594,2.594,0,0,0,.066.432l.407.058a.108.108,0,0,1,0-.05.165.165,0,0,0,0,.058,4.083,4.083,0,0,1,.831.166c0-1.662.249-3.323.3-4.943.083-2.567.191-5.11.4-7.66a21.983,21.983,0,0,0,1.919,2.75C133.007,329.688,131.7,327.037,130.257,324.462Z" transform="translate(-21.896 -256.419)" fill="#67707a" fill-rule="evenodd"/>
      <path id="Path_13406" data-name="Path 13406" d="M128.837,318.5c1.554,2.775,2.949,5.625,4.412,8.441-.881-2.343-1.662-4.711-2.384-7.112a.632.632,0,0,1,0-.091,36.506,36.506,0,0,0-2.833-6.547v-.3c-.349-1.57-.831-3.132-1.188-4.611-.1-.366-.2-.773-.307-1.188.964,1.005,2.011,1.944,3,2.883,1.221,1.163,2.451,2.318,3.764,3.381.681.632,1.387,1.255,2.1,1.861a85.779,85.779,0,0,1-6.879-8.308c-1.238-1.354-2.492-2.708-3.7-4.088-2.949-3.323-5.691-6.8-8.707-10.036,0-.05-.116,0-.141,0a5.817,5.817,0,0,0-1.329-1.172c-.166-.257-.332-.5-.457-.739-.274-.515-1.1-.042-.831.465.407.665.98,1.662,1.828,1.761h.05a.561.561,0,0,0-.042-.258c.523.69,1.163,1.321,1.662,1.969,1.022,1.271,1.986,2.592,3.049,3.83a.119.119,0,0,0,.191-.141c-.291-.5-.6-.972-.93-1.437,1.662,1.936,3.323,3.822,4.985,5.7a1.088,1.088,0,0,0-.166-.1h0a6.216,6.216,0,0,0-.515-.64h0a20.153,20.153,0,0,1,1.255,3.232c.066.831.15,1.662.241,2.534,0,.59.058,1.18.091,1.761a11.293,11.293,0,0,0,.349,2.75.191.191,0,0,0,.2.141c.075.465.15.93.233,1.387.058.307.54.2.523-.075h0a16.171,16.171,0,0,0-.133-1.662c.224,1.163.474,2.318.789,3.456l.174,1.188a.349.349,0,0,0,.2.274,2.258,2.258,0,0,0,.1.515.174.174,0,0,0,.208.116.685.685,0,0,0,.083.216,1.763,1.763,0,0,1,0,.365l.133-.083.125.366c.083.407.174.831.282,1.221l.1.648c-.241-.5-.49-1.005-.731-1.512,0-.067-.133,0-.116.05.174.59.382,1.188.59,1.778.042.964.042,1.936.05,2.9,0,.158.258.208.282.042a15.325,15.325,0,0,0,.15-1.662.147.147,0,0,0,.058.133h0a28.512,28.512,0,0,0,3.606,6.372.075.075,0,0,0,.066,0l.058.091c.05.066.174,0,.141-.066-.831-2.418-2.077-4.7-2.991-7.1-.3-.773-.565-1.562-.831-2.343,0-.3-.042-.59-.066-.889A.681.681,0,0,1,128.837,318.5Z" transform="translate(-19.172 -251.237)" fill="#233645" fill-rule="evenodd"/>
      <path id="Path_13407" data-name="Path 13407" d="M130.43,325.79a.141.141,0,0,0-.1.116v.041c.075,0,.075,0,.116-.1a.041.041,0,0,0,0-.033.041.041,0,0,0-.021-.025Z" transform="translate(-22.05 -257.182)" fill="#233645" fill-rule="evenodd"/>
      <path id="Path_13408" data-name="Path 13408" d="M128.84,337.218v.175h0v-.175Z" transform="translate(-21.799 -259.114)" fill="#233645" fill-rule="evenodd"/>
      <path id="Path_13409" data-name="Path 13409" d="M174.681,297.91a37.5,37.5,0,0,1,2.492-5.2.832.832,0,0,1,.108-.283,24.278,24.278,0,0,1,2.492-3.406.872.872,0,0,0-.15-.764l-.05-.041c-2.185-1.188-4.353-2.418-6.522-3.639l-.191-.067a.721.721,0,0,0-.258-.166c-.764-.274-1.554-.532-2.343-.789-1.346-.365-2.708-.7-4.079-.964a.886.886,0,0,1-.366,0c-1.039-.2-2.085-.357-3.132-.548l-.44-.05a.881.881,0,0,1-.316-.1c-.54-.108-1.072-.233-1.6-.382h-.091c-.191.5-.341,1.005-.507,1.512-.042.133-.083.274-.133.407a35.178,35.178,0,0,0-1.512,3.323c-1.2,2.492-2.359,4.985-3.548,7.477-1.437,3.041-3.157,6.048-4.636,9.139-2.027-3.406-5.284-6.4-7.4-9.5-1.961-2.883-3.921-6.214-6.414-8.823l-.39-.548c-.415-.573-.831-1.255-1.3-1.894h-.158a3.582,3.582,0,0,0-.831.066l-2.692.632c-.6.216-1.188.432-1.745.6-1.911.557-3.83,1.105-5.733,1.72a.716.716,0,0,1-.366,0c-1.014.4-2.027.789-3.057,1.138l-.158.042c-1.819,1.005-3.606,2.077-5.467,3.016v.366a31.978,31.978,0,0,1,5.284,5.5c1.811,1.853,3.7,3.722,4.727,6.081a10.8,10.8,0,0,1,.748,5.483,11.733,11.733,0,0,0,.366,1.437.354.354,0,0,0,0,.1.125.125,0,0,0,0,.075c.216.54.44,1.072.673,1.6a17.124,17.124,0,0,0,1.545,3.955c.266.523.548,1.1.872,1.662.042,2.492.382,5.026.233,7.394-.216,3.631-1.5,8.158-.407,11.689a.606.606,0,0,0,.831.341c5.151,1.487,11.166,1.412,16.483,1.578a94.3,94.3,0,0,0,10.693.831c3.323.116,7.477-.133,10.659-1.6a4.424,4.424,0,0,0,1.2-.1,1.028,1.028,0,0,0,.415-.108.391.391,0,0,0,.266-.258h0a.307.307,0,0,0,0-.116c.69-1.986.357-4.345.382-6.439,0-2.335.075-4.669.141-7a52.078,52.078,0,0,1,1.329-9.139c.249-.54.482-1.088.706-1.662l.382-.739c.357-.714.764-1.47,1.08-2.252a.731.731,0,0,0,.49-.3,14.892,14.892,0,0,1-.49-3.78A24.03,24.03,0,0,1,174.681,297.91Z" transform="translate(-19.319 -249.691)" fill="#4d5b6b"/>
      <path id="Path_13410" data-name="Path 13410" d="M152.63,276.44a51.237,51.237,0,0,1,1.279,7.427,40.7,40.7,0,0,1,.931-5.458c.141-.632.291-1.271.44-1.9-.116-.191-.258-.424-.382-.656a9.971,9.971,0,0,1-1.861,0A6.77,6.77,0,0,1,152.63,276.44Z" transform="translate(-25.825 -248.732)" fill="#3b2517" fill-rule="evenodd"/>
      <path id="Path_13411" data-name="Path 13411" d="M156.649,277.46c0,.274-.042.548-.066.831a10.434,10.434,0,0,0-.05,3.008,2.662,2.662,0,0,1-.058.357c-.017.116.075.075.1,0a20.271,20.271,0,0,0,.9-3.8A4.448,4.448,0,0,1,156.649,277.46Z" transform="translate(-26.47 -249.005)" fill="#3b2517" fill-rule="evenodd"/>
      <path id="Path_13412" data-name="Path 13412" d="M273.428,281.087h-.681a12.251,12.251,0,0,0,0-1.354,11.024,11.024,0,0,1,.042-1.171,6.933,6.933,0,0,0-.05-1.612h-4.395a16.908,16.908,0,0,0-.49,4.395c-1.819.216-3.323.6-2.991,1.3a1.736,1.736,0,0,0,.756.831c-1.18.083-2.351.191-3.523.349a.415.415,0,1,0,0,.831c1.271.174,2.542.282,3.813.366-.149.066-.3.133-.449.216a.332.332,0,0,0,0,.565,8.071,8.071,0,0,0,.906.4.831.831,0,0,0,.332,1.379c.357.083.731.15,1.1.208a9.791,9.791,0,0,0,.166.989,11.15,11.15,0,0,0,.307,3.415,1.17,1.17,0,0,0,.05.183s0,.041,0,.058v.058h0a1.551,1.551,0,0,0,.316.515h3.813a.988.988,0,0,0,.075-.5,31.458,31.458,0,0,0,.1-4.345c1.529,0,3.057,0,4.561.05,2.492.042,5.317.349,7.793-.332v-6.73a101.959,101.959,0,0,0-11.548-.058Z" transform="translate(-44.274 -248.919)" fill="#b8c5d6" fill-rule="evenodd"/>
      <path id="Path_13413" data-name="Path 13413" d="M54.883,303.254c-.05-.291-.116-.582-.191-.872v-24.01c0-6.339.249-12.994-.224-19.358a8.759,8.759,0,0,0-.108-1.047,2.128,2.128,0,0,1,.108-.241v-7.776c-.058-.091-.125-.166-.183-.249H41.3c0,16.359.49,32.684.282,49.018,0,2.85-.091,5.7-.141,8.549,0,.623-.44,4.038,0,4.42h.042l.449.449H54.883Z" transform="translate(-6.977 -244.309)" fill="#3b2517"/>
      <path id="Path_13414" data-name="Path 13414" d="M267.228,302.426q-.083-.432-.2-.872V299.5c0-2.492.042-4.985,0-7.477,0-4.827,0-9.646-.05-14.481,0-6.331.249-12.994-.224-19.349a7.329,7.329,0,0,0-.108-1.047,2.1,2.1,0,0,1,.108-.241v-7.727c-.058-.091-.116-.166-.174-.249h-12.9c0,16.35.482,32.684.274,49.018,0,2.85-.091,5.7-.141,8.549,0,.623-.432,4.038,0,4.42h.041l.449.448h12.927Z" transform="translate(-42.911 -244.178)" fill="#3b2517"/>
      <path id="Path_13415" data-name="Path 13415" d="M30.183,287.057a17.979,17.979,0,0,0-4.229-.15,10.1,10.1,0,0,0-4.154.532h0a10.093,10.093,0,0,0,4.154.532,17.964,17.964,0,0,0,4.229-.15.407.407,0,0,0,0-.764Z" transform="translate(-3.689 -250.593)" fill="#c3d2e7" fill-rule="evenodd"/>
      <path id="Path_13416" data-name="Path 13416" d="M39.527,285.594c-.44-.5-1.562-.349-2.085-.042a.482.482,0,0,0,0,.831c.523.307,1.662.457,2.085,0a.523.523,0,0,0,0-.789Z" transform="translate(-6.295 -250.326)" fill="#c3d2e7" fill-rule="evenodd"/>
      <path id="Path_13417" data-name="Path 13417" d="M64.782,287.474v-.116a.224.224,0,0,0,0-.1h0a.332.332,0,0,0-.307-.233,14.07,14.07,0,0,0-5.109-.166.565.565,0,0,0,0,1.13,13.9,13.9,0,0,0,5.109-.166.316.316,0,0,0,.307-.224h0A.233.233,0,0,0,64.782,287.474Z" transform="translate(-9.949 -250.57)" fill="#c3d2e7" fill-rule="evenodd"/>
      <path id="Path_13418" data-name="Path 13418" d="M111.832,286.9c-3.664-.831-7.81-.324-11.548-.324-2.085,0-4.154,0-6.248.05s-5.093.764-6.887-.1c-1.512-.723-1.512,2.118,0,1.4,1.786-.831,4.935-.158,6.887-.1s4.154.042,6.248.05c3.73,0,7.893.523,11.548-.324a.341.341,0,0,0,0-.648Z" transform="translate(-14.554 -250.519)" fill="#c3d2e7" fill-rule="evenodd"/>
      <path id="Path_13419" data-name="Path 13419" d="M214.115,284.282c-4.644-.166-9.322-.058-13.974,0-2.152,0-4.3,0-6.455.067s-4.5-.274-6.455.5h0c1.836.731,3.963.424,5.915.474,2.335.067,4.661.075,7,.091,4.653,0,9.33.141,13.974,0a.565.565,0,1,0,0-1.13Z" transform="translate(-31.678 -250.144)" fill="#c3d2e7" fill-rule="evenodd"/>
      <path id="Path_13420" data-name="Path 13420" d="M248.68,285a20.859,20.859,0,0,0-5.193-.224c-2,0-3.971-.233-5.965-.291a.831.831,0,0,0,0,1.612c1.994-.066,3.955-.291,5.965-.291a20.457,20.457,0,0,0,5.193-.233.3.3,0,0,0,0-.573Z" transform="translate(-40.08 -250.193)" fill="#c3d2e7" fill-rule="evenodd"/>
      <path id="Path_13421" data-name="Path 13421" d="M272.738,284.661V284.3c0-.773,0-1.57.058-2.359h0v-.715a14.317,14.317,0,0,1-1.662,0,.4.4,0,0,0,0,.141,2.394,2.394,0,0,0-.183.249c0,1,0,1.994-.041,2.991A17.1,17.1,0,0,1,272.738,284.661Z" transform="translate(-45.836 -249.643)" fill="#c3d2e7" fill-rule="evenodd"/>
      <path id="Path_13422" data-name="Path 13422" d="M286.056,283.776a34.26,34.26,0,0,0-5.766-.083c-1.362.042-3.066-.332-4.154.6a.05.05,0,0,0,0,.075c1.08.931,2.783.548,4.154.59a34.234,34.234,0,0,0,5.766-.083.573.573,0,0,0,0-1.1Z" transform="translate(-46.717 -250.045)" fill="#c3d2e7" fill-rule="evenodd"/>
      <path id="Path_13423" data-name="Path 13423" d="M171.468,349.149c-6.214-.042-12.412-.324-18.618-.582-5.1-.216-10.269-.665-15.378-.415-.4,0-.831-.042-1.2-.05s-1.562.258-1.869,0a.158.158,0,0,0-.258.15c.208,1.279,2.293,1.2,3.265,1.279a20.254,20.254,0,0,0,2.833.042c4.154.482,8.532.316,12.612.5,6.123.274,12.711,1.271,18.793.407C172.415,350.37,172.24,349.149,171.468,349.149Z" transform="translate(-22.696 -260.951)" fill="#58bec7" fill-rule="evenodd"/>
      <path id="Path_13424" data-name="Path 13424" d="M191.517,475.848c-.831-2.85-1.928-5.608-2.808-8.449l-.108-.125c-.258-.731-.49-1.47-.714-2.21a5.552,5.552,0,0,0-.6-1.936,1.409,1.409,0,0,0-.108-.332,10.726,10.726,0,0,1-10.584-.216,17.229,17.229,0,0,0,.058,3.14c.067,1.529,0,3.074.175,4.6a11.835,11.835,0,0,0-.565,1.387,8.967,8.967,0,0,0-1.421,1.188,5.608,5.608,0,0,0-1.446,3.9,4.153,4.153,0,0,0,.266,1.861c.98.523,1.944,1.088,2.949,1.529h.2a11.99,11.99,0,0,0,5.118.108,12.656,12.656,0,0,1,2-.091c2.393-.515,4.794-.955,7.17-1.5.158-.756.307-1.512.44-2.276a1.115,1.115,0,0,0-.1-.2C191.475,476.114,191.492,475.981,191.517,475.848Z" transform="translate(-29.335 -280.326)" fill="#b8c5d6" fill-rule="evenodd"/>
      <path id="Path_13425" data-name="Path 13425" d="M192.383,468.448c-.515-1.238-.989-2.492-1.4-3.763s-.532-2.683-1.338-3.78a.166.166,0,0,0-.282,0,3.143,3.143,0,0,0-.282.665,1.363,1.363,0,0,0-.681.831.075.075,0,0,0-.108,0c-.041.133-.075.274-.108.407l-.1-.183c0-.066-.075-.083-.116,0a3.208,3.208,0,0,0-.266,2.675,14.34,14.34,0,0,0,.332,1.487,9.849,9.849,0,0,0,.931,2.841c.739,1.4,1.587,2.343,1.861,3.946a18.161,18.161,0,0,1-.067,5.367.392.392,0,0,0,0,.174c-.041.449.582.831.9.432a4.535,4.535,0,0,0,.473-.781.566.566,0,0,0,.5-.05,1.785,1.785,0,0,0,1.163-.241,1.66,1.66,0,0,0,.465-.332.832.832,0,0,0,.216-.465,1.039,1.039,0,0,0,.249-.9v-.067a.764.764,0,0,0,.266-.482C195.274,473.732,193.347,470.8,192.383,468.448Z" transform="translate(-31.73 -280.029)" fill="#8394a4" fill-rule="evenodd"/>
      <path id="Path_13426" data-name="Path 13426" d="M185,463Z" transform="translate(-31.301 -280.397)" fill="#8293a3"/>
      <path id="Path_13427" data-name="Path 13427" d="M192.51,476.807c-.565-2.268-2.185-3.481-4.221-4.387a4.046,4.046,0,0,1-2.659-3.456,44.61,44.61,0,0,0-.889-5.035H184.7a35.723,35.723,0,0,0,.615,4.594,5.665,5.665,0,0,0,.955,2.974c.773.889,1.977,1.146,2.966,1.72a6.647,6.647,0,0,1,2.941,3.681.175.175,0,0,0,.332-.091Z" transform="translate(-31.25 -280.554)" fill="#8293a3"/>
      <path id="Path_13428" data-name="Path 13428" d="M180.589,465.859a40.278,40.278,0,0,0-.889-4.985c0-.116-.216-.091-.208,0,.083,1.2.274,2.376.465,3.564a6.588,6.588,0,0,1,.175,2.866,4.47,4.47,0,0,1-1.3,1.761c-1.479,1.421-3.448,2.443-4.578,4.154h0c1.786-1.662,4.212-2.891,5.7-4.844a3.324,3.324,0,0,0,.64-2.517Z" transform="translate(-29.482 -280.024)" fill="#8293a3"/>
      <path id="Path_13429" data-name="Path 13429" d="M187.9,464.286a4.778,4.778,0,0,0-.357-.964.058.058,0,0,0-.108,0,2.649,2.649,0,0,0,.1,1.047,3.581,3.581,0,0,0,.415,1.122.15.15,0,0,0,.274-.116A8.823,8.823,0,0,0,187.9,464.286Z" transform="translate(-31.71 -280.445)" fill="#8293a3"/>
      <path id="Path_13430" data-name="Path 13430" d="M191.517,475.848c-.831-2.85-1.928-5.608-2.808-8.449l-.108-.125c-.258-.731-.49-1.47-.714-2.21a5.552,5.552,0,0,0-.6-1.936,1.409,1.409,0,0,0-.108-.332,10.726,10.726,0,0,1-10.584-.216,17.229,17.229,0,0,0,.058,3.14c.067,1.529,0,3.074.175,4.6a11.835,11.835,0,0,0-.565,1.387,8.967,8.967,0,0,0-1.421,1.188,5.608,5.608,0,0,0-1.446,3.9,4.153,4.153,0,0,0,.266,1.861c.98.523,1.944,1.088,2.949,1.529h.2a11.99,11.99,0,0,0,5.118.108,12.656,12.656,0,0,1,2-.091c2.393-.515,4.794-.955,7.17-1.5.158-.756.307-1.512.44-2.276a1.115,1.115,0,0,0-.1-.2C191.475,476.114,191.492,475.981,191.517,475.848Z" transform="translate(-29.335 -280.326)" fill="#b8c5d6"/>
      <path id="Path_13431" data-name="Path 13431" d="M142.082,471.209v-.042a18.348,18.348,0,0,0-.457-3.14,14.7,14.7,0,0,1,0-3.913c.05-.332.4-1.662,0-2.168-2.4,1.263-5.367,1.911-7.7,1.063a4.287,4.287,0,0,1-3.581-1.479h-.174c-.49,1.9-.407,3.88-.989,5.816-.258.831-.648,1.662-.947,2.492-.715.972-1.471,1.911-2.185,2.925a3.7,3.7,0,0,0-.723,2.127,4.422,4.422,0,0,0,.507,3.373,31.411,31.411,0,0,0,7.477,1.745,21.253,21.253,0,0,0,3.174-.415,10.279,10.279,0,0,0,4.752-1.3c1.022-.64,1.014-1.662,1.022-2.775A25.122,25.122,0,0,0,142.082,471.209Z" transform="translate(-21.175 -280.148)" fill="#b8c5d6" fill-rule="evenodd"/>
      <path id="Path_13432" data-name="Path 13432" d="M144.507,471.28c-.324-3.19.282-6.431,0-9.563a.382.382,0,0,0-.59-.3.216.216,0,0,0-.374,0c-1.579,2.069-1.612,5.458-1.7,7.992-.05,1.3-.066,2.65-.058,4-.607-.59-1.288-1.147-1.894-1.77-2.393-2.492-.773-5.89-.955-8.865,0,0-.05-.05-.066,0a18.053,18.053,0,0,0-.64,4.013,7.734,7.734,0,0,0,.415,3.739,6.648,6.648,0,0,0,2.011,2.318A7.846,7.846,0,0,1,141.79,474c0,1.363.067,2.725.133,4.054a2.274,2.274,0,0,1-.125.3,6.667,6.667,0,0,1-.4.665l-.357.357c-.108.116,0,.349.174.291h0a.158.158,0,0,0,.2,0,2.087,2.087,0,0,0,.366-.349,2.5,2.5,0,0,0,.424-.457.772.772,0,0,0,1.255-.374.378.378,0,0,1,.066-.258.514.514,0,0,0,.349-.191C145.445,476.007,144.739,473.6,144.507,471.28Z" transform="translate(-23.375 -280.111)" fill="#8394a4" fill-rule="evenodd"/>
      <path id="Path_13433" data-name="Path 13433" d="M133.294,463.28a.05.05,0,0,0-.1,0,23.263,23.263,0,0,1-.673,5.467c-.631,2.1-2.343,2.384-4.154,3.124-2.052.831-4.154,2.019-4.869,4.254-.042.125.166.224.233.091a7.312,7.312,0,0,1,3.456-3.423c1.371-.706,3.016-1.03,4.312-1.853a3.747,3.747,0,0,0,1.437-2.6A15.056,15.056,0,0,0,133.294,463.28Z" transform="translate(-20.896 -280.436)" fill="#8394a4" fill-rule="evenodd"/>
      <path id="Path_13434" data-name="Path 13434" d="M142.082,471.209v-.042a18.348,18.348,0,0,0-.457-3.14,14.7,14.7,0,0,1,0-3.913c.05-.332.4-1.662,0-2.168-2.4,1.263-5.367,1.911-7.7,1.063a4.287,4.287,0,0,1-3.581-1.479h-.174c-.49,1.9-.407,3.88-.989,5.816-.258.831-.648,1.662-.947,2.492-.715.972-1.471,1.911-2.185,2.925a3.7,3.7,0,0,0-.723,2.127,4.422,4.422,0,0,0,.507,3.373,31.411,31.411,0,0,0,7.477,1.745,21.253,21.253,0,0,0,3.174-.415,10.279,10.279,0,0,0,4.752-1.3c1.022-.64,1.014-1.662,1.022-2.775A25.122,25.122,0,0,0,142.082,471.209Z" transform="translate(-21.175 -280.148)" fill="#b8c5d6"/>
      <path id="Path_13435" data-name="Path 13435" d="M141.912,482.3a22.822,22.822,0,0,1-9.413,1.4,33.061,33.061,0,0,1-4.844-.831c-.714-.166-1.662-.648-2.4-.374l-.125.058a6.77,6.77,0,0,0,.224,1.213c4.985,2.742,11.407,2.492,16.741.739a16.381,16.381,0,0,1,.424-2.276,1.137,1.137,0,0,0-.606.075Z" transform="translate(-21.172 -283.648)" fill="#8394a4" fill-rule="evenodd"/>
      <path id="Path_13436" data-name="Path 13436" d="M187.82,484.206c-.872.158-1.612.266-1.844.307-3.024.54-5.816.249-9.845-.282-.922-.116-1.471-.889-2.434-.789-.2,0,.058,1.961.681,2.135a27.3,27.3,0,0,0,8.873.914c2.617-.166,5.666-.291,7.992-1.662.1-.623.224-1.246.341-1.869C191.492,483.467,189.432,483.916,187.82,484.206Z" transform="translate(-29.378 -283.774)" fill="#8394a4" fill-rule="evenodd"/>
      <path id="Path_13437" data-name="Path 13437" d="M132.4,475.558c-1.363-.731-3.2.274-4.345,1.03-.515.341-2.393,1.662-1.08,2.251a.116.116,0,0,0,.174-.108c0-.831,1.952-1.728,2.575-2a22.192,22.192,0,0,1,2.6-.607.316.316,0,0,0,.075-.565Z" transform="translate(-21.407 -282.479)" fill="#d7dee9" fill-rule="evenodd"/>
      <path id="Path_13438" data-name="Path 13438" d="M179.532,474.991c-1.088-.258-2.725.664-3.548,1.338a3.854,3.854,0,0,0-1.022,1.23,3,3,0,0,0-.274,1.5h.05a4.1,4.1,0,0,1,2.144-2.493c.881-.457,2.044-.407,2.8-1.022a.349.349,0,0,0-.15-.557Z" transform="translate(-29.554 -282.418)" fill="#d7dee9" fill-rule="evenodd"/>
      <path id="Path_13439" data-name="Path 13439" d="M45.777,271.6a11.115,11.115,0,0,0,.457-1.554,8.089,8.089,0,0,0,.233.831,1.977,1.977,0,0,0,.39.706h2.559a1.578,1.578,0,0,0,.565-1.138c.141-.706.282-1.936.407-3.44a15.561,15.561,0,0,0,1,4.578h1.853c1.421-3.506,1.072-7.544.989-11.241-.042-2.06-.083-4.154-.224-6.165a6.173,6.173,0,0,0-.482-2.667H51.094a5.142,5.142,0,0,0-.44,2.152c-.083.881-.125,1.761-.158,2.642a16.433,16.433,0,0,0-.914-4.794H46.533a4.527,4.527,0,0,0-.424,1.047,5.3,5.3,0,0,0-.191-1.047H42.869a10.8,10.8,0,0,0-.266,2.243c-.15,2.293-.116,4.611-.158,6.912-.058,3.44-.715,7.6.557,10.925Z" transform="translate(-7.143 -244.615)" fill="#716658" fill-rule="evenodd"/>
      <path id="Path_13440" data-name="Path 13440" d="M259.19,270.5c.116-.457.208-.914.282-1.387a3.114,3.114,0,0,0,.5.656.989.989,0,0,0,1.379,0,4.006,4.006,0,0,0,1.03-2.085,7.788,7.788,0,0,0,.781,2.8h2.584c1.387-2.733.623-6.646.582-9.654a72.8,72.8,0,0,0-.739-10.418s.041-.075.066-.116c-1.038.075-2.069.125-3.107.158a1.811,1.811,0,0,0,.648.631,78.029,78.029,0,0,0-.64,9.745c0,.964-.1,2.019-.166,3.1-.083-.831-.166-1.6-.175-2.3,0-1.612,0-3.215-.05-4.819,0-1.828-.573-4.569,0-6.339l-2.974.075c.5,1.662,0,4.071,0,5.724v1.6a71.208,71.208,0,0,0-.789-7.294c-1.13,0-2.26.066-3.381.133,0,.781,0,1.562.075,2.343a.909.909,0,0,0,0,.208c-.324,3.207-.274,6.422-.307,9.637,0,2.492-.49,5.317.548,7.635Z" transform="translate(-43.088 -244.409)" fill="#716658" fill-rule="evenodd"/>
      <path id="Path_13441" data-name="Path 13441" d="M45.651,294.273c-.606,0-1.221-.041-1.828-.083-.49,2.858-.191,6.314-.274,8.973-.141,4.212-.781,8.773-.216,12.936a1.263,1.263,0,0,0,2.492,0c.615-4.154,0-8.732-.058-12.936C45.751,300.513,46.092,297.114,45.651,294.273Z" transform="translate(-7.294 -251.836)" fill="#673a22" fill-rule="evenodd"/>
      <path id="Path_13442" data-name="Path 13442" d="M50.325,294.34H47.275c-.341,2.667.091,5.882.05,8.233-.075,4.47-.274,8.915-.523,13.376a1.911,1.911,0,0,0,1.271,2.2l.59.05a2.193,2.193,0,0,0,1.853-2.218,129.325,129.325,0,0,0,.258-14.016A47.8,47.8,0,0,0,50.325,294.34Z" transform="translate(-7.911 -251.861)" fill="#673a22" fill-rule="evenodd"/>
      <path id="Path_13443" data-name="Path 13443" d="M47.99,291.85l-.05.116h2.011a.559.559,0,0,0-.05-.1Z" transform="translate(-8.112 -251.44)" fill="#673a22" fill-rule="evenodd"/>
      <path id="Path_13444" data-name="Path 13444" d="M55.6,304.7c-.05-2.883.349-7.195-.374-10.485-1,0-1.986.067-2.974.083A45.106,45.106,0,0,0,52,302.1v6.5a47.278,47.278,0,0,1,0,6.688c-.316,2.052,1.662,3.805,2.924,2.135,1-1.313.773-2.891.764-4.6Q55.656,308.759,55.6,304.7Z" transform="translate(-8.789 -251.841)" fill="#673a22" fill-rule="evenodd"/>
      <path id="Path_13445" data-name="Path 13445" d="M255.431,317.72a2.044,2.044,0,0,0,.133.648q1.508-.075,3.016,0v-.091c.166-1.014.282-2.052.366-3.1a12.021,12.021,0,0,0,.606,2.534,1.238,1.238,0,0,0,.64.723l1.022.05a1.347,1.347,0,0,0,.6-.415l.125-.15a1.949,1.949,0,0,0,.141-.216v.507a2.136,2.136,0,0,0,0,.324c1.3.066,2.592.125,3.888.125a1.993,1.993,0,0,0,0-1.263c.058-4.561-.041-9.139-.191-13.708-.075-2.293.249-5.882-.606-8.308l-2.717.05a12.525,12.525,0,0,0-.515,3.506,26.424,26.424,0,0,0-.548-3.489h-2.575a18.532,18.532,0,0,0-.424,3.705c-.108-1.254-.216-2.492-.316-3.7h-2.592c-.54,3.224,0,6.721,0,9.97C255.6,309.529,255.174,313.7,255.431,317.72Z" transform="translate(-43.186 -252.037)" fill="#673a22" fill-rule="evenodd"/>
    </g>
  </g>
</svg>
