<svg xmlns="http://www.w3.org/2000/svg" width="161.52" height="218.232" viewBox="0 0 161.52 218.232">
  <g id="Preium" transform="translate(-11631.114 -1025.016)">
    <g id="Group_3978" data-name="Group 3978" transform="translate(-499.782 340.669)">
      <g id="Group_3971" data-name="Group 3971" transform="translate(12259.914 704.195) rotate(-25)">
        <path id="Path_14297" data-name="Path 14297" d="M8.616,11.556l2.939-2.941L8.717,5.779l2.838-2.838L8.616,0,5.778,2.838,2.939,0,0,2.941,2.837,5.779,0,8.616l2.939,2.941L5.778,8.718Z" transform="translate(0 0)" fill="#35a3e5"/>
        <path id="Path_14298" data-name="Path 14298" d="M8.616,11.555l2.939-2.939L8.717,5.778l2.838-2.838L8.616,0,5.778,2.837,2.939,0,0,2.939,2.837,5.778,0,8.616l2.939,2.939L5.778,8.718Z" transform="translate(0 17.552)" fill="#35a3e5"/>
      </g>
      <g id="Group_3972" data-name="Group 3972" transform="matrix(0.326, 0.946, -0.946, 0.326, 12287.898, 755.97)">
        <path id="Path_14306" data-name="Path 14306" d="M16.853,7.085,5.461,15.351a1.185,1.185,0,0,1-1.649-.262L.223,10.139A1.184,1.184,0,0,1,.487,8.49L11.877.224a1.185,1.185,0,0,1,1.649.262l3.589,4.943a1.187,1.187,0,0,1-.262,1.656Z" transform="translate(0 1.193)" fill="#35a3e5"/>
        <path id="Path_14307" data-name="Path 14307" d="M31.539,25.728a1.671,1.671,0,0,1-.371,2.336l-10.343,7.5a1.675,1.675,0,0,1-2.339-.371L.318,10.162A1.673,1.673,0,0,1,.691,7.826L11.034.319a1.671,1.671,0,0,1,2.336.373Z" transform="translate(6.997 10.673)" fill="#35a3e5"/>
        <path id="Path_14308" data-name="Path 14308" d="M11.818,1.732A1.85,1.85,0,0,1,11.562,0L0,8.393a1.857,1.857,0,0,1,1.571.781,1.828,1.828,0,0,1,.177,1.9L13.563,2.494a1.83,1.83,0,0,1-1.745-.761Z" transform="translate(5.381 8.2)" fill="#fff"/>
        <path id="Path_14309" data-name="Path 14309" d="M11.949,0C10.356.155,7.777,1.344,5.175,3.231S.641,7.2,0,8.67a1.671,1.671,0,0,0,.995-.319L11.338.844A1.657,1.657,0,0,0,11.948,0Z" transform="translate(26.847 37.884)" fill="#fff"/>
        <path id="Path_14310" data-name="Path 14310" d="M11.74.949.533,9.08.269,8.716a1.405,1.405,0,0,1,.31-1.963L9.524.268A1.4,1.4,0,0,1,11.487.58Z" transform="translate(0.041 0.523)" fill="#212032"/>
        <rect id="Rectangle_17592" data-name="Rectangle 17592" width="3.582" height="2.766" transform="matrix(0.809, -0.587, 0.587, 0.809, 2.038, 2.873)" fill="#212032"/>
        <path id="Path_14311" data-name="Path 14311" d="M3.446.9.782,2.824a.493.493,0,0,1-.689-.109h0A.5.5,0,0,1,.2,2.026L2.866.093A.5.5,0,0,1,3.555.2h0A.5.5,0,0,1,3.446.9Z" transform="translate(1.396 0)" fill="#212032"/>
        <rect id="Rectangle_17593" data-name="Rectangle 17593" width="16.126" height="2.086" transform="matrix(0.809, -0.587, 0.587, 0.809, 21.752, 40.72)" fill="#fff"/>
        <rect id="Rectangle_17594" data-name="Rectangle 17594" width="16.126" height="2.086" transform="matrix(0.809, -0.587, 0.587, 0.809, 19.749, 37.959)" fill="#fff"/>
      </g>
      <g id="Group_3975" data-name="Group 3975" transform="translate(12130.896 742.626)">
        <path id="Path_14316" data-name="Path 14316" d="M1877.337,460.587l4.2,9.419a2.195,2.195,0,0,0,2.061,1.293l.138-.009a2.149,2.149,0,0,0,.978-.332,2.238,2.238,0,0,0,.79-2.8l-4.15-9.289a2.242,2.242,0,0,0-2.613-1.284,2.166,2.166,0,0,0-.9.507c-.035.031-.067.065-.1.1a2.192,2.192,0,0,0-.414,2.4Z" transform="translate(-1848.898 -457.226)" fill="#35a3e5"/>
        <path id="Path_14317" data-name="Path 14317" d="M1877.362,463.765l4.2,9.419a2.195,2.195,0,0,0,2.061,1.293l.138-.009-5.89-13.2c-.035.031-.068.065-.1.1A2.192,2.192,0,0,0,1877.362,463.765Z" transform="translate(-1848.924 -460.404)" fill="#4795c6" opacity="0.6"/>
        <g id="Group_3974" data-name="Group 3974" transform="translate(0 0)">
          <rect id="Rectangle_17595" data-name="Rectangle 17595" width="22.505" height="3.646" transform="matrix(0.913, -0.408, 0.408, 0.913, 6.911, 16.424)"/>
          <path id="Path_14312" data-name="Path 14312" d="M1697.564,540.877l4.2,9.419a2.189,2.189,0,0,1-.415,2.4,1.208,1.208,0,0,1-.1.1,2.159,2.159,0,0,1-.9.506,2.241,2.241,0,0,1-2.613-1.283l-4.15-9.287a2.24,2.24,0,0,1,.79-2.8,2.163,2.163,0,0,1,.978-.332.837.837,0,0,0,.139-.008,2.151,2.151,0,0,1,.844.143A2.189,2.189,0,0,1,1697.564,540.877Z" transform="translate(-1693.385 -526.679)" fill="#35a3e5"/>
          <path id="Path_14313" data-name="Path 14313" d="M1708.46,540.877l4.2,9.419a2.189,2.189,0,0,1-.415,2.4,1.189,1.189,0,0,1-.1.1l-5.89-13.2a.836.836,0,0,0,.138-.008,2.152,2.152,0,0,1,.844.143A2.189,2.189,0,0,1,1708.46,540.877Z" transform="translate(-1704.281 -526.679)" fill="#72747d" opacity="0.3"/>
          <path id="Path_14314" data-name="Path 14314" d="M1717.152,516.2l5.861,13.13a2.194,2.194,0,0,1-.413,2.4,2.166,2.166,0,0,1-.693.492,2.2,2.2,0,0,1-2.89-1.107l-5.859-13.13a2.192,2.192,0,0,1,1.105-2.89,2.148,2.148,0,0,1,.828-.186A2.187,2.187,0,0,1,1717.152,516.2Z" transform="translate(-1709.958 -505.794)" fill="#35a3e5"/>
          <path id="Path_14315" data-name="Path 14315" d="M1728.841,516.2l5.861,13.13a2.193,2.193,0,0,1-.413,2.4l-7.509-16.82A2.187,2.187,0,0,1,1728.841,516.2Z" transform="translate(-1721.647 -505.794)" fill="#72747d" opacity="0.3"/>
          <path id="Path_14318" data-name="Path 14318" d="M1845.962,458.714l5.86,13.13a2.187,2.187,0,0,0,2.061,1.293,2.135,2.135,0,0,0,.828-.186,2.195,2.195,0,0,0,1.107-2.89l-5.86-13.13a2.195,2.195,0,0,0-2.89-1.107,2.218,2.218,0,0,0-1.15,1.217A2.188,2.188,0,0,0,1845.962,458.714Z" transform="translate(-1822.35 -455.636)" fill="#35a3e5"/>
          <path id="Path_14319" data-name="Path 14319" d="M1845.949,462.466l5.86,13.13a2.187,2.187,0,0,0,2.061,1.293l-7.507-16.819a2.163,2.163,0,0,0-.461.724A2.187,2.187,0,0,0,1845.949,462.466Z" transform="translate(-1822.336 -459.388)" fill="#4795c6"/>
        </g>
      </g>
      <g id="Group_3973" data-name="Group 3973" transform="translate(12209.668 684.347)">
        <path id="Path_14328" data-name="Path 14328" d="M2300.593,743.063c-3.767-1.106-6.573.282-7.681,4.056a4.716,4.716,0,0,0-.034,3.577,9.979,9.979,0,0,1,10.039,2.925,5.4,5.4,0,0,0,1.944-3.2C2305.838,747.111,2304.362,744.171,2300.593,743.063Z" transform="translate(-2285.556 -740.353)" fill="none"/>
        <path id="Path_14329" data-name="Path 14329" d="M2262.075,741.926h0a9,9,0,1,0-14.46-4.254,9.969,9.969,0,1,0,14.46,4.254Zm-1.681-2.557a9.944,9.944,0,0,0-10.03-2.925,4.715,4.715,0,0,1,.034-3.577c1.108-3.769,3.914-5.163,7.681-4.056s5.244,4.042,4.268,7.361a5.457,5.457,0,0,1-1.954,3.2Z" transform="translate(-2243.032 -726.102)"/>
        <path id="Path_14330" data-name="Path 14330" d="M2299.814,727.435a9,9,0,0,1,3.306,15.462h0a9.959,9.959,0,0,1-2.163,11.316,9.964,9.964,0,0,0,3.127-12.134h0a8.995,8.995,0,1,0-12.134-13.272A8.982,8.982,0,0,1,2299.814,727.435Z" transform="translate(-2285.048 -726.263)" fill="#35a3e5"/>
        <path id="Path_14331" data-name="Path 14331" d="M2285.531,761c.456-.248.554-.3,1.075-.537a4.715,4.715,0,0,1,.034-3.577,7.074,7.074,0,0,1,1.5-2.822,6.21,6.21,0,0,0-2.462,3.632C2285.246,759.16,2285.023,759.864,2285.531,761Z" transform="translate(-2279.283 -750.115)" fill="#35a3e5"/>
        <path id="Path_14332" data-name="Path 14332" d="M2262.938,846.294l-.564-.167.324-1.108,1.806.53-1.144,3.893-1.24-.365Z" transform="translate(-2259.427 -828.242)" fill="#fff"/>
        <path id="Path_14333" data-name="Path 14333" d="M2279.461,851.9c1.128.33,1.36,1.278,1.017,2.444s-1.057,1.843-2.18,1.511-1.36-1.278-1.016-2.449S2278.332,851.571,2279.461,851.9Zm-.329,1.118c-.388-.114-.546.244-.689.729s-.206.876.184.987.54-.245.684-.735S2279.516,853.133,2279.132,853.02Z" transform="translate(-2272.325 -834.08)" fill="#fff"/>
        <path id="Path_14334" data-name="Path 14334" d="M2301.332,860.583l-.48,1.634-1.182-.347,1.108-3.77,1.182.349-.467,1.586,1.552-1.27,1.336.392-1.834,1.424.807,2.372-1.411-.413Z" transform="translate(-2291.679 -839.476)" fill="#fff"/>
        <path id="Path_14335" data-name="Path 14335" d="M2334.573,871.114l-1.246-.367a.585.585,0,0,0-.437-.382c-.457-.141-.809.116-.955.615a.786.786,0,0,0,.588,1.129.8.8,0,0,0,.757-.141l-.943-.282.245-.837,1.923.564-.347,1.182a2.05,2.05,0,0,1-2.069.5,2,2,0,0,1,1.116-3.838A1.673,1.673,0,0,1,2334.573,871.114Z" transform="translate(-2318.276 -848.977)" fill="#fff"/>
      </g>
      <g id="Group_3977" data-name="Group 3977" transform="translate(12162.118 701.667)">
        <path id="Path_14336" data-name="Path 14336" d="M736.1,500.044a11.954,11.954,0,0,1,.312,5.391,23.409,23.409,0,0,1-1.041,4.2q-.174.5-.36,1c-.258.686-.536,1.367-.826,2.041-1.383,3.216-3.051,6.285-4.712,9.358a1.128,1.128,0,0,1-.094.136c-.984-.528-1.967-1.045-2.935-1.579a69.321,69.321,0,0,1-8.456-5.246l-.114-.084c-.244-.186-.484-.372-.722-.562a18.6,18.6,0,0,1-4.306-4.62,8.323,8.323,0,0,1-1.459-4.508,6.476,6.476,0,0,1,4.968-6.151,5.981,5.981,0,0,1,5.663,1.511c.472.416.922.856,1.385,1.289.214-.8.4-1.579.636-2.347a6.015,6.015,0,0,1,6.081-4.254A6.347,6.347,0,0,1,736.1,500.044Z" transform="translate(-711.388 -495.62)" fill="#35a3e5"/>
        <path id="Path_14337" data-name="Path 14337" d="M758.461,531.026q-.174.5-.36,1l-3.622,1.084-4.238-7.241.7,12.17-5.789-6.647-.262,4.2-3.8,1.141-.114-.084c-.244-.186-.484-.372-.722-.562l3.83-1.145.356-5.7,5.513,6.335-.758-13.222,5.689,9.733Z" transform="translate(-734.475 -517.01)" fill="#fff"/>
      </g>
      <g id="Group_3976" data-name="Group 3976" transform="translate(12164.813 722.269)">
        <ellipse id="Ellipse_73" data-name="Ellipse 73" cx="43.87" cy="6.591" rx="43.87" ry="6.591" transform="translate(2.175 167.127)" opacity="0.2"/>
        <path id="Path_14393" data-name="Path 14393" d="M1979.086,1003.167a91.967,91.967,0,0,0,2.721,23.44s6.681,4.935,10.516-.112l2.473-20.859S1982.674,998.793,1979.086,1003.167Z" transform="translate(-1951.116 -896.377)" fill="#ffbe9d"/>
        <path id="Path_14394" data-name="Path 14394" d="M2061.06,1010.111a109.372,109.372,0,0,0,3.556,21.13,8.23,8.23,0,0,0,7.535,1.644,8.042,8.042,0,0,0,3.541-1.754l.1-23.111Z" transform="translate(-2016.024 -901.376)" fill="#ffbe9d"/>
        <path id="Path_14395" data-name="Path 14395" d="M1992,1112.662a187.926,187.926,0,0,0,5.6,31.908h5.691s3.16-27.706-.771-31.908C2002.529,1112.662,1994.316,1109.017,1992,1112.662Z" transform="translate(-1961.35 -982.937)" fill="#ffbe9d"/>
        <path id="Path_14396" data-name="Path 14396" d="M2075.548,1112.63s-3,9.2,3.273,33.87h8.449s3.806-25.415-.823-33.122Z" transform="translate(-2026.927 -984.194)" fill="#ffbe9d"/>
        <path id="Path_14397" data-name="Path 14397" d="M2004.019,910.958a5.865,5.865,0,0,1-.85.867,7.219,7.219,0,0,1-.944.669c-4.631,2.785-13.193,1.9-13.193,1.9s-1.6-7.26-1.7-7.916c.05.642.564,7.658.564,7.658a15.59,15.59,0,0,1-5.751,1.9,26.946,26.946,0,0,1-8.933-.417c-.45-.09-.863-.183-1.236-.275-1.325-.321-2.131-.606-2.131-.606-.45-22.39,4.31-29.863,4.31-29.863l.866-.023,23.9-.646C2004.625,893.62,2004.019,910.958,2004.019,910.958Z" transform="translate(-1943.788 -803.358)" fill="#a4bccd"/>
        <path id="Path_14398" data-name="Path 14398" d="M2048.24,905.435a.209.209,0,0,1-.19-.16c-.625-2.642-1.187-20.326-1.21-21.078a.208.208,0,0,1,.19-.208.2.2,0,0,1,.151.057.193.193,0,0,1,.057.151c0,.185.583,18.39,1.2,20.986a.208.208,0,0,1-.142.258A.138.138,0,0,1,2048.24,905.435Z" transform="translate(-2004.766 -803.182)" fill="#fff"/>
        <path id="Path_14399" data-name="Path 14399" d="M2037.444,901.621a.2.2,0,0,1-.058,0c-4.287-1.458-3.64-15.111-3.61-15.693a.2.2,0,1,1,.394.017c0,.137-.662,13.893,3.333,15.261a.214.214,0,0,1-.058.415Z" transform="translate(-1994.383 -804.553)" fill="#fff"/>
        <path id="Path_14400" data-name="Path 14400" d="M1977.458,901.212a.194.194,0,0,1-.167-.1.225.225,0,0,1,.06-.3c5.148-3.508,6.875-13.559,6.893-13.659a.2.2,0,1,1,.385.075c-.069.417-1.777,10.339-7.068,13.957A.2.2,0,0,1,1977.458,901.212Z" transform="translate(-1949.68 -805.554)" fill="#fff"/>
        <path id="Path_14401" data-name="Path 14401" d="M2097.21,897.865a.18.18,0,0,1-.09-.023c-3.417-1.86-5.143-8.685-5.208-8.974a.2.2,0,1,1,.379-.11c.017.069,1.754,6.929,5.012,8.7a.221.221,0,0,1,.087.287.191.191,0,0,1-.181.117Z" transform="translate(-2040.441 -806.834)" fill="#fff"/>
        <path id="Path_14402" data-name="Path 14402" d="M1982.177,918.525a29.465,29.465,0,0,1-12.291-1.29c-.45-22.39,4.31-29.862,4.31-29.862l.866-.023c-.85,3.612-4.093,18.19-3.844,28.831A28.308,28.308,0,0,0,1982.177,918.525Z" transform="translate(-1943.819 -805.844)" fill="#fff"/>
        <path id="Path_14403" data-name="Path 14403" d="M1981.669,1006.53a38.1,38.1,0,0,0-.4,5.935c-.45-.09-.862-.183-1.235-.275a26.039,26.039,0,0,1,.317-5.5Z" transform="translate(-1951.853 -900.196)" fill="#fff"/>
        <path id="Path_14404" data-name="Path 14404" d="M2123.948,996.226a7.247,7.247,0,0,1-.944.669l-.625-6.075,1.121.05Z" transform="translate(-2064.57 -887.759)" fill="#fff"/>
        <path id="Path_14405" data-name="Path 14405" d="M1988.79,870.021l.227,2.515s17.568,3.429,25.323-.8l.229-3.085Z" transform="translate(-1958.809 -791.039)" fill="#fff"/>
        <path id="Path_14406" data-name="Path 14406" d="M2036.166,614.514H2027a9.951,9.951,0,0,0,.435-1.729,22.9,22.9,0,0,0,.26-3.958l6.5-3.487a4.237,4.237,0,0,1,.46,1.1A73,73,0,0,1,2036.166,614.514Z" transform="translate(-1989.059 -582.581)" fill="#ea9b74"/>
        <path id="Path_14407" data-name="Path 14407" d="M2036.266,606.427c-.435,4.806-5.152,6.041-7.216,6.358a22.872,22.872,0,0,0,.26-3.958l6.5-3.487A4.245,4.245,0,0,1,2036.266,606.427Z" transform="translate(-1990.682 -582.581)" fill="#ea9b74"/>
        <path id="Path_14408" data-name="Path 14408" d="M2003.608,551.36s-.017.115-.033.319c-.221,2.446-.135,5.462,1.369,7.518,1.918,2.619,5.737,2.014,8.139.446,3.394-2.214,4.673-6.862,4.32-10.718a6.458,6.458,0,0,0-7.616-5.973C2006.008,543.715,2003.906,547.8,2003.608,551.36Z" transform="translate(-1970.442 -533.089)" fill="#ffbe9d"/>
        <path id="Path_14409" data-name="Path 14409" d="M2021.812,594.494a1.047,1.047,0,1,1,0-2.094.233.233,0,1,1,0,.467.585.585,0,1,0,0,1.16h.044a.233.233,0,1,1,.023.464Z" transform="translate(-1984.123 -572.337)" fill="#ea9b74"/>
        <path id="Path_14410" data-name="Path 14410" d="M2022.876,597.624a4.216,4.216,0,0,1-.933-.1.231.231,0,0,1-.175-.277.235.235,0,0,1,.279-.175,3.745,3.745,0,0,0,.833.092c1.648,0,2.988-1.042,2.988-2.339a1.866,1.866,0,0,0-.025-.306.231.231,0,0,1,.456-.077,2.343,2.343,0,0,1,.033.383C2026.328,596.366,2024.778,597.624,2022.876,597.624Z" transform="translate(-1984.912 -573.797)" fill="#ea9b74"/>
        <path id="Path_14411" data-name="Path 14411" d="M2038.372,580.313c0,.4-.246.733-.55.733s-.552-.329-.552-.733.248-.733.552-.733S2038.372,579.909,2038.372,580.313Z" transform="translate(-1997.19 -562.188)"/>
        <path id="Path_14412" data-name="Path 14412" d="M2016.242,582.271c0,.4-.248.733-.552.733s-.55-.329-.55-.733.246-.731.55-.731A.661.661,0,0,1,2016.242,582.271Z" transform="translate(-1979.67 -563.739)"/>
        <path id="Path_14413" data-name="Path 14413" d="M2003.484,529.551c-.271.038-.936-.787-1.071-.967a1.733,1.733,0,0,1-.3-1.6c.24-.685.75-.765,1.412-.765,0,0-.735-2.362,1.739-2.4.131,0,.6-.5.733-.581a5.349,5.349,0,0,1,2.364-.771,9.043,9.043,0,0,1,5.3,1.44,9.543,9.543,0,0,1,1.779,1.312,6.411,6.411,0,0,1,.806.9c.059.081.527,1.027.5,1.027a4.444,4.444,0,0,1,2.5.6,1.282,1.282,0,0,1,.054,2.227s1.275,2.208-1.585,2.6C2017.7,532.574,2010.7,528.545,2003.484,529.551Z" transform="translate(-1969.293 -516.952)" fill="#94361c"/>
        <path id="Path_14414" data-name="Path 14414" d="M2060.838,575.85l-.658,5,.967-.889,1.16-1.977.967-.077-.154-2.364Z" transform="translate(-2015.327 -558.989)" fill="#94361c"/>
        <path id="Path_14415" data-name="Path 14415" d="M2063.23,587.645a1.751,1.751,0,0,1,.958-1c.931-.271,1.194.679,1.208,1.412a3.4,3.4,0,0,1-.727,2.354,2.971,2.971,0,0,1-1.112.792,7.928,7.928,0,0,0-1.177.321S2063.226,587.666,2063.23,587.645Z" transform="translate(-2017.069 -567.74)" fill="#ffbe9d"/>
        <path id="Path_14416" data-name="Path 14416" d="M2066.064,594.705a.232.232,0,1,1-.029-.463.9.9,0,0,0,.685-.358,1.165,1.165,0,0,0,.087-.833.233.233,0,0,1,.446-.131,1.622,1.622,0,0,1-.146,1.223,1.341,1.341,0,0,1-1.015.565Z" transform="translate(-2019.791 -572.632)" fill="#ea9b74"/>
        <path id="Path_14417" data-name="Path 14417" d="M2017.644,547.659h-.012c-1.221-.123-1.479-.862-1.49-.894a.115.115,0,1,1,.208-.073c0,.025.233.625,1.294.735a.115.115,0,0,1,.079.042.113.113,0,0,1,.025.085A.116.116,0,0,1,2017.644,547.659Z" transform="translate(-1980.447 -536.066)" fill="#731706"/>
        <path id="Path_14418" data-name="Path 14418" d="M2069.616,552.963a.117.117,0,0,1,0-.231,2.1,2.1,0,0,0,2.21-2.054.117.117,0,1,1,.231,0,2.365,2.365,0,0,1-2.429,2.292Z" transform="translate(-2022.717 -539.201)" fill="#731706"/>
        <path id="Path_14419" data-name="Path 14419" d="M2004.1,555.269c1.25-.158,8.768-3.137,14.849,3.389a.874.874,0,0,0,.038-1.1,12.182,12.182,0,0,0-.059-3.681,13.036,13.036,0,0,0-13.261-2.867s-.987,0-.91.813l-.417,2.267S2003.307,554.706,2004.1,555.269Z" transform="translate(-1970.693 -539.026)" fill="#35a3e5"/>
        <path id="Path_14420" data-name="Path 14420" d="M2028.436,568.031a.227.227,0,0,1-.15-.056,13.926,13.926,0,0,0-11.626-3.012.232.232,0,1,1-.115-.45,14.4,14.4,0,0,1,12.041,3.108.233.233,0,0,1-.15.417Z" transform="translate(-1980.644 -550.045)"/>
        <path id="Path_14421" data-name="Path 14421" d="M2012.29,557.5" transform="translate(-1977.414 -544.707)" fill="none" stroke="#000" stroke-linecap="round" stroke-miterlimit="10" stroke-width="1"/>
        <path id="Path_14422" data-name="Path 14422" d="M1863.667,603.123s1.458-11.458,13.847-8.714c0,0,17.874-1.129,18.357-.966s10.143-3.541,14.49,5c0,0,7.729-3.873,13.2.967l2.738-19.2,5.8-.16,3.221,22.426s.8,4.033-2.254,5.162c0,0-8.212,3.873-23.509,4.679l-2.583-.115-7.562,29.477H1875.9l-4.312-30.7s-5.348,11.505-14.043,12.634l13.847,8.229.644,6.458s-17.067-2.26-25.119-8.874c0,0-3.381-3.387-1.458-6.458,0,0,5-11.939,17.228-18.23Z" transform="translate(-1844.871 -562.56)" fill="#ffbe9d"/>
        <path id="Path_14423" data-name="Path 14423" d="M2110.19,735.186a3.858,3.858,0,0,1-.417.087.229.229,0,1,1-.064-.452,7.855,7.855,0,0,0,5.854-4.891l.109-.3.248.208s.983.69,4.554-.014a.229.229,0,0,1,.087.45c-2.869.565-4.167.275-4.662.067A8.287,8.287,0,0,1,2110.19,735.186Z" transform="translate(-2054.367 -680.98)" fill="#d47647" opacity="0.48"/>
        <path id="Path_14424" data-name="Path 14424" d="M1980.614,644.107s1.481,15.932-5.514,20.657l2.812,27.731s19.774,2.9,25.7-.3l6.167-28.54s-12.708-3.16-9.968-20.832l-5.021.3s-.152,6.4-4.106,6.25c0,0-5.17.61-5.019-5.943Z" transform="translate(-1947.971 -612.254)" fill="#2d3336"/>
        <path id="Path_14425" data-name="Path 14425" d="M2106.592,646.131a.225.225,0,0,1-.208-.138c-3.273-7.518-13.284-5.208-13.387-5.193a.229.229,0,0,1-.106-.444c.1-.025,10.487-2.41,13.912,5.456a.229.229,0,0,1-.119.3A.234.234,0,0,1,2106.592,646.131Z" transform="translate(-2041.101 -610.019)" fill="#d47647" opacity="0.48"/>
        <path id="Path_14426" data-name="Path 14426" d="M2165.754,679.535a14.113,14.113,0,0,1-4.375-.687.229.229,0,1,1,.158-.429c.067.025,6.914,2.479,11.468-2.231a.229.229,0,0,1,.327.319A10.249,10.249,0,0,1,2165.754,679.535Z" transform="translate(-2095.315 -638.626)" fill="#d47647" opacity="0.48"/>
        <path id="Path_14427" data-name="Path 14427" d="M1973.131,711.157a.222.222,0,0,1-.127-.04.225.225,0,0,1-.1-.145.227.227,0,0,1,.034-.171,33.167,33.167,0,0,0,1.042-4.335.228.228,0,1,1,.448.085,31.528,31.528,0,0,1-1.1,4.5A.227.227,0,0,1,1973.131,711.157Z" transform="translate(-1946.231 -662.494)" fill="#d47647" opacity="0.48"/>
        <path id="Path_14428" data-name="Path 14428" d="M1934.233,655.673a.187.187,0,0,1-.048,0,.23.23,0,0,1-.175-.273,13.169,13.169,0,0,1,5.181-7.66,11.452,11.452,0,0,1,8.939-1.227.229.229,0,1,1-.1.448,11,11,0,0,0-8.593,1.165c-3.9,2.516-4.973,7.322-4.983,7.372A.227.227,0,0,1,1934.233,655.673Z" transform="translate(-1915.436 -614.882)" fill="#d47647" opacity="0.48"/>
        <path id="Path_14429" data-name="Path 14429" d="M1894.283,738.142a.221.221,0,0,1-.087-.019.229.229,0,0,1-.123-.3c.033-.077,3.312-7.739,10.318-10.487a.229.229,0,0,1,.167.417c-6.829,2.677-10.033,10.162-10.064,10.237A.227.227,0,0,1,1894.283,738.142Z" transform="translate(-1883.809 -679.161)" fill="#d47647" opacity="0.48"/>
        <path id="Path_14430" data-name="Path 14430" d="M1894.232,787.054a.173.173,0,0,1-.056,0,18.689,18.689,0,0,0-2.771-.387.229.229,0,0,1,.029-.456,18.733,18.733,0,0,1,2.854.4.229.229,0,0,1-.056.45Z" transform="translate(-1881.554 -725.773)" fill="#d47647" opacity="0.48"/>
        <path id="Path_14431" data-name="Path 14431" d="M1964.005,812.988l-1.531,5.525a1.977,1.977,0,0,0,1.015,2.369l2.516,4.212s.579,1.819,2.01,1.631l-2.592-9.891s1.277-3.4.048-4.258C1965.478,812.575,1964.874,811.294,1964.005,812.988Z" transform="translate(-1937.899 -746.278)" fill="#ffbe9d"/>
        <path id="Path_14432" data-name="Path 14432" d="M1962,826.33l-4.418,1.627s-1.25,1.233.521,2.119c.65.327,1.994-.479,2.6-.723a23.345,23.345,0,0,0,3.169-1.573,1.637,1.637,0,0,0,.591-.5C1965.2,826.055,1962.582,826.07,1962,826.33Z" transform="translate(-1933.764 -757.423)" fill="#ffbe9d"/>
        <path id="Path_14433" data-name="Path 14433" d="M1971.819,837.9a9.62,9.62,0,0,0-1.156.262l-2.775.935c-.356.121-1.222.233-1.5.506,0,0-1.25,1.233.521,2.119.65.327,1.993-.479,2.6-.725,1.473-.594,3.627-.833,4.683-2.15a.727.727,0,0,0,.144-.7C1974.031,837.4,1972.385,837.8,1971.819,837.9Z" transform="translate(-1940.738 -766.536)" fill="#ffbe9d"/>
        <path id="Path_14434" data-name="Path 14434" d="M1975.063,852.811a8.529,8.529,0,0,0-1.042.237l-2.5.833c-.321.108-1.1.208-1.346.454,0,0-1.119,1.11.469,1.906.585.294,1.794-.431,2.337-.65,1.327-.537,3.264-.746,4.214-1.935a.645.645,0,0,0,.129-.625C1977.054,852.363,1975.573,852.721,1975.063,852.811Z" transform="translate(-1943.769 -778.36)" fill="#ffbe9d"/>
        <path id="Path_14435" data-name="Path 14435" d="M2221.639,496.82a9.7,9.7,0,1,1-12.649,5.256A9.7,9.7,0,0,1,2221.639,496.82Z" transform="translate(-2132.55 -496.091)" fill="#061443"/>
        <path id="Path_14436" data-name="Path 14436" d="M2217.269,499.752a9.7,9.7,0,1,1-12.649,5.256A9.7,9.7,0,0,1,2217.269,499.752Z" transform="translate(-2129.091 -498.413)" fill="#252d6b"/>
        <path id="Path_14437" data-name="Path 14437" d="M2227.415,541.657s7.947-8.9,1.092-14.053c0,0-17.14-1.25-7.791,14.832Z" transform="translate(-2140.211 -521.021)" fill="#ffbe9d"/>
        <ellipse id="Ellipse_75" data-name="Ellipse 75" cx="10.587" cy="10.608" rx="10.587" ry="10.608" transform="translate(68.582 1.671)" fill="#061443"/>
        <ellipse id="Ellipse_76" data-name="Ellipse 76" cx="9.683" cy="9.701" rx="9.683" ry="9.701" transform="translate(69.486 2.577)" fill="#252d6b"/>
        <path id="Path_14438" data-name="Path 14438" d="M2202.174,530.289a5.566,5.566,0,1,1-7.257,3.016A5.566,5.566,0,0,1,2202.174,530.289Z" transform="translate(-2121.659 -522.833)" fill="#c7d1d9"/>
        <path id="Path_14439" data-name="Path 14439" d="M2212,543.881a2.689,2.689,0,1,1-3.506,1.458A2.69,2.69,0,0,1,2212,543.881Z" transform="translate(-2132.58 -533.766)" fill="#283535"/>
        <path id="Path_14440" data-name="Path 14440" d="M2007.689,1242.368l-1.458-8.449s-.4-.727,1.9-.6l7.672-.365-.073,11.853-8.089-.012Z" transform="translate(-1972.596 -1079.449)" fill="#fff"/>
        <path id="Path_14441" data-name="Path 14441" d="M2015.24,1255.127h0a.208.208,0,0,1-.238-.179l-1.433-7.256a.209.209,0,0,1,.154-.235.219.219,0,0,1,.236.181l1.435,7.256a.194.194,0,0,1-.028.149.2.2,0,0,1-.126.084Z" transform="translate(-1978.424 -1090.933)" fill="#a4bccd"/>
        <path id="Path_14442" data-name="Path 14442" d="M2023.832,1257.7a.208.208,0,0,1-.16-.042c-.833-.644-1.633-7.291-1.785-8.614a.19.19,0,0,1,.173-.208.225.225,0,0,1,.223.208c.435,3.806,1.156,7.954,1.61,8.3a.223.223,0,0,1,.056.294A.191.191,0,0,1,2023.832,1257.7Z" transform="translate(-1985.01 -1092.029)" fill="#a4bccd"/>
        <path id="Path_14443" data-name="Path 14443" d="M2034.675,1254.333h-.019a.218.218,0,0,1-.229-.187c-.586-3.644-.948-9.631-.929-9.953a.186.186,0,0,1,.208-.177.225.225,0,0,1,.186.235c-.011.246.327,6.139.923,9.855A.19.19,0,0,1,2034.675,1254.333Z" transform="translate(-1994.203 -1088.207)" fill="#a4bccd"/>
        <path id="Path_14444" data-name="Path 14444" d="M2044.685,1256.6h-.023a.222.222,0,0,1-.227-.194,72.392,72.392,0,0,1-.431-8.916.186.186,0,0,1,.208-.188.225.225,0,0,1,.2.227,72.724,72.724,0,0,0,.417,8.847A.189.189,0,0,1,2044.685,1256.6Z" transform="translate(-2002.518 -1090.812)" fill="#a4bccd"/>
        <path id="Path_14445" data-name="Path 14445" d="M1964.639,1271.5a9.2,9.2,0,0,1,.208,1.975c.11.844.221,1.692.333,2.535l.26,1.966a2.974,2.974,0,0,1-2.687,3.081l-19.145,2.214s-4.887-.089-3.235-3.858c0,0,.946-1.989,4.887-2.6.323-.054.669-.1,1.029-.127l5.787-5.024.575-3.26c.111-.625,1.875-.475,2.367-.462,1.418.035,2.573.017,2.917,1.348.417,1.581,1.519,3.292,3.837,3.008.7-.086,2.254-2.035,2.808-.913A.628.628,0,0,1,1964.639,1271.5Z" transform="translate(-1920.209 -1107.128)" fill="#35a3e5"/>
        <path id="Path_14446" data-name="Path 14446" d="M1965.241,1306.79l.26,1.967a3.446,3.446,0,0,1-.6,1.956h0a2.885,2.885,0,0,1-2.083,1.121l-12.334,1.427-6.81.785s-4.3-.077-3.469-3.2c.029-.11.064-.221.1-.337s.083-.208.129-.314c0,0,.948-1.992,4.887-2.6a48.2,48.2,0,0,1,6.458.9,16.118,16.118,0,0,0,4.129-.317Z" transform="translate(-1920.259 -1137.907)" fill="#fff"/>
        <path id="Path_14447" data-name="Path 14447" d="M1964.879,1324.742a2.886,2.886,0,0,1-2.083,1.121l-12.334,1.427-6.81.785s-4.3-.077-3.469-3.2c.029-.11.064-.221.1-.338a12.14,12.14,0,0,1,4.3.594,26.416,26.416,0,0,0,9.5.806S1961.9,1325.677,1964.879,1324.742Z" transform="translate(-1920.243 -1151.932)"/>
        <path id="Path_14448" data-name="Path 14448" d="M2083.069,1230.473l-1.75-10.345s-.5-.875,2.471-.846l9.949-.862-.281,14.628-10.485.417Z" transform="translate(-2032.037 -1067.946)" fill="#fff"/>
        <path id="Path_14449" data-name="Path 14449" d="M2092.7,1247.756a.24.24,0,0,1-.237-.208l-1.744-8.875a.24.24,0,0,1,.167-.292.233.233,0,0,1,.265.208l1.744,8.874a.24.24,0,0,1-.167.292Z" transform="translate(-2039.499 -1083.747)" fill="#a4bccd"/>
        <path id="Path_14450" data-name="Path 14450" d="M2103.865,1250.424a.206.206,0,0,1-.133-.038c-1.069-.75-2-8.908-2.175-10.537a.234.234,0,0,1,.192-.271.237.237,0,0,1,.246.231c.417,3.944,1.317,9.7,1.958,10.151a.277.277,0,0,1,.081.346A.209.209,0,0,1,2103.865,1250.424Z" transform="translate(-2048.082 -1084.697)" fill="#a4bccd"/>
        <path id="Path_14451" data-name="Path 14451" d="M2117.994,1245.768a.244.244,0,0,1-.24-.219,122.092,122.092,0,0,1-1.042-12.235.221.221,0,0,1,.24-.208.261.261,0,0,1,.208.281c-.017.313.331,7.593,1.042,12.1a.238.238,0,0,1-.179.283Z" transform="translate(-2060.082 -1079.573)" fill="#a4bccd"/>
        <path id="Path_14452" data-name="Path 14452" d="M2130.846,1248.014a.246.246,0,0,1-.242-.225,84.33,84.33,0,0,1-.417-10.979.219.219,0,0,1,.063-.166.222.222,0,0,1,.166-.065.255.255,0,0,1,.208.269,83.263,83.263,0,0,0,.417,10.887.235.235,0,0,1-.186.277Z" transform="translate(-2070.73 -1082.322)" fill="#a4bccd"/>
        <path id="Path_14453" data-name="Path 14453" d="M2108.585,1275.495a2.971,2.971,0,0,1-2.421,1.458l-17.278-.321a2.136,2.136,0,0,1-1.529-2.362l.069-2.266.131-4.375a.923.923,0,0,1,.546-1.292s1.638.579,4.514-1.356l-1.167-1.531s-.589-.625,1.973-1.475c0,0,2.952-1.8,6.041,1.142l-.279,2.946s2.327,3.542,4.866,3.866h.015a8.684,8.684,0,0,1,2.1.6C2107.779,1271.224,2109.573,1272.656,2108.585,1275.495Z" transform="translate(-2036.842 -1101.997)" fill="#35a3e5"/>
        <path id="Path_14454" data-name="Path 14454" d="M2108.6,1307.726a.038.038,0,0,1,0,.021,2.971,2.971,0,0,1-2.421,1.458l-17.278-.321a1.5,1.5,0,0,1-.335-.123,2.2,2.2,0,0,1-1.193-2.239l.069-2.267a24.71,24.71,0,0,0,2.427.929,7.983,7.983,0,0,0,4.083.09c1.6-.465,2.958-1.458,4.522-2.008a17.712,17.712,0,0,1,5.591-1.1h.015c.1.029.906.254,2.1.6C2107.791,1303.476,2109.588,1304.9,2108.6,1307.726Z" transform="translate(-2036.859 -1134.249)" fill="#fff"/>
        <path id="Path_14455" data-name="Path 14455" d="M2113.144,1321.43a.037.037,0,0,1,0,.021,2.969,2.969,0,0,1-2.421,1.458l-17.278-.321a1.509,1.509,0,0,1-.335-.123c1.227-.071,3.244-.144,3.425-.158a54.918,54.918,0,0,0,7.291-.708c2.381-.5,4.96-2.537,7.487-2.042A2.139,2.139,0,0,1,2113.144,1321.43Z" transform="translate(-2041.397 -1147.953)"/>
      </g>
    </g>
    <path id="premium-svgrepo-com" d="M21.25,3a.75.75,0,0,1,.607.31l.054.087,4.007,7.513.043.1.012.038.017.077.009.088,0,.1,0-.065a.748.748,0,0,1-.061.3l-.029.06-.041.067-.053.068L14.6,24.7a.728.728,0,0,1-.386.266l-.058.014-.1.014L14,25l-.1-.007-.085-.016-.1-.034-.026-.012a.706.706,0,0,1-.243-.177L2.171,11.726l-.062-.088-.048-.093-.035-.1L2,11.315v-.127l.015-.1.01-.039.034-.1.027-.057,4-7.5a.75.75,0,0,1,.559-.39L6.75,3Zm-3.344,9H10.091L14,22.16ZM8.485,12h-4.1l7.373,8.518Zm15.123,0H19.515l-3.273,8.511ZM10.024,4.5H7.2L4,10.5H8.423Zm6.4,0H11.576l-1.6,6h8.048Zm4.377,0H17.975l1.6,6H24Z" transform="translate(11642.563 1156.779) rotate(-56)" fill="#35a3e5"/>
    <g id="lock-svgrepo-com" transform="translate(11636.998 1057.717)" opacity="0.07">
      <path id="Path_14457" data-name="Path 14457" d="M6,57.507V43.631a41.912,41.912,0,0,1,.576-6.938M89.261,57.507V43.631A41.631,41.631,0,0,0,16.408,16.094" transform="translate(23.754)" fill="none" stroke="#35a3e5" stroke-linecap="round" stroke-width="5.5"/>
      <path id="Path_14458" data-name="Path 14458" d="M64.446,93.261H43.631c-19.625,0-29.437,0-35.534-6.1S2,71.255,2,51.631,2,22.194,8.1,16.1,24.006,10,43.631,10H99.138c19.625,0,29.437,0,35.534,6.1s6.1,15.909,6.1,35.534,0,29.437-6.1,35.534-15.909,6.1-35.534,6.1H92.2" transform="translate(0 47.507)" fill="none" stroke="#35a3e5" stroke-linecap="round" stroke-width="5.5"/>
    </g>
  </g>
</svg>
