<svg xmlns="http://www.w3.org/2000/svg" width="23.997" height="22" viewBox="0 0 23.997 22">
  <path id="premium-svgrepo-com" d="M21.25,3a.75.75,0,0,1,.607.31l.054.087,4.007,7.513.043.1.012.038.017.077.009.088,0,.1,0-.065a.748.748,0,0,1-.061.3l-.029.06-.041.067-.053.068L14.6,24.7a.728.728,0,0,1-.386.266l-.058.014-.1.014L14,25l-.1-.007-.085-.016-.1-.034-.026-.012a.706.706,0,0,1-.243-.177L2.171,11.726l-.062-.088-.048-.093-.035-.1L2,11.315v-.127l.015-.1.01-.039.034-.1.027-.057,4-7.5a.75.75,0,0,1,.559-.39L6.75,3Zm-3.344,9H10.091L14,22.16ZM8.485,12h-4.1l7.373,8.518Zm15.123,0H19.515l-3.273,8.511ZM10.024,4.5H7.2L4,10.5H8.423Zm6.4,0H11.576l-1.6,6h8.048Zm4.377,0H17.975l1.6,6H24Z" transform="translate(-2.003 -3)" fill="#b1b1b1"/>
</svg>
