<svg xmlns="http://www.w3.org/2000/svg" width="197.743" height="196.887" viewBox="0 0 197.743 196.887">
  <g id="Rate_Us" data-name="Rate Us" transform="translate(0 0.001)">
    <path id="Path_14118" data-name="Path 14118" d="M42.31,95.479l.619.722a21.684,21.684,0,0,0,21.323,6.979,20.631,20.631,0,0,0,2.942-.946A22.772,22.772,0,0,0,80.727,85.526c.8-4.351.395-9.123,2.691-12.873,3.01-4.876,9.356-6.131,14.99-6.948s11.98-2.086,14.967-6.975c1.87-3.063,1.951-6.966,1.135-10.482-2.126-9.285-10.132-16.555-19.219-19.264s-18.937-1.346-27.724,2.095C55.25,35.905,44.355,45.118,38.986,57.323S34.407,84.714,42.31,95.479Z" transform="translate(-32.967 -27.55)" fill="#f5f5f5"/>
    <path id="Path_14058" data-name="Path 14058" d="M221.79,38.23h46.024V62.554H233.959c-1,1.538-3.113,5.037-3.113,5.037l-2.435-5.037h-6.62Z" transform="translate(-135.672 -33.44)" fill="#fafafa"/>
    <path id="Path_14059" data-name="Path 14059" d="M221.641,38.1v6.575c0,4.207.027,10.276.045,17.757l-.085-.09h6.679l.027.054c.767,1.579,1.592,3.283,2.44,5.037h-.175l3.113-5.041.027-.049h33.913l-.117.117V38.139l.108.108L234.491,38.2l-9.486-.036h-.027l9.5-.036L267.665,38h.108V62.548H233.8l.09-.045-3.14,5.028-.094.157-.081-.161-2.431-5.041.085.054h-6.71v-.085c0-7.5.036-13.59.049-17.811V38.552A1.2,1.2,0,0,1,221.641,38.1Z" transform="translate(-135.523 -33.313)" fill="#e0e0e0"/>
    <path id="Path_14060" data-name="Path 14060" d="M240.593,59.725a2.153,2.153,0,0,0,1.314-1.982,2.027,2.027,0,1,0-4.037-.054,2.162,2.162,0,0,0,1.274,2.027c-3.117.449-3.005,3.821-3.005,3.821l7.356.1S243.67,60.209,240.593,59.725Z" transform="translate(-143.585 -42.964)" fill="#e0e0e0"/>
    <path id="Path_14061" data-name="Path 14061" d="M284.621,57.165c0,.045-4.692.081-10.478.081s-10.473-.036-10.473-.081,4.687-.085,10.473-.085S284.621,57.116,284.621,57.165Z" transform="translate(-158.768 -43.836)" fill="#e0e0e0"/>
    <path id="Path_14062" data-name="Path 14062" d="M284.621,62.755c0,.045-4.692.081-10.478.081s-10.473-.036-10.473-.081,4.687-.085,10.473-.085S284.621,62.706,284.621,62.755Z" transform="translate(-158.768 -46.918)" fill="#e0e0e0"/>
    <path id="Path_14063" data-name="Path 14063" d="M284.621,68.345c0,.045-4.692.085-10.478.085s-10.473-.04-10.473-.085,4.687-.085,10.473-.085S284.621,68.3,284.621,68.345Z" transform="translate(-158.768 -50.001)" fill="#e0e0e0"/>
    <path id="Path_14064" data-name="Path 14064" d="M276.159,75.41c0,.049-2.8.085-6.279.085s-6.279-.036-6.279-.085,2.8-.09,6.279-.09S276.159,75.36,276.159,75.41Z" transform="translate(-158.729 -53.894)" fill="#e0e0e0"/>
    <path id="Path_14065" data-name="Path 14065" d="M258.025,385.94l2.3,2.175a.6.6,0,0,0,.547.152l3.1-.673a.606.606,0,0,1,.677.852l-1.346,2.871a.615.615,0,0,0,.022.565l1.6,2.74a.606.606,0,0,1-.6.9l-3.14-.4a.61.61,0,0,0-.529.2l-2.126,2.368a.606.606,0,0,1-1.05-.292l-.592-3.113a.606.606,0,0,0-.354-.449l-2.9-1.278a.605.605,0,0,1-.049-1.085l2.781-1.53a.614.614,0,0,0,.314-.448l.318-3.14a.606.606,0,0,1,1.027-.417Z" transform="translate(-153.033 -225.098)" fill="#ebebeb"/>
    <path id="Path_14066" data-name="Path 14066" d="M391.339,63.49l2.862,3.431a.843.843,0,0,0,.736.3l4.449-.413a.857.857,0,0,1,.8,1.31L397.811,71.9a.848.848,0,0,0-.063.794l1.758,4.1a.857.857,0,0,1-1,1.171l-4.333-1.094a.857.857,0,0,0-.776.184l-3.359,2.951a.857.857,0,0,1-1.417-.588l-.3-4.458a.848.848,0,0,0-.417-.677l-3.844-2.283a.857.857,0,0,1,.121-1.529l4.149-1.664a.857.857,0,0,0,.516-.606l.982-4.36a.857.857,0,0,1,1.5-.359Z" transform="translate(-224.935 -47.196)" fill="#ebebeb"/>
    <path id="Path_14067" data-name="Path 14067" d="M457.209,289.308l.381,1.435a.283.283,0,0,0,.179.2l1.4.5a.283.283,0,0,1,.054.507l-1.247.8a.283.283,0,0,0-.13.233l-.049,1.485a.287.287,0,0,1-.449.211l-1.148-.942a.283.283,0,0,0-.26-.049l-1.426.413a.283.283,0,0,1-.345-.377l.538-1.386a.269.269,0,0,0-.031-.26l-.852-1.251a.283.283,0,0,1,.251-.449l1.485.085a.292.292,0,0,0,.242-.108l.9-1.175a.283.283,0,0,1,.511.126Z" transform="translate(-263.602 -171.767)" fill="#ebebeb"/>
    <path id="Path_14068" data-name="Path 14068" d="M442.477,221.559l-.372,4.454a.866.866,0,0,0,.31.731l3.458,2.83a.857.857,0,0,1-.345,1.5l-4.351,1.023a.857.857,0,0,0-.6.52l-1.619,4.162a.857.857,0,0,1-1.529.135l-2.319-3.821a.852.852,0,0,0-.682-.413l-4.458-.256a.857.857,0,0,1-.6-1.413l2.92-3.386a.852.852,0,0,0,.179-.776l-1.135-4.319a.857.857,0,0,1,1.157-1.009l4.122,1.731a.861.861,0,0,0,.794-.072l3.759-2.413a.857.857,0,0,1,1.314.794Z" transform="translate(-250.031 -134.029)" fill="#f5f5f5"/>
    <path id="Path_14069" data-name="Path 14069" d="M55.457,216.9l2.53,2.512a.673.673,0,0,0,.606.188l3.49-.659a.682.682,0,0,1,.736.978l-1.592,3.2a.682.682,0,0,0,0,.637l1.709,3.14a.682.682,0,0,1-.7,1l-3.525-.547a.691.691,0,0,0-.6.206l-2.444,2.592a.682.682,0,0,1-1.171-.359l-.561-3.534a.691.691,0,0,0-.381-.511l-3.22-1.525a.682.682,0,0,1,0-1.224l3.171-1.628a.682.682,0,0,0,.363-.52l.449-3.534a.682.682,0,0,1,1.144-.417Z" transform="translate(-40.907 -131.871)" fill="#ebebeb"/>
    <rect id="Rectangle_17577" data-name="Rectangle 17577" width="15.591" height="5.799" transform="matrix(0.474, -0.88, 0.88, 0.474, 53.01, 42.407)" fill="#e0e0e0"/>
    <rect id="Rectangle_17578" data-name="Rectangle 17578" width="15.591" height="5.799" transform="matrix(0.474, -0.88, 0.88, 0.474, 54.39, 43.154)" fill="#ebebeb"/>
    <path id="Path_14070" data-name="Path 14070" d="M166.805,101.555a1.305,1.305,0,1,0,.776-.632,1.31,1.31,0,0,0-.776.632Z" transform="translate(-105.263 -67.983)" fill="#fff"/>
    <path id="Path_14071" data-name="Path 14071" d="M161.953,96.11a7.879,7.879,0,0,1,.309,2.718,8.18,8.18,0,0,1-.309-2.718Z" transform="translate(-102.653 -65.359)" fill="#ebebeb"/>
    <path id="Path_14072" data-name="Path 14072" d="M160.123,99.49a8.179,8.179,0,0,1,.309,2.718,8.181,8.181,0,0,1-.309-2.718Z" transform="translate(-101.644 -67.223)" fill="#ebebeb"/>
    <path id="Path_14073" data-name="Path 14073" d="M158.3,102.88a8.18,8.18,0,0,1,.309,2.718,3.924,3.924,0,0,1-.274-1.346A3.974,3.974,0,0,1,158.3,102.88Z" transform="translate(-100.634 -69.093)" fill="#ebebeb"/>
    <path id="Path_14074" data-name="Path 14074" d="M156.473,106.26a7.88,7.88,0,0,1,.309,2.718,4.162,4.162,0,0,1-.269-1.346,4.216,4.216,0,0,1-.04-1.373Z" transform="translate(-99.631 -70.957)" fill="#ebebeb"/>
    <path id="Path_14075" data-name="Path 14075" d="M154.653,109.65a8.181,8.181,0,0,1,.309,2.718,4.122,4.122,0,0,1-.269-1.346,4.189,4.189,0,0,1-.04-1.373Z" transform="translate(-98.627 -72.826)" fill="#ebebeb"/>
    <path id="Path_14076" data-name="Path 14076" d="M152.827,113a4.121,4.121,0,0,1,.269,1.346,4.189,4.189,0,0,1,.04,1.372,7.881,7.881,0,0,1-.309-2.718Z" transform="translate(-97.617 -74.674)" fill="#ebebeb"/>
    <path id="Path_14077" data-name="Path 14077" d="M151,116.42a3.961,3.961,0,0,1,.274,1.346,4,4,0,0,1,.036,1.377A8.19,8.19,0,0,1,151,116.42Z" transform="translate(-96.614 -76.56)" fill="#ebebeb"/>
    <path id="Path_14078" data-name="Path 14078" d="M163.583,93.14a7.881,7.881,0,0,1,.309,2.718,4.122,4.122,0,0,1-.269-1.346,4.189,4.189,0,0,1-.04-1.372Z" transform="translate(-103.552 -63.722)" fill="#ebebeb"/>
    <path id="Path_14079" data-name="Path 14079" d="M165.6,92.15c.063,0,.157.345.206.789s.04.812-.027.821-.157-.35-.206-.794S165.531,92.154,165.6,92.15Z" transform="translate(-104.652 -63.176)" fill="#ebebeb"/>
    <path id="Path_14080" data-name="Path 14080" d="M123.85,82.192l6.279-12.281s-2.418-1.978-2.848-6.943c-.283-3.288,1.691-5.544,1.96-6.777.161-.754-1.444-1.449-2.162-1.736a3,3,0,0,0-2.911.292c-1.852,1.426-3.113,6.544-3.113,6.544s0,1.18-1.269.493l-4.553-2.471a2.817,2.817,0,0,0-1.933-.292,2.077,2.077,0,0,0-1.529,1.251c-.8,1.794-.305,3.072-.5,3.436s-1.041.722-1.238,1.978.076,1.278-.2,1.794a9.334,9.334,0,0,0-.964,2.781,4.208,4.208,0,0,0,.072,1.512,6.175,6.175,0,0,0-1.081,2.767c0,1.583,2.584,4.01,4.131,4.109.722.049,3.781.861,5.23,1.229S122.939,80.936,123.85,82.192Z" transform="translate(-72.843 -42.251)" fill="#e0e0e0"/>
    <path id="Path_14081" data-name="Path 14081" d="M127.757,84.3l6.607-12.267s-2.427-1.978-2.853-6.957a23.1,23.1,0,0,1,.323-6.867,1.588,1.588,0,0,0-.942-1.794,2.409,2.409,0,0,0-2.566.341C126.5,58.181,125.3,63.4,125.3,63.4s0,1.18-1.265.493l-4.557-2.453a2.8,2.8,0,0,0-1.929-.292,2.09,2.09,0,0,0-1.534,1.233c-.8,1.794-.3,3.072-.5,3.436s-1.045.736-1.242,1.978.076,1.278-.193,1.794a9.208,9.208,0,0,0-.964,2.772,4.27,4.27,0,0,0,.067,1.512,7.2,7.2,0,0,0-1.081,2.772c-.063,1.207,1.588,2.736,2.243,3.077s5.692,1.888,7.141,2.243S126.86,83.043,127.757,84.3Z" transform="translate(-75.185 -43.345)" fill="#ebebeb"/>
    <path id="Path_14082" data-name="Path 14082" d="M139.27,64a9.029,9.029,0,0,1,.583,1.7,8.97,8.97,0,0,1,.449,1.745,5.853,5.853,0,0,1-.677-1.677A5.83,5.83,0,0,1,139.27,64Z" transform="translate(-90.165 -47.652)" fill="#ebebeb"/>
    <path id="Path_14083" data-name="Path 14083" d="M140.69,60a10.142,10.142,0,0,1,.588,1.538,5.6,5.6,0,0,1,.48,1.57,6.154,6.154,0,0,1-.7-1.489A4.036,4.036,0,0,1,140.69,60Z" transform="translate(-90.948 -45.446)" fill="#ebebeb"/>
    <path id="Path_14084" data-name="Path 14084" d="M142.749,56.89a9.452,9.452,0,0,1,.538,1.211,2.929,2.929,0,0,1,.422,1.274,5.92,5.92,0,0,1-.632-1.175A2.489,2.489,0,0,1,142.749,56.89Z" transform="translate(-92.083 -43.731)" fill="#ebebeb"/>
    <path id="Path_14085" data-name="Path 14085" d="M145.33,54.739c.058-.022.265.368.449.87a2.18,2.18,0,0,1,.247.955c-.063.027-.269-.363-.449-.87S145.268,54.761,145.33,54.739Z" transform="translate(-93.498 -42.544)" fill="#ebebeb"/>
    <path id="Path_14086" data-name="Path 14086" d="M148.258,54.225c.058-.036.224.17.377.449s.229.534.17.565-.224-.175-.377-.449S148.2,54.256,148.258,54.225Z" transform="translate(-95.112 -42.259)" fill="#ebebeb"/>
    <path id="Path_14087" data-name="Path 14087" d="M137.47,69.238c.058-.027.274.39.48.924a2.355,2.355,0,0,1,.265,1.009,2.449,2.449,0,0,1-.48-.924,2.368,2.368,0,0,1-.265-1.009Z" transform="translate(-89.172 -50.54)" fill="#ebebeb"/>
    <path id="Path_14088" data-name="Path 14088" d="M115.81,69.87a7.984,7.984,0,0,1,.982,1.655,7.728,7.728,0,0,1,.776,1.758,7.764,7.764,0,0,1-.982-1.655,7.728,7.728,0,0,1-.776-1.758Z" transform="translate(-77.228 -50.889)" fill="#ebebeb"/>
    <path id="Path_14089" data-name="Path 14089" d="M118.46,65.32a2.844,2.844,0,0,1,.628.964,3,3,0,0,1,.422,1.072c-.058.031-.341-.4-.628-.964A2.933,2.933,0,0,1,118.46,65.32Z" transform="translate(-78.689 -48.38)" fill="#ebebeb"/>
    <path id="Path_14090" data-name="Path 14090" d="M113.79,77.34a3.669,3.669,0,0,1,.807,1.175,3.588,3.588,0,0,1,.493,1.346,5.961,5.961,0,0,1-.7-1.233A5.61,5.61,0,0,1,113.79,77.34Z" transform="translate(-76.114 -55.008)" fill="#ebebeb"/>
    <path id="Path_14091" data-name="Path 14091" d="M112.43,83.41a4.369,4.369,0,0,1,.7,1.224,4.3,4.3,0,0,1,.484,1.346,8.762,8.762,0,0,1-1.189-2.57Z" transform="translate(-75.364 -58.356)" fill="#ebebeb"/>
    <path id="Path_14092" data-name="Path 14092" d="M110.26,90.28a8.227,8.227,0,0,1,.78,1.449,8.4,8.4,0,0,1,.677,1.489,7.263,7.263,0,0,1-1.458-2.938Z" transform="translate(-74.167 -62.144)" fill="#ebebeb"/>
    <path id="Path_14093" data-name="Path 14093" d="M108.74,96.23a11.664,11.664,0,0,1,.9,1.691,11.741,11.741,0,0,1,.794,1.736,10.314,10.314,0,0,1-1.691-3.427Z" transform="translate(-73.329 -65.426)" fill="#ebebeb"/>
    <rect id="Rectangle_17579" data-name="Rectangle 17579" width="10.836" height="4.032" transform="translate(17.367 53.368) rotate(-65.91)" fill="#e0e0e0"/>
    <rect id="Rectangle_17580" data-name="Rectangle 17580" width="10.836" height="4.032" transform="translate(16.371 52.925) rotate(-65.91)" fill="#ebebeb"/>
    <path id="Path_14094" data-name="Path 14094" d="M72.308,141.23a.9.9,0,1,0-.507.477A.9.9,0,0,0,72.308,141.23Z" transform="translate(-52.29 -89.547)" fill="#fff"/>
    <path id="Path_14095" data-name="Path 14095" d="M77.74,144.618a3.014,3.014,0,0,1-.256-.9,2.763,2.763,0,0,1-.094-.951,3.014,3.014,0,0,1,.256.919A2.9,2.9,0,0,1,77.74,144.618Z" transform="translate(-56.036 -91.091)" fill="#ebebeb"/>
    <path id="Path_14096" data-name="Path 14096" d="M78.832,142.178a3.068,3.068,0,0,1-.256-.9,2.9,2.9,0,0,1-.094-.951,2.875,2.875,0,0,1,.256.919A2.759,2.759,0,0,1,78.832,142.178Z" transform="translate(-56.639 -89.745)" fill="#ebebeb"/>
    <path id="Path_14097" data-name="Path 14097" d="M79.934,139.7a5.459,5.459,0,0,1-.354-1.87,2.875,2.875,0,0,1,.256.9A2.978,2.978,0,0,1,79.934,139.7Z" transform="translate(-57.248 -88.367)" fill="#ebebeb"/>
    <path id="Path_14098" data-name="Path 14098" d="M81.024,137.27a5.759,5.759,0,0,1-.354-1.87,2.875,2.875,0,0,1,.256.9A2.835,2.835,0,0,1,81.024,137.27Z" transform="translate(-57.849 -87.027)" fill="#ebebeb"/>
    <path id="Path_14099" data-name="Path 14099" d="M82.107,134.82a2.745,2.745,0,0,1-.256-.919,2.835,2.835,0,0,1-.1-.951,2.924,2.924,0,0,1,.256.924,2.817,2.817,0,0,1,.1.946Z" transform="translate(-58.442 -85.676)" fill="#ebebeb"/>
    <path id="Path_14100" data-name="Path 14100" d="M83.2,132.38a2.875,2.875,0,0,1-.256-.919,2.835,2.835,0,0,1-.1-.951,5.759,5.759,0,0,1,.354,1.87Z" transform="translate(-59.043 -84.33)" fill="#ebebeb"/>
    <path id="Path_14101" data-name="Path 14101" d="M84.287,129.94a2.875,2.875,0,0,1-.256-.919,2.835,2.835,0,0,1-.1-.951A5.759,5.759,0,0,1,84.287,129.94Z" transform="translate(-59.645 -82.984)" fill="#ebebeb"/>
    <path id="Path_14102" data-name="Path 14102" d="M76.757,146.7a2.745,2.745,0,0,1-.256-.919,2.835,2.835,0,0,1-.1-.951,2.875,2.875,0,0,1,.256.9A2.835,2.835,0,0,1,76.757,146.7Z" transform="translate(-55.492 -92.227)" fill="#ebebeb"/>
    <path id="Path_14103" data-name="Path 14103" d="M75.55,148.458c-.045,0-.126-.233-.184-.538a1.1,1.1,0,0,1-.027-.57c.045,0,.13.233.188.538S75.595,148.449,75.55,148.458Z" transform="translate(-54.895 -93.617)" fill="#ebebeb"/>
    <path id="Path_14104" data-name="Path 14104" d="M85.439,131.74l-3.709,8.832s1.794,1.247,2.328,4.669c.368,2.243-.9,3.929-1.009,4.8-.076.529,1.072.928,1.583,1.09a2.09,2.09,0,0,0,2-.345c1.2-1.085,1.794-4.687,1.794-4.687s-.067-.816.852-.4l3.283,1.467a1.96,1.96,0,0,0,1.346.1,1.449,1.449,0,0,0,1-.946,6.779,6.779,0,0,0,.17-2.409c.117-.265.686-.561.763-1.435s-.121-.9.04-1.242a6.414,6.414,0,0,0,.529-1.974,2.987,2.987,0,0,0-.126-1.041,4.267,4.267,0,0,0,.606-1.978c-.09-1.094-2-2.646-3.072-2.637-.5,0-2.664-.4-3.691-.583S86.112,132.561,85.439,131.74Z" transform="translate(-58.433 -85.008)" fill="#e0e0e0"/>
    <path id="Path_14105" data-name="Path 14105" d="M82.566,130.34l-3.956,8.845s1.794,1.247,2.332,4.669a16.268,16.268,0,0,1,.126,4.777,1.1,1.1,0,0,0,.745,1.211,1.673,1.673,0,0,0,1.763-.368c1.193-1.081,1.754-4.763,1.754-4.763s-.067-.816.852-.408l3.283,1.471a1.96,1.96,0,0,0,1.346.1,1.453,1.453,0,0,0,1-.946,6.779,6.779,0,0,0,.17-2.409c.117-.265.686-.561.758-1.435s-.117-.9.045-1.242a6.423,6.423,0,0,0,.525-1.974,2.857,2.857,0,0,0-.126-1.041,5.01,5.01,0,0,0,.61-1.978c0-.839-1.238-1.817-1.7-2.023s-4.037-1.018-5.064-1.2S83.27,131.165,82.566,130.34Z" transform="translate(-56.713 -84.236)" fill="#ebebeb"/>
    <path id="Path_14106" data-name="Path 14106" d="M94.483,165.121a6.212,6.212,0,0,1-.489-1.157,5.831,5.831,0,0,1-.4-1.184,4.346,4.346,0,0,1,.556,1.126A4.158,4.158,0,0,1,94.483,165.121Z" transform="translate(-64.974 -102.126)" fill="#ebebeb"/>
    <path id="Path_14107" data-name="Path 14107" d="M93.681,168.24a7.176,7.176,0,0,1-.5-1.027,3.831,3.831,0,0,1-.413-1.063,4.274,4.274,0,0,1,.552,1A2.884,2.884,0,0,1,93.681,168.24Z" transform="translate(-64.522 -103.984)" fill="#ebebeb"/>
    <path id="Path_14108" data-name="Path 14108" d="M92.537,171.038a7.908,7.908,0,0,1-.449-.812,2.086,2.086,0,0,1-.359-.866,4.2,4.2,0,0,1,.5.785,1.7,1.7,0,0,1,.3.893Z" transform="translate(-63.948 -105.755)" fill="#ebebeb"/>
    <path id="Path_14109" data-name="Path 14109" d="M91.123,173.2a1.72,1.72,0,0,1-.368-.583,1.511,1.511,0,0,1-.215-.65,1.748,1.748,0,0,1,.363.583A1.521,1.521,0,0,1,91.123,173.2Z" transform="translate(-63.292 -107.194)" fill="#ebebeb"/>
    <path id="Path_14110" data-name="Path 14110" d="M89.287,174.384c-.036.027-.166-.1-.283-.292s-.188-.363-.148-.386.166.112.283.3S89.323,174.362,89.287,174.384Z" transform="translate(-62.357 -108.151)" fill="#ebebeb"/>
    <path id="Path_14111" data-name="Path 14111" d="M95.8,162.661c-.04.022-.211-.256-.381-.614a1.655,1.655,0,0,1-.233-.686,1.9,1.9,0,0,1,.381.614A1.673,1.673,0,0,1,95.8,162.661Z" transform="translate(-65.856 -101.343)" fill="#ebebeb"/>
    <path id="Path_14112" data-name="Path 14112" d="M109.835,159.919a11.141,11.141,0,0,1-1.395-2.279A11.141,11.141,0,0,1,109.835,159.919Z" transform="translate(-73.163 -99.291)" fill="#ebebeb"/>
    <path id="Path_14113" data-name="Path 14113" d="M108.92,164.327c-.04.022-.256-.265-.484-.637a2.005,2.005,0,0,1-.345-.722c.036-.027.256.26.484.637A2.1,2.1,0,0,1,108.92,164.327Z" transform="translate(-72.97 -102.229)" fill="#ebebeb"/>
    <path id="Path_14114" data-name="Path 14114" d="M111.3,155.367a3.884,3.884,0,0,1-1.032-1.678,4.207,4.207,0,0,1,.547.821,4.284,4.284,0,0,1,.484.857Z" transform="translate(-74.172 -97.113)" fill="#ebebeb"/>
    <path id="Path_14115" data-name="Path 14115" d="M112.031,151.053a3.06,3.06,0,0,1-.547-.816,3.167,3.167,0,0,1-.4-.9,2.857,2.857,0,0,1,.547.816A3.019,3.019,0,0,1,112.031,151.053Z" transform="translate(-74.619 -94.714)" fill="#ebebeb"/>
    <path id="Path_14116" data-name="Path 14116" d="M112.944,145.865a5.83,5.83,0,0,1-.6-.964,5.678,5.678,0,0,1-.543-1,3.265,3.265,0,0,1,.682.9A3.077,3.077,0,0,1,112.944,145.865Z" transform="translate(-75.016 -91.714)" fill="#ebebeb"/>
    <path id="Path_14117" data-name="Path 14117" d="M113.462,141.262a8.012,8.012,0,0,1-.7-1.126,7.67,7.67,0,0,1-.637-1.166,4.2,4.2,0,0,1,.776,1.081A4.091,4.091,0,0,1,113.462,141.262Z" transform="translate(-75.198 -88.995)" fill="#ebebeb"/>
    <circle id="Ellipse_71" data-name="Ellipse 71" cx="12.864" cy="12.864" r="12.864" transform="translate(114.406 9.849)" fill="#f5f5f5"/>
    <path id="Path_14119" data-name="Path 14119" d="M228.388,441.7c0,.063-44.117.117-98.519.117s-98.528-.045-98.528-.117,44.1-.117,98.528-.117S228.388,441.634,228.388,441.7Z" transform="translate(-30.645 -255.876)" fill="#263238"/>
    <path id="Path_14120" data-name="Path 14120" d="M164.572,161.326l1.444,2.1a.484.484,0,0,0,.4.211h2.548a.489.489,0,0,1,.386.785l-1.552,2.018a.475.475,0,0,0-.076.449l.78,2.422a.489.489,0,0,1-.628.61l-2.4-.852a.484.484,0,0,0-.449.063l-2.063,1.494a.489.489,0,0,1-.776-.408l.072-2.543a.489.489,0,0,0-.2-.408l-2.059-1.5a.489.489,0,0,1,.152-.861l2.431-.7a.48.48,0,0,0,.327-.314l.789-2.422a.489.489,0,0,1,.875-.139Z" transform="translate(-101.487 -101.206)" fill="#35a3e5"/>
    <path id="Path_14121" data-name="Path 14121" d="M419.373,275.828l1.794.933a.39.39,0,0,0,.359,0l1.794-.955a.39.39,0,0,1,.565.408l-.332,2a.4.4,0,0,0,.117.345l1.462,1.408a.39.39,0,0,1-.211.668l-2.009.3a.386.386,0,0,0-.292.215l-.9,1.826a.386.386,0,0,1-.7,0l-.9-1.817a.4.4,0,0,0-.3-.211l-2.009-.283a.386.386,0,0,1-.22-.659l1.449-1.426a.4.4,0,0,0,.108-.345l-.354-2a.386.386,0,0,1,.565-.408Z" transform="translate(-243.595 -164.432)" fill="#35a3e5"/>
    <path id="Path_14122" data-name="Path 14122" d="M193.895,142.259l.381,1.162a.247.247,0,0,0,.157.148l1.171.345a.233.233,0,0,1,.072.413l-.982.718a.242.242,0,0,0-.1.2l.036,1.22a.229.229,0,0,1-.368.193l-.991-.713a.247.247,0,0,0-.215-.031l-1.148.413a.233.233,0,0,1-.3-.292l.372-1.162a.247.247,0,0,0-.036-.215l-.745-.964a.233.233,0,0,1,.184-.377h1.22a.224.224,0,0,0,.188-.1l.691-1.009a.233.233,0,0,1,.413.054Z" transform="translate(-118.775 -90.723)" fill="#35a3e5"/>
    <path id="Path_14123" data-name="Path 14123" d="M183.425,122.064l15.313,31.029a6.638,6.638,0,0,0,4.992,3.624l34.241,4.974A6.629,6.629,0,0,1,241.645,173l-24.777,24.149a6.638,6.638,0,0,0-1.906,5.867l9.895,36.214c.26,4.7-7.118,7.9-13.662,4.876l-30.626-16.1a6.607,6.607,0,0,0-6.167,0l-30.626,16.1a6.629,6.629,0,0,1-9.616-6.988l5.831-34.088a6.638,6.638,0,0,0-1.9-5.885L113.325,173a6.629,6.629,0,0,1,3.682-11.312l34.241-4.974a6.625,6.625,0,0,0,4.988-3.624l14.887-30.159c1.852-3.754,4.1-5.234,11.213-5.234C184.672,117.7,182.21,119.6,183.425,122.064Z" transform="translate(-74.751 -77.266)" fill="#35a3e5"/>
    <path id="Path_14124" data-name="Path 14124" d="M183.425,122.064l15.313,31.029a6.638,6.638,0,0,0,4.992,3.624l34.241,4.974A6.629,6.629,0,0,1,241.645,173l-24.777,24.149a6.638,6.638,0,0,0-1.906,5.867l9.895,36.214c.26,4.7-7.118,7.9-13.662,4.876l-30.626-16.1a6.607,6.607,0,0,0-6.167,0l-30.626,16.1a6.629,6.629,0,0,1-9.616-6.988l5.831-34.088a6.638,6.638,0,0,0-1.9-5.885L113.325,173a6.629,6.629,0,0,1,3.682-11.312l34.241-4.974a6.625,6.625,0,0,0,4.988-3.624l14.887-30.159c1.852-3.754,4.1-5.234,11.213-5.234C184.672,117.7,182.21,119.6,183.425,122.064Z" transform="translate(-74.756 -77.266)" opacity="0.3"/>
    <path id="Path_14125" data-name="Path 14125" d="M174.288,293.635a11.267,11.267,0,0,1-2.216.363,10.888,10.888,0,0,1-2.243.135,11.068,11.068,0,0,1,2.216-.368,10.686,10.686,0,0,1,2.243-.13Z" transform="translate(-107.018 -174.282)" fill="#ff725e"/>
    <path id="Path_14126" data-name="Path 14126" d="M178.326,300.043a3.256,3.256,0,0,1-1.207.256,3.185,3.185,0,0,1-1.229,0,3.422,3.422,0,0,1,1.207-.251A3.351,3.351,0,0,1,178.326,300.043Z" transform="translate(-110.36 -177.792)" fill="#ff725e"/>
    <path id="Path_14127" data-name="Path 14127" d="M168.989,288.074a26.331,26.331,0,0,1-4.889.552,12.392,12.392,0,0,1,2.431-.39,13.284,13.284,0,0,1,2.458-.161Z" transform="translate(-103.858 -171.219)" fill="#ff725e"/>
    <path id="Path_14128" data-name="Path 14128" d="M163.629,282.744a12.39,12.39,0,0,1-2.431.39,13.279,13.279,0,0,1-2.458.161,12.394,12.394,0,0,1,2.431-.39A13.281,13.281,0,0,1,163.629,282.744Z" transform="translate(-100.902 -168.28)" fill="#ff725e"/>
    <path id="Path_14129" data-name="Path 14129" d="M158.279,277.414a12.394,12.394,0,0,1-2.431.39,13.284,13.284,0,0,1-2.458.161,26.331,26.331,0,0,1,4.889-.552Z" transform="translate(-97.952 -165.341)" fill="#ff725e"/>
    <path id="Path_14130" data-name="Path 14130" d="M152.929,272.084a12.583,12.583,0,0,1-2.431.395,13.493,13.493,0,0,1-2.458.157,26.324,26.324,0,0,1,4.889-.552Z" transform="translate(-95.001 -162.401)" fill="#ff725e"/>
    <path id="Path_14131" data-name="Path 14131" d="M147.579,266.754a12.583,12.583,0,0,1-2.431.395,13.493,13.493,0,0,1-2.458.157,26.338,26.338,0,0,1,4.889-.552Z" transform="translate(-92.051 -159.462)" fill="#ff725e"/>
    <path id="Path_14132" data-name="Path 14132" d="M142.229,261.431a13.252,13.252,0,0,1-2.431.39,13.01,13.01,0,0,1-2.458.157,13.247,13.247,0,0,1,2.431-.39A12.587,12.587,0,0,1,142.229,261.431Z" transform="translate(-89.101 -156.525)" fill="#ff725e"/>
    <path id="Path_14133" data-name="Path 14133" d="M136.879,256.1a13.25,13.25,0,0,1-2.431.39,13.007,13.007,0,0,1-2.458.157,13.25,13.25,0,0,1,2.431-.39A12.587,12.587,0,0,1,136.879,256.1Z" transform="translate(-86.15 -153.586)" fill="#ff725e"/>
    <path id="Path_14134" data-name="Path 14134" d="M131.529,250.771a13.247,13.247,0,0,1-2.431.39,12.592,12.592,0,0,1-2.458.157,13.247,13.247,0,0,1,2.431-.39A12.588,12.588,0,0,1,131.529,250.771Z" transform="translate(-83.2 -150.646)" fill="#ff725e"/>
    <path id="Path_14135" data-name="Path 14135" d="M116.217,227.528a10.962,10.962,0,0,1-2.274.215,10.865,10.865,0,0,1-2.283-.022,22.775,22.775,0,0,1,4.557-.193Z" transform="translate(-74.939 -137.796)" fill="#ff725e"/>
    <path id="Path_14136" data-name="Path 14136" d="M118.209,221.68a9.58,9.58,0,0,1-2.144.063,10.141,10.141,0,0,1-2.135-.17,9.58,9.58,0,0,1,2.144-.063,10.14,10.14,0,0,1,2.135.17Z" transform="translate(-76.191 -134.495)" fill="#ff725e"/>
    <path id="Path_14137" data-name="Path 14137" d="M124.49,216.442a12.222,12.222,0,0,1-3.4.067,6.364,6.364,0,0,1,1.7-.148A6.466,6.466,0,0,1,124.49,216.442Z" transform="translate(-80.139 -131.662)" fill="#ff725e"/>
    <path id="Path_14138" data-name="Path 14138" d="M126.179,245.441a13.25,13.25,0,0,1-2.431.39,12.592,12.592,0,0,1-2.458.157,13.25,13.25,0,0,1,2.431-.39A12.594,12.594,0,0,1,126.179,245.441Z" transform="translate(-80.25 -147.707)" fill="#ff725e"/>
    <path id="Path_14139" data-name="Path 14139" d="M121.423,239.7a12.761,12.761,0,0,1-2.436.395,13.479,13.479,0,0,1-2.458.157,13.25,13.25,0,0,1,2.431-.39,13.322,13.322,0,0,1,2.462-.161Z" transform="translate(-77.625 -144.545)" fill="#ff725e"/>
    <path id="Path_14140" data-name="Path 14140" d="M117.017,233.994a13.146,13.146,0,0,1-2.422.39,12.881,12.881,0,0,1-2.444.157,13.135,13.135,0,0,1,2.418-.39A13.384,13.384,0,0,1,117.017,233.994Z" transform="translate(-75.209 -141.395)" fill="#ff725e"/>
    <path id="Path_14141" data-name="Path 14141" d="M335.015,392.51a11.059,11.059,0,0,1-1.978,1.054,10.846,10.846,0,0,1-2.077.843,21.585,21.585,0,0,1,4.037-1.9Z" transform="translate(-195.876 -228.815)" fill="#ff725e"/>
    <path id="Path_14142" data-name="Path 14142" d="M340.8,398.14a3.364,3.364,0,0,1-1.059.624,3.31,3.31,0,0,1-1.157.413,6.487,6.487,0,0,1,2.216-1.036Z" transform="translate(-200.079 -231.92)" fill="#ff725e"/>
    <path id="Path_14143" data-name="Path 14143" d="M328.188,388.77a13.24,13.24,0,0,1-2.18,1.148,12.789,12.789,0,0,1-2.279.937,26.084,26.084,0,0,1,4.458-2.086Z" transform="translate(-191.889 -226.753)" fill="#ff725e"/>
    <path id="Path_14144" data-name="Path 14144" d="M321.418,385.43a25.654,25.654,0,0,1-4.458,2.09,13.041,13.041,0,0,1,2.18-1.153A13.206,13.206,0,0,1,321.418,385.43Z" transform="translate(-188.156 -224.911)" fill="#ff725e"/>
    <path id="Path_14145" data-name="Path 14145" d="M314.638,382.1a12.85,12.85,0,0,1-2.18,1.148,13.038,13.038,0,0,1-2.279.942A25.653,25.653,0,0,1,314.638,382.1Z" transform="translate(-184.417 -223.075)" fill="#ff725e"/>
    <path id="Path_14146" data-name="Path 14146" d="M307.868,378.76a25.655,25.655,0,0,1-4.458,2.09,26.563,26.563,0,0,1,4.458-2.09Z" transform="translate(-180.683 -221.233)" fill="#ff725e"/>
    <path id="Path_14147" data-name="Path 14147" d="M301.088,375.43a13.044,13.044,0,0,1-2.18,1.153,13.216,13.216,0,0,1-2.279.937,13.042,13.042,0,0,1,2.18-1.153A13.216,13.216,0,0,1,301.088,375.43Z" transform="translate(-176.944 -219.396)" fill="#ff725e"/>
    <path id="Path_14148" data-name="Path 14148" d="M294.308,372.1a25.657,25.657,0,0,1-4.458,2.086,13.456,13.456,0,0,1,2.18-1.148A12.944,12.944,0,0,1,294.308,372.1Z" transform="translate(-173.205 -217.56)" fill="#ff725e"/>
    <path id="Path_14149" data-name="Path 14149" d="M287.518,368.76a25.657,25.657,0,0,1-4.458,2.09,12.849,12.849,0,0,1,2.18-1.148A13.037,13.037,0,0,1,287.518,368.76Z" transform="translate(-169.461 -215.718)" fill="#ff725e"/>
    <path id="Path_14150" data-name="Path 14150" d="M280.758,365.43a12.854,12.854,0,0,1-2.18,1.148,13.04,13.04,0,0,1-2.279.942,25.658,25.658,0,0,1,4.458-2.09Z" transform="translate(-165.733 -213.882)" fill="#ff725e"/>
    <path id="Path_14151" data-name="Path 14151" d="M273.988,362.1a26.081,26.081,0,0,1-4.458,2.086,13.242,13.242,0,0,1,2.18-1.148A12.792,12.792,0,0,1,273.988,362.1Z" transform="translate(-162 -212.045)" fill="#ff725e"/>
    <path id="Path_14152" data-name="Path 14152" d="M267.638,358.19a13.048,13.048,0,0,1-2.18,1.153,13.214,13.214,0,0,1-2.279.937,25.656,25.656,0,0,1,4.458-2.09Z" transform="translate(-158.498 -209.889)" fill="#ff725e"/>
    <path id="Path_14153" data-name="Path 14153" d="M262.059,355.3a3.315,3.315,0,0,1-1.063.628,3.389,3.389,0,0,1-1.166.417,3.3,3.3,0,0,1,1.068-.628A3.383,3.383,0,0,1,262.059,355.3Z" transform="translate(-156.65 -208.295)" fill="#ff725e"/>
    <path id="Path_14154" data-name="Path 14154" d="M194.165,121.387l15.322,31.025a6.611,6.611,0,0,0,4.988,3.624l34.241,4.979a6.625,6.625,0,0,1,3.673,11.3L227.612,196.47a6.629,6.629,0,0,0-1.906,5.867l5.831,34.088a6.625,6.625,0,0,1-9.608,6.988l-30.626-16.1a6.607,6.607,0,0,0-6.167,0l-30.626,16.1a6.625,6.625,0,0,1-9.612-6.975l5.831-34.088a6.629,6.629,0,0,0-1.906-5.867l-24.777-24.153a6.625,6.625,0,0,1,3.673-11.3l34.241-4.979a6.611,6.611,0,0,0,4.988-3.624L182.262,121.4a6.629,6.629,0,0,1,11.9-.013Z" transform="translate(-80.665 -77.256)" fill="#35a3e5"/>
    <g id="Group_3944" data-name="Group 3944" transform="translate(129.063 79.328)" opacity="0.3">
      <path id="Path_14155" data-name="Path 14155" d="M335.51,225.668c-.623-5.091-1.4-10.343-4.135-14.685s-7.961-7.526-12.94-6.306h0c-.9,5.306-1.879,10.94,1.144,15.4a10.924,10.924,0,0,1,1.906,3.171,8.377,8.377,0,0,1-.4,3.969c-2.382,9.769.9,19.928,4.144,29.446,3.543,10.392,7.221,21.032,14.183,29.518a41.057,41.057,0,0,0-.812-6.445c-.507-3.077-1.032-5.961-1.722-9.984-.789-4.611-2.691-14.649-3.391-19.847a6.787,6.787,0,0,1,.583-3.759,8.464,8.464,0,0,1,1.978-2.445l.9-.857C336.354,234.988,336.466,233.472,335.51,225.668Z" transform="translate(-317.536 -204.414)"/>
    </g>
    <path id="Path_14156" data-name="Path 14156" d="M216.458,194.272a10.912,10.912,0,0,1-1.032-1.991,10.693,10.693,0,0,1-.816-2.09,10.913,10.913,0,0,1,1.032,1.991,10.7,10.7,0,0,1,.816,2.09Z" transform="translate(-131.713 -117.242)" fill="#ff725e"/>
    <path id="Path_14157" data-name="Path 14157" d="M211.814,200.019a3.337,3.337,0,0,1-.61-1.067,3.292,3.292,0,0,1-.4-1.162,3.139,3.139,0,0,1,.615,1.067A3.337,3.337,0,0,1,211.814,200.019Z" transform="translate(-129.612 -121.433)" fill="#ff725e"/>
    <path id="Path_14158" data-name="Path 14158" d="M220.068,187.485a13.1,13.1,0,0,1-1.121-2.193,12.363,12.363,0,0,1-.9-2.292,24.749,24.749,0,0,1,2.018,4.485Z" transform="translate(-133.61 -113.277)" fill="#ff725e"/>
    <path id="Path_14159" data-name="Path 14159" d="M223.513,180.781a12.9,12.9,0,0,1-1.126-2.193,13.215,13.215,0,0,1-.9-2.288,24.5,24.5,0,0,1,2.023,4.481Z" transform="translate(-135.507 -109.582)" fill="#ff725e"/>
    <path id="Path_14160" data-name="Path 14160" d="M226.9,174.045a24.745,24.745,0,0,1-2.018-4.485,24.746,24.746,0,0,1,2.018,4.485Z" transform="translate(-137.376 -105.865)" fill="#ff725e"/>
    <path id="Path_14161" data-name="Path 14161" d="M230.313,167.315a13.536,13.536,0,0,1-1.126-2.193,13.331,13.331,0,0,1-.9-2.292,12.9,12.9,0,0,1,1.126,2.193A13.172,13.172,0,0,1,230.313,167.315Z" transform="translate(-139.257 -102.154)" fill="#ff725e"/>
    <path id="Path_14162" data-name="Path 14162" d="M233.733,160.581a12.533,12.533,0,0,1-1.126-2.193,13.371,13.371,0,0,1-.9-2.288,12.879,12.879,0,0,1,1.121,2.193A13.031,13.031,0,0,1,233.733,160.581Z" transform="translate(-141.143 -98.442)" fill="#ff725e"/>
    <path id="Path_14163" data-name="Path 14163" d="M237.148,153.845a13.1,13.1,0,0,1-1.121-2.193,12.757,12.757,0,0,1-.9-2.292,24.746,24.746,0,0,1,2.018,4.485Z" transform="translate(-143.029 -94.725)" fill="#ff725e"/>
    <path id="Path_14164" data-name="Path 14164" d="M240.563,147.111a24.5,24.5,0,0,1-2.023-4.481,24.5,24.5,0,0,1,2.023,4.481Z" transform="translate(-144.909 -91.014)" fill="#ff725e"/>
    <path id="Path_14165" data-name="Path 14165" d="M244,140.375a26.427,26.427,0,0,1-2-4.485,13.1,13.1,0,0,1,1.121,2.193A12.756,12.756,0,0,1,244,140.375Z" transform="translate(-146.818 -87.297)" fill="#ff725e"/>
    <path id="Path_14166" data-name="Path 14166" d="M247.4,133.641a24.891,24.891,0,0,1-2.018-4.481,12.532,12.532,0,0,1,1.126,2.193A13.215,13.215,0,0,1,247.4,133.641Z" transform="translate(-148.682 -83.586)" fill="#ff725e"/>
    <path id="Path_14167" data-name="Path 14167" d="M251.378,127.345a24.749,24.749,0,0,1-2.018-4.485,13.1,13.1,0,0,1,1.121,2.193A12.758,12.758,0,0,1,251.378,127.345Z" transform="translate(-150.876 -80.111)" fill="#ff725e"/>
    <path id="Path_14168" data-name="Path 14168" d="M255.608,121.813a3.252,3.252,0,0,1-.619-1.072,3.377,3.377,0,0,1-.4-1.171,3.507,3.507,0,0,1,.632,1.09A3.44,3.44,0,0,1,255.608,121.813Z" transform="translate(-153.761 -78.297)" fill="#ff725e"/>
    <path id="Path_14169" data-name="Path 14169" d="M240.27,130.48c.058.031-3.445,7.033-7.822,15.64s-7.97,15.542-8.029,15.542,3.445-7.028,7.822-15.64S240.212,130.453,240.27,130.48Z" transform="translate(-137.122 -84.313)" fill="#fff"/>
    <path id="Path_14170" data-name="Path 14170" d="M164.787,210.128s-.13.027-.377.063l-1.094.144-4.014.475-13.245,1.5-7.284.78c-1.121.121-2.189.229-3.171.413a10.764,10.764,0,0,0-2.637.812,6.1,6.1,0,0,0-2.871,2.691,5.651,5.651,0,0,0-.449,1.4.291.291,0,0,1,0-.1,1.1,1.1,0,0,1,.031-.287,4.341,4.341,0,0,1,.332-1.054,6.064,6.064,0,0,1,2.88-2.794,10.684,10.684,0,0,1,2.691-.852c.991-.2,2.063-.314,3.185-.449l7.3-.807,13.267-1.422,4.037-.4,1.094-.1A1.925,1.925,0,0,1,164.787,210.128Z" transform="translate(-84.855 -128.236)" fill="#fff"/>
    <path id="Path_14171" data-name="Path 14171" d="M313.483,376.611c-.031.054-4.4-2.35-9.76-5.382s-9.675-5.521-9.643-5.58,4.4,2.35,9.76,5.382S313.515,376.57,313.483,376.611Z" transform="translate(-175.538 -214.002)" fill="#fff"/>
    <path id="Path_14172" data-name="Path 14172" d="M261.554,356.645a12.759,12.759,0,0,0-2.243-.722,12,12,0,0,0-5.638.359,26.159,26.159,0,0,0-5.243,2.35l-1.521.861a3.264,3.264,0,0,1-.57.292,3.59,3.59,0,0,1,.525-.372c.345-.224.848-.543,1.48-.919a23.387,23.387,0,0,1,5.239-2.422,11.567,11.567,0,0,1,5.737-.3,8,8,0,0,1,1.66.57,3.293,3.293,0,0,1,.422.224A1.431,1.431,0,0,1,261.554,356.645Z" transform="translate(-149.211 -208.429)" fill="#fff"/>
    <path id="Path_14173" data-name="Path 14173" d="M412.23,151.991l4.9-1.516a13.088,13.088,0,1,0-3.386-3.238h0Z" transform="translate(-240.152 -82.097)" fill="#fff"/>
    <path id="Path_14174" data-name="Path 14174" d="M412.1,151.885s.022-.1.085-.3l.274-.9,1.094-3.588a.054.054,0,0,1,.067-.036h0l-.076.072a13.008,13.008,0,0,1-2.44-6.158,13.191,13.191,0,0,1,1.991-8.661,13.349,13.349,0,0,1,3.647-3.754,13.129,13.129,0,0,1,5.212-2.117,13.429,13.429,0,0,1,5.947.368,13.192,13.192,0,0,1,8.724,8.361,13.312,13.312,0,0,1,.606,5.9,12.891,12.891,0,0,1-1.875,5.279,13.2,13.2,0,0,1-7.881,5.813,13.375,13.375,0,0,1-4.23.386,13.007,13.007,0,0,1-6.279-2.148h.045l-3.678,1.117-.933.278-.3.09,4.884-1.588a.04.04,0,0,1,.045,0,13.07,13.07,0,0,0,6.23,2.081,13.577,13.577,0,0,0,4.171-.4,13.236,13.236,0,0,0,4.243-2,13.056,13.056,0,0,0,3.5-3.745,12.716,12.716,0,0,0,1.839-5.194,13.013,13.013,0,0,0-6.351-12.814,13.614,13.614,0,0,0-2.808-1.193,13.232,13.232,0,0,0-5.831-.372,13,13,0,0,0-8.365,20.413.058.058,0,0,1-.081.076h0l.085-.022C412.678,150.122,412.216,151.535,412.1,151.885Z" transform="translate(-240.025 -81.991)" fill="#263238"/>
    <path id="Path_14175" data-name="Path 14175" d="M436.646,151.582l.117-5.293a3.9,3.9,0,0,1-2.166-1.861,8.817,8.817,0,0,1-1.076-2.382.6.6,0,0,0-.628-.449.924.924,0,0,0-.812.561,6.093,6.093,0,0,0,.126,2.772s.206.4-.345.386l-1.965-.045a1.081,1.081,0,0,0-.7.238.785.785,0,0,0-.3.686c.045.749.448,1.094.426,1.251a1.418,1.418,0,0,0-.081.9c.148.449.247.422.242.637a3.587,3.587,0,0,0,.153,1.108,1.574,1.574,0,0,0,.287.5,2.715,2.715,0,0,0,.112,1.126c.188.417,1.009.65,1.283.655s2.243-.341,2.808-.449S436.113,151.317,436.646,151.582Z" transform="translate(-249.879 -90.443)" fill="#35a3e5"/>
    <rect id="Rectangle_17581" data-name="Rectangle 17581" width="5.441" height="2.023" transform="translate(187.647 61.187) rotate(-88.72)" fill="#35a3e5"/>
    <path id="Path_14176" data-name="Path 14176" d="M68.225,279.5H30.1v20.161H58.133c.83,1.274,2.584,4.176,2.584,4.176l2.018-4.176h5.49Z" transform="translate(-29.961 -166.494)" fill="#fafafa"/>
    <path id="Path_14177" data-name="Path 14177" d="M68.054,279.34v5.4c0,3.5.027,8.544.045,14.766v.085H62.524l.085-.054c-.632,1.31-1.31,2.723-2.014,4.176l-.081.166-.094-.157-2.584-4.167.085.045H29.79V279.21H29.9l27.481.045,7.872.036h-.027l-7.863.036-27.45.045.108-.108v20.161l-.117-.117H58l.031.049c.9,1.453,1.794,2.866,2.579,4.18h-.175c.7-1.453,1.386-2.866,2.023-4.176l.027-.054h5.548l-.09.09c0-6.2.036-11.213.049-14.716V279.6C68,279.354,68.054,279.34,68.054,279.34Z" transform="translate(-29.79 -166.334)" fill="#263238"/>
    <path id="Path_14178" data-name="Path 14178" d="M45.374,297.435a1.794,1.794,0,0,0,1.081-1.628,1.678,1.678,0,1,0-3.351-.045,1.794,1.794,0,0,0,1.05,1.677c-2.579.368-2.485,3.171-2.485,3.171l6.1.081S47.926,297.839,45.374,297.435Z" transform="translate(-36.341 -174.503)" fill="#35a3e5"/>
    <path id="Path_14179" data-name="Path 14179" d="M81.887,295.192c0,.036-3.889.067-8.684.067s-8.684-.031-8.684-.067,3.889-.072,8.684-.072S81.887,295.151,81.887,295.192Z" transform="translate(-48.943 -175.108)" fill="#263238"/>
    <path id="Path_14180" data-name="Path 14180" d="M81.887,299.827c0,.04-3.889.072-8.684.072s-8.684-.031-8.684-.072,3.889-.067,8.684-.067S81.887,299.791,81.887,299.827Z" transform="translate(-48.943 -177.666)" fill="#263238"/>
    <path id="Path_14181" data-name="Path 14181" d="M81.887,304.462c0,.036-3.889.067-8.684.067s-8.684-.031-8.684-.067,3.889-.072,8.684-.072S81.887,304.421,81.887,304.462Z" transform="translate(-48.943 -180.22)" fill="#263238"/>
    <path id="Path_14182" data-name="Path 14182" d="M74.9,310.322c0,.04-2.323.072-5.189.072s-5.194-.031-5.194-.072,2.323-.072,5.194-.072S74.9,310.281,74.9,310.322Z" transform="translate(-48.943 -183.451)" fill="#263238"/>
    <path id="Path_14183" data-name="Path 14183" d="M379.964,412.878l-5.163,7.764s6.131,7.845,5.32,9.37l-15.371-9.473L372.3,408.15Z" transform="translate(-214.511 -237.44)" fill="#e8a243"/>
    <g id="Group_3945" data-name="Group 3945" transform="translate(146.239 170.71)" opacity="0.3">
      <path id="Path_14184" data-name="Path 14184" d="M379.964,412.878l-5.163,7.764s6.131,7.845,5.32,9.37l-15.371-9.473L372.3,408.15Z" transform="translate(-360.75 -408.15)" fill="#e8a243"/>
    </g>
    <path id="Path_14185" data-name="Path 14185" d="M376.341,427.894a.74.74,0,0,0-.9.449.713.713,0,0,0,.449.875.78.78,0,0,0,.924-.48.736.736,0,0,0-.556-.857" transform="translate(-220.392 -248.313)" fill="#e0e0e0"/>
    <g id="Group_3946" data-name="Group 3946" transform="translate(150.239 181.856)" opacity="0.6">
      <path id="Path_14186" data-name="Path 14186" d="M364.75,434.22l.812-1.22,14.429,9.54s.5.718.13,1.153Z" transform="translate(-364.75 -433)" fill="#fff"/>
    </g>
    <path id="Path_14187" data-name="Path 14187" d="M385.446,435.592c-.049.076-.449-.121-.964-.108s-.9.206-.96.135.327-.449.955-.449S385.527,435.542,385.446,435.592Z" transform="translate(-224.859 -252.341)" fill="#263238"/>
    <path id="Path_14188" data-name="Path 14188" d="M388.393,439.583c-.031.081-.449,0-.9.17s-.731.449-.8.4.139-.5.7-.691S388.434,439.507,388.393,439.583Z" transform="translate(-226.604 -254.668)" fill="#263238"/>
    <path id="Path_14189" data-name="Path 14189" d="M389.862,444.167c-.081-.027.045-.449.493-.758s.9-.242.9-.157-.363.166-.722.413S389.938,444.2,389.862,444.167Z" transform="translate(-228.346 -256.759)" fill="#263238"/>
    <path id="Path_14190" data-name="Path 14190" d="M387.971,430.7c-.076.049-.354-.265-.8-.5s-.857-.3-.852-.39.48-.161,1,.121S388.047,430.666,387.971,430.7Z" transform="translate(-226.406 -249.345)" fill="#263238"/>
    <path id="Path_14191" data-name="Path 14191" d="M389.991,425.277a1.849,1.849,0,0,1-.767-.48,4.085,4.085,0,0,1-.65-.745,4.2,4.2,0,0,1-.3-.507,1.216,1.216,0,0,1-.121-.323.386.386,0,0,1,.215-.422.489.489,0,0,1,.449.031,1.081,1.081,0,0,1,.26.22,2.988,2.988,0,0,1,.381.448,3.211,3.211,0,0,1,.422.9,1.552,1.552,0,0,1,.067.9c-.049,0-.081-.336-.274-.834a3.727,3.727,0,0,0-.449-.812,3.345,3.345,0,0,0-.359-.408c-.135-.143-.274-.229-.359-.184s-.04.031-.036.1a.835.835,0,0,0,.09.238c.081.17.17.332.26.484a5.2,5.2,0,0,0,.57.74C389.739,425.034,390.017,425.236,389.991,425.277Z" transform="translate(-227.412 -245.498)" fill="#263238"/>
    <path id="Path_14192" data-name="Path 14192" d="M391.886,425.842a1.583,1.583,0,0,1,.256-.866,2.884,2.884,0,0,1,.623-.78,3.023,3.023,0,0,1,.484-.345.736.736,0,0,1,.731-.085.449.449,0,0,1,.188.413,1.23,1.23,0,0,1-.094.327,2.213,2.213,0,0,1-.318.52,2.068,2.068,0,0,1-.821.592c-.547.215-.9.112-.9.081a7.192,7.192,0,0,0,.816-.278,2.059,2.059,0,0,0,.691-.574,1.8,1.8,0,0,0,.256-.449c.081-.175.1-.345.027-.368a.52.52,0,0,0-.426.085,3.2,3.2,0,0,0-.449.3,3.171,3.171,0,0,0-.623.677C392.025,425.529,391.93,425.856,391.886,425.842Z" transform="translate(-229.469 -246.019)" fill="#263238"/>
    <path id="Path_14193" data-name="Path 14193" d="M384.669,422.33l1.677,9.15s9.868,1.346,10.343,3.028L379.063,438.4l-3.2-14.151Z" transform="translate(-220.637 -245.26)" fill="#e8a243"/>
    <path id="Path_14194" data-name="Path 14194" d="M386.251,443.628a.74.74,0,0,0-.314.933.709.709,0,0,0,.919.323.785.785,0,0,0,.332-.991.745.745,0,0,0-1-.229" transform="translate(-226.162 -256.969)" fill="#e0e0e0"/>
    <g id="Group_3947" data-name="Group 3947" transform="translate(158.156 188.507)" opacity="0.6">
      <path id="Path_14195" data-name="Path 14195" d="M382.669,452.463l-.269-1.44,17-3.194s.857.17.9.74Z" transform="translate(-382.4 -447.83)" fill="#fff"/>
    </g>
    <path id="Path_14196" data-name="Path 14196" d="M398.109,442.342c0,.085-.4.22-.767.592s-.507.78-.592.767-.072-.543.377-.987S398.113,442.261,398.109,442.342Z" transform="translate(-232.135 -256.275)" fill="#263238"/>
    <path id="Path_14197" data-name="Path 14197" d="M403.176,443.162c.04.076-.3.3-.511.736s-.211.83-.3.848-.247-.449.027-.987S403.158,443.077,403.176,443.162Z" transform="translate(-235.184 -256.736)" fill="#263238"/>
    <path id="Path_14198" data-name="Path 14198" d="M407.509,445.587c-.072.036-.287-.368-.17-.9s.48-.794.529-.731-.139.368-.229.8S407.616,445.56,407.509,445.587Z" transform="translate(-237.978 -257.183)" fill="#263238"/>
    <path id="Path_14199" data-name="Path 14199" d="M396.224,437.634c-.022.085-.449.054-.919.193s-.825.377-.9.314.238-.449.8-.61S396.251,437.553,396.224,437.634Z" transform="translate(-230.86 -253.608)" fill="#263238"/>
    <path id="Path_14200" data-name="Path 14200" d="M394.035,432.557a1.668,1.668,0,0,1-.9.193,3.925,3.925,0,0,1-.982-.081,4.176,4.176,0,0,1-.57-.157,1.268,1.268,0,0,1-.309-.148.39.39,0,0,1-.144-.448.484.484,0,0,1,.336-.283,1.148,1.148,0,0,1,.341-.027,3.058,3.058,0,0,1,.588.067,3.167,3.167,0,0,1,.933.354c.493.287.7.579.677.6s-.292-.188-.776-.408a3.747,3.747,0,0,0-.9-.269,3.541,3.541,0,0,0-.543-.045c-.2,0-.359.027-.386.121s0,.049.04.094a1.091,1.091,0,0,0,.229.108,4.358,4.358,0,0,0,.525.161,4.857,4.857,0,0,0,.928.139A6.939,6.939,0,0,1,394.035,432.557Z" transform="translate(-229.048 -250.374)" fill="#263238"/>
    <path id="Path_14201" data-name="Path 14201" d="M396.805,430.429c-.031.022-.269-.251-.422-.8a2.961,2.961,0,0,1-.094-1,2.764,2.764,0,0,1,.108-.583.745.745,0,0,1,.449-.57.449.449,0,0,1,.426.161,1.267,1.267,0,0,1,.161.3,2.066,2.066,0,0,1,.13.6,2.091,2.091,0,0,1-.175.991c-.242.534-.579.718-.592.691a3.732,3.732,0,0,0,.39-.767,2.086,2.086,0,0,0,.094-.9,1.907,1.907,0,0,0-.126-.507c-.072-.179-.175-.314-.242-.283a.642.642,0,0,0-.242.359,2.556,2.556,0,0,0-.112.525,3.234,3.234,0,0,0,.022.919C396.684,430.106,396.846,430.4,396.805,430.429Z" transform="translate(-231.899 -248.098)" fill="#263238"/>
    <path id="Path_14202" data-name="Path 14202" d="M375.265,252.29l21.453,33.1a14.442,14.442,0,0,1,2.9,9.634,13.765,13.765,0,0,1-2.3,6.387l-17.493,30.585-8.733-8.93,12.891-27.239-12.3-16.56L365.16,252.29Z" transform="translate(-214.737 -151.488)" fill="#263238"/>
    <path id="Path_14203" data-name="Path 14203" d="M360.76,334.346l-10.8-74.68-.6-7.576-18.484-1s-2.983,9.572-3.229,14.528,11,31.3,11,31.3l2.615,13.178,7.495,26.732Z" transform="translate(-194.046 -150.826)" fill="#263238"/>
    <path id="Path_14204" data-name="Path 14204" d="M331.654,232.416c-.332-.543,2.207-2.691,6.279-6l3.337-2.732A17.237,17.237,0,0,1,346,220.75a11.635,11.635,0,0,1,6.616-.449,11.137,11.137,0,0,1,3.355,1.346,8.917,8.917,0,0,1,2.866,2.736,5.96,5.96,0,0,1,.556,1.054,4.037,4.037,0,0,1,.305,1.651,3.467,3.467,0,0,1-.736,2.009,3.238,3.238,0,0,1-.978.821,3.05,3.05,0,0,1-.664.26,2.964,2.964,0,0,1-.655.1,3.5,3.5,0,0,1-1.9-.493,5.83,5.83,0,0,1-.668-.449c-.108-.085-.072-.04-.04-.027a.448.448,0,0,0,.117.027h0a7.591,7.591,0,0,0-1.076.278,8.854,8.854,0,0,1-.9.2c-.3.045-.614.085-.9.1a15.9,15.9,0,0,1-3.072-.193,22.921,22.921,0,0,0-2.305-.256,5.7,5.7,0,0,0-1.794.2,16.146,16.146,0,0,0-3.485,1.682,19.978,19.978,0,0,1-3.4,1.709,8.257,8.257,0,0,1-3,.547,4.037,4.037,0,0,1-1.9-.449c-.39-.229-.538-.449-.489-.592.108-.327.937-.247,2.162-.691a10.043,10.043,0,0,0,2.135-1.081,29.277,29.277,0,0,0,2.691-2.059,16.422,16.422,0,0,1,4.037-2.584,9.114,9.114,0,0,1,2.96-.641,21.787,21.787,0,0,1,2.812.085,12.613,12.613,0,0,0,2.31.031,2.711,2.711,0,0,0,.471-.072,2.938,2.938,0,0,0,.449-.121,10.538,10.538,0,0,1,1.66-.449,4.283,4.283,0,0,1,1.44,0,3.8,3.8,0,0,1,.807.238,4.483,4.483,0,0,1,.605.3c.31.188.511.323.574.35h0v.045l-.108.229a4.613,4.613,0,0,0-.229.552,2.117,2.117,0,0,0-.085.332.566.566,0,0,0,0,.121h0c-.027-.1.036.135.031.108s0,0,0-.036a.561.561,0,0,0-.152-.17.551.551,0,0,0-.148-.09h-.206a1.422,1.422,0,0,0-.381.04,2.7,2.7,0,0,0-.323.085l-.1.031h0a1.767,1.767,0,0,0-.157-.278,5.974,5.974,0,0,0-3.458-2.243,7.935,7.935,0,0,0-4.239.067,15.569,15.569,0,0,0-3.88,2.027c-1.3.852-2.561,1.651-3.718,2.328C335.112,231.761,331.968,232.941,331.654,232.416Z" transform="translate(-196.243 -133.691)" fill="#f5f5f5"/>
    <path id="Path_14205" data-name="Path 14205" d="M348.443,167.06c.381.067,4.064,1.615,5.732,2.319a2.418,2.418,0,0,1,1.216,1.144l8.208,16.569-6.347,4.4s.745,12.94-.9,13.595c-.615.242-22.8.2-22.8.2s-2.4.852-3.256,0a2.424,2.424,0,0,1-.408-1.933V176.344l-1.2-7.437S340.141,165.593,348.443,167.06Z" transform="translate(-194.625 -104.28)" fill="#e8a243"/>
    <path id="Path_14206" data-name="Path 14206" d="M324.7,177.39l.35,13.433-11.446,1.094c0-.072-1.233-17.412,6.728-20.278Z" transform="translate(-186.268 -107.012)" fill="#e8a243"/>
    <path id="Path_14207" data-name="Path 14207" d="M389.118,201.254c-.067-.448-.144-.942-.265-1.763-.175-1.211-.4-2.785-.65-4.521s-.449-3.306-.637-4.521q-.108-.807-.188-1.372a2.043,2.043,0,0,1-.04-.507,1.956,1.956,0,0,1,.135.489c.067.323.161.785.26,1.346.206,1.153.449,2.749.709,4.517s.449,3.368.579,4.535c.067.579.108,1.05.13,1.377v.44s0,.04-.04,0h0S389.114,201.254,389.118,201.254Z" transform="translate(-226.966 -116.348)" fill="#263238"/>
    <g id="Group_3948" data-name="Group 3948" transform="translate(135.438 88.394)" opacity="0.3">
      <path id="Path_14208" data-name="Path 14208" d="M357.733,228.8a5.831,5.831,0,0,0-3.207-3.351,10.926,10.926,0,0,0-4.66-.816,15.2,15.2,0,0,0-7.917,2.18c-3.512,2.243-5.862,6.158-9.724,7.7l-.475.677a15.757,15.757,0,0,0,8.612-2.059c1.7-.973,3.229-2.274,5.082-2.906a15.513,15.513,0,0,1,5.131-.534,8.369,8.369,0,0,1,4.728.973,2.786,2.786,0,0,0,1.269.655,1.31,1.31,0,0,0,1.229-.9A2.5,2.5,0,0,0,357.733,228.8Z" transform="translate(-331.75 -224.626)"/>
    </g>
    <path id="Path_14209" data-name="Path 14209" d="M374.7,208.21l1.373-3.467a.9.9,0,0,1,.852-.583h6.513a.659.659,0,0,1,.619.9l-4.18,11.33a.341.341,0,0,1-.318.224h-7.71a.341.341,0,0,1-.314-.449Z" transform="translate(-218.239 -124.946)" fill="#263238"/>
    <path id="Path_14210" data-name="Path 14210" d="M385.739,219.965l.771-4.216-.637-3.319-1.018,2.763v1.117c-.377-.1-3.871-3.059-4.808-2.422s-3.337,4.135-3.337,4.135a64.243,64.243,0,0,0,4.9,4.436s.224,2.606.256,3.952c.027,1.144.242,1.579,1.727,2.077s3.368-2.09,3.368-4.4A14.287,14.287,0,0,0,385.739,219.965Z" transform="translate(-221.106 -129.507)" fill="#ffbe9d"/>
    <path id="Path_14211" data-name="Path 14211" d="M325.313,212.954l.368,4.431,10.671-3.9,4.75-2.2,2.077.52s6.535.449,6.593.843.354.771,0,.834-5.521.3-5.521.3,5.571.354,5.692.771-.054,1.068-.35,1.068h-6.055s5.7.359,5.759.6.475.65-.058.83-5.759.354-5.759.354l4.934.9s.179.771-.233.771-11.168.713-11.168.713-12.586,8.029-14.963,8.612-4.454-2.166-4.75-4.109c-.449-2.929-.848-10.554-.848-10.554Z" transform="translate(-187.875 -128.878)" fill="#ffbe9d"/>
    <path id="Path_14212" data-name="Path 14212" d="M348.384,219.648l.22-.027.641-.054,2.462-.179,3.893-.269,2.427-.166,1.346-.09a1,1,0,0,0,.592-.152c.1-.108-.058-.341-.215-.48l.045.022-4.934-.9a.1.1,0,0,1,0-.2l2.92-.13,1.521-.09a7.542,7.542,0,0,0,.776-.067,1.191,1.191,0,0,0,.677-.17.361.361,0,0,0-.09-.516,2.423,2.423,0,0,0-.354-.058l-.4-.049-1.633-.17-3.368-.314a.117.117,0,0,1,.013-.233h6.028c.081,0,.175-.1.233-.22a.52.52,0,0,0-.121-.7,3.26,3.26,0,0,0-.641-.139l-.691-.1-1.381-.166-2.727-.283a.121.121,0,0,1-.108-.13.13.13,0,0,1,.112-.108l3.516-.166,1.709-.1a1.162,1.162,0,0,0,.359-.054.26.26,0,0,0,.094-.26.507.507,0,0,0-.157-.292.781.781,0,0,0-.332-.13c-1.063-.22-2.153-.323-3.194-.449s-2.072-.215-3.068-.3h0l-2.081-.529h.067l-4.754,2.184h0l-7.818,2.817-2.13.754-.556.193a1.068,1.068,0,0,1-.193.054,1.346,1.346,0,0,1,.184-.081l.547-.211,2.117-.8,7.764-2.866h0l4.745-2.207a.081.081,0,0,1,.063,0l2.081.52h0c1,.085,2.023.184,3.072.292a31.5,31.5,0,0,1,3.229.449.96.96,0,0,1,.426.184.691.691,0,0,1,.229.449.489.489,0,0,1-.2.484,1.18,1.18,0,0,1-.449.085l-1.713.1-3.516.17v-.238l2.732.283,1.381.166.7.1a2.965,2.965,0,0,1,.727.17.646.646,0,0,1,.309.475.964.964,0,0,1-.094.529.772.772,0,0,1-.157.229.386.386,0,0,1-.126.094.35.35,0,0,1-.166.036h-6.06v-.238l3.368.318,1.633.175.4.049a1.763,1.763,0,0,1,.449.085.6.6,0,0,1,.274.4.507.507,0,0,1-.135.449.754.754,0,0,1-.417.188c-.13,0-.265.036-.395.045-.265.027-.525.045-.78.063l-1.529.09-2.924.117v-.2l4.934.9h0a.081.081,0,0,1,.04,0,1.319,1.319,0,0,1,.242.3.381.381,0,0,1,0,.449,1.059,1.059,0,0,1-.709.211l-1.346.081-2.431.144-3.893.229-2.467.135-.646.027a1.346,1.346,0,0,1-.206-.018Z" transform="translate(-199.257 -128.754)" fill="#eb996e"/>
    <path id="Path_14213" data-name="Path 14213" d="M329.467,229.9a2.723,2.723,0,0,1,.081-.933,6.011,6.011,0,0,1,.852-2.1,5.742,5.742,0,0,1,1.615-1.588,2.691,2.691,0,0,1,.839-.422A9.372,9.372,0,0,0,330.611,227a7.005,7.005,0,0,0-.9,2,5.268,5.268,0,0,1-.247.893Z" transform="translate(-195.048 -136.361)" fill="#eb996e"/>
    <path id="Path_14214" data-name="Path 14214" d="M389.3,210.191a.57.57,0,1,1-.727-.256A.547.547,0,0,1,389.3,210.191Z" transform="translate(-227.459 -128.102)" fill="#fafafa"/>
    <path id="Path_14215" data-name="Path 14215" d="M386.079,211.852a4.225,4.225,0,0,1,.2-.655l.632-1.754.96-2.588c.094-.247.188-.493.283-.749s.256-.552.184-.713c-.031-.067-.135-.1-.269-.094h-6.212a.507.507,0,0,0-.507.211c-.085.161-.161.381-.238.552-.292.7-.534,1.278-.722,1.722a4.321,4.321,0,0,1-.292.619,4.322,4.322,0,0,1,.211-.65l.655-1.749a6.2,6.2,0,0,1,.238-.588.686.686,0,0,1,.283-.247.852.852,0,0,1,.372-.058h6.208a.448.448,0,0,1,.471.22.619.619,0,0,1-.027.489l-.148.386-.292.745-1.009,2.579c-.283.7-.516,1.287-.7,1.731A3.586,3.586,0,0,1,386.079,211.852Z" transform="translate(-222.976 -125.466)" fill="#455a64"/>
    <path id="Path_14216" data-name="Path 14216" d="M346.248,103.619a2.728,2.728,0,0,1-.767-3.449,4.221,4.221,0,0,1,3.14-2.05,5.934,5.934,0,0,1,5.1,1.7c.7.727,1.274,1.673,2.243,2a12.945,12.945,0,0,0,2.646.139,4.037,4.037,0,0,1,2.8,2.018,8.622,8.622,0,0,1,1,3.4,5.179,5.179,0,0,0,.964,3.068c.754.794,1.9.937,2.808,1.485a3.844,3.844,0,0,1,1.144,5.248c-.363.529-.9,1.009-.924,1.651a4.547,4.547,0,0,0,.516,1.655,2.6,2.6,0,0,1-2.22,3.22c-.758.045-1.57-.251-2.243.085s-.924,1.153-1.346,1.767a3.238,3.238,0,0,1-3.952,1.023,3.625,3.625,0,0,0-1.7-.682c-.619.04-1.1.57-1.709.686a2.231,2.231,0,0,1-2.027-1.09,11.851,11.851,0,0,0-1.408-1.974,7.807,7.807,0,0,0-2.906-1.224,8.208,8.208,0,0,1-4.638-11.5" transform="translate(-201.888 -66.432)" fill="#263238"/>
    <path id="Path_14217" data-name="Path 14217" d="M376.835,141.453a2.274,2.274,0,0,1,.9-.583h-.072l.193-.031a.9.9,0,0,1,.691.085h0a1.632,1.632,0,0,1,.9.78,1.929,1.929,0,0,1-.229,2,1.628,1.628,0,0,1-1.606.664,1.646,1.646,0,0,1-1.112-1.171A1.848,1.848,0,0,1,376.835,141.453Z" transform="translate(-220.939 -90.007)" fill="#455a64"/>
    <path id="Path_14218" data-name="Path 14218" d="M343.849,136.3l-1.162-21.274a1.794,1.794,0,0,1,1.565-1.875l9.509-2.691c3.059-.413,5.207,3.31,5.49,6.383A54.4,54.4,0,0,1,359.475,127c-.668,5.154-4.584,5.921-4.584,5.921l.058,2.938-.309,8.015Z" transform="translate(-202.342 -73.256)" fill="#ffbe9d"/>
    <path id="Path_14219" data-name="Path 14219" d="M375.049,133.949a.655.655,0,0,1-.614.682.628.628,0,0,1-.7-.574.659.659,0,0,1,.615-.682.628.628,0,0,1,.7.574Z" transform="translate(-219.468 -85.908)" fill="#263238"/>
    <path id="Path_14220" data-name="Path 14220" d="M374.512,128.823c-.076.09-.588-.269-1.3-.247s-1.216.395-1.3.309.04-.2.26-.368a1.794,1.794,0,0,1,1.036-.35,1.7,1.7,0,0,1,1.036.3C374.471,128.63,374.552,128.783,374.512,128.823Z" transform="translate(-218.45 -83.038)" fill="#263238"/>
    <path id="Path_14221" data-name="Path 14221" d="M360.454,133.95a.655.655,0,0,1-.619.682.628.628,0,0,1-.7-.574.664.664,0,0,1,.619-.682.632.632,0,0,1,.7.574Z" transform="translate(-211.416 -85.909)" fill="#263238"/>
    <path id="Path_14222" data-name="Path 14222" d="M359,129.554c-.081.09-.592-.265-1.3-.242s-1.22.39-1.3.305.036-.193.26-.363a1.83,1.83,0,0,1,1.036-.354,1.718,1.718,0,0,1,1.032.3C358.963,129.365,359.039,129.518,359,129.554Z" transform="translate(-209.899 -83.441)" fill="#263238"/>
    <path id="Path_14223" data-name="Path 14223" d="M367.67,134.691a4.826,4.826,0,0,1,1.144-.238c.184-.027.35-.067.381-.188a.942.942,0,0,0-.139-.534c-.179-.449-.372-.9-.574-1.346a23.118,23.118,0,0,1-1.3-3.566,23.226,23.226,0,0,1,1.588,3.454c.188.48.377.933.552,1.372a1.05,1.05,0,0,1,.112.7.449.449,0,0,1-.292.274,1.184,1.184,0,0,1-.3.054,4.526,4.526,0,0,1-1.166.013Z" transform="translate(-215.847 -83.397)" fill="#263238"/>
    <path id="Path_14224" data-name="Path 14224" d="M361.385,158.557a13.093,13.093,0,0,1-6.925-1.637s1.767,3.476,6.894,2.853Z" transform="translate(-208.836 -98.894)" fill="#eb996e"/>
    <path id="Path_14225" data-name="Path 14225" d="M365.051,144.787a1.745,1.745,0,0,0-1.453-.718,1.139,1.139,0,0,0-.919.534,1.041,1.041,0,0,0,1.211,1.525,2.588,2.588,0,0,0,1.027-.677.794.794,0,0,0,.215-.269.359.359,0,0,0-.04-.359" transform="translate(-213.287 -91.807)" fill="#eb996e"/>
    <path id="Path_14226" data-name="Path 14226" d="M363.538,143.14c.112,0,.135.758.812,1.283s1.489.422,1.5.529-.179.152-.525.175a1.938,1.938,0,0,1-1.251-.4,1.682,1.682,0,0,1-.632-1.076C363.4,143.328,363.484,143.135,363.538,143.14Z" transform="translate(-213.783 -91.295)" fill="#263238"/>
    <path id="Path_14227" data-name="Path 14227" d="M358.768,123.25c-.063.2-.771.126-1.6.247s-1.494.372-1.61.2c-.049-.081.063-.265.327-.449a2.66,2.66,0,0,1,1.184-.449,2.62,2.62,0,0,1,1.26.112C358.637,123.012,358.794,123.16,358.768,123.25Z" transform="translate(-209.434 -80.062)" fill="#263238"/>
    <path id="Path_14228" data-name="Path 14228" d="M374.031,123.35c-.121.166-.61,0-1.2.022s-1.081.135-1.2-.027c-.049-.081.022-.247.233-.4a1.677,1.677,0,0,1,.969-.292,1.65,1.65,0,0,1,.964.3C374.031,123.107,374.094,123.255,374.031,123.35Z" transform="translate(-218.297 -79.995)" fill="#263238"/>
    <path id="Path_14229" data-name="Path 14229" d="M367.88,112.553a3.512,3.512,0,0,0-1.346-1.942,11.964,11.964,0,0,1-1.139-.664c-.745-.6-.9-1.642-1.372-2.476a3.884,3.884,0,0,0-2.951-1.96,21.046,21.046,0,0,1-3.059-.049c-.731-.184-1.372-.659-2.113-.8-1.449-.278-2.79.762-3.839,1.794,0,1.036.821,1.727,1.615,2.391a3.588,3.588,0,0,0,2.906.767c.789-.144,1.655-.543,2.337-.121s.749,1.525,1.386,2.077c.9.794,2.364.049,3.521.395.9.265,1.449,1.117,2.045,1.839a2.452,2.452,0,0,0,2.373,1.135A10.2,10.2,0,0,0,367.88,112.553Z" transform="translate(-207.512 -70.051)" fill="#263238"/>
    <path id="Path_14230" data-name="Path 14230" d="M341.11,107.963c-.677-.193-2.059-.632-2.422-1.216a4.14,4.14,0,0,0-3.588-2.068,3.4,3.4,0,0,0-3.068,2.691,4.9,4.9,0,0,0-4.216,2.691,5.185,5.185,0,0,0-.269.628,3.75,3.75,0,0,0-.251,3.14c.238.61.632,1.292.318,1.866s-1.126.6-1.754.816a2.471,2.471,0,0,0-1.561,2.767,3.05,3.05,0,0,1,.193,1.22,2.642,2.642,0,0,1-.727,1.054,3.081,3.081,0,0,0,1.794,5.019,3.97,3.97,0,0,1,1.422.323c.475.3.686.87,1.023,1.319a2.664,2.664,0,0,0,2.88.9,2.337,2.337,0,0,0,.579-.292,1.911,1.911,0,0,0,1.7.749l-.193-11.29a.928.928,0,0,0,.682.534c1.794.413,2.077-3.324,1.673-4.337a10.317,10.317,0,0,0,1.817-1.911,7.562,7.562,0,0,0,.834-3.664A9.193,9.193,0,0,0,341.11,107.963Z" transform="translate(-191.507 -70.086)" fill="#263238"/>
    <path id="Path_14231" data-name="Path 14231" d="M342.808,135.3c-.054-1.1-1.4-1.346-2.355-.785a2.11,2.11,0,0,0-.875,2.081,2.332,2.332,0,0,0,3.229,2.243C342.808,138.738,342.875,136.585,342.808,135.3Z" transform="translate(-200.629 -86.378)" fill="#ffbe9d"/>
    <path id="Path_14232" data-name="Path 14232" d="M342.781,138.975a.811.811,0,0,1-.139.085.552.552,0,0,1-.408.027,1.346,1.346,0,0,1-.668-1.18,1.723,1.723,0,0,1,.121-.785.623.623,0,0,1,.39-.449.274.274,0,0,1,.323.135c.049.085.031.148.045.153s.067-.054.036-.184a.346.346,0,0,0-.13-.188.4.4,0,0,0-.3-.067.771.771,0,0,0-.547.507,1.906,1.906,0,0,0-.152.875,1.422,1.422,0,0,0,.848,1.314.579.579,0,0,0,.493-.1C342.781,139.047,342.794,138.975,342.781,138.975Z" transform="translate(-201.602 -87.642)" fill="#eb996e"/>
    <path id="Path_14233" data-name="Path 14233" d="M344.426,110.688a1.848,1.848,0,0,0-.623.52,2.9,2.9,0,0,0-.229,2.153v.076l-.076.022a2.992,2.992,0,0,0-2,1.767,2.184,2.184,0,0,0-.161.758,4.432,4.432,0,0,0,.094.821,5.648,5.648,0,0,1,.121.9,1.471,1.471,0,0,1-.247.919,3.782,3.782,0,0,1-1.547,1.162,5.265,5.265,0,0,0-1.444.946,3.884,3.884,0,0,0-1.162,2.61,4.081,4.081,0,0,0,.408,1.924c.206.422.381.628.363.641a.747.747,0,0,1-.13-.144,2.868,2.868,0,0,1-.309-.449,3.947,3.947,0,0,1,.686-4.714,5.333,5.333,0,0,1,1.494-1,3.637,3.637,0,0,0,1.458-1.09c.345-.449.188-1.09.1-1.646a4.651,4.651,0,0,1-.094-.866,2.537,2.537,0,0,1,.179-.83,3.14,3.14,0,0,1,2.157-1.852l-.058.1a2.9,2.9,0,0,1,.314-2.243,1.319,1.319,0,0,1,.489-.4C344.354,110.7,344.421,110.679,344.426,110.688Z" transform="translate(-199.201 -73.398)" fill="#455a64"/>
    <path id="Path_14234" data-name="Path 14234" d="M341.479,143.793a2.287,2.287,0,0,1,.9-.583h-.067a1.346,1.346,0,0,1,.193-.031.9.9,0,0,1,.691.085h0a1.633,1.633,0,0,1,.9.78,1.929,1.929,0,0,1-.229,2,1.628,1.628,0,0,1-1.606.664,1.646,1.646,0,0,1-1.112-1.175A1.839,1.839,0,0,1,341.479,143.793Z" transform="translate(-201.443 -91.298)" fill="#455a64"/>
    <path id="Path_14235" data-name="Path 14235" d="M387.818,343.418c-.067,0-2.606-16.972-5.674-37.919s-5.5-37.95-5.436-37.959,2.6,16.968,5.669,37.923S387.881,343.409,387.818,343.418Z" transform="translate(-221.105 -159.898)" fill="#455a64"/>
    <path id="Path_14236" data-name="Path 14236" d="M350.8,254.32a1.22,1.22,0,0,1-.045.4,6.056,6.056,0,0,1-.314,1.045,7.315,7.315,0,0,1-5.311,4.485,6.953,6.953,0,0,1-1.085.135,1.288,1.288,0,0,1-.4-.022c0-.04.57-.049,1.449-.274a7.688,7.688,0,0,0,5.194-4.4C350.66,254.872,350.764,254.311,350.8,254.32Z" transform="translate(-202.875 -152.607)" fill="#455a64"/>
    <path id="Path_14237" data-name="Path 14237" d="M371.562,255.642a1.108,1.108,0,0,0-.534.377.807.807,0,0,0-.121.646.736.736,0,0,0,1.287.148.816.816,0,0,0,.027-.655,1.108,1.108,0,0,0-.449-.489.876.876,0,0,1,.2.031.857.857,0,0,1,.381.39.9.9,0,1,1-1.686.628.928.928,0,0,1,.2-.8.821.821,0,0,1,.449-.292C371.49,255.606,371.562,255.628,371.562,255.642Z" transform="translate(-217.761 -153.324)" fill="#455a64"/>
    <path id="Path_14238" data-name="Path 14238" d="M411.186,345.92c0,.067-.9.332-2.009.78s-1.951.9-1.987.839a6.243,6.243,0,0,1,1.9-1.059A6.337,6.337,0,0,1,411.186,345.92Z" transform="translate(-237.915 -203.122)" fill="#455a64"/>
    <path id="Path_14239" data-name="Path 14239" d="M325.616,197.8a1.493,1.493,0,0,1-.493-.135,4.907,4.907,0,0,1-1.2-.727c-.449-.368-.964-.866-1.53-1.395a6.162,6.162,0,0,0-2.023-1.395,3.75,3.75,0,0,0-2.409,0,6.67,6.67,0,0,0-1.794.9c-.955.668-1.5,1.153-1.529,1.121s.117-.144.359-.368a13.013,13.013,0,0,1,1.072-.9,6.6,6.6,0,0,1,1.839-.982,3.875,3.875,0,0,1,2.552,0,6.132,6.132,0,0,1,2.1,1.458c.556.543,1.036,1.05,1.48,1.422a6.28,6.28,0,0,0,1.579,1Z" transform="translate(-186.872 -119.182)" fill="#fff"/>
    <path id="Path_14240" data-name="Path 14240" d="M360.771,193.227s-.242-.233-.713-.6a6.871,6.871,0,0,0-2.243-1.112,6.436,6.436,0,0,0-3.66.036,19.475,19.475,0,0,0-4.037,2.135,12.493,12.493,0,0,1-2.157,1.063,10.891,10.891,0,0,1-2.18.538,16.932,16.932,0,0,1-3.777.072c-1.076-.09-1.933-.215-2.53-.3l-.682-.112a1.184,1.184,0,0,1-.233-.054.9.9,0,0,1,.242,0l.686.067c.6.063,1.458.161,2.525.229a17.94,17.94,0,0,0,3.736-.117,10.93,10.93,0,0,0,2.131-.543,12.586,12.586,0,0,0,2.122-1.05,18.908,18.908,0,0,1,4.1-2.139,6.567,6.567,0,0,1,6.015,1.211,4.975,4.975,0,0,1,.5.48A1.076,1.076,0,0,1,360.771,193.227Z" transform="translate(-200.068 -117.727)" fill="#fff"/>
    <path id="Path_14241" data-name="Path 14241" d="M393.394,195.55a1.372,1.372,0,0,1-.2.74,2.924,2.924,0,0,1-1.314,1.314,2.875,2.875,0,0,1-1.839.233,1.386,1.386,0,0,1-.713-.3c0-.036.287.081.736.135a3.005,3.005,0,0,0,2.983-1.462C393.286,195.823,393.358,195.541,393.394,195.55Z" transform="translate(-228.066 -120.197)" fill="#fff"/>
    <path id="Path_14242" data-name="Path 14242" d="M313.69,203.863a6.6,6.6,0,0,1,.816-.126l2.243-.251c1.888-.2,4.485-.449,7.378-.74l1-.094-.108.121c-.067-2.664-.117-5.037-.139-6.728v-2.009a4.553,4.553,0,0,1,.027-.736,5.138,5.138,0,0,1,.063.731c.022.511.054,1.189.09,2.014.067,1.7.144,4.073.215,6.728v.108h-.112l-1,.094c-2.884.278-5.494.516-7.387.673l-2.243.175a5.2,5.2,0,0,1-.843.04Z" transform="translate(-186.352 -118.957)" fill="#263238"/>
    <path id="Path_14243" data-name="Path 14243" d="M74.993,426.53l-9.72,5.459-8.926,2.1a1.144,1.144,0,0,0-.83,1.449h0a1.148,1.148,0,0,0,.736.749c2.243.731,10.482,3.207,11.025,2.96.861-.39,10.765-5.086,10.765-5.086Z" transform="translate(-43.95 -247.576)" fill="#e8a243"/>
    <g id="Group_3949" data-name="Group 3949" transform="translate(11.559 187.965)" opacity="0.6">
      <path id="Path_14244" data-name="Path 14244" d="M55.569,446.62l12.559,3.35-.413.22a1.821,1.821,0,0,1-1.175.166c-1.068-.233-4-.946-10.231-2.96a1.139,1.139,0,0,1-.749-.776Z" transform="translate(-55.56 -446.62)" fill="#fff"/>
    </g>
    <g id="Group_3950" data-name="Group 3950" transform="translate(25.253 187.533)" opacity="0.6">
      <path id="Path_14245" data-name="Path 14245" d="M87.074,445.73a.691.691,0,0,0-.9.256.664.664,0,0,0,.247.9.731.731,0,0,0,.933-.278.691.691,0,0,0-.354-.9" transform="translate(-86.093 -445.657)" fill="#fff"/>
    </g>
    <path id="Path_14246" data-name="Path 14246" d="M74.333,442.178a9.531,9.531,0,0,0,0-1.372,9.236,9.236,0,0,0-.413-1.346,2.243,2.243,0,0,1,.606,1.346,1.947,1.947,0,0,1-.193,1.372Z" transform="translate(-54.126 -254.707)" fill="#263238"/>
    <path id="Path_14247" data-name="Path 14247" d="M78.451,441.059c-.072,0-.135-.655-.484-1.377s-.821-1.189-.771-1.242A2.817,2.817,0,0,1,78.451,441.059Z" transform="translate(-55.931 -254.144)" fill="#263238"/>
    <path id="Path_14248" data-name="Path 14248" d="M82.651,439.018a5.513,5.513,0,0,0-.449-1.449,5.384,5.384,0,0,0-1.023-1.13c0-.027.193,0,.449.17a2.476,2.476,0,0,1,.789.839,2.427,2.427,0,0,1,.332,1.1C82.736,438.843,82.683,439.022,82.651,439.018Z" transform="translate(-58.13 -253.036)" fill="#263238"/>
    <path id="Path_14249" data-name="Path 14249" d="M84.279,434.746a1.376,1.376,0,0,1,.363-.211,2.951,2.951,0,0,1,1.13-.224,1.305,1.305,0,0,1,.812.2.449.449,0,0,1,.152.5.763.763,0,0,1-.363.395,1.615,1.615,0,0,1-1.983-.547,1.87,1.87,0,0,1,0-2.081.646.646,0,0,1,.449-.283.448.448,0,0,1,.449.3,1.61,1.61,0,0,1,0,.825,3.287,3.287,0,0,1-.408,1.076c-.144.233-.247.341-.26.332a5.122,5.122,0,0,0,.493-1.435,1.458,1.458,0,0,0,0-.722.238.238,0,0,0-.233-.166.449.449,0,0,0-.3.2,1.677,1.677,0,0,0,0,1.794,1.4,1.4,0,0,0,1.7.5.525.525,0,0,0,.26-.26.251.251,0,0,0-.076-.283,1.2,1.2,0,0,0-.682-.179,4.3,4.3,0,0,0-1.507.26Z" transform="translate(-59.727 -250.868)" fill="#263238"/>
    <path id="Path_14250" data-name="Path 14250" d="M110.74,424.511l6.522,5.728s-3.633,8.549-2.53,9.724l11.554-12.245-9.791-9.338Z" transform="translate(-74.432 -243.082)" fill="#e8a243"/>
    <path id="Path_14251" data-name="Path 14251" d="M131.691,435.148a.686.686,0,0,1,.9.193.655.655,0,0,1-.184.9.718.718,0,0,1-.946-.206.686.686,0,0,1,.292-.9" transform="translate(-85.82 -252.279)" fill="#e0e0e0"/>
    <g id="Group_3951" data-name="Group 3951" transform="translate(40.05 183.739)" opacity="0.6">
      <path id="Path_14252" data-name="Path 14252" d="M130.887,438.1l-1.023-.9-10.7,12.074s-.274.771.166,1.072Z" transform="translate(-119.082 -437.2)" fill="#fff"/>
    </g>
    <path id="Path_14253" data-name="Path 14253" d="M124.708,444.321c.063.054.372-.22.843-.332s.866-.031.9-.112-.4-.314-.969-.166S124.64,444.263,124.708,444.321Z" transform="translate(-82.129 -257.025)" fill="#263238"/>
    <path id="Path_14254" data-name="Path 14254" d="M123.193,448.689c.045.067.395-.094.839-.058s.767.229.821.166-.251-.422-.8-.449S123.14,448.64,123.193,448.689Z" transform="translate(-81.296 -259.607)" fill="#263238"/>
    <path id="Path_14255" data-name="Path 14255" d="M123.29,453.222c.063-.045-.157-.408-.632-.565s-.866,0-.839.076.363.063.749.2S123.245,453.263,123.29,453.222Z" transform="translate(-80.54 -261.948)" fill="#263238"/>
    <path id="Path_14256" data-name="Path 14256" d="M121.7,440.332c.081.027.256-.327.6-.641s.7-.48.677-.561-.475-.027-.875.35S121.621,440.319,121.7,440.332Z" transform="translate(-80.46 -254.507)" fill="#263238"/>
    <path id="Path_14257" data-name="Path 14257" d="M118.7,435.994a1.846,1.846,0,0,0,.574-.615,3.866,3.866,0,0,0,.39-.83,3.647,3.647,0,0,0,.144-.529.969.969,0,0,0,.031-.318.354.354,0,0,0-.292-.327.449.449,0,0,0-.386.13,1.4,1.4,0,0,0-.184.26,3.343,3.343,0,0,0-.229.507,3.054,3.054,0,0,0-.161.9,1.4,1.4,0,0,0,.157.83,6.565,6.565,0,0,0,.045-.816,3.4,3.4,0,0,1,.206-.839,3.534,3.534,0,0,1,.224-.448c.09-.161.193-.274.283-.251s.04,0,.054.076a.78.78,0,0,1,0,.238,4.034,4.034,0,0,1-.121.5,4.621,4.621,0,0,1-.332.807C118.866,435.72,118.664,435.962,118.7,435.994Z" transform="translate(-78.754 -251.348)" fill="#263238"/>
    <path id="Path_14258" data-name="Path 14258" d="M116.128,437.367c.031,0-.072-.336-.449-.722a2.82,2.82,0,0,0-.749-.552,2.971,2.971,0,0,0-.52-.193.686.686,0,0,0-.677.1.386.386,0,0,0-.072.417,1.053,1.053,0,0,0,.166.274,1.794,1.794,0,0,0,.413.39,1.906,1.906,0,0,0,.9.336,1.086,1.086,0,0,0,.834-.143,7.725,7.725,0,0,1-.8-.054,1.955,1.955,0,0,1-.762-.35,1.662,1.662,0,0,1-.341-.345c-.112-.144-.17-.292-.112-.327a.475.475,0,0,1,.4-.022,2.694,2.694,0,0,1,.475.161,2.984,2.984,0,0,1,.722.448C115.926,437.116,116.087,437.39,116.128,437.367Z" transform="translate(-76.025 -252.717)" fill="#263238"/>
    <path id="Path_14259" data-name="Path 14259" d="M101.762,342.581l-7.3-7.221,14.766-27.118a12.531,12.531,0,0,1,5-3.476l4.588-1.745,11.5-.951,7.078,2.05c2.045.8,4.624,2.279,4.369,4.463l-2.53,18.439-1.247,23.22-30.949-7.625,6.867-8.89-2.476-10.572Z" transform="translate(-65.454 -178.94)" fill="#e8a243"/>
    <path id="Path_14260" data-name="Path 14260" d="M136.06,341.37l15.963-6.383c1.431-.579,1.911-2.162,2.027-3.7l1.3-17.044s-.152-7.253,4.378-7.6l2.575,1.014c3.328,1.767,4.153,6.616,3.7,10.357-.641,5.32-.9,12.841-1.633,17.457a9.887,9.887,0,0,1-6.445,8.074l-20.1,4.306Z" transform="translate(-88.395 -181.461)" fill="#e8a243"/>
    <path id="Path_14261" data-name="Path 14261" d="M121.388,383.363h-2.153s-4.858-1.758-5.831-1.588c-.9.148-4.194,2.337-4.84,2.772a.4.4,0,0,0-.157.2h0a.709.709,0,0,0,.395.9l.067.027-.031.1a1.27,1.27,0,0,0-.049.395.475.475,0,0,0,.9.206l-.126.22a.565.565,0,0,0-.067.3v.2a.529.529,0,0,0,.372.484h0a.538.538,0,0,0,.565-.148c.417-.449,1.319-1.381,1.929-1.48a14.811,14.811,0,0,1,1.991-.1.682.682,0,0,1,.628.449h0a36.437,36.437,0,0,0-3.777,1.794.946.946,0,0,0-.52.718c-.031.283.108.574.659.449a24.433,24.433,0,0,0,3.324-1.26,2.394,2.394,0,0,1,1.794.188c1,.709,1.462.969,2.323.686a7.3,7.3,0,0,0,1.5-.7l1.7-.166S123.586,383.978,121.388,383.363Z" transform="translate(-73.121 -222.889)" fill="#916b5c"/>
    <path id="Path_14262" data-name="Path 14262" d="M116.5,386.894c0,.022-.345-.09-.9-.126a4.858,4.858,0,0,0-2.166.368,4.8,4.8,0,0,0-1.758,1.31c-.368.449-.525.754-.543.745a1.255,1.255,0,0,1,.108-.224,4.035,4.035,0,0,1,.381-.561,4.548,4.548,0,0,1,3.983-1.7,4.224,4.224,0,0,1,.668.112A1.041,1.041,0,0,1,116.5,386.894Z" transform="translate(-74.652 -225.604)" fill="#6d5046"/>
    <path id="Path_14263" data-name="Path 14263" d="M115.079,384.237a4.212,4.212,0,0,0-.951-.161,4.14,4.14,0,0,0-2.211.623,9,9,0,0,0-1.794,1.507l-.484.516a1.2,1.2,0,0,1-.188.184,2.131,2.131,0,0,1,.161-.206c.108-.13.265-.314.449-.538a8.073,8.073,0,0,1,1.794-1.538,4.036,4.036,0,0,1,2.243-.614,2.6,2.6,0,0,1,.709.13c.081.022.139.054.179.067Z" transform="translate(-73.72 -224.126)" fill="#6d5046"/>
    <path id="Path_14264" data-name="Path 14264" d="M156.613,329.38a2.306,2.306,0,0,0-.054.39l-.108,1.126c-.085,1-.206,2.4-.35,4.131s-.309,3.83-.493,6.136c-.045.574-.094,1.166-.139,1.794a13.973,13.973,0,0,1-.215,1.826,3.081,3.081,0,0,1-.825,1.6,5.543,5.543,0,0,1-1.534,1.018c-4.584,2.122-8.809,3.875-11.877,5.1l-3.656,1.408-.991.39a2.268,2.268,0,0,0-.341.152,1.813,1.813,0,0,0,.354-.1l1-.35c.87-.309,2.126-.771,3.669-1.346,3.086-1.189,7.316-2.915,11.917-5.046a5.781,5.781,0,0,0,1.592-1.063,3.324,3.324,0,0,0,.9-1.718,15,15,0,0,0,.211-1.857c.045-.6.09-1.193.13-1.772.17-2.305.318-4.387.449-6.14s.211-3.14.278-4.14c.027-.449.049-.848.067-1.126A3.276,3.276,0,0,0,156.613,329.38Z" transform="translate(-88.378 -194.001)" fill="#263238"/>
    <path id="Path_14265" data-name="Path 14265" d="M181.652,371.472a2.692,2.692,0,0,0-.327-.951,6.118,6.118,0,0,0-3.588-3.081,2.69,2.69,0,0,0-.987-.17c0,.04.368.117.933.332a7.046,7.046,0,0,1,2.014,1.2,6.975,6.975,0,0,1,1.5,1.794A7.719,7.719,0,0,0,181.652,371.472Z" transform="translate(-110.834 -214.896)" fill="#263238"/>
    <g id="Group_3952" data-name="Group 3952" transform="translate(51.985 140.447)" opacity="0.3">
      <path id="Path_14266" data-name="Path 14266" d="M145.69,358.644c1.9-1.076,3.759-1.9,5.746-2.8a13.019,13.019,0,0,0,5.239-3.817c2.453-3.306,2.171-8.074,4.683-11.343q-.242,3.288-.489,6.584c-.152,2.009.157,4-1.139,5.382A12.531,12.531,0,0,1,155,355.181c-3.028,1-6.279,2.48-9.311,3.481" transform="translate(-145.69 -340.68)"/>
    </g>
    <path id="Path_14267" data-name="Path 14267" d="M61.728,377.906a6.189,6.189,0,0,0-3.9,5.732c-.031,8.334,16.833,17.52,16.833,17.52l22.449-14.873,1.4-.57S68.222,374.331,61.728,377.906Z" transform="translate(-45.253 -220.378)" fill="#263238"/>
    <path id="Path_14268" data-name="Path 14268" d="M103.306,399.8a4.579,4.579,0,0,1-.588-.4c-.368-.265-.9-.664-1.534-1.157-1.283-1-3.032-2.4-4.934-4.037s-3.534-3.14-4.71-4.248c-.592-.561-1.059-1.023-1.381-1.346a4.424,4.424,0,0,1-.48-.516,3.784,3.784,0,0,1,.543.449l1.444,1.3c1.2,1.09,2.875,2.584,4.754,4.2s3.588,3.037,4.867,4.059c.6.5,1.1.9,1.489,1.216a4.193,4.193,0,0,1,.529.48Z" transform="translate(-62.818 -226.383)" fill="#455a64"/>
    <path id="Path_14269" data-name="Path 14269" d="M80.64,385.633a5.576,5.576,0,0,1,4.086,1.207c-.036.058-.857-.449-1.987-.789S80.64,385.7,80.64,385.633Z" transform="translate(-57.832 -224.993)" fill="#455a64"/>
    <path id="Path_14270" data-name="Path 14270" d="M85,382.77a2.713,2.713,0,0,1,1.346,1,2.749,2.749,0,0,1,.7,1.512c-.067.022-.314-.677-.9-1.368S84.937,382.828,85,382.77Z" transform="translate(-60.232 -223.444)" fill="#455a64"/>
    <path id="Path_14271" data-name="Path 14271" d="M69.971,349.921l6.387,17.2a2.476,2.476,0,0,0,2.355,1.615l35.151-.449V365.6l-13.043.475L95.282,348.9a1.4,1.4,0,0,0-1.346-.973l-22.66.076a1.4,1.4,0,0,0-1.305,1.915Z" transform="translate(-51.896 -204.231)" fill="#e0e0e0"/>
    <path id="Path_14272" data-name="Path 14272" d="M69.989,349.885v-.054c0-.036-.031-.09-.045-.161a1.431,1.431,0,0,1,0-.646,1.4,1.4,0,0,1,.619-.83,1.346,1.346,0,0,1,.637-.2H93.748a1.511,1.511,0,0,1,.937.206,1.346,1.346,0,0,1,.579.763c1.673,5.194,3.534,10.967,5.521,17.143v.036h.04l13.079-.516-.058-.054v2.691l.058-.054-22.1.3-9.607.13-2.216.031H78.9a2.61,2.61,0,0,1-1.023-.148,2.418,2.418,0,0,1-1.408-1.346l-.691-1.852-4.216-11.307L70.4,350.948c-.265-.7-.408-1.063-.408-1.063s.13.372.386,1.072l1.13,3.072,4.18,11.316.686,1.835a2.525,2.525,0,0,0,1.453,1.408,2.714,2.714,0,0,0,1.054.157h1.076l2.216-.027,9.608-.121,22.1-.287h.054v-2.785h-.058l-13.043.48.058.036c-2-6.172-3.862-11.944-5.535-17.134a1.476,1.476,0,0,0-.623-.816,1.637,1.637,0,0,0-.987-.22H88.07l-6.629.054-9.459.045H71.2a1.417,1.417,0,0,0-1.251,1.05,1.381,1.381,0,0,0,0,.655,1.3,1.3,0,0,0,.04.211Z" transform="translate(-51.914 -204.194)" fill="#263238"/>
    <path id="Path_14273" data-name="Path 14273" d="M102.21,366.661a1.579,1.579,0,0,0-1.709.184,1.377,1.377,0,0,0-.332,1.512,1.485,1.485,0,0,0,1.283.9,1.346,1.346,0,0,0,1.346-.9,1.512,1.512,0,0,0-.6-1.7" transform="translate(-68.548 -214.467)" fill="#fff"/>
    <path id="Path_14274" data-name="Path 14274" d="M86.93,404.316S118.605,384.029,120,383.235c1.189-.677,4.373-2.637,7.508-1.772s5.952,3.682,7.36,7.791a41.045,41.045,0,0,1,1.346,9.365c.215,3.588-.256,6.584-2.606,9.311a8.845,8.845,0,0,1-3.952,2.808c-.332.1-.673.193-1.027.269-6,1.3-12.8-.8-16.169-5.93l-.74-1.126s-20.744,7.625-21.081,7.513Z" transform="translate(-61.301 -222.604)" fill="#263238"/>
    <path id="Path_14275" data-name="Path 14275" d="M125.975,400.288l-.175.076-.52.206-2.009.776-7.473,2.812c-3.171,1.184-6.975,2.592-11.24,4.144s-8.993,3.234-14.039,4.961l-.094.031-.045-.085c-.794-1.512-1.628-3.113-2.476-4.732-.449-.825-.866-1.646-1.265-2.413l-.049-.094.09-.054,24.189-15.358,7.266-4.588,1.974-1.233.516-.314c.117-.072.179-.1.179-.1s-.054.045-.166.121l-.507.332-1.96,1.278-7.226,4.642L86.8,406.11l.04-.148c.4.763.83,1.583,1.265,2.409l2.476,4.736-.139-.058c5.046-1.7,9.778-3.4,14.048-4.934l11.254-4.1,7.495-2.749,2.027-.736.525-.184a1.509,1.509,0,0,1,.184-.058Z" transform="translate(-61.114 -224.299)" fill="#455a64"/>
    <path id="Path_14276" data-name="Path 14276" d="M133.912,258.65s-1.9,8.168-1.9,13.9v1.911s4.907,3.813,8.926,3.925l3.09-8.37Z" transform="translate(-86.161 -154.995)" fill="#263238"/>
    <path id="Path_14277" data-name="Path 14277" d="M156.635,252.113c-1.045-3.92-1.543-8.522-4.911-10.976a12,12,0,0,0-8.383-2.045,11.341,11.341,0,0,0-4.521,1.669c-1.794,1.09-2.489,3.2-3.306,5.131-1.637,3.857-1.247,9,0,10.388l16.147,7.876c3.117-1.754,5.082-2.476,5.454-6.728A15.532,15.532,0,0,0,156.635,252.113Z" transform="translate(-87.495 -144.179)" fill="#263238"/>
    <path id="Path_14278" data-name="Path 14278" d="M152.814,247.485l-10.069-2.624c-3.238-.363-5.418,3.611-5.647,6.858a57.208,57.208,0,0,0,0,10.72c.821,5.423,4.97,6.14,4.97,6.14s0,.081.031,1.691l-.022,2.61a4.485,4.485,0,0,0,.978,2.92c1.538,1.861,4.234,2.032,7.365.754a4.628,4.628,0,0,0,3.14-4.014l.987-23.108A1.906,1.906,0,0,0,152.814,247.485Z" transform="translate(-88.827 -147.379)" fill="#916b5c"/>
    <path id="Path_14279" data-name="Path 14279" d="M140.3,271.115a.7.7,0,0,0,.664.709.668.668,0,0,0,.722-.623.7.7,0,0,0-.664-.7.659.659,0,0,0-.722.619Z" transform="translate(-90.733 -161.527)" fill="#263238"/>
    <path id="Path_14280" data-name="Path 14280" d="M139.455,266.5c.085.09.614-.3,1.346-.287s1.292.386,1.377.292-.049-.2-.287-.377a1.924,1.924,0,0,0-1.1-.35,1.834,1.834,0,0,0-1.085.345C139.491,266.3,139.41,266.462,139.455,266.5Z" transform="translate(-90.261 -158.927)" fill="#263238"/>
    <path id="Path_14281" data-name="Path 14281" d="M155,271.116a.7.7,0,0,0,.668.709.664.664,0,0,0,.718-.623.691.691,0,0,0-.664-.7.664.664,0,0,0-.722.619Z" transform="translate(-98.84 -161.527)" fill="#263238"/>
    <path id="Path_14282" data-name="Path 14282" d="M155.835,266.167c.085.094.614-.292,1.346-.287s1.3.386,1.377.3-.045-.206-.287-.381a1.889,1.889,0,0,0-1.1-.345,1.835,1.835,0,0,0-1.085.341C155.871,265.966,155.79,266.145,155.835,266.167Z" transform="translate(-99.294 -158.745)" fill="#263238"/>
    <path id="Path_14283" data-name="Path 14283" d="M147.387,270.405a4.813,4.813,0,0,0-1.211-.229c-.193-.022-.372-.058-.4-.188a.969.969,0,0,1,.135-.565c.179-.449.372-.946.574-1.453a24.543,24.543,0,0,0,1.292-3.79,24.751,24.751,0,0,0-1.6,3.678l-.552,1.458a1.13,1.13,0,0,0-.1.749.475.475,0,0,0,.314.283,1.319,1.319,0,0,0,.323.049,4.988,4.988,0,0,0,1.229.009Z" transform="translate(-93.599 -158.045)" fill="#263238"/>
    <path id="Path_14284" data-name="Path 14284" d="M148.43,295.454a13.779,13.779,0,0,0,7.266-1.884s-1.794,3.777-7.235,3.234Z" transform="translate(-95.216 -174.253)" fill="#6d5046"/>
    <path id="Path_14285" data-name="Path 14285" d="M152.1,280.536a1.193,1.193,0,0,0-.987-.543,1.552,1.552,0,0,0-1.426.7.946.946,0,0,0-.067.7c.049.121,0,.063.1.144a2.691,2.691,0,0,0,1.112.7,1.157,1.157,0,0,0,1.238-.449A1.193,1.193,0,0,0,152.1,280.536Z" transform="translate(-95.853 -166.763)" fill="#6d5046"/>
    <path id="Path_14286" data-name="Path 14286" d="M151.954,279.31c-.121,0-.135.8-.834,1.368s-1.565.449-1.57.583c0,.049.188.157.552.17a2.023,2.023,0,0,0,1.314-.449,1.763,1.763,0,0,0,.646-1.153C152.1,279.507,151.994,279.305,151.954,279.31Z" transform="translate(-95.834 -166.389)" fill="#263238"/>
    <path id="Path_14287" data-name="Path 14287" d="M155,260.425c.058.206.812.161,1.678.323s1.561.449,1.691.269c.058-.081-.054-.283-.327-.493a2.951,2.951,0,0,0-2.566-.449C155.157,260.169,155,260.317,155,260.425Z" transform="translate(-98.84 -155.716)" fill="#263238"/>
    <path id="Path_14288" data-name="Path 14288" d="M139.414,261.607c.175.139.709-.135,1.39-.265s1.274-.112,1.377-.31c.045-.094-.076-.247-.359-.359a2.243,2.243,0,0,0-2.243.449C139.383,261.347,139.334,261.535,139.414,261.607Z" transform="translate(-90.224 -156.042)" fill="#263238"/>
    <path id="Path_14289" data-name="Path 14289" d="M150.192,243.58a1.148,1.148,0,0,0-.022.121h0Z" transform="translate(-96.176 -146.685)" fill="#263238"/>
    <path id="Path_14290" data-name="Path 14290" d="M149.47,268.794c.108-1.422-.511-2.83-.39-4.252.126-1.507,1.054-2.826,1.408-4.3.565-2.355-.395-4.813-.794-7.217a5.732,5.732,0,0,1-3.588-1.915,15.922,15.922,0,0,1-2.521-4.3,7.311,7.311,0,0,0,1.61,4.158,1.969,1.969,0,0,1-1.7-.493,4.346,4.346,0,0,1-1.041-1.5,11.994,11.994,0,0,1-1.1-4.3,15.6,15.6,0,0,0,.9,6.279,2.692,2.692,0,0,0-1.175.081,1.283,1.283,0,0,1-1.126-.2,1.346,1.346,0,0,1-.327-.709,16.12,16.12,0,0,1-.359-5.5,16.654,16.654,0,0,0-1.144,3.095,5.907,5.907,0,0,0,.081,3.256.475.475,0,0,1-.668,0,1.153,1.153,0,0,1-.318-.673,8.436,8.436,0,0,1,.09-2.745,13.849,13.849,0,0,0-.919,3.162,4.692,4.692,0,0,1-1.606,2.808,14.506,14.506,0,0,1,0-4.158,12.586,12.586,0,0,1,1.108-3.337,9.867,9.867,0,0,1,2.095-3.14c1.552-1.449,2.243-.87,3.274-.372l.121.049a.408.408,0,0,1,0-.076l.04-.22a15.3,15.3,0,0,1,8.074.117,10.765,10.765,0,0,1,5.382,4.194l.063.1c2.4,4.01,4.239,9.778,2.83,19.2h0Z" transform="translate(-87.604 -145.696)" fill="#263238"/>
    <path id="Path_14291" data-name="Path 14291" d="M132.054,326.4a29.869,29.869,0,0,0-1.866,7.872,10.074,10.074,0,0,0,2.418,7.513" transform="translate(-85.147 -192.358)" fill="#e8a243"/>
    <path id="Path_14292" data-name="Path 14292" d="M132.478,341.785a.723.723,0,0,1-.13-.1,4.6,4.6,0,0,1-.323-.345,7.347,7.347,0,0,1-.978-1.453,11.114,11.114,0,0,1-1.081-5.62,22.659,22.659,0,0,1,1.166-5.629c.229-.7.426-1.26.57-1.642a3.526,3.526,0,0,1,.247-.592,4.058,4.058,0,0,1-.157.619c-.135.449-.3,1-.5,1.664a25.01,25.01,0,0,0-1.112,5.611,11.428,11.428,0,0,0,1.018,5.53A11.625,11.625,0,0,0,132.478,341.785Z" transform="translate(-85.019 -192.358)" fill="#263238"/>
    <path id="Path_14293" data-name="Path 14293" d="M193.1,329.38a1.872,1.872,0,0,1,0,.3c0,.215-.022.5-.036.843-.036.731-.1,1.794-.2,3.095-.193,2.615-.556,6.217-.9,10.2a31.6,31.6,0,0,1-.9,5.58,10.913,10.913,0,0,1-.825,2.332,6.49,6.49,0,0,1-1.346,1.7,7.016,7.016,0,0,1-2.727,1.48,6.872,6.872,0,0,1-.825.184,2.059,2.059,0,0,1-.3.031c0-.027.4-.081,1.094-.3a7.109,7.109,0,0,0,2.642-1.516,6.278,6.278,0,0,0,1.287-1.66,10.958,10.958,0,0,0,.789-2.3,33.427,33.427,0,0,0,.893-5.544c.336-3.983.727-7.58.96-10.191.117-1.283.211-2.328.278-3.086.031-.345.058-.623.076-.843A1.463,1.463,0,0,1,193.1,329.38Z" transform="translate(-115.411 -194.001)" fill="#263238"/>
  </g>
</svg>
