<svg xmlns="http://www.w3.org/2000/svg" width="19.5" height="21.5" viewBox="0 0 19.5 21.5">
  <g id="running-round-" transform="translate(-2.25 -1.25)">
    <circle id="Ellipse_43" data-name="Ellipse 43" cx="2.5" cy="2.5" r="2.5" transform="translate(16 2)" fill="none" stroke="#35a3e5" stroke-width="1.5"/>
    <path id="Path_11680" data-name="Path 11680" d="M14.4,22v-.805c0-.078,0-.117,0-.154a7,7,0,0,0-2.714-5.461l-.122-.093-.076-.058a2,2,0,0,1-.135-3.022l.07-.064,1.04-.946A2.962,2.962,0,0,0,9.275,6.5l-.522.23M5.439,8.611,4,9.636" fill="none" stroke="#35a3e5" stroke-linecap="round" stroke-width="1.5"/>
    <path id="Path_11681" data-name="Path 11681" d="M9,17l-.259.311A7.473,7.473,0,0,1,3,20" fill="none" stroke="#35a3e5" stroke-linecap="round" stroke-width="1.5"/>
    <path id="Path_11682" data-name="Path 11682" d="M16,12a8.246,8.246,0,0,0,4,0" fill="none" stroke="#35a3e5" stroke-linecap="round" stroke-width="1.5"/>
  </g>
</svg>
