<svg xmlns="http://www.w3.org/2000/svg" width="18.851" height="20.784" viewBox="0 0 18.851 20.784">
  <g id="shield-user-svgrepo-com" transform="translate(-2.25 -1.25)">
    <path id="Path_11970" data-name="Path 11970" d="M9.25,8.908a2.658,2.658,0,1,1,2.658,2.658A2.658,2.658,0,0,1,9.25,8.908ZM11.908,7.7a1.208,1.208,0,1,0,1.208,1.208A1.208,1.208,0,0,0,11.908,7.7Z" transform="translate(-0.233 -0.166)" fill="#b2b2b2" fill-rule="evenodd"/>
    <path id="Path_11971" data-name="Path 11971" d="M11.842,12.25a6.986,6.986,0,0,0-3.059.643A2.4,2.4,0,0,0,7.25,14.908v.06a2.1,2.1,0,0,0,.783,1.894,3.5,3.5,0,0,0,1.445.541,13.71,13.71,0,0,0,2.364.163,13.71,13.71,0,0,0,2.364-.163,3.5,3.5,0,0,0,1.445-.541,2.1,2.1,0,0,0,.783-1.894v-.06A2.4,2.4,0,0,0,14.9,12.893,6.985,6.985,0,0,0,11.842,12.25ZM8.7,14.908c0-.111.109-.407.732-.719a5.557,5.557,0,0,1,2.41-.49,5.557,5.557,0,0,1,2.41.49c.623.311.732.607.732.719,0,.584-.037.674-.183.78a2.133,2.133,0,0,1-.851.288,12.338,12.338,0,0,1-2.107.14,12.338,12.338,0,0,1-2.107-.14,2.133,2.133,0,0,1-.851-.288C8.737,15.582,8.7,15.493,8.7,14.908Z" transform="translate(-0.166 -0.366)" fill="#b2b2b2" fill-rule="evenodd"/>
    <path id="Path_11972" data-name="Path 11972" d="M8.508,2.024a10.062,10.062,0,0,1,3.168-.774,10.062,10.062,0,0,1,3.168.774l.7.241c1.432.49,2.537.868,3.328,1.19a8.27,8.27,0,0,1,1.017.479,2.2,2.2,0,0,1,.713.6,2.251,2.251,0,0,1,.329.87,8.556,8.556,0,0,1,.12,1.122c.047.858.047,2.032.047,3.556v1.548c0,5.9-4.455,8.726-7.1,9.883l-.026.011a6.39,6.39,0,0,1-.992.369,5.112,5.112,0,0,1-1.3.137,5.112,5.112,0,0,1-1.3-.137,6.39,6.39,0,0,1-.992-.369l-.026-.011c-2.649-1.157-7.1-3.985-7.1-9.883V10.086c0-1.524,0-2.7.047-3.556a8.559,8.559,0,0,1,.12-1.122,2.251,2.251,0,0,1,.329-.87,2.2,2.2,0,0,1,.713-.6,8.266,8.266,0,0,1,1.017-.479c.791-.321,1.9-.7,3.328-1.19Zm3.168.676a9.4,9.4,0,0,0-2.822.739l-.554.19c-1.462.5-2.529.866-3.277,1.17a6.9,6.9,0,0,0-.835.389,1.594,1.594,0,0,0-.2.135.373.373,0,0,0-.053.049.4.4,0,0,0-.031.071,1.678,1.678,0,0,0-.062.24,7.191,7.191,0,0,0-.1.926c-.044.813-.045,1.948-.045,3.5v1.522c0,5,3.741,7.465,6.234,8.554a5.237,5.237,0,0,0,.8.3,3.7,3.7,0,0,0,.944.092,3.7,3.7,0,0,0,.944-.092,5.237,5.237,0,0,0,.8-.3c2.493-1.089,6.234-3.551,6.234-8.554V10.112c0-1.555,0-2.69-.045-3.5a7.176,7.176,0,0,0-.1-.926,1.68,1.68,0,0,0-.062-.24.394.394,0,0,0-.031-.071.372.372,0,0,0-.053-.049,1.586,1.586,0,0,0-.2-.135,6.9,6.9,0,0,0-.835-.389c-.749-.3-1.815-.669-3.277-1.17l-.554-.19A9.4,9.4,0,0,0,11.675,2.7Z" fill="#b2b2b2" fill-rule="evenodd"/>
  </g>
</svg>
