<svg xmlns="http://www.w3.org/2000/svg" width="19.005" height="18.968" viewBox="0 0 19.005 18.968">
  <path id="star-svgrepo-com" d="M8.285,4.995C9.4,3,9.954,2,10.786,2s1.388,1,2.5,2.995l.288.517A3.223,3.223,0,0,0,14.3,6.549a3,3,0,0,0,1.168.4l.559.127c2.161.489,3.242.733,3.5,1.56s-.48,1.688-1.953,3.411l-.381.446a3.234,3.234,0,0,0-.722,1.037,3.375,3.375,0,0,0,0,1.283l.058.595c.223,2.3.334,3.448-.339,3.959s-1.685.045-3.708-.887l-.523-.241a3,3,0,0,0-1.167-.4,3,3,0,0,0-1.167.4l-.523.241c-2.023.932-3.035,1.4-3.708.887S4.826,17.7,5.048,15.4l.058-.595a3.373,3.373,0,0,0,0-1.283,3.233,3.233,0,0,0-.722-1.037L4,12.042C2.53,10.32,1.793,9.458,2.05,8.632s1.338-1.071,3.5-1.56l.559-.127a3,3,0,0,0,1.168-.4A3.224,3.224,0,0,0,8,5.511Z" transform="translate(-1.284 -1.25)" fill="none" stroke="#b2b2b2" stroke-width="1.5"/>
</svg>
