<svg xmlns="http://www.w3.org/2000/svg" width="58.121" height="82.357" viewBox="0 0 58.121 82.357">
  <g id="upper_body" data-name="upper body" transform="translate(-72.303 -68.997)">
    <g id="Group_3878" data-name="Group 3878" transform="translate(100.463 92.064)">
      <path id="Path_13518" data-name="Path 13518" d="M.246.557A.125.125,0,0,1,.219.564.112.112,0,0,1,.154.554.125.125,0,0,1,.09.481.456.456,0,0,1,.074.3.645.645,0,0,1,.106.112.151.151,0,0,1,.159.036.07.07,0,0,1,.207.024.065.065,0,0,1,.228.03a.07.07,0,0,1,.021,0A.106.106,0,0,1,.294.057a.181.181,0,0,1,.043.08A.481.481,0,0,1,.354.292a.645.645,0,0,1-.02.154A.219.219,0,0,1,.3.525.09.09,0,0,1,.262.553a.043.043,0,0,1-.016,0Z" transform="translate(0.082 0.53)" fill="#3b2645"/>
      <path id="Path_13519" data-name="Path 13519" d="M.246.557A.123.123,0,0,1,.219.563.114.114,0,0,1,.155.552.129.129,0,0,1,.093.479.452.452,0,0,1,.075.3.632.632,0,0,1,.107.114.154.154,0,0,1,.159.038.072.072,0,0,1,.207.025.065.065,0,0,1,.228.03a.07.07,0,0,1,.021,0A.106.106,0,0,1,.294.06.181.181,0,0,1,.337.138.481.481,0,0,1,.354.291.645.645,0,0,1,.335.446.219.219,0,0,1,.3.525.089.089,0,0,1,.263.553.043.043,0,0,1,.246.557Z" transform="translate(2.045 0.468)" fill="#3b2645"/>
      <path id="Path_13520" data-name="Path 13520" d="M.524,1.711a.415.415,0,0,0-.092,0c-.035,0-.074.006-.11.006A.3.3,0,0,1,.22,1.7a.1.1,0,0,1-.065-.057q0-.088.013-.176T.193,1.3q.015-.086.036-.172T.276.955C.291.875.307.8.323.73S.356.591.371.519.4.373.413.294.435.129.44.033h0L.425.03H.406Q.341.235.284.443t-.1.418q-.048.21-.087.421t-.07.425a.043.043,0,0,0,0,.023.044.044,0,0,0,0,.011l.006.01.007,0,.01.005H.178l.106.006.106.006H.5a.049.049,0,0,0,.037,0,.034.034,0,0,0-.015-.065Z" transform="translate(0.721 0.249)" fill="#a4644e"/>
      <path id="Path_13521" data-name="Path 13521" d="M.512.126A.485.485,0,0,0,.391.09.572.572,0,0,0,.248.085.4.4,0,0,0,.116.118.235.235,0,0,0,.018.2a.039.039,0,0,0,0,.044L.024.251l.01.006H.057a.123.123,0,0,0,.048,0A.323.323,0,0,0,.155.242L.2.223A.23.23,0,0,1,.254.21.548.548,0,0,1,.47.248.065.065,0,1,0,.512.126Z" transform="translate(-0.01 -0.07)" fill="#3b2645"/>
      <path id="Path_13522" data-name="Path 13522" d="M.6.23a.4.4,0,0,0-.121-.1A.409.409,0,0,0,.088.116.4.4,0,0,0,.02.159a.059.059,0,0,1,0,.025.109.109,0,0,0,0,.026.05.05,0,0,0,.01.023A.045.045,0,0,0,.05.249H.179l.065,0L.315.24l.055,0L.424.253.478.264.531.279H.554l.011,0L.574.269.583.261A.054.054,0,0,0,.594.242a.053.053,0,0,0,0-.011Z" transform="translate(1.956 -0.072)" fill="#3b2645"/>
      <path id="Path_13523" data-name="Path 13523" d="M1.226.31a1.217,1.217,0,0,0-.159.065L.921.443A.964.964,0,0,1,.77.5.669.669,0,0,1,.6.518a.76.76,0,0,1-.1,0A.761.761,0,0,1,.4.509.761.761,0,0,1,.311.486.76.76,0,0,1,.221.452.147.147,0,0,1,.181.44L.156.424A.144.144,0,0,0,.129.408.137.137,0,0,0,.089.4H.065L.058.406A.033.033,0,0,0,.05.437.194.194,0,0,0,.119.566.392.392,0,0,0,.261.64a.924.924,0,0,0,.17.035c.056.006.108.008.15.01A.82.82,0,0,0,.775.675.815.815,0,0,0,.962.619a.807.807,0,0,0,.167-.1A.8.8,0,0,0,1.268.387.039.039,0,0,0,1.284.36.041.041,0,0,0,1.276.333.058.058,0,0,0,1.253.313.043.043,0,0,0,1.226.31Z" transform="translate(0.557 2.1)" fill="#a4644e"/>
    </g>
    <g id="Group_3877" data-name="Group 3877" transform="translate(72.303 72.36)">
      <path id="Path_11037" data-name="Path 11037" d="M217.146,137.09c-.761.086-1.537.144-2.312.187H170.269l-.774-.072a.675.675,0,0,1,0-1.343c.258,0,.516-.05.783-.065h44.551c.783.043,1.549.1,2.32.187a.553.553,0,0,1,0,1.106Z" transform="translate(-160.829 -59.294)" fill="#c6c6c6"/>
      <path id="Path_11038" data-name="Path 11038" d="M177.582,95.025c-1.436-.977-2.678-2.255-4.352-2.607a16,16,0,0,0-3.8.036,8.717,8.717,0,0,1-8.725-9.982c.574-3.921,3.785-7.358,3.292-11.294-.33-2.578-2.154-4.647-3.59-6.8-2.32-3.461-3.712-8.014-1.936-11.784,1.917-4.079,6.786-5.838,9.644-9.335,2-2.456,2.93-5.666,5.026-8.078a16.766,16.766,0,0,1,8.007-4.668,23.255,23.255,0,0,1,12.286-.718,18.326,18.326,0,0,1,11.148,8.615,21.112,21.112,0,0,1,2.355,14.053c-.445,2.52-1.307,5.134-.516,7.569s3.124,4.107,5.026,5.91a13.859,13.859,0,0,1,3.957,6,7.9,7.9,0,0,1-1.027,6.93c-.862,1.142-2.09,1.961-2.98,3.081-2.715,3.4-1.666,8.43-3.21,12.495a10.53,10.53,0,0,1-12.854,5.967c-2.154-.769-4.021-2.248-6.067-3.317C185.416,95.1,181.116,97.5,177.582,95.025Z" transform="translate(-157.665 -29.263)" fill="#35a3e5" opacity="0.05"/>
    </g>
    <path id="Path_11072" data-name="Path 11072" d="M12.868.057c-2.154-.129-4.273,0-6.406,0a55.934,55.934,0,0,0-6.4.1.065.065,0,1,0,0,.129,57.621,57.621,0,0,0,6.4.1c2.154,0,4.309.094,6.406,0a.165.165,0,0,0,0-.33Z" transform="translate(73.233 83.04) rotate(35.025)" fill="#35a3e5"/>
    <path id="Path_11073" data-name="Path 11073" d="M6.856.137A32.882,32.882,0,0,0,.027.223c-.036,0-.036.065,0,.072A33.384,33.384,0,0,0,6.856.374a.122.122,0,0,0,0-.237Z" transform="translate(79.066 88.946) rotate(35.025)" fill="#35a3e5"/>
    <path id="Path_11074" data-name="Path 11074" d="M8.853.08A41.4,41.4,0,0,0,4.447.041a35.512,35.512,0,0,0-4.4.1C.019.138,0,.174,0,.217S.019.295.043.295a35.529,35.529,0,0,0,4.4.1A41.414,41.414,0,0,0,8.853.36.15.15,0,0,0,8.917.22.15.15,0,0,0,8.853.08Z" transform="translate(110.98 76.302) rotate(-54.975)" fill="#35a3e5"/>
    <g id="Group_3875" data-name="Group 3875" transform="translate(83.208 78.985)">
      <path id="Path_12932" data-name="Path 12932" d="M604.581,151.284s-.478.968-.323,1.3.344,0,.344,0-.194.332.055.516.452-.221.452-.221a.31.31,0,0,0,.231.383c.313.092.408-.285.408-.285s.118.478.445.245a1.614,1.614,0,0,0,.562-1.187s-.016-.19-.323-.258a.427.427,0,0,0-.544-.408s-.309-.452-.636-.15a.374.374,0,0,0-.671.062Z" transform="translate(-572.685 -148.704)" fill="#693a2b"/>
      <path id="Path_12913" data-name="Path 12913" d="M511.561,243.59s2.279,4.8.71,5.087c-2.151.394-3.02-3.579-3.02-3.579Z" transform="translate(-490.624 -228.675)" fill="#163342"/>
      <path id="Path_12914" data-name="Path 12914" d="M528.887,185.978s1.226-.968,1.753-1.5,2.835-4.231,3.3-4.952,1-2.142,1.315-2.756,3.457-5.345,3.457-5.345l1.209.509s-2.163,5.472-2.72,6.383-1.1,2.758-1.527,3.563-2.72,4.051-3.117,4.793a13.645,13.645,0,0,0-.786,2.189S528.341,187.978,528.887,185.978Z" transform="translate(-507.54 -166.327)" fill="#8e4f3a"/>
      <path id="Path_12915" data-name="Path 12915" d="M496.05,256.4a15.385,15.385,0,0,1,.113,2.84c-.113,1.157,3.167.309,3.167.309a14.728,14.728,0,0,1,.1-3.421C499.709,255.222,496.05,256.4,496.05,256.4Z" transform="translate(-479.219 -239.208)" fill="#8e4f3a"/>
      <path id="Path_12916" data-name="Path 12916" d="M425.981,384.764s-.442,1.088-.732,1.839a34.372,34.372,0,0,0-2.059,5.945c-.381,2.158-.952,6.074-1.033,7.153a11.955,11.955,0,0,1-.924,3.6,17.926,17.926,0,0,0-1.512,5.121c-.109,1.652-.96,8.947-.96,8.947s.742.645,2.012-.243c0,0,2.086-6.9,2.6-7.912a18.735,18.735,0,0,0,1.344-4.6c.075-.959.941-2.04,1.668-4.26s3.772-8.627,4.066-9.893c0,0,.028-.564.786-.457l-.484-5.5Z" transform="translate(-412.441 -350.423)" fill="#35a3e5"/>
      <path id="Path_12917" data-name="Path 12917" d="M482.033,384.3s.473,1.175.762,1.923a34.206,34.206,0,0,1,2.048,5.949c.376,2.159.94,6.076,1.021,7.154a11.986,11.986,0,0,0,.917,3.6,17.751,17.751,0,0,1,1.5,5.123c.1,1.651.944,8.949.944,8.949s-.744.645-2.011-.247c0,0-2.074-6.906-2.582-7.916a18.953,18.953,0,0,1-1.334-4.6c-.072-.958-.937-2.04-1.662-4.265s-3.808-8.659-4.216-9.967a.481.481,0,0,0-.661-.382l-4.281-5.7Z" transform="translate(-458.847 -349.921)" fill="#35a3e5"/>
      <path id="Path_12918" data-name="Path 12918" d="M396.167,620.01a.681.681,0,0,1-.5.189c-.3-.021-1.2-.343-1.584-.163s-.5,1.92-1.235,2.388-2.943,1.915-2.758,3.033,3.239.658,3.983-.323,1.458-.556,2.057-1.243S396.105,620.664,396.167,620.01Z" transform="translate(-387.66 -553.881)"/>
      <path id="Path_12919" data-name="Path 12919" d="M578.156,621.012a.709.709,0,0,0,.5.178c.3-.017,1.205-.34,1.584-.159s.5,1.921,1.226,2.388,2.938,1.916,2.753,3.039-3.241.651-3.983-.328-1.457-.559-2.055-1.247S578.217,621.666,578.156,621.012Z" transform="translate(-549.958 -554.741)"/>
      <path id="Path_12920" data-name="Path 12920" d="M486.09,226.636s-.3-.359-.408,0a4.767,4.767,0,0,0,.294,1.594s.181.6.254.526a19.193,19.193,0,0,0-.14-2.119Z" transform="translate(-470.245 -213.888)" fill="#8e4f3a"/>
      <path id="Path_12921" data-name="Path 12921" d="M526.271,226.982s.3-.36.408,0a4.762,4.762,0,0,1-.294,1.593s-.181.6-.254.526a19.194,19.194,0,0,1,.14-2.12Z" transform="translate(-505.197 -214.187)" fill="#8e4f3a"/>
      <path id="Path_12922" data-name="Path 12922" d="M490.666,202.187s2.747.424,2.346,4.751-2.828,3.985-2.992,3.981-2.433.09-2.63-5.192C487.393,205.728,487.3,201.823,490.666,202.187Z" transform="translate(-471.737 -192.881)" fill="#8e4f3a"/>
      <path id="Path_12923" data-name="Path 12923" d="M487.639,204.911s3.049.907,4.509.618c0,0,.092.544.3.571s.317-1.033.317-1.033.072-3.519-3.112-3.554-2.538,3.808-2.538,3.808l.043.657S487.617,206.167,487.639,204.911Z" transform="translate(-471.456 -192.323)" fill="#163342"/>
      <path id="Path_12924" data-name="Path 12924" d="M498.8,263.52a2.054,2.054,0,0,0,2.448.075,1.542,1.542,0,0,1-1.268.71A1.41,1.41,0,0,1,498.8,263.52Z" transform="translate(-481.595 -245.895)" fill="#633029"/>
      <path id="Path_12925" data-name="Path 12925" d="M469.09,274.79a8,8,0,0,0,1.291.492,16.122,16.122,0,0,1,2.991,2.332,17.783,17.783,0,0,1-.849,2.758,48.936,48.936,0,0,0-1.247,6c.1.34,1.051,3.743,1.1,4.022-6.6,1.3-10.041.186-10.041.186a26.3,26.3,0,0,0,1.075-3.931,30.456,30.456,0,0,0-1.1-5.26c-.445-1.018-1.19-3.579-1.19-3.579s2.884-2.248,2.969-2.4,1.53-.424,1.926-.62Z" transform="translate(-449.032 -255.632)" fill="#8e4f3a"/>
      <path id="Path_12926" data-name="Path 12926" d="M413.193,186.006a22.545,22.545,0,0,1-1.91-1.521c-.523-.523-2.834-4.234-3.3-4.955s-1-2.142-1.315-2.756-3.457-5.345-3.457-5.345l-1.211.509s2.163,5.472,2.72,6.383,1.1,2.758,1.527,3.563,2.72,4.051,3.118,4.793a13.516,13.516,0,0,1,.786,2.189S413.739,188.007,413.193,186.006Z" transform="translate(-397.959 -166.327)" fill="#8e4f3a"/>
      <path id="Path_12927" data-name="Path 12927" d="M477.557,276.613s1.393,4.287,1.872,6.12c0,0-.733,3.279-.816,3.768a22.727,22.727,0,0,0-8.222.136s-.888-3.854-.974-4.072a21.083,21.083,0,0,0,2.029-5.931,1.872,1.872,0,0,1,.926-.265s-.387,4.287,2.43,4.244,1.954-4.284,1.954-4.284a5.138,5.138,0,0,1,.8.283Z" transform="translate(-456.209 -256.962)" fill="#35a3e5"/>
      <path id="Path_12928" data-name="Path 12928" d="M393.155,153.273a2.1,2.1,0,0,1-.317-.738c-.015-.234.014-.572.008-.786a8.085,8.085,0,0,0-.217-1.335,5.891,5.891,0,0,1-.516-.7c-.053-.182-.113-.567-.272-.512s-.2.408-.2.408a.234.234,0,0,0-.209-.157.408.408,0,0,0-.377.177s-.168-.129-.291-.091a.516.516,0,0,0-.344.241.481.481,0,0,0-.323.052.435.435,0,0,0-.217.359s-.3.085-.323.258a1.5,1.5,0,0,0,.083.452,5.005,5.005,0,0,0,1.234,1.852,4.945,4.945,0,0,1,1.009,1.5Z" transform="translate(-387.21 -147.114)" fill="#8e4f3a"/>
      <rect id="Rectangle_17543" data-name="Rectangle 17543" width="4.539" height="0.834" transform="matrix(0.905, -0.425, 0.425, 0.905, 1.619, 4.176)" fill="#b85858"/>
      <path id="Path_12929" data-name="Path 12929" d="M391.766,151.283s.476.968.323,1.3-.345,0-.345,0,.194.332-.055.516-.452-.221-.452-.221a.311.311,0,0,1-.232.383c-.312.092-.408-.285-.408-.285s-.117.478-.443.245a1.613,1.613,0,0,1-.561-1.187s.016-.19.323-.258a.431.431,0,0,1,.544-.408s.307-.452.635-.15a.375.375,0,0,1,.673.062Z" transform="translate(-387.237 -148.703)" fill="#693a2b"/>
      <path id="Path_12930" data-name="Path 12930" d="M403.925,134.094l.3-.145a.482.482,0,0,1,.642.221l2.007,4.136a.481.481,0,0,1-.221.645l-.3.145a.48.48,0,0,1-.642-.221l-2.012-4.136a.481.481,0,0,1,.227-.645Z" transform="translate(-399.385 -133.899)" fill="#eb7171"/>
      <rect id="Rectangle_17544" data-name="Rectangle 17544" width="1.296" height="5.558" rx="0.648" transform="translate(3.592 6.763) rotate(154.12)" fill="#eb7171"/>
      <path id="Path_12931" data-name="Path 12931" d="M596.38,153.273a2.1,2.1,0,0,0,.317-.738c.015-.234-.015-.572-.008-.786a8.223,8.223,0,0,1,.218-1.335,5.923,5.923,0,0,0,.512-.7c.052-.182.114-.567.272-.512s.2.408.2.408a.237.237,0,0,1,.211-.157.4.4,0,0,1,.376.177s.168-.129.291-.091a.523.523,0,0,1,.345.241.482.482,0,0,1,.323.052.435.435,0,0,1,.217.359s.3.085.323.258a1.461,1.461,0,0,1-.085.452,5.033,5.033,0,0,1-1.234,1.854,4.965,4.965,0,0,0-1.011,1.5Z" transform="translate(-565.905 -147.114)" fill="#8e4f3a"/>
      <rect id="Rectangle_17545" data-name="Rectangle 17545" width="0.834" height="4.539" transform="matrix(0.425, -0.905, 0.905, 0.425, 30.338, 2.993)" fill="#b85858"/>
      <path id="Path_12933" data-name="Path 12933" d="M587.648,134.093l-.3-.145a.483.483,0,0,0-.645.221l-2.012,4.136a.481.481,0,0,0,.223.645l.3.145a.482.482,0,0,0,.645-.221l2.007-4.136a.481.481,0,0,0-.218-.645Z" transform="translate(-555.764 -133.899)" fill="#eb7171"/>
      <path id="Path_12934" data-name="Path 12934" d="M617.749,148.074l-.523-.253a.358.358,0,0,0-.478.165l-2.114,4.358a.357.357,0,0,0,.166.478l.523.253a.357.357,0,0,0,.478-.165l2.114-4.352a.359.359,0,0,0-.166-.484Z" transform="translate(-581.645 -145.898)" fill="#eb7171"/>
    </g>
  </g>
</svg>
